<?xml version="1.0" encoding="utf-8"?>
<!-- Generator: Adobe Illustrator 19.1.0, SVG Export Plug-In . SVG Version: 6.00 Build 0)  -->
<svg version="1.1" id="Ebene_1" xmlns="http://www.w3.org/2000/svg" xmlns:xlink="http://www.w3.org/1999/xlink" x="0px" y="0px"
	 viewBox="0 0 356.5 312" style="enable-background:new 0 0 356.5 312;" xml:space="preserve">
<style type="text/css">
	.st0{fill:#FFFFFF;}
	.st1{fill:#575756;}
	.st2{fill-rule:evenodd;clip-rule:evenodd;fill:#575756;}
</style>
<g>
	<path class="st0" d="M34.3,103.3h-9.9V59.9h9.9v17.3h14V59.9h9.9v43.4h-9.9V85.9h-14V103.3z"/>
	<path class="st0" d="M116.9,68.6H102v8.6h14.3v8.7H102v8.7h14.9v8.7H92.1V59.9h24.8V68.6z"/>
	<path class="st0" d="M190,103.3h-10.6l-3.2-8.7h-16.5l-3.2,8.7h-10.6l17.5-43.4h9.2L190,103.3z M168,73.3h-0.1L163,85.9h9.8
		L168,73.3z"/>
	<path class="st0" d="M234.8,59.9c8,0,14.2,4.4,14.2,12.9c0,6.5-3.6,10.9-8.9,12.6l14.9,17.9h-12.6l-13.3-17.1v17.1h-9.9V59.9H234.8
		z M230.3,79.1c3.7,0,8.2-0.3,8.2-5.7c0-5.4-4.5-5.7-8.2-5.7h-1.2v11.4H230.3z"/>
	<path class="st0" d="M279.7,59.9h30.5v8.7h-10.3v34.7H290V68.6h-10.3V59.9z"/>
	<path class="st0" d="M48.9,147.5H33.7v8.6h14v8.7h-14v17.4h-9.9v-43.4h25.1V147.5z"/>
	<path class="st0" d="M84.1,138c12,0,21.8,9.8,21.8,22.5c0,12.7-9.4,22.5-21.8,22.5c-12.8,0-21.9-9.8-21.9-22.5
		C62.2,147.8,72.2,138,84.1,138z M84.1,173.4c7.9,0,11.2-6.5,11.2-12.9c0-6.5-3.5-12.9-11.2-12.9c-7.6,0-11.2,6.5-11.2,12.9
		C72.9,166.9,76,173.4,84.1,173.4z"/>
	<path class="st0" d="M136.4,138.8c8,0,14.1,4.4,14.1,12.9c0,6.5-3.6,10.9-8.9,12.6l14.9,17.9H144L130.7,165v17.1h-9.9v-43.4H136.4z
		 M131.9,158c3.7,0,8.2-0.3,8.2-5.7c0-5.4-4.5-5.7-8.2-5.7h-1.2V158H131.9z"/>
	<path class="st0" d="M188.6,138.8h30.5v8.7h-10.3v34.7h-9.9v-34.7h-10.3V138.8z"/>
	<path class="st0" d="M243.1,182.2h-9.9v-43.4h9.9v17.3h14v-17.3h9.9v43.4h-9.9v-17.4h-14V182.2z"/>
	<path class="st0" d="M308.7,147.5h-14.9v8.6H308v8.7h-14.3v8.7h14.9v8.7h-24.8v-43.4h24.8V147.5z"/>
	<path class="st0" d="M33.4,261.1h-9.9v-43.4h9.9V235h14v-17.3h9.9v43.4h-9.9v-17.4h-14V261.1z"/>
	<path class="st0" d="M108.8,216.9c12,0,21.8,9.8,21.8,22.5c0,12.7-9.4,22.5-21.8,22.5c-12.8,0-21.9-9.8-21.9-22.5
		C86.9,226.7,96.8,216.9,108.8,216.9z M108.8,252.3c7.9,0,11.2-6.5,11.2-12.9c0-6.5-3.5-12.9-11.2-12.9c-7.6,0-11.2,6.5-11.2,12.9
		C97.6,245.8,100.7,252.3,108.8,252.3z"/>
	<path class="st0" d="M193.6,245.7c0,10.7-5.9,16.2-16.9,16.2c-11,0-16.9-5.5-16.9-16.2v-28h9.9v25.1c0,7.3,2.2,9.4,7,9.4
		c4.8,0,7-2.1,7-9.4v-25.1h9.9V245.7z"/>
	<path class="st0" d="M253,221l-4,7.9c0,0-4.3-3-8.8-3c-3.4,0-5.2,1.5-5.2,3.9c0,2.4,4.1,4.2,9,6.3c4.8,2.1,10.2,6.2,10.2,11.8
		c0,10.4-7.9,14-16.4,14c-10.2,0-16.3-5.7-16.3-5.7l4.9-8.3c0,0,5.8,4.9,10.6,4.9c2.2,0,6.3-0.2,6.3-4.3c0-3.2-4.6-4.6-9.8-7.2
		c-5.2-2.6-8.3-6.6-8.3-11.2c0-8.1,7.2-13.3,14.2-13.3C247.4,216.9,253,221,253,221z"/>
	<path class="st0" d="M309,226.4H294v8.6h14.3v8.7H294v8.7H309v8.7h-24.8v-43.4H309V226.4z"/>
</g>
<g>
	<g>
		<path class="st1" d="M168.6,168.2c-3.1-3.8-7.3-6.6-12.3-7c-6.4-0.5-9.6,6-9.7,11.4c-0.2,6.3,4.7,11.4,9.3,14.8
			c6.3,4.6,11.8,10.7,19.7,12.5c2.2,0.5,1.1-2.8-0.4-3.1c-5.2-1.2-9.4-4.5-13.5-7.8c-3.9-3.2-8.4-5.9-11-10.3
			c-2.9-5-0.7-12.6,5-14.1c4.1-1.1,8.5,2.2,11,5.2C168.2,171.5,170.1,170,168.6,168.2L168.6,168.2z"/>
	</g>
</g>
<g>
	<g>
		<path class="st1" d="M168.4,170.4c2.6-3.1,5.2-6.2,8.5-8.6c5.4-4,7.1,4,7.8,8.1c1.8,10.5-5.1,19.3-11.1,27.1
			c-0.3,0.4,2.9,2.1,3.5,1.2c7.8-10.2,17-24.5,7.3-36.9c-6.4-8.2-15.7,3.2-19.6,7.8C164.5,169.6,167.7,171.3,168.4,170.4
			L168.4,170.4z"/>
	</g>
</g>
<g>
	<path class="st0" d="M71.6,282.9C71.6,283,71.6,283,71.6,282.9c0,0.1,0,0.1,0,0.2c1.5-0.8,3.1-1.4,4.8-2c1.7-0.5,3.3-1,4.9-1.5
		c0.5,0,0.9,0.2,1,0.6c0.1,0.4,0,0.8-0.5,1c-1.1,0.5-2.2,1-3.3,1.5c-1.1,0.5-2.2,1-3.3,1.6c0.4,0.6,0.6,1.2,0.5,1.9
		c0,0.7-0.1,1.4-0.3,2.1c-0.2,0.6-0.4,1.1-0.7,1.8c-0.3,0.6-0.6,1.2-1.1,1.8c-0.4,0.6-0.9,1.1-1.4,1.6c-0.5,0.5-1,0.8-1.6,1
		c-0.3,0.2-0.7,0.2-1.1,0.3c-0.4,0-0.8,0.1-1.2,0.1c-0.3,0-0.6-0.1-0.7-0.2c-0.2-0.1-0.4-0.2-0.6-0.5c-0.2-0.3-0.3-0.5-0.5-0.7
		c-0.2-0.2-0.4-0.5-0.5-0.8c-0.3-0.7-0.3-1.6-0.2-2.6c0.2-1,0.4-2,0.8-3c0.4-1,0.8-2,1.4-2.9c0.5-0.9,1-1.6,1.5-2.2
		c0.6-0.5,1.1-0.5,1.5,0.2L71.6,282.9z M71.2,286.2c-0.6-0.3-1-0.7-1.1-1.2c-0.5,1-0.8,2.1-0.9,3.3c-0.2,1.2-0.2,2.3-0.1,3.4
		c0.4-0.1,0.7-0.3,1.1-0.6c0.3-0.3,0.7-0.7,0.9-1.1c0.3-0.4,0.5-0.8,0.7-1.3c0.2-0.4,0.4-0.8,0.5-1.1c0.2-0.4,0.3-0.8,0.3-1.2l0-0.1
		c-0.2-0.1-0.5-0.1-0.7,0C71.7,286.3,71.4,286.3,71.2,286.2z"/>
	<path class="st0" d="M81.4,279.4c0.1-0.3,0.3-0.4,0.5-0.5c0.2-0.1,0.4-0.1,0.6,0c0.2,0.1,0.3,0.2,0.4,0.4c0.1,0.2,0.1,0.5,0,0.8
		c-0.3,0.9-0.5,1.9-0.7,3c-0.2,1.1-0.4,2.3-0.5,3.5c-0.1,1.2-0.2,2.4-0.1,3.5c0,1.2,0.2,2.2,0.5,3.1c0.1-0.1,0.3-0.2,0.4-0.3
		c0.1-0.1,0.3-0.2,0.4-0.3l0,0c0.3-0.5,0.7-1,1.2-1.5c0.5-0.5,0.9-1,1.2-1.5c0.6-0.9,1.2-1.9,1.6-3c0.4-1,0.9-2.1,1.3-3.1
		c0.2-0.4,0.5-0.7,0.8-0.8c0.3-0.2,0.6-0.2,0.9-0.1c0.3,0.1,0.6,0.3,0.8,0.6c0.2,0.3,0.3,0.7,0.3,1.1c0,0.5-0.1,1-0.2,1.7
		c-0.1,0.7-0.1,1.4-0.1,2.2c0,0.8,0,1.5,0.1,2.3c0.1,0.8,0.3,1.5,0.6,2.1c0.1,0.2,0.2,0.2,0.4,0.2c0.2,0,0.4-0.1,0.6-0.3
		c0.2-0.1,0.5-0.3,0.7-0.4c0.2-0.1,0.4-0.2,0.6-0.1c0.2,0.2,0.4,0.3,0.4,0.5c0,0.2,0,0.3-0.1,0.5c-0.1,0.2-0.2,0.3-0.4,0.5
		c-0.2,0.2-0.3,0.3-0.5,0.4c-0.9,0.7-1.6,0.9-2.2,0.8c-0.6-0.1-1.1-0.5-1.4-0.9c-0.4-0.5-0.6-1.1-0.8-1.7c-0.2-0.6-0.3-1.1-0.4-1.4
		c-0.3,0.5-0.6,1.1-1,1.6c-0.6,0.9-1.3,1.7-2.2,2.5s-1.7,1.2-2.5,1.5c-0.8,0.2-1.6,0.1-2.3-0.4c-0.7-0.5-1.3-1.5-1.6-3.1
		c-0.2-0.7-0.2-1.7-0.1-3c0.1-1.3,0.3-2.6,0.6-4c0.3-1.4,0.6-2.7,1-3.9C80.7,280.9,81.1,280,81.4,279.4z"/>
	<path class="st0" d="M95.7,291.2c-0.3,0.1-0.5,0-0.7-0.1c-0.2-0.1-0.3-0.2-0.4-0.4c-0.1-0.2-0.1-0.4-0.1-0.6c0-0.2,0.2-0.4,0.3-0.6
		c0.3-0.6,0.7-1.4,1.1-2.4c0.5-1.1,0.9-2.2,1.4-3.3c0.5-1.2,0.9-2.2,1.4-3.3c0.5-1,0.8-1.8,1.1-2.2c0.6-0.5,1.3-0.6,2.1-0.2
		c0.8,1,1.4,1.8,2,2.5c0.5,0.7,1,1.4,1.3,2c0.3,0.6,0.6,1.2,0.7,1.8c0.1,0.6,0.2,1.2,0.2,1.9c0,0.7-0.1,1.5-0.2,2.4s-0.3,2-0.5,3.3
		c0.8-0.2,1.6-0.5,2.4-0.8c0.8-0.3,1.6-0.7,2.4-1c0.3-0.1,0.5-0.1,0.8,0c0.2,0.1,0.4,0.2,0.5,0.4c0.1,0.2,0.1,0.4,0.1,0.6
		c0,0.2-0.2,0.4-0.5,0.6c-1,0.6-2,1.2-3,1.8c-1,0.6-2.1,1.1-3.1,1.5c-0.4,0.1-0.7,0.1-0.9,0c-0.2-0.1-0.5-0.2-0.8-0.5
		c-0.4-0.4-0.7-0.8-0.8-1.3c-0.1-0.5-0.1-0.9-0.1-1.4c0-0.5,0.1-1,0.3-1.5c0.1-0.5,0.2-1,0.2-1.5c0.1-0.8,0.1-1.4,0.1-2.1
		c0-0.6-0.1-1.2-0.2-1.8c-0.1-0.6-0.3-1.1-0.6-1.7c-0.3-0.6-0.6-1.1-1-1.8c-0.2,0.3-0.6,1-1,1.9c-0.4,1-0.9,2-1.5,3.1
		c-0.5,1.1-1,2.1-1.6,3C96.5,290.5,96.1,291,95.7,291.2z"/>
	<path class="st0" d="M128.9,281.7c0.3-0.7,0.6-1.2,0.8-1.6c0.2-0.4,0.4-0.6,0.5-0.8c0.1-0.1,0.3-0.2,0.3-0.1c0.1,0,0.2,0.1,0.2,0.2
		c0.2,0.3,0.3,0.7,0.4,1.2c0,0.5,0,1-0.1,1.6c-0.1,0.6-0.2,1.2-0.3,1.8c-0.1,0.7-0.3,1.3-0.4,2c0.3-0.7,0.6-1.4,0.9-2
		c0.3-0.7,0.6-1.3,1-2c0.2-0.3,0.4-0.7,0.7-1.3c0.3-0.5,0.6-1,0.9-1.5c0.3-0.5,0.7-0.9,1.1-1.2c0.4-0.3,0.9-0.5,1.4-0.4
		c0.3,0.1,0.6,0.2,0.7,0.3c0.2,0.1,0.4,0.3,0.5,0.6c0.3,0.6,0.5,1.2,0.5,1.9c0,0.7-0.1,1.4-0.2,2.1c-0.1,0.7-0.3,1.4-0.4,2.1
		c-0.2,0.7-0.2,1.4-0.3,2l2.5-4.4c0.2-0.4,0.4-0.6,0.7-0.8c0.3-0.2,0.6-0.2,0.9-0.2c0.3,0,0.6,0.1,0.8,0.3c0.2,0.2,0.4,0.5,0.6,0.9
		c0,0.5,0,1.2-0.1,1.9c-0.1,0.8-0.1,1.5-0.1,2.3c0,0.8,0.1,1.5,0.2,2.2c0.1,0.7,0.4,1.2,0.7,1.6c0.7-0.1,1.4-0.5,2-1.1
		c0.7-0.6,1.3-1.3,1.8-2.1c0.5-0.8,1-1.7,1.4-2.5c0.4-0.9,0.7-1.6,0.9-2.2c0.2-0.5,0.6-0.6,1-0.5c0.4,0.1,0.6,0.4,0.7,0.9
		c-0.6,2-1.3,3.7-2.3,5.1c-0.9,1.5-2.2,2.9-3.7,4.3c-0.3,0.2-0.6,0.5-1.1,0.6c-0.5,0.2-1,0.2-1.6,0c-0.5-0.2-0.9-0.4-1.2-0.8
		c-0.3-0.3-0.6-0.8-0.8-1.2c-0.2-0.5-0.4-0.9-0.5-1.4c-0.1-0.5-0.2-0.9-0.2-1.3c-0.2,0.4-0.5,0.8-0.7,1.2c-0.3,0.4-0.6,0.8-0.9,1.1
		c-0.3,0.3-0.7,0.6-1.1,0.8c-0.4,0.2-0.8,0.3-1.3,0.3c-0.4,0-0.7-0.1-1-0.3c-0.3-0.2-0.5-0.4-0.7-0.8c-0.3-0.8-0.4-1.6-0.4-2.4
		c0-0.8,0-1.6,0.1-2.4c-0.7,1.4-1.4,2.7-2.1,4.1c-0.7,1.4-1.6,2.6-2.6,3.7c-0.5,0.3-0.9,0.4-1.3,0.3c-0.4-0.1-0.7-0.4-1-0.9
		c-0.2-0.7-0.2-1.6-0.1-2.6c0.1-1,0.3-2,0.5-3c0.3-1,0.5-2,0.8-3C128.5,283.3,128.7,282.5,128.9,281.7z M134.4,282.9
		C134.4,282.8,134.4,282.8,134.4,282.9c0,0.1-0.1,0.2-0.1,0.3L134.4,282.9z"/>
	<path class="st0" d="M150,280.2c0.4-0.7,0.8-1,1.2-0.9c0.3,0.1,0.5,0.4,0.5,1c-0.2,1.3-0.4,2.6-0.5,3.7c-0.2,1.2-0.3,2.2-0.3,3.1
		c-0.1,0.9-0.1,1.6,0,2.2c0.1,0.6,0.3,0.9,0.6,0.9l0,0c0.4,0.1,0.8,0.2,1.4,0.1c0.5-0.1,1.1-0.3,1.7-0.5c0.6-0.3,1.2-0.6,1.7-1
		c0.6-0.4,1.1-0.8,1.5-1.3c0.3-0.1,0.5-0.1,0.7-0.1c0.2,0.1,0.4,0.1,0.5,0.3c0.1,0.1,0.2,0.3,0.2,0.5c0,0.2-0.1,0.4-0.2,0.6
		c-2,1.7-3.7,2.9-5.1,3.5c-1.4,0.6-2.6,0.9-3.4,0.7c-0.9-0.1-1.5-0.6-1.9-1.3c-0.4-0.8-0.6-1.6-0.5-2.6c0.1-1.9,0.3-3.5,0.7-4.9
		C149,282.9,149.5,281.6,150,280.2z M153.1,270.5c0.2,0.3,0.3,0.5,0.3,0.8c0,0.3-0.1,0.5-0.2,0.7c-0.1,0.2-0.3,0.3-0.6,0.4
		c-0.2,0.1-0.5,0-0.8-0.2c-0.3-0.2-0.5-0.5-0.5-0.8c0-0.3,0-0.5,0.2-0.8c0.2-0.2,0.4-0.4,0.7-0.4
		C152.4,270.2,152.7,270.3,153.1,270.5z"/>
	<path class="st0" d="M158.7,289c-0.3,0.1-0.5,0-0.7-0.1c-0.2-0.1-0.3-0.2-0.4-0.4c-0.1-0.2-0.1-0.4-0.1-0.6c0-0.2,0.2-0.4,0.3-0.6
		c0.3-0.6,0.7-1.4,1.1-2.4c0.5-1.1,0.9-2.2,1.4-3.3c0.5-1.2,0.9-2.2,1.4-3.3c0.5-1,0.8-1.8,1.1-2.2c0.6-0.5,1.3-0.6,2.1-0.2
		c0.8,1,1.4,1.8,2,2.5c0.5,0.7,1,1.4,1.3,2c0.3,0.6,0.6,1.2,0.7,1.8c0.1,0.6,0.2,1.2,0.2,1.9c0,0.7-0.1,1.5-0.2,2.4
		c-0.1,0.9-0.3,2-0.5,3.3c0.8-0.2,1.6-0.5,2.4-0.8c0.8-0.3,1.6-0.7,2.4-1c0.3-0.1,0.5-0.1,0.8,0c0.2,0.1,0.4,0.2,0.5,0.4
		c0.1,0.2,0.1,0.4,0.1,0.6c-0.1,0.2-0.2,0.4-0.5,0.6c-1,0.6-2,1.2-3,1.8c-1,0.6-2.1,1.1-3.1,1.5c-0.4,0.1-0.7,0.1-0.9,0
		c-0.2-0.1-0.5-0.2-0.8-0.5c-0.4-0.4-0.7-0.8-0.8-1.3c-0.1-0.5-0.1-0.9-0.1-1.4c0-0.5,0.1-1,0.3-1.5c0.1-0.5,0.2-1,0.2-1.5
		c0.1-0.8,0.1-1.4,0.1-2.1c0-0.6-0.1-1.2-0.2-1.8c-0.1-0.6-0.3-1.1-0.6-1.7c-0.3-0.6-0.6-1.1-1-1.8c-0.2,0.3-0.6,1-1,1.9
		c-0.4,1-0.9,2-1.4,3.1c-0.5,1.1-1,2.1-1.6,3C159.5,288.3,159.1,288.8,158.7,289z"/>
	<path class="st0" d="M182.9,279.1c0,0.1,0,0.3-0.1,0.4c0.6-0.1,1,0,1.4,0.3c0.4,0.3,0.5,0.8,0.5,1.5c-0.1,0.5-0.3,1.2-0.5,2.1
		c-0.2,0.8-0.4,1.7-0.6,2.6c-0.2,0.9-0.3,1.7-0.4,2.5c-0.1,0.8-0.1,1.4,0.1,1.9c0.4,0,0.8-0.2,1.2-0.5c0.4-0.3,0.7-0.6,1.1-0.9
		c0.3-0.3,0.7-0.7,1-1.1c0.3-0.4,0.6-0.7,0.8-1.1c0.2-0.2,0.5-0.3,0.7-0.3c0.2,0,0.4,0.1,0.6,0.2c0.1,0.1,0.2,0.3,0.3,0.6
		c0,0.2,0,0.5-0.2,0.7c0,0-0.2,0.2-0.5,0.6c-0.3,0.4-0.6,0.8-1.1,1.3c-0.4,0.5-0.9,1-1.3,1.5c-0.5,0.5-0.9,0.8-1.3,1
		c-0.5,0.2-1.1,0.4-1.7,0.4c-0.6,0-1.1-0.3-1.5-0.9c-0.3-0.6-0.5-1.1-0.6-1.7c-0.1-0.6-0.2-1.1-0.2-1.7c-0.5,0.5-1.1,1-1.7,1.4
		c-0.6,0.4-1.3,0.8-2,1.2c-0.3,0.1-0.6,0.1-0.9,0c-0.3-0.1-0.7-0.2-1-0.3c-0.3-0.1-0.6-0.3-0.8-0.6c-0.3-0.2-0.4-0.5-0.5-0.8
		c-0.3-0.7-0.3-1.7-0.2-2.9c0.1-1.2,0.4-2.4,0.7-3.6c0.4-1.2,0.8-2.3,1.4-3.4c0.6-1,1.2-1.7,1.8-2.1c0.4-0.2,0.7-0.5,1.1-0.7
		c0.4-0.2,0.7-0.4,1.1-0.5c0.5-0.1,0.9-0.1,1.3,0c0.4,0.1,0.8,0.3,1.1,0.6c0.3,0.3,0.5,0.6,0.7,1
		C182.9,278.2,182.9,278.6,182.9,279.1z M176.5,287.6c0.7-0.4,1.3-1,1.7-1.6c0.4-0.7,0.8-1.4,1.2-2.1c0.4-0.7,0.7-1.4,1.1-2.1
		c0.4-0.7,0.8-1.3,1.4-1.8c-0.4-0.1-0.6-0.4-0.6-0.8l-0.1-0.4l-1.2-0.3c-0.6,0.5-1.2,1-1.7,1.8c-0.5,0.7-0.8,1.5-1.1,2.3
		c-0.3,0.8-0.5,1.7-0.6,2.6C176.4,286,176.4,286.8,176.5,287.6z"/>
	<path class="st0" d="M197.1,279.2c0,0.5-0.2,0.9-0.6,1c-0.4,0.1-0.8-0.1-1.1-0.5l-0.3-2.5l-0.6,0c-0.6,0.4-1.1,1-1.7,1.8
		c-0.6,0.8-1,1.7-1.4,2.6c-0.4,0.9-0.7,1.9-0.9,2.8c-0.2,1-0.2,1.8,0,2.5c0.1,0.3,0.2,0.6,0.5,0.9c0.2,0.4,0.5,0.6,0.8,0.6
		c0.4-0.1,0.9-0.3,1.3-0.5c0.5-0.3,0.9-0.6,1.4-1c0.5-0.4,0.9-0.7,1.4-1.1c0.4-0.4,0.8-0.7,1.2-0.9c0.3-0.1,0.5-0.1,0.7-0.1
		c0.2,0.1,0.3,0.1,0.5,0.3c0.1,0.1,0.2,0.3,0.2,0.5c0,0.2-0.1,0.4-0.2,0.6c-0.4,0.4-0.8,0.8-1.2,1.3c-0.4,0.5-0.9,1-1.3,1.5
		c-0.5,0.5-0.9,0.9-1.4,1.3c-0.5,0.4-1,0.7-1.6,0.9c-0.6,0.2-1.1,0.2-1.7,0.1c-0.6-0.1-1.1-0.4-1.5-0.7c-0.5-0.3-0.9-0.7-1.2-1.2
		c-0.3-0.5-0.6-1-0.8-1.5c-0.3-0.8-0.3-1.8-0.2-3c0.1-1.2,0.4-2.4,0.8-3.6c0.4-1.2,0.9-2.4,1.6-3.4c0.7-1,1.5-1.8,2.3-2.3
		c0.7-0.4,1.4-0.6,2.1-0.7c0.7,0,1.3,0.1,1.7,0.4c0.5,0.3,0.8,0.8,1.1,1.5C197.2,277.4,197.2,278.2,197.1,279.2z"/>
	<path class="st0" d="M210.2,265.1c-0.2,1.2-0.6,2.7-1.1,4.5c-0.5,1.7-1.1,3.5-1.8,5.2c-0.7,1.8-1.5,3.4-2.4,5
		c-0.9,1.5-1.8,2.8-2.8,3.7c0,0.5,0.1,0.9,0.1,1.4c0,0.5,0.1,0.9,0.3,1.3c0.1,0.4,0.3,0.8,0.6,1.2c0.2,0.4,0.6,0.7,1,0.9
		c1.6-0.4,3-1,4.2-1.9c1.2-0.9,2.3-2,3.3-3.3c0.2-0.2,0.4-0.3,0.6-0.3c0.2,0,0.4,0,0.5,0.2c0.1,0.1,0.3,0.3,0.3,0.4
		c0.1,0.2,0.1,0.4,0,0.7c-0.5,0.7-1,1.5-1.7,2.2c-0.7,0.8-1.4,1.5-2.3,2.2c-0.8,0.7-1.7,1.2-2.6,1.6c-0.9,0.4-1.8,0.6-2.6,0.6
		c-0.8,0-1.6-0.3-2.3-0.9c-0.7-0.6-1.3-1.5-1.8-2.9c-0.4-1-0.6-2.1-0.7-3.4c-0.1-1.2-0.2-2.4-0.2-3.4c0-1,0.1-2.1,0.2-3.3
		c0.1-1.3,0.3-2.6,0.5-3.9c0.2-1.4,0.6-2.7,1-4.1c0.4-1.4,0.9-2.7,1.4-4c0.6-1.3,1.2-2.4,1.9-3.4c0.7-1,1.6-1.8,2.5-2.4
		c0.7-0.5,1.4-0.6,2-0.3c0.6,0.2,1.1,0.5,1.4,1c0.3,0.5,0.5,1.1,0.5,1.8c0.1,0.7,0.1,1.3,0,2C210.3,264.1,210.3,264.6,210.2,265.1z
		 M204.2,268.8c-0.8,1.9-1.3,3.9-1.7,5.9c-0.4,2-0.5,4-0.5,6c0.5-0.7,0.9-1.5,1.2-2.3c0.3-0.8,0.6-1.6,0.9-2.4
		c0.3-0.8,0.7-1.8,1.1-3c0.4-1.2,0.8-2.4,1.1-3.6c0.3-1.2,0.6-2.5,0.8-3.7c0.2-1.2,0.3-2.3,0.2-3.2c-0.1,0.2-0.3,0.4-0.4,0.6
		c-0.1,0.2-0.3,0.4-0.4,0.6c-0.5,0.8-1,1.6-1.3,2.5C204.9,267.1,204.6,267.9,204.2,268.8z"/>
	<path class="st0" d="M220.6,278.6c-0.3,0.8-0.7,1.5-1.1,2.3c-0.4,0.8-0.8,1.5-1.3,2.1c-0.5,0.6-1,1.2-1.6,1.7
		c-0.6,0.5-1.3,0.9-2,1.1c0,0.5,0.1,0.9,0.2,1.4c0.1,0.5,0.2,0.9,0.5,1.2c0.2,0.3,0.5,0.5,0.9,0.6c0.4,0.1,0.8-0.1,1.4-0.4
		c0.2-0.1,0.5-0.3,0.9-0.6c0.4-0.3,0.8-0.6,1.3-1c0.5-0.4,0.9-0.8,1.3-1.3c0.4-0.5,0.7-0.9,0.9-1.4c0.1-0.3,0.3-0.4,0.5-0.4
		c0.2,0,0.4,0.1,0.6,0.2c0.2,0.2,0.3,0.4,0.4,0.6c0.1,0.3,0,0.5-0.1,0.7c-0.2,0.4-0.5,0.8-0.9,1.3c-0.4,0.5-0.9,1-1.4,1.5
		c-0.5,0.5-0.9,0.9-1.4,1.3c-0.5,0.4-0.8,0.7-1.1,0.8c-0.1,0-0.2,0.1-0.3,0.2c-0.2,0.1-0.4,0.2-0.6,0.3c-0.2,0.1-0.4,0.2-0.7,0.3
		c-0.2,0.1-0.4,0.1-0.6,0.2c-0.6,0-1.2-0.1-1.7-0.3c-0.5-0.2-1-0.5-1.4-0.9c-0.4-0.4-0.7-0.9-1-1.4c-0.3-0.5-0.4-1.1-0.5-1.7
		c0-0.2-0.1-0.4-0.1-0.6c0-0.2,0-0.4,0-0.6c-0.2-0.1-0.3-0.3-0.3-0.6c0-0.2,0.1-0.5,0.2-0.6c0-0.4,0-0.9,0-1.3
		c0-0.4,0.1-0.9,0.2-1.3c0.2-0.8,0.4-1.7,0.8-2.8c0.4-1.1,0.8-2.1,1.4-3.1c0.6-1,1.3-1.8,2.1-2.5c0.8-0.7,1.7-1,2.8-0.9
		c0.7,0,1.2,0.3,1.5,0.7c0.3,0.5,0.6,1,0.7,1.6c0.1,0.6,0.1,1.2,0,1.9C220.9,277.7,220.8,278.2,220.6,278.6z M218,276.5
		c-0.3,0.3-0.7,0.7-1,1.2c-0.3,0.5-0.6,1.1-0.9,1.8c-0.3,0.6-0.5,1.3-0.7,2c-0.2,0.7-0.4,1.3-0.5,1.9c0.2-0.2,0.5-0.5,0.7-0.9
		c0.2-0.4,0.5-0.8,0.8-1.4c0.1-0.2,0.3-0.5,0.5-0.9c0.2-0.4,0.4-0.8,0.5-1.2c0.2-0.4,0.3-0.9,0.4-1.3
		C217.9,277.2,218,276.8,218,276.5z"/>
	<path class="st0" d="M245.7,276.8C245.7,276.9,245.7,276.9,245.7,276.8c0,0.1,0,0.1,0,0.2c1.5-0.8,3.1-1.4,4.8-2
		c1.7-0.5,3.3-1,4.9-1.5c0.5,0,0.9,0.2,1,0.6c0.1,0.4,0,0.8-0.5,1c-1.1,0.5-2.2,1-3.3,1.5c-1.1,0.5-2.2,1-3.3,1.6
		c0.4,0.6,0.6,1.2,0.5,1.9c0,0.7-0.1,1.4-0.3,2.1c-0.2,0.6-0.4,1.1-0.7,1.8c-0.3,0.6-0.7,1.2-1.1,1.8c-0.4,0.6-0.9,1.1-1.4,1.6
		c-0.5,0.5-1,0.8-1.6,1c-0.3,0.2-0.7,0.2-1.1,0.3c-0.4,0-0.8,0.1-1.2,0.1c-0.3,0-0.6-0.1-0.7-0.2c-0.2-0.1-0.4-0.2-0.6-0.5
		c-0.2-0.3-0.3-0.5-0.5-0.7c-0.2-0.2-0.4-0.5-0.5-0.8c-0.3-0.7-0.3-1.6-0.2-2.6c0.2-1,0.4-2,0.8-3c0.4-1,0.8-2,1.4-2.9
		c0.5-0.9,1-1.6,1.5-2.2c0.6-0.5,1.1-0.5,1.5,0.2L245.7,276.8z M245.3,280.1c-0.6-0.3-1-0.7-1.1-1.2c-0.5,1-0.8,2.1-0.9,3.3
		c-0.2,1.2-0.2,2.3-0.1,3.4c0.4-0.1,0.7-0.3,1.1-0.6c0.4-0.3,0.7-0.7,0.9-1.1c0.3-0.4,0.5-0.8,0.7-1.3c0.2-0.4,0.4-0.8,0.5-1.1
		c0.2-0.4,0.3-0.8,0.3-1.2l0-0.1c-0.2-0.1-0.5-0.1-0.7,0C245.8,280.3,245.5,280.2,245.3,280.1z"/>
	<path class="st0" d="M259.7,278.2c-0.4,0.4-0.9,0.9-1.5,1.4c-0.6,0.5-1.2,1-1.7,1.5l-0.1,1.4l0-0.6c0,0.5-0.1,1-0.1,1.4
		c0,0.4,0,0.9,0,1.4c0.6-0.3,1.2-0.6,1.8-0.8c0.6-0.2,1.1-0.3,1.6-0.2l0.4-0.3c0.6-0.5,1.2-0.9,1.8-1.4c0.6-0.5,1.2-1,1.8-1.4
		c0.6-0.5,1.2-0.9,1.9-1.2c0.7-0.4,1.4-0.6,2.2-0.7c0.3,0,0.5,0.1,0.7,0.2c0.2,0.2,0.3,0.3,0.3,0.5c0,0.2,0,0.4-0.2,0.6
		c-0.1,0.2-0.3,0.3-0.6,0.3c-0.6,0.2-1.2,0.4-1.8,0.8c-0.6,0.4-1.1,0.7-1.6,1.2c-0.5,0.4-1,0.9-1.5,1.4c-0.5,0.5-1,1-1.4,1.4
		l0.1,0.2c0.3,0.5,0.4,1.1,0.3,1.9c-0.1,0.8-0.2,1.5-0.4,2.3c-0.2,0.8-0.5,1.5-0.8,2.3c-0.3,0.7-0.6,1.3-0.8,1.8
		c-0.5,1-0.9,1.9-1.5,2.9c-0.5,0.9-1.2,1.7-2.1,2.4c-0.5,0.3-1,0.4-1.4,0.3c-0.5-0.1-0.8-0.5-1.1-1c-0.4-0.9-0.7-2-0.8-3.1
		c-0.1-1.2-0.1-2.4-0.1-3.6c-0.5,0-0.9-0.1-1.1-0.4c-0.3-0.3-0.3-0.7-0.2-1.2c0.1-0.3,0.2-0.7,0.5-1.1c0.2-0.4,0.5-0.8,0.9-1.2
		c-0.1-3.9,0-7.7,0.4-11.4c0.4-3.7,1.2-7.4,2.3-11.1c0.2-0.6,0.3-1.2,0.6-2c0.2-0.8,0.5-1.5,0.8-2.3c0.3-0.7,0.6-1.4,1-2.1
		c0.4-0.7,0.8-1.2,1.4-1.5c0.5-0.4,1.1-0.6,1.6-0.6c0.5,0,1.1,0,1.5,0.2c0.5,0.2,0.9,0.6,1.2,1c0.3,0.5,0.6,1,0.7,1.7
		c0.2,1.2,0.3,2.4,0.3,3.6c0,1.2-0.2,2.4-0.4,3.6c-0.2,1.2-0.6,2.3-1,3.5c-0.4,1.2-0.9,2.3-1.3,3.4c-0.3,0.8-0.7,1.6-1.1,2.4
		C260.9,276.8,260.4,277.6,259.7,278.2z M258,287.8c-0.3,0.2-0.5,0.4-0.8,0.7c-0.3,0.2-0.5,0.5-0.8,0.7l0.2,4.5
		c0.6-1.1,1.1-2.2,1.5-3.2c0.4-1,0.7-2.2,0.8-3.3c-0.2,0.1-0.3,0.2-0.5,0.4C258.3,287.6,258.1,287.7,258,287.8z M261.3,259.5
		c-0.2,0.2-0.4,0.4-0.5,0.6c-0.2,0.3-0.3,0.6-0.5,1c-0.2,0.4-0.3,0.7-0.4,1.1c-0.1,0.4-0.2,0.8-0.4,1.1l-0.2,0.5
		c-0.8,2.5-1.3,4.9-1.8,7.3c-0.4,2.4-0.7,4.9-0.9,7.4c0.4-0.4,0.8-0.8,1.1-1.1c0.3-0.4,0.6-0.8,0.9-1.3c0.5-0.9,1.1-2,1.6-3.2
		c0.5-1.2,0.9-2.4,1.3-3.7c0.3-1.3,0.6-2.5,0.8-3.8c0.2-1.3,0.2-2.4,0.1-3.5c0-0.3,0-0.6-0.1-0.9c-0.1-0.3-0.2-0.6-0.3-0.8
		c-0.1-0.1-0.2-0.3-0.3-0.4C261.6,259.8,261.5,259.7,261.3,259.5z M259.2,264.5l0.2-0.6l0.2-0.4c0,0.1,0,0.2-0.1,0.3
		c-0.1,0.1-0.1,0.3-0.1,0.4C259.3,264.3,259.2,264.4,259.2,264.5C259.2,264.6,259.2,264.6,259.2,264.5z"/>
	<path class="st0" d="M271.4,277.8c-0.4,0.4-0.9,0.9-1.5,1.4c-0.6,0.5-1.2,1-1.7,1.5l-0.1,1.4l0-0.6c0,0.5-0.1,1-0.1,1.4
		c0,0.5,0,0.9,0,1.4c0.6-0.3,1.2-0.6,1.8-0.8c0.6-0.2,1.1-0.3,1.6-0.2l0.4-0.3c0.6-0.5,1.2-0.9,1.8-1.4c0.6-0.5,1.2-1,1.8-1.4
		c0.6-0.5,1.2-0.9,1.9-1.2c0.7-0.4,1.4-0.6,2.2-0.7c0.3,0,0.5,0.1,0.7,0.2c0.2,0.2,0.3,0.3,0.3,0.5c0,0.2,0,0.4-0.2,0.6
		c-0.1,0.2-0.3,0.3-0.6,0.3c-0.6,0.2-1.2,0.4-1.8,0.8c-0.6,0.4-1.1,0.7-1.6,1.2c-0.5,0.4-1,0.9-1.5,1.4c-0.5,0.5-1,0.9-1.4,1.4
		l0.1,0.2c0.3,0.5,0.4,1.1,0.3,1.9c-0.1,0.8-0.2,1.5-0.4,2.3c-0.2,0.8-0.5,1.5-0.8,2.3c-0.3,0.7-0.6,1.3-0.8,1.8
		c-0.5,1-0.9,1.9-1.5,2.9c-0.5,0.9-1.2,1.7-2.1,2.4c-0.5,0.3-1,0.4-1.4,0.3c-0.5-0.1-0.8-0.5-1.1-1c-0.4-0.9-0.7-2-0.8-3.1
		c-0.1-1.2-0.1-2.4-0.1-3.6c-0.5,0-0.9-0.1-1.1-0.4c-0.3-0.3-0.3-0.7-0.2-1.2c0.1-0.3,0.2-0.7,0.5-1.1c0.2-0.4,0.5-0.8,0.9-1.2
		c-0.1-3.9,0-7.7,0.4-11.4c0.4-3.7,1.2-7.4,2.3-11.1c0.2-0.6,0.3-1.2,0.6-2c0.2-0.8,0.5-1.5,0.8-2.3c0.3-0.7,0.6-1.5,1-2.1
		c0.4-0.7,0.8-1.2,1.4-1.5c0.5-0.4,1.1-0.6,1.6-0.6c0.5,0,1.1,0,1.5,0.2c0.5,0.2,0.9,0.6,1.2,1c0.3,0.5,0.6,1,0.7,1.7
		c0.2,1.2,0.3,2.4,0.3,3.6c0,1.2-0.2,2.4-0.4,3.6c-0.2,1.2-0.6,2.3-1,3.5c-0.4,1.2-0.9,2.3-1.3,3.4c-0.3,0.8-0.7,1.6-1.1,2.4
		C272.6,276.4,272,277.2,271.4,277.8z M269.7,287.4c-0.3,0.2-0.5,0.4-0.8,0.7c-0.3,0.2-0.5,0.5-0.8,0.7l0.2,4.5
		c0.6-1.1,1.1-2.2,1.5-3.2c0.4-1,0.7-2.2,0.8-3.3c-0.2,0.1-0.3,0.2-0.5,0.4C269.9,287.2,269.8,287.3,269.7,287.4z M273,259.1
		c-0.2,0.2-0.4,0.4-0.5,0.6c-0.2,0.3-0.3,0.6-0.5,1c-0.2,0.4-0.3,0.7-0.4,1.1c-0.1,0.4-0.2,0.8-0.4,1.1l-0.2,0.5
		c-0.8,2.4-1.3,4.9-1.8,7.3c-0.4,2.4-0.7,4.9-0.9,7.4c0.4-0.4,0.8-0.8,1.1-1.1c0.3-0.4,0.6-0.8,0.9-1.3c0.5-0.9,1.1-2,1.6-3.2
		c0.5-1.2,0.9-2.4,1.3-3.7c0.3-1.3,0.6-2.5,0.8-3.8c0.2-1.3,0.2-2.4,0.1-3.5c0-0.3,0-0.6-0.1-0.9c-0.1-0.3-0.2-0.6-0.3-0.8
		c-0.1-0.1-0.2-0.3-0.3-0.4C273.3,259.4,273.1,259.3,273,259.1z M270.9,264.1l0.2-0.6l0.2-0.4c0,0.1,0,0.2-0.1,0.3
		c-0.1,0.1-0.1,0.3-0.1,0.4C270.9,263.9,270.9,264,270.9,264.1C270.9,264.2,270.9,264.2,270.9,264.1z"/>
	<path class="st0" d="M286.5,276.3c-0.3,0.8-0.7,1.5-1.1,2.3c-0.4,0.8-0.8,1.5-1.3,2.1c-0.5,0.6-1,1.2-1.6,1.7
		c-0.6,0.5-1.3,0.9-2,1.1c0,0.5,0.1,0.9,0.2,1.4c0.1,0.5,0.2,0.9,0.5,1.2c0.2,0.3,0.5,0.5,0.9,0.6c0.4,0.1,0.8-0.1,1.4-0.4
		c0.2-0.1,0.5-0.3,0.9-0.6c0.4-0.3,0.8-0.6,1.3-1c0.5-0.4,0.9-0.8,1.3-1.3c0.4-0.5,0.7-0.9,0.9-1.4c0.1-0.3,0.3-0.4,0.5-0.4
		c0.2,0,0.4,0.1,0.6,0.2c0.2,0.2,0.3,0.4,0.4,0.6c0.1,0.3,0,0.5-0.1,0.7c-0.2,0.4-0.5,0.8-0.9,1.3c-0.4,0.5-0.9,1-1.4,1.5
		c-0.5,0.5-0.9,0.9-1.4,1.3c-0.5,0.4-0.8,0.7-1.1,0.8c-0.1,0-0.2,0.1-0.3,0.2c-0.2,0.1-0.4,0.2-0.6,0.3c-0.2,0.1-0.4,0.2-0.7,0.3
		c-0.2,0.1-0.4,0.1-0.6,0.2c-0.6,0-1.2-0.1-1.7-0.3c-0.5-0.2-1-0.5-1.4-0.9c-0.4-0.4-0.7-0.9-1-1.4c-0.2-0.5-0.4-1.1-0.5-1.7
		c0-0.2-0.1-0.4-0.1-0.6c0-0.2,0-0.4,0-0.6c-0.2-0.1-0.3-0.3-0.3-0.6c0-0.2,0.1-0.5,0.2-0.6c0-0.4,0-0.9,0-1.3
		c0-0.4,0.1-0.9,0.2-1.4c0.2-0.8,0.4-1.7,0.8-2.8c0.4-1.1,0.8-2.1,1.4-3.1c0.6-1,1.3-1.8,2.1-2.5c0.8-0.7,1.7-1,2.8-0.9
		c0.7,0,1.2,0.3,1.5,0.7c0.3,0.5,0.6,1,0.7,1.6c0.1,0.6,0.1,1.2,0,1.9C286.8,275.4,286.7,275.9,286.5,276.3z M283.9,274.2
		c-0.3,0.3-0.7,0.7-1,1.2c-0.3,0.5-0.6,1.1-0.9,1.8c-0.3,0.6-0.5,1.3-0.7,2c-0.2,0.7-0.4,1.3-0.5,1.9c0.2-0.2,0.5-0.5,0.7-0.9
		c0.2-0.4,0.5-0.8,0.8-1.4c0.1-0.2,0.3-0.5,0.5-0.9c0.2-0.4,0.4-0.8,0.5-1.2c0.2-0.4,0.3-0.9,0.4-1.3
		C283.8,274.9,283.9,274.5,283.9,274.2z"/>
	<path class="st0" d="M288.3,284.4c-0.3,0.1-0.5,0-0.7-0.1c-0.2-0.1-0.3-0.2-0.4-0.4c-0.1-0.2-0.1-0.4-0.1-0.6
		c0-0.2,0.2-0.4,0.3-0.6c0.3-0.6,0.7-1.4,1.1-2.4c0.5-1.1,0.9-2.2,1.4-3.3c0.5-1.2,0.9-2.2,1.4-3.3c0.5-1,0.8-1.8,1.1-2.2
		c0.6-0.5,1.3-0.6,2.1-0.2c0.8,1,1.4,1.8,2,2.5c0.5,0.7,1,1.4,1.3,2c0.3,0.6,0.6,1.2,0.7,1.8c0.1,0.6,0.2,1.2,0.2,1.9
		c0,0.7-0.1,1.5-0.2,2.4c-0.1,0.9-0.3,2-0.5,3.3c0.8-0.2,1.6-0.5,2.4-0.8c0.8-0.3,1.6-0.7,2.4-1c0.3-0.1,0.5-0.1,0.8,0
		c0.2,0.1,0.4,0.2,0.5,0.4c0.1,0.2,0.1,0.4,0.1,0.6c0,0.2-0.2,0.4-0.5,0.6c-1,0.6-2,1.2-3,1.8c-1,0.6-2.1,1.1-3.1,1.5
		c-0.4,0.1-0.7,0.1-0.9,0c-0.2-0.1-0.5-0.2-0.8-0.5c-0.4-0.4-0.7-0.8-0.8-1.3c-0.1-0.5-0.1-0.9-0.1-1.4c0-0.5,0.1-1,0.3-1.5
		c0.1-0.5,0.2-1,0.2-1.5c0.1-0.8,0.1-1.4,0.1-2.1c0-0.6-0.1-1.2-0.2-1.8c-0.1-0.6-0.3-1.1-0.6-1.7c-0.3-0.6-0.6-1.1-1-1.8
		c-0.2,0.3-0.6,1-1,1.9c-0.4,1-0.9,2-1.5,3.1c-0.5,1.1-1,2.1-1.6,3C289.1,283.8,288.7,284.3,288.3,284.4z"/>
	<path class="st0" d="M305.6,274.8c0.4-0.7,0.8-1,1.2-0.9c0.3,0.1,0.5,0.4,0.5,1c-0.2,1.3-0.4,2.6-0.5,3.7c-0.2,1.2-0.3,2.2-0.3,3.1
		c-0.1,0.9-0.1,1.6,0,2.2c0.1,0.6,0.3,0.9,0.6,0.9l0,0c0.4,0.1,0.8,0.2,1.4,0.1c0.5-0.1,1.1-0.3,1.7-0.5c0.6-0.3,1.2-0.6,1.7-1
		c0.6-0.4,1.1-0.8,1.5-1.3c0.3-0.1,0.5-0.1,0.7-0.1c0.2,0.1,0.4,0.1,0.5,0.3c0.1,0.1,0.2,0.3,0.2,0.5c0,0.2-0.1,0.4-0.2,0.6
		c-2,1.7-3.7,2.9-5.1,3.5c-1.4,0.6-2.6,0.9-3.4,0.7c-0.9-0.1-1.5-0.6-1.9-1.3c-0.4-0.8-0.6-1.6-0.5-2.6c0.1-1.9,0.3-3.5,0.7-4.9
		C304.6,277.5,305.1,276.1,305.6,274.8z M308.7,265c0.2,0.3,0.3,0.5,0.3,0.8c0,0.3-0.1,0.5-0.2,0.7c-0.1,0.2-0.3,0.3-0.6,0.4
		c-0.2,0.1-0.5,0-0.8-0.2c-0.3-0.2-0.5-0.5-0.5-0.8c0-0.3,0-0.5,0.2-0.8c0.2-0.2,0.4-0.4,0.7-0.4C308,264.7,308.3,264.8,308.7,265z"
		/>
	<path class="st0" d="M316.7,273.9c0.1,0.5,0.1,1,0.2,1.6c0.1,0.5,0.1,1,0,1.6c0.5-1,1.1-1.9,1.7-2.8c0.6-0.9,1.2-1.8,2-2.8
		c0.3-0.3,0.6-0.5,0.9-0.6c0.3-0.1,0.6-0.1,1,0.1c0.3,0.1,0.5,0.2,0.7,0.3c0.4,0.2,0.6,0.5,0.7,0.7c0.1,0.3,0.2,0.6,0.2,1
		c0,0.9-0.1,1.8-0.2,2.8c-0.1,0.9-0.2,1.8-0.2,2.7c-0.1,0.9-0.1,1.8-0.1,2.7c0,0.9,0.1,1.8,0.2,2.7l0.9,0.6l2.9-1
		c0.3-0.1,0.5-0.1,0.8,0c0.2,0.1,0.4,0.2,0.5,0.4c0.1,0.2,0.1,0.4,0.1,0.6c-0.1,0.2-0.2,0.4-0.5,0.6c-0.6,0.3-1.2,0.6-1.7,0.9
		c-0.6,0.3-1.1,0.5-1.6,0.7c-0.5,0.1-1.1,0.1-1.6-0.1c-0.5-0.2-1.1-0.6-1.6-1.3c-0.4-0.5-0.7-1.1-0.8-1.8c-0.2-0.7-0.3-1.5-0.3-2.2
		c0-0.8,0-1.5,0-2.3c0-0.8,0.1-1.4,0.1-2c-0.6,0.9-1.2,1.9-1.7,2.9c-0.5,1-1,2-1.4,3c-0.3,0.6-0.6,1.2-0.8,1.9
		c-0.2,0.6-0.6,1.2-1.1,1.7c-0.6,0.4-1.1,0.4-1.6,0.2c-0.5-0.2-0.8-0.6-0.9-1.3c0-0.6,0-1.3,0.1-2c0.1-0.7,0.2-1.5,0.4-2.2
		c0.2-0.7,0.4-1.4,0.6-2.1c0.2-0.7,0.4-1.3,0.5-1.9l0,0c0.1-0.5,0.1-1,0.1-1.5c0-0.5,0-1,0-1.6c0.1-0.2,0.2-0.4,0.3-0.6
		c0.2-0.1,0.3-0.2,0.5-0.2c0.2,0,0.3,0,0.5,0.1C316.4,273.4,316.6,273.6,316.7,273.9L316.7,273.9L316.7,273.9z"/>
	<path class="st0" d="M333,273.7c0.7-0.5,1.4-0.8,2.2-0.9c0.8,0,1.4,0.3,1.8,1c0.1-0.1,0.2-0.3,0.3-0.4c0.1-0.1,0.1-0.3,0.2-0.4
		c0.2-0.4,0.4-0.6,0.7-0.8c0.3-0.2,0.6-0.2,0.9-0.2c0.3,0,0.6,0.2,0.8,0.4c0.3,0.2,0.4,0.5,0.5,0.9c0,1.1,0,2.1-0.1,3.2
		c-0.1,1-0.1,2.1,0,3.2l0,0.2l0.4-0.4c0.3-0.3,0.7-0.7,1.3-1.1c0.5-0.4,1.1-0.8,1.7-1c0.5-0.2,0.8-0.2,0.9,0c0,0.2-0.1,0.5-0.3,1
		c-0.2,0.4-0.4,0.7-0.7,1c-0.3,0.3-0.6,0.6-0.9,0.9c-0.4,0.4-0.8,0.8-1.1,1.2c-0.3,0.4-0.7,0.8-1,1.2c0.1,1.2,0.3,2.5,0.4,3.6
		c0.1,1.2,0.2,2.4,0.3,3.6c0.1,1.2,0.1,2.4,0,3.7c0,1.3-0.2,2.6-0.4,3.9c-0.1,0.9-0.4,1.7-0.8,2.6c-0.4,0.9-0.9,1.7-1.6,2.3
		c-0.6,0.7-1.4,1.2-2.3,1.5c-0.9,0.3-1.8,0.4-2.9,0.1c-0.9-0.2-1.6-0.6-2.1-1c-0.5-0.5-0.8-1-1-1.7c-0.2-0.6-0.3-1.3-0.2-2
		c0-0.7,0.1-1.5,0.2-2.3c0.1-1,0.4-2.1,0.9-3.2c0.4-1.2,1-2.3,1.6-3.5c0.6-1.2,1.3-2.3,2-3.4c0.7-1.1,1.4-2.1,2-2.9l0.7-1
		c0-0.5-0.1-1-0.1-1.5c0-0.5-0.1-1-0.1-1.6l0-1.4c-1.1,1.2-2.2,2.4-3.4,3.6c-1.2,1.2-2.6,2.1-4,2.7c-0.4,0.1-0.7,0.1-1,0
		c-0.2-0.1-0.5-0.3-0.7-0.7c-0.3-0.7-0.3-1.5,0-2.5c0.3-1,0.7-2,1.3-3c0.6-1,1.2-2,1.9-2.8C331.9,274.7,332.5,274.1,333,273.7z
		 M330.8,280.9c0.3-0.3,0.7-0.6,1.1-1c0.4-0.4,0.9-0.9,1.3-1.3c0.5-0.5,0.9-1,1.4-1.5c0.5-0.5,0.9-1,1.3-1.5
		c-0.1-0.1-0.2-0.2-0.2-0.3c0-0.2-0.1-0.4-0.1-0.5c0-0.1-0.1-0.1-0.4,0c-0.6,0.2-1.1,0.5-1.5,1c-0.5,0.5-0.9,1-1.2,1.6
		c-0.4,0.6-0.7,1.2-1,1.9C331.2,279.8,330.9,280.4,330.8,280.9z M338,293.4c0-1.2,0-2.4,0-3.6c-0.1-1.2-0.2-2.4-0.3-3.5
		c-0.8,1.3-1.5,2.6-2.2,4c-0.6,1.4-1.2,2.8-1.7,4.2c-0.1,0.2-0.2,0.7-0.5,1.3c-0.2,0.7-0.4,1.3-0.5,2.1c-0.1,0.7-0.1,1.4,0,1.9
		c0.1,0.6,0.5,0.9,1,0.9c0.9,0.1,1.6-0.2,2.2-0.7c0.5-0.5,0.9-1.2,1.2-1.9c0.3-0.8,0.4-1.6,0.5-2.4C338,294.7,338,294,338,293.4z"/>
</g>
<g>
	<path class="st0" d="M84.6,20.8c0,0.4-0.1,0.7-0.3,1l-1.1,11.1c-0.1,1.6-0.3,3.1-0.5,4.6c-0.2,1.5-0.5,3-0.9,4.6
		c-0.1,0.6-0.3,1.1-0.4,1.7c-0.2,0.6-0.4,1.2-0.6,1.8c-0.3,0.6-0.6,1.2-0.9,1.7c-0.4,0.5-0.8,1-1.3,1.4c-1,0.8-2.1,1.3-3.3,1.5
		c-1.2,0.2-2.4,0.1-3.6-0.2c-1.2-0.3-2.2-0.8-3.2-1.5c-1-0.7-1.8-1.5-2.4-2.4c-0.5-0.8-0.8-1.6-0.8-2.3c0-0.7,0.2-1.4,0.6-2
		c0.4-0.6,0.9-1.2,1.5-1.7c0.6-0.5,1.3-0.9,2.1-1.3c0.7-0.4,1.5-0.7,2.2-0.9c0.7-0.2,1.4-0.4,2-0.5c1.1-0.2,2.1-0.4,3.2-0.6
		c1.1-0.2,2.1-0.2,3.2-0.2l0.6-3.6l0.8-4.7l-0.9,0.4c-0.8,0.5-1.9,1-3.1,1.5c-1.2,0.5-2.4,1-3.7,1.4c-1.3,0.4-2.5,0.7-3.8,0.9
		c-1.3,0.2-2.4,0.2-3.4-0.1c-1-0.2-1.9-0.7-2.6-1.5c-0.7-0.8-1.1-1.9-1.2-3.3c-0.1-1.4,0.2-2.6,0.8-3.7c0.6-1.1,1.5-2.1,2.7-2.9
		c1.2-0.8,2.5-1.6,4-2.2c1.5-0.6,3.2-1.1,4.9-1.5c1.7-0.4,3.4-0.7,5.2-1c1.8-0.2,3.4-0.4,5-0.5c1.6-0.1,3-0.1,4.3-0.1
		c1.3,0,2.3,0.1,3.1,0.2c0.3,0,0.7,0.1,1.1,0.2c0.4,0.1,0.7,0.2,1.1,0.2c0.3,0.1,0.7,0.2,0.9,0.4c0.3,0.1,0.5,0.3,0.6,0.6l0,0.2
		c0,0.2-0.2,0.4-0.6,0.5c-0.4,0.1-0.8,0.1-1.3,0.1c-0.5,0-0.9,0-1.4,0c-0.5,0-0.8-0.1-1-0.1c-1.5-0.1-3-0.1-4.6,0.1
		c-1.6,0.1-3.1,0.3-4.7,0.6c-3,0.4-6,1.1-9,2.1c-1.4,0.5-2.8,1.1-4.2,1.8c-1.4,0.7-2.5,1.7-3.3,3.1c-0.2,0.3-0.3,0.6-0.4,0.9
		c-0.1,0.3-0.2,0.7-0.2,1c0,0.3,0.1,0.7,0.2,1c0.1,0.3,0.3,0.5,0.6,0.7c0.4,0.2,1,0.3,1.5,0.3c0.6,0,1.1,0,1.6-0.1
		c1.7-0.2,3.4-0.5,5-1c1.6-0.5,3.3-1,4.9-1.7l2.1-0.9c0.2-0.8,0.3-1.7,0.5-2.5c0.2-0.8,0.3-1.7,0.5-2.5c0.2-0.4,0.4-0.7,0.8-0.8
		c0,0,0.1,0,0.1,0c0.2,0,0.4,0,0.6,0.1c0.1,0.1,0.3,0.2,0.4,0.4C84.5,20.6,84.6,20.7,84.6,20.8z M77.9,44.1c0.4-0.9,0.7-1.8,1-2.7
		c0.3-0.9,0.5-1.9,0.7-2.9c-0.9,0.1-1.8,0.2-2.7,0.4s-1.9,0.4-2.9,0.6c-0.9,0.3-1.8,0.6-2.7,1c-0.9,0.4-1.7,0.9-2.4,1.5
		c-0.4,0.3-0.5,0.7-0.5,1.1c0,0.5,0.1,0.9,0.4,1.3c0.5,0.8,1.2,1.4,2,1.8c0.8,0.5,1.7,0.7,2.6,0.7c0.9,0,1.7-0.2,2.6-0.6
		C76.7,45.9,77.4,45.2,77.9,44.1z"/>
	<path class="st0" d="M87,39.5c0-0.3,0.1-0.6,0.1-1c0-0.4,0.1-0.8,0.1-1.2c0-0.4,0.1-0.8,0.2-1.1c0.1-0.4,0.1-0.7,0.2-0.9
		c0.3-2.7,0.7-5.4,1.1-8.1c0.5-2.7,1.2-5.3,2.2-7.8c0.5-1.2,1.2-2.4,1.9-3.7c0.7-1.2,1.7-2.2,2.8-2.9c0.8-0.5,1.6-0.8,2.4-0.9
		c0.8,0,1.5,0.1,2.2,0.5c0.6,0.3,1.2,0.8,1.6,1.5c0.4,0.7,0.6,1.5,0.6,2.4c0.1,2.5-0.4,4.9-1.4,7c-1,2.1-2.4,4.1-4.1,5.9
		c-0.7,0.7-1.2,1.3-1.6,1.7c-0.4,0.4-0.8,0.8-1.1,1.1c-0.3,0.3-0.7,0.7-1.1,1.1c-0.4,0.4-1,0.9-1.7,1.6l-0.5,0.4c-0.1,1-0.3,2-0.3,3
		c-0.1,1-0.2,2-0.3,3.1c0.4-0.6,0.9-1.1,1.4-1.6c0.5-0.5,1-1,1.7-1.4c0.2-0.1,0.4-0.2,0.6-0.2c0.1,0,0.3,0,0.6,0.1
		c0.8,0.3,1.4,0.8,1.7,1.3c0.3,0.6,0.5,1.2,0.6,1.9c0.1,0.7,0.1,1.4,0.1,2.2c0,0.8,0.1,1.6,0.4,2.3c0.1,0,0.1,0,0.2,0
		c0.3-0.2,0.6-0.5,0.8-0.7c0.3-0.2,0.5-0.4,0.8-0.7c0.3-0.1,0.5-0.1,0.7-0.1c0.2,0.1,0.3,0.1,0.5,0.3c0.1,0.1,0.2,0.3,0.2,0.5
		c0,0.2-0.1,0.4-0.2,0.6c-0.3,0.3-0.7,0.6-1,1c-0.3,0.3-0.7,0.6-1.1,0.8c-0.6,0.3-1,0.3-1.4,0.1c-0.4-0.2-0.7-0.5-1-1
		c-0.3-0.4-0.5-1-0.6-1.6c-0.2-0.6-0.3-1.2-0.4-1.8c-0.1-0.6-0.2-1.2-0.3-1.7c-0.1-0.5-0.1-0.9-0.2-1.1c-0.6,0.5-1.1,1.1-1.4,1.7
		c-0.4,0.6-0.7,1.3-1,1.9c-0.3,0.7-0.6,1.3-0.9,2c-0.3,0.7-0.7,1.3-1.2,1.9c-1,0.6-1.7,0.4-2.4-0.6c-0.2-0.6-0.3-1.3-0.4-2
		c-0.1-0.7-0.1-1.4-0.1-2.1c0-0.7,0.1-1.4,0.1-2.1C86.8,40.8,86.9,40.2,87,39.5z M92.8,24.5c-0.7,2.4-1.2,4.9-1.6,7.3l1.1-1.1
		c0.9-1,1.8-2,2.7-3.1c0.9-1.1,1.6-2.2,2.3-3.3c0.7-1.1,1.2-2.4,1.5-3.6c0.4-1.3,0.5-2.6,0.5-4c0-0.5-0.2-0.8-0.6-1
		c-0.4-0.2-0.9-0.2-1.4,0.1c-0.4,0.2-0.7,0.5-1,0.8c-0.3,0.3-0.5,0.6-0.7,1c-0.6,0.9-1.2,2.1-1.6,3.4C93.5,22.2,93.1,23.4,92.8,24.5
		z"/>
	<path class="st0" d="M109.3,35.4c-0.3,0.8-0.7,1.5-1.1,2.3c-0.4,0.8-0.8,1.5-1.3,2.1c-0.5,0.6-1,1.2-1.6,1.7
		c-0.6,0.5-1.3,0.9-2,1.1c0,0.5,0.1,0.9,0.2,1.4c0.1,0.5,0.2,0.9,0.5,1.2c0.2,0.3,0.5,0.5,0.9,0.6c0.4,0.1,0.8-0.1,1.4-0.4
		c0.2-0.1,0.5-0.3,0.9-0.6c0.4-0.3,0.8-0.6,1.3-1c0.5-0.4,0.9-0.8,1.3-1.3c0.4-0.5,0.7-0.9,0.9-1.4c0.1-0.3,0.3-0.4,0.5-0.4
		c0.2,0,0.4,0.1,0.6,0.2c0.2,0.2,0.3,0.4,0.4,0.6c0.1,0.3,0,0.5-0.1,0.7c-0.2,0.4-0.5,0.8-0.9,1.3c-0.4,0.5-0.9,1-1.4,1.5
		c-0.5,0.5-0.9,0.9-1.4,1.3c-0.5,0.4-0.8,0.7-1.1,0.8c-0.1,0-0.2,0.1-0.3,0.2c-0.2,0.1-0.4,0.2-0.6,0.3c-0.2,0.1-0.4,0.2-0.7,0.3
		c-0.2,0.1-0.4,0.1-0.6,0.2c-0.6,0-1.2-0.1-1.7-0.3c-0.5-0.2-1-0.5-1.4-0.9c-0.4-0.4-0.7-0.9-1-1.4c-0.3-0.5-0.4-1.1-0.5-1.7
		c0-0.2-0.1-0.4-0.1-0.6c0-0.2,0-0.4,0-0.6c-0.2-0.1-0.3-0.3-0.3-0.6c0-0.2,0.1-0.5,0.2-0.6c0-0.4,0-0.9,0-1.3
		c0-0.4,0.1-0.9,0.2-1.4c0.2-0.8,0.4-1.7,0.8-2.8c0.4-1.1,0.8-2.1,1.4-3.1c0.6-1,1.3-1.8,2.1-2.5s1.7-1,2.8-0.9
		c0.7,0,1.2,0.3,1.5,0.7c0.3,0.5,0.6,1,0.7,1.6c0.1,0.6,0.1,1.2,0,1.9C109.6,34.5,109.5,35,109.3,35.4z M106.7,33.3
		c-0.3,0.3-0.7,0.7-1,1.2c-0.3,0.5-0.6,1.1-0.9,1.8c-0.3,0.6-0.5,1.3-0.7,2c-0.2,0.7-0.4,1.3-0.5,1.9c0.2-0.2,0.5-0.5,0.7-0.9
		c0.2-0.4,0.5-0.8,0.8-1.4c0.1-0.2,0.3-0.5,0.5-0.9c0.2-0.4,0.4-0.8,0.5-1.2c0.2-0.4,0.3-0.9,0.4-1.3
		C106.6,34,106.7,33.6,106.7,33.3z"/>
	<path class="st0" d="M130.1,40.2c-0.2,0.2-0.3,0.3-0.5,0.4c-0.2,0-0.4,0-0.5,0c-0.2-0.1-0.3-0.2-0.4-0.4c-0.1-0.2-0.1-0.4-0.1-0.7
		c0.4-1,0.9-2,1.6-3.1c0.7-1,1.4-2.1,2.1-3c0.7-1,1.4-1.9,2-2.7c0.6-0.8,1.1-1.5,1.3-2.1c0-0.1,0-0.1,0-0.1c0.2-0.4,0.5-0.6,0.8-0.8
		c0.3-0.1,0.6-0.2,1-0.1c0.3,0.1,0.6,0.3,0.8,0.5c0.2,0.3,0.3,0.6,0.3,1.1c-0.3,1.3-0.5,2.5-0.5,3.8c-0.1,1.2,0,2.5,0.2,3.8
		c0.1,0.5,0.2,1,0.3,1.4c0.1,0.5,0.3,1,0.5,1.4c1-0.5,1.9-1,2.9-1.5c1-0.5,1.9-0.9,2.9-1.4c0.3-0.1,0.5-0.1,0.8,0
		c0.2,0.1,0.4,0.2,0.5,0.4c0.1,0.2,0.1,0.4,0.1,0.6c-0.1,0.2-0.2,0.4-0.5,0.6c-0.9,0.5-1.8,1.1-2.9,1.7c-1.1,0.6-2.1,1.2-3.2,1.9
		c0,0.2,0,0.3,0,0.5c0,0.2,0,0.3,0,0.5c0,0.6-0.1,1.2-0.2,1.8c-0.1,0.6-0.4,1.1-0.8,1.6c-0.7,0.7-1.4,1.3-2.1,1.6
		c-0.7,0.3-1.4,0.4-2,0.4c-0.6,0-1.2-0.2-1.6-0.5c-0.4-0.3-0.7-0.7-0.9-1.2c-0.1-0.5-0.1-1,0.1-1.6c0.2-0.6,0.7-1.2,1.5-1.7
		c0.6-0.5,1.1-0.8,1.4-1.1c0.3-0.2,0.7-0.5,1.1-0.7c-0.3-1.3-0.5-2.5-0.7-3.6c-0.2-1.1-0.3-2.2-0.4-3.3c-0.8,0.9-1.7,1.8-2.5,2.7
		C131.3,38.1,130.6,39.1,130.1,40.2z"/>
	<path class="st0" d="M145.2,37.8c0.1-1.2,0.2-2.3,0.3-3.4c0.1-1.1,0.3-2.2,0.5-3.3c-0.7,0.2-1.3,0.3-1.9,0.5
		c-0.6,0.2-1,0.3-1.2,0.5c-0.1,0.1-0.3,0.1-0.5,0.2c-0.2,0-0.3,0.1-0.5,0c-0.1,0-0.3-0.1-0.4-0.2c-0.1-0.1-0.2-0.3-0.2-0.5
		c-0.1-0.6,0.2-1.1,0.9-1.7c0.7-0.5,1.5-1,2.4-1.4c0.6-0.5,1-1,1.3-1.4c0.3-0.4,0.5-0.8,0.7-1.3c0.2-0.4,0.3-0.9,0.5-1.5
		c0.1-0.5,0.3-1.2,0.5-1.9c0.1-0.3,0.2-0.9,0.3-1.7c0.1-0.8,0.3-1.6,0.6-2.3c0.3-0.8,0.6-1.4,1-2c0.4-0.5,0.9-0.8,1.6-0.6
		c0.3,0.1,0.4,0.3,0.5,0.6c0,0.3,0,0.9-0.2,1.7c-0.1,0.8-0.4,1.9-0.6,3.3c-0.3,1.4-0.6,3.2-0.9,5.5c0.3,0,0.6-0.1,1-0.1
		c0.3,0,0.7,0,1-0.1c0.7,0,1.4,0,1.9,0c0.5,0,1.2,0.1,1.9,0.1c0.3,0,0.5,0.1,0.7,0.2c0.2,0.2,0.3,0.3,0.3,0.5c0,0.2,0,0.4-0.2,0.6
		c-0.1,0.2-0.3,0.3-0.6,0.3c-0.3,0.1-0.8,0.2-1.4,0.4c-0.6,0.2-1.3,0.3-2,0.5c-0.7,0.2-1.4,0.4-2,0.5c-0.6,0.2-1,0.3-1.2,0.4
		c-0.2,1.1-0.4,2.3-0.6,3.5c-0.2,1.2-0.3,2.5-0.4,3.7s-0.1,2.4-0.1,3.6c0,1.2,0.2,2.2,0.4,3.2c0.1,0.1,0.3,0.1,0.7-0.2
		c0.4-0.2,0.9-0.7,1.5-1.2c0.6-0.6,1.2-1.3,1.9-2.2c0.7-0.9,1.4-2,2.1-3.2c0.2-0.2,0.5-0.3,0.7-0.3c0.2,0,0.4,0.1,0.6,0.2
		c0.1,0.1,0.2,0.3,0.3,0.6c0,0.2,0,0.5-0.2,0.7c-0.5,1.1-1.2,2.3-2,3.5c-0.8,1.2-1.6,2.3-2.5,3.2c-0.8,0.9-1.7,1.5-2.5,1.9
		c-0.8,0.4-1.5,0.3-2.1-0.3c-0.6-0.6-1-1.2-1.3-2c-0.3-0.8-0.5-1.5-0.5-2.4c-0.1-0.8-0.1-1.7,0-2.5
		C145.1,39.3,145.2,38.5,145.2,37.8z"/>
	<path class="st0" d="M159.9,32.8C159.9,32.8,159.9,32.8,159.9,32.8c0,0.1,0,0.1,0,0.2c1.5-0.8,3.1-1.4,4.8-2c1.7-0.5,3.3-1,4.9-1.5
		c0.5,0,0.8,0.2,1,0.6c0.1,0.4,0,0.8-0.5,1c-1.1,0.5-2.2,1-3.3,1.5c-1.1,0.5-2.2,1-3.3,1.6c0.4,0.6,0.6,1.2,0.5,1.9
		c0,0.7-0.1,1.4-0.3,2.1c-0.2,0.6-0.4,1.1-0.7,1.8c-0.3,0.6-0.6,1.2-1.1,1.8c-0.4,0.6-0.9,1.1-1.4,1.6c-0.5,0.5-1,0.8-1.6,1
		c-0.3,0.2-0.7,0.2-1.1,0.3c-0.4,0-0.8,0.1-1.2,0.1c-0.3,0-0.6-0.1-0.7-0.2c-0.2-0.1-0.4-0.2-0.6-0.5c-0.2-0.3-0.3-0.5-0.5-0.7
		c-0.2-0.2-0.4-0.5-0.5-0.8c-0.3-0.7-0.3-1.6-0.2-2.6c0.2-1,0.4-2,0.8-3c0.4-1,0.8-2,1.4-2.9c0.5-0.9,1-1.6,1.5-2.2
		c0.6-0.5,1.1-0.5,1.5,0.2L159.9,32.8z M159.6,36.1c-0.6-0.3-1-0.7-1.1-1.2c-0.5,1-0.8,2.1-0.9,3.3c-0.2,1.2-0.2,2.3-0.1,3.4
		c0.4-0.1,0.7-0.3,1.1-0.6c0.3-0.3,0.7-0.7,0.9-1.1c0.3-0.4,0.5-0.8,0.7-1.3c0.2-0.4,0.4-0.8,0.5-1.1c0.2-0.4,0.3-0.8,0.3-1.2l0-0.1
		c-0.2,0-0.5-0.1-0.7,0C160,36.2,159.8,36.1,159.6,36.1z"/>
	<path class="st0" d="M168.7,41.5c-0.3,0.1-0.5,0-0.7-0.1c-0.2-0.1-0.3-0.2-0.4-0.4c-0.1-0.2-0.1-0.4-0.1-0.6c0-0.2,0.2-0.4,0.3-0.6
		c0.3-0.6,0.7-1.4,1.1-2.4c0.5-1.1,0.9-2.2,1.4-3.3c0.5-1.2,0.9-2.2,1.4-3.3c0.5-1,0.8-1.8,1.1-2.2c0.6-0.5,1.3-0.6,2.1-0.2
		c0.8,1,1.4,1.8,2,2.5c0.5,0.7,1,1.4,1.3,2c0.3,0.6,0.6,1.2,0.7,1.8c0.1,0.6,0.2,1.2,0.2,1.9c0,0.7-0.1,1.5-0.2,2.4
		c-0.1,0.9-0.3,2-0.5,3.3c0.8-0.2,1.6-0.5,2.4-0.8c0.8-0.3,1.6-0.7,2.4-1c0.3-0.1,0.5-0.1,0.8,0c0.2,0.1,0.4,0.2,0.5,0.4
		c0.1,0.2,0.1,0.4,0.1,0.6c-0.1,0.2-0.2,0.4-0.5,0.6c-1,0.6-2,1.2-3,1.8c-1,0.6-2.1,1.1-3.1,1.5c-0.4,0.1-0.7,0.1-0.9,0
		c-0.2-0.1-0.5-0.2-0.8-0.5c-0.4-0.4-0.7-0.8-0.8-1.3c-0.1-0.5-0.1-0.9-0.1-1.4c0-0.5,0.1-1,0.3-1.5c0.1-0.5,0.2-1,0.2-1.5
		c0.1-0.8,0.1-1.4,0.1-2.1c0-0.6-0.1-1.2-0.2-1.8c-0.1-0.6-0.3-1.1-0.6-1.7c-0.3-0.6-0.6-1.1-1-1.8c-0.2,0.3-0.5,1-1,1.9
		c-0.4,1-0.9,2-1.5,3.1c-0.5,1.1-1,2.1-1.6,3C169.5,40.8,169.1,41.4,168.7,41.5z"/>
	<path class="st0" d="M183.4,31.4c0-0.3,0.1-0.5,0.3-0.6c0.2-0.1,0.3-0.2,0.5-0.2c0.2,0,0.4,0,0.5,0.2c0.2,0.1,0.3,0.3,0.3,0.6
		c0.1,0.7,0.1,1.5,0,2.2c-0.1,0.7-0.1,1.5-0.1,2.2c0,0.8,0,1.5,0,2.3c0,0.8,0.1,1.5,0.3,2.2c0.9-0.8,1.5-1.5,2-2.4
		c0.5-0.8,0.9-1.7,1.2-2.6c0.3-0.9,0.6-1.9,0.8-2.8c0.2-1,0.5-2,0.9-3c0.2-0.3,0.4-0.6,0.7-0.7c0.3-0.2,0.6-0.2,0.8-0.2
		c0.3,0,0.5,0.1,0.8,0.3c0.2,0.2,0.4,0.5,0.5,0.8c0.1,1.2,0.2,2.4,0.1,3.6c0,1.2,0,2.4,0,3.7l0,1c0.7-0.5,1.5-0.9,2.3-1.3
		c0.8-0.4,1.6-0.7,2.4-1c0.3-0.1,0.7-0.2,1.1-0.2c0.4,0,0.8,0,1.1,0c0.3,0.1,0.6,0.2,0.8,0.5c0.2,0.2,0.2,0.6,0.1,1.1
		c-0.2,0.5-0.4,0.7-0.8,0.7c-0.4,0-0.6-0.2-0.8-0.5l-0.3,0c-1,0.3-2,0.7-3,1.3c-0.9,0.6-1.8,1.1-2.7,1.8c0.2,2.7,0.2,5.4,0.1,8.1
		c-0.1,2.6-0.5,5.3-1.3,8.1c-0.3,0.9-0.6,1.8-1,2.7c-0.4,0.9-1,1.7-1.6,2.4c-0.6,0.7-1.4,1.2-2.2,1.6c-0.9,0.3-1.8,0.4-2.9,0.1
		c-0.7-0.2-1.3-0.5-1.9-1c-0.6-0.5-1-1.1-1.4-1.8c-0.4-0.7-0.6-1.4-0.8-2.1c-0.2-0.7-0.3-1.4-0.2-2.1c0.1-1.8,0.4-3.6,0.9-5.1
		c0.5-1.6,1.2-3,2.1-4.3c0.9-1.3,1.9-2.6,3.1-3.7c1.2-1.1,2.5-2.2,4-3.2c0-0.3,0-0.6,0-1c0-0.3,0-0.7,0-1c0,0,0,0,0,0
		c-0.2,0.5-0.5,0.9-0.8,1.4c-0.3,0.5-0.6,0.9-1,1.2l-1.9,1.5c-0.3,0.2-0.6,0.3-0.9,0.4c-0.3,0-0.6,0-1-0.1c-0.3-0.1-0.6-0.3-0.8-0.5
		c-0.3-0.2-0.4-0.5-0.5-0.9c-0.2-0.8-0.3-1.6-0.3-2.4c0-0.8,0-1.6,0.1-2.4c0.1-0.8,0.2-1.6,0.3-2.4C183.3,33,183.4,32.2,183.4,31.4z
		 M190.2,48.5c0.1-1,0.1-2,0.1-2.9c0-1-0.1-1.9-0.1-2.9c-0.9,0.8-1.7,1.5-2.4,2.4c-0.7,0.8-1.4,1.7-2.1,2.7c-0.9,1.4-1.5,2.7-1.9,4
		c-0.4,1.3-0.6,2.7-0.6,4.3c0,0.3,0.1,0.8,0.2,1.3c0.1,0.5,0.3,1,0.6,1.5c0.2,0.5,0.6,0.8,0.9,1.1c0.4,0.3,0.8,0.3,1.3,0.2
		c0.4-0.1,0.8-0.4,1.1-0.8c0.3-0.4,0.6-0.8,0.8-1.2c0.2-0.4,0.4-0.9,0.5-1.4c0.1-0.5,0.3-0.9,0.4-1.2c0.2-0.5,0.3-0.9,0.4-1.4
		c0.1-0.5,0.2-0.9,0.3-1.4c0.1-0.3,0.2-0.6,0.2-1c0.1-0.4,0.1-0.8,0.2-1.2c0.1-0.4,0.1-0.8,0.2-1.2
		C190.2,49.2,190.2,48.9,190.2,48.5z"/>
	<path class="st0" d="M217.8,30.7C217.8,30.8,217.8,30.8,217.8,30.7c0,0.1,0,0.1,0,0.2c1.5-0.8,3.1-1.4,4.8-2c1.7-0.5,3.3-1,4.9-1.5
		c0.5,0,0.9,0.2,1,0.6c0.1,0.4,0,0.8-0.5,1c-1.1,0.5-2.2,1-3.3,1.5c-1.1,0.5-2.2,1-3.3,1.6c0.4,0.6,0.6,1.2,0.5,1.9
		c0,0.7-0.1,1.4-0.3,2.1c-0.2,0.6-0.4,1.1-0.7,1.8c-0.3,0.6-0.7,1.2-1.1,1.8c-0.4,0.6-0.9,1.1-1.4,1.6c-0.5,0.5-1,0.8-1.6,1
		c-0.3,0.2-0.7,0.2-1.1,0.3c-0.4,0-0.8,0.1-1.2,0.1c-0.3,0-0.6-0.1-0.7-0.2c-0.2-0.1-0.4-0.2-0.6-0.5c-0.2-0.3-0.3-0.5-0.5-0.7
		c-0.2-0.2-0.4-0.5-0.5-0.8c-0.3-0.7-0.3-1.6-0.2-2.6c0.2-1,0.4-2,0.8-3c0.4-1,0.8-2,1.4-2.9c0.5-0.9,1-1.6,1.5-2.2
		c0.6-0.5,1.1-0.5,1.5,0.2L217.8,30.7z M217.5,34c-0.6-0.3-1-0.7-1.1-1.2c-0.5,1-0.8,2.1-0.9,3.3c-0.2,1.2-0.2,2.3-0.1,3.4
		c0.4-0.1,0.7-0.3,1.1-0.6c0.3-0.3,0.7-0.7,0.9-1.1c0.3-0.4,0.5-0.8,0.7-1.3c0.2-0.4,0.4-0.8,0.5-1.1c0.2-0.4,0.3-0.8,0.3-1.2l0-0.1
		c-0.2,0-0.5-0.1-0.7,0C217.9,34.1,217.7,34.1,217.5,34z"/>
	<path class="st0" d="M231.8,32.1c-0.4,0.4-0.9,0.9-1.5,1.4c-0.6,0.5-1.2,1-1.7,1.5l-0.1,1.4l0-0.6c0,0.5-0.1,1-0.1,1.4
		c0,0.4,0,0.9,0,1.4c0.6-0.3,1.2-0.6,1.8-0.8s1.1-0.3,1.6-0.2l0.4-0.3c0.6-0.5,1.2-0.9,1.8-1.4c0.6-0.5,1.2-1,1.8-1.4
		c0.6-0.5,1.2-0.9,1.9-1.2c0.7-0.4,1.4-0.6,2.2-0.7c0.3,0,0.5,0.1,0.7,0.2c0.2,0.2,0.3,0.3,0.3,0.5c0,0.2,0,0.4-0.2,0.6
		c-0.1,0.2-0.3,0.3-0.6,0.3c-0.6,0.2-1.2,0.4-1.8,0.8c-0.6,0.4-1.1,0.7-1.6,1.2c-0.5,0.4-1,0.9-1.5,1.4c-0.5,0.5-1,1-1.4,1.4
		l0.1,0.2c0.3,0.5,0.4,1.1,0.3,1.9c-0.1,0.8-0.2,1.5-0.4,2.3c-0.2,0.8-0.5,1.5-0.8,2.3c-0.3,0.7-0.6,1.3-0.8,1.8
		c-0.5,1-0.9,2-1.5,2.9c-0.5,0.9-1.2,1.7-2.1,2.4c-0.5,0.3-1,0.4-1.4,0.3c-0.5-0.1-0.8-0.5-1.1-1c-0.4-0.9-0.7-2-0.8-3.1
		c-0.1-1.2-0.1-2.4-0.1-3.6c-0.5,0-0.9-0.1-1.1-0.4c-0.3-0.3-0.3-0.7-0.2-1.2c0.1-0.3,0.2-0.7,0.5-1.1s0.5-0.8,0.9-1.2
		c-0.1-3.9,0-7.7,0.4-11.4c0.4-3.7,1.2-7.4,2.3-11.1c0.2-0.6,0.3-1.2,0.6-2c0.2-0.8,0.5-1.5,0.8-2.3c0.3-0.7,0.6-1.5,1-2.1
		c0.4-0.7,0.8-1.2,1.4-1.5c0.5-0.4,1.1-0.6,1.6-0.6c0.5,0,1.1,0,1.5,0.2c0.5,0.2,0.9,0.6,1.2,1c0.3,0.5,0.6,1,0.7,1.7
		c0.2,1.2,0.3,2.4,0.3,3.6c0,1.2-0.2,2.4-0.4,3.6c-0.2,1.2-0.6,2.3-1,3.5c-0.4,1.2-0.9,2.3-1.3,3.4c-0.3,0.8-0.7,1.6-1.1,2.4
		C233,30.7,232.5,31.5,231.8,32.1z M230.1,41.7c-0.3,0.2-0.5,0.4-0.8,0.7c-0.3,0.2-0.5,0.5-0.8,0.7l0.2,4.5c0.6-1.1,1.1-2.2,1.5-3.2
		c0.4-1,0.7-2.2,0.8-3.3c-0.2,0.1-0.3,0.2-0.5,0.4C230.4,41.5,230.2,41.6,230.1,41.7z M233.4,13.4c-0.2,0.2-0.4,0.4-0.5,0.6
		c-0.2,0.3-0.3,0.6-0.5,1c-0.2,0.4-0.3,0.7-0.4,1.1c-0.1,0.4-0.2,0.8-0.3,1.1l-0.2,0.5c-0.8,2.5-1.3,4.9-1.8,7.3
		c-0.4,2.4-0.7,4.9-0.9,7.4c0.4-0.4,0.8-0.8,1.1-1.1c0.3-0.4,0.6-0.8,0.9-1.3c0.5-0.9,1.1-2,1.6-3.2c0.5-1.2,0.9-2.4,1.3-3.7
		c0.3-1.3,0.6-2.5,0.8-3.8c0.2-1.3,0.2-2.4,0.1-3.5c0-0.3,0-0.6-0.1-0.9c-0.1-0.3-0.2-0.6-0.3-0.8c-0.1-0.1-0.2-0.3-0.3-0.4
		C233.7,13.7,233.6,13.6,233.4,13.4z M231.3,18.4l0.2-0.6l0.2-0.4c0,0.1,0,0.2-0.1,0.3c-0.1,0.1-0.1,0.3-0.1,0.4
		C231.4,18.2,231.3,18.3,231.3,18.4C231.3,18.5,231.3,18.5,231.3,18.4z"/>
</g>
<g>
	<path class="st2" d="M202.2,209.9c0.4-0.1,1.3-0.2,2-0.3c0.7-0.1,1.4-0.4,1.3-0.4C204.3,209.6,202.5,209.8,202.2,209.9z
		 M209.1,203.7c-0.1-2.7,0.3-1.1,0.1-0.2C209.2,203.5,209.1,203.9,209.1,203.7z M208.5,172.4c0.5,8.8,0.9,16.9,0.9,25.9
		c0-0.1-0.1-0.3,0-0.4C209.3,188.7,208.7,179.5,208.5,172.4z M209.3,199.8c0.1,0.2,0.1,1.1,0,1.7
		C209.2,201.1,209.3,200.6,209.3,199.8z M195.7,210c-0.6,0.1,1.2,0.1-0.4,0.1c2.2,0.1,4.3-0.1,6.3-0.2c-3.4,0.3-6.7,0.3-10.1,0.5
		c-3.3,0.1-6.6,0.3-10,0.5c-6.7,0.5-13.4,1.2-20.1,2.1c-3.4,0.4-6.8,0.9-10.2,1.3c-3.4,0.4-6.9,0.9-10.6,0.8c-0.9,0-2.3-0.1-3-0.3
		l-0.3-0.1c-0.3-0.1-0.1,0-0.2-0.1l-0.1,0l-0.1,0l-0.2-0.1c-0.1-0.1-0.3-0.2-0.4-0.2c-0.2-0.2-0.4-0.4-0.5-0.5
		c-0.1-0.2-0.3-0.3-0.4-0.5c-0.4-0.6-0.6-1.1-0.8-1.6c-0.7-1.9-1-3.6-1.3-5.4c-0.6-3.5-0.9-7-1.3-10.4c-0.7-7.2-1.3-14.6-2.1-22.1
		c-0.4-3.8-0.9-7.6-1.3-11.4c-0.2-2-0.4-3.9-0.7-5.9c-0.1-1-0.1-1.9-0.2-2.9l-0.1-1.5l0-0.7l0-0.4l0-0.2l0,0l0-0.2
		c0-0.1,0-0.2,0-0.3c0.1-0.5,0.3-0.8,0.5-1.1c0.2-0.3,0.4-0.4,0.6-0.6c0.2-0.1,0.4-0.3,0.5-0.4l0.5-0.2c0.6-0.3,1.1-0.5,1.6-0.6
		c1-0.3,2-0.5,3-0.7c2-0.3,3.9-0.6,5.9-0.7c3.9-0.4,7.7-0.6,11.6-0.7c7.6-0.3,15.1-0.3,22.3-0.3c-0.7,0.1-1.6,0-2.1,0.1
		c2.1,0.1,4.5,0.1,7.1,0.2c2.5,0.1,5,0.2,7.5,0.3c2.7,0.1,5.5,0.1,6.9,0.5c2.4,0,3.8,0.3,6.2,0.3c0.2,0.3,1.2,0.3,2.3,0.6
		c-0.6,0-0.6-0.1-0.9,0c0.8,0.1,2.2,0.1,2.6,0.4c-0.8,0-1.5,0-2.3,0c0.2,0.2,2.4,0.1,1.9,0.3c-1.1,0-1.2,0.1-1.7,0.3
		c-14.7-0.2-29.5-0.5-44.4,0c-3.7,0.1-7.4,0.3-11.1,0.5c-3.7,0.2-7.4,0.5-11,1.1c-0.9,0.1-1.8,0.3-2.7,0.5c-0.4,0.1-0.8,0.2-1.2,0.4
		c-0.4,0.1-0.7,0.4-0.9,0.5c0,0,0,0,0,0c0,0,0,0,0,0c0,0-0.1,0-0.1-0.1c-0.1,0,0,0-0.1,0l0,0h0c-0.2,0,0.3-0.1,0.2,0l0,0.1l0,0.7
		l0.1,1.4l0.2,2.8c0.4,3.7,0.8,7.3,1.2,11c0.2,1.3,0.3,2.7,0.5,4c0.1,1.3,0.3,2.6,0.4,3.9c0.3,2.6,0.5,5.1,0.8,7.6
		c0.5,5,0.9,9.9,1.4,14.8c0.3,2.4,0.5,4.9,0.9,7.3c0.2,1.2,0.4,2.4,0.6,3.7c0.3,1.2,0.6,2.4,1,3.5c0.1,0.3,0.3,0.5,0.4,0.7
		c0.1,0.1,0.1,0.1,0.2,0.2c0,0,0,0,0,0c0,0,0.1,0,0,0l0.1,0l0.2,0.1c0.3,0.1,0.6,0.2,0.9,0.2l0.9,0.1c0.6,0.1,1.3,0,1.9,0
		c0.6,0,1.3-0.1,1.9-0.1c2.6-0.2,5.3-0.5,8-0.9c8.2-1.1,16.6-2.3,25-3c4.2-0.4,8.4-0.6,12.6-0.8c4.2-0.2,8.3-0.1,12.3-0.5
		c1.3-0.1,2.6-0.3,3.6-0.8c0.2-0.1,0.4-0.3,0.6-0.5c0.2-0.2,0.2-0.3,0.3-0.6c0.1-0.5,0.2-1.2,0.3-1.8c0.2-2.5,0.2-5.1,0.2-7.6
		c0-5-0.2-10-0.4-14.9c-0.2-4.9-0.5-9.7-0.8-14.6c-0.3-4.9-0.6-9.8-1.2-14.8c0-0.3,0-0.7,0-1c0-0.2,0-0.4-0.1-0.6
		c0-0.1,0-0.2-0.1-0.3l-0.1-0.1c0-0.1-0.1-0.1-0.2-0.2c0-0.1,0-0.1,0.2-0.1c0.1,0,0.2,0.1,0.2,0.1c0,0,0.1,0.1,0.1,0.1
		c0.2,0.2,0.3,0.4,0.4,0.6c0.3,0.5,0.5,1.2,0.7,2c0.4,1.6,0.7,3.5,0.9,4.9c0.3,1.7,0.6,3.5,0.8,5.2c0.5,5.1,0.7,9,1,14.4
		c0.3,5.2,0.6,10,0.7,14.8c0,1.6,0.2,3,0,4.5c0.1,2.2,0.1,4.7-0.1,7.2c-0.1,0.6-0.1,1.3-0.2,2c0,0.2-0.1,0.4-0.1,0.6l-0.1,0.4
		c0,0.1-0.1,0.2-0.1,0.3c-0.3,0.6-0.6,1-1,1.4c-0.8,0.7-1.6,0.9-2.3,1.1c-0.7,0.2-1.4,0.3-2,0.4c-1.1,0.2-2.3,0.4-3.3,0.4
		c-1.2,0.1-3,0.1-3.8,0.1C195.8,210,195.8,210,195.7,210z"/>
</g>
<g>
	<path class="st2" d="M186.6,123.7c0.2,0.3,0.7,1.2,0.8,1.1C187.1,124.4,186.7,123.7,186.6,123.7z M188.6,126.6
		C189.5,127.4,188.7,127.1,188.6,126.6C188.6,126.7,188.5,126.5,188.6,126.6z M196.3,138.2c-2.2-3.3-4.2-6.3-6.4-9.7
		c0.1,0,0.2,0.1,0.1,0.1C192.3,132.1,194.7,135.4,196.3,138.2z M189.5,127.9c-0.1,0-0.4-0.4-0.5-0.6
		C189.3,127.5,189.3,127.7,189.5,127.9z M185.2,121.2c-0.2-0.2,0.2,0.5-0.2-0.1c0.4,0.9,1.1,1.6,1.5,2.4c-3.9-5.6-7.9-11.4-12-17.2
		l-0.1-0.2l-0.1-0.3c-0.1-0.4-0.4-0.9-0.7-1.3c-0.3-0.4-0.6-0.7-0.9-0.9c-0.3-0.2-0.5-0.3-0.7-0.3c-0.1,0-0.2,0-0.4,0
		c-0.1,0-0.2,0.1-0.4,0.1l-0.7,0.5l-0.6,0.6c-0.2,0.2-0.4,0.4-0.7,0.6l-0.7,0.7c-0.9,0.9-1.8,1.8-2.8,2.8c-4.4,4.6-9.1,9.8-13.7,15
		c-2.3,2.6-4.6,5.2-6.8,7.8c-1.1,1.3-2.2,2.6-3.3,3.8c-1.1,1.3-2.2,2.5-3.3,3.7c0.1-0.3,0.5-0.5,0.5-0.8c-0.7,0.7-1.4,1.5-2.2,2.3
		c-0.8,0.8-1.6,1.6-2.4,2.4c-0.9,0.9-1.6,1.8-2.4,2.1c-0.7,0.8-1.3,1.1-2.1,1.9c-0.3-0.1-0.6,0.2-1.1,0.4c0.1-0.2,0.2-0.2,0.3-0.3
		c-0.4,0.2-0.8,0.6-1.1,0.6l0.7-0.7c-0.2-0.1-0.8,0.7-0.8,0.4c0.3-0.4,0.3-0.4,0.3-0.7c4.6-4.8,8.9-9.9,13.2-15
		c4.3-5.1,8.8-10.2,13.3-15.1c3.3-3.6,6.3-6.8,9.4-10c0.8-0.8,1.6-1.6,2.3-2.4c0.8-0.8,1.6-1.6,2.6-2.4c0.3-0.2,0.4-0.3,0.8-0.5
		c0.3-0.1,0.6-0.3,1-0.4c0.7-0.2,1.4-0.2,2.1,0c0.7,0.2,1.3,0.7,1.8,1.1c0.5,0.5,0.9,1,1.2,1.6c0.2,0.4,0.5,0.8,0.6,1.4l-0.1-0.2
		c4,5.8,8.1,11.7,12,17.4c2.7,4,5.2,7.7,7.6,11.4c2.4,3.7,4.8,7.3,7,11.3c0,0.3,0.1,0.7,0.1,0.9c-0.2,0-0.4,0-0.6-0.1
		c-0.1,0-0.2-0.1-0.3-0.1c-0.1-0.1-0.2-0.2-0.4-0.3c-0.5-0.5-1-1.2-1.4-1.7c-0.5-0.6-1.1-1.2-1.5-1.8c-1.4-1.8-2.2-3.4-3.6-5.4
		c-1.3-1.9-2.6-3.7-3.8-5.5c-0.4-0.6-0.8-1.1-1.1-1.7c-1.3-1.5-2.4-3.6-3.7-5.4c-0.3-0.4-0.7-0.7-0.9-1.1
		C185.8,122.2,185.4,121.5,185.2,121.2L185.2,121.2z"/>
</g>
</svg>
