<?xml version="1.0" encoding="utf-8"?>
<!-- Generator: Adobe Illustrator 19.1.0, SVG Export Plug-In . SVG Version: 6.00 Build 0)  -->
<svg version="1.1" xmlns="http://www.w3.org/2000/svg" xmlns:xlink="http://www.w3.org/1999/xlink" x="0px" y="0px"
	 viewBox="0 0 356.5 312" style="enable-background:new 0 0 356.5 312;" xml:space="preserve">
<style type="text/css">
	.st0{display:none;}
	.st1{display:inline;}
	.st2{fill:#FFFFFF;}
	.st3{fill:#575756;}
	.st4{fill-rule:evenodd;clip-rule:evenodd;fill:#575756;}
	.st5{clip-path:url(#SVGID_2_);fill:#575756;}
	.st6{clip-path:url(#SVGID_2_);fill:#FFFFFF;}
	.st7{clip-path:url(#SVGID_4_);fill:#FFFFFF;}
	.st8{clip-path:url(#SVGID_6_);fill:#FFFFFF;}
	.st9{clip-path:url(#SVGID_8_);fill:#FFFFFF;}
	.st10{clip-path:url(#SVGID_8_);fill:#575756;}
</style>
<g id="Ebene_1" class="st0">
	<g class="st1">
		<path class="st2" d="M34.3,103.3h-9.9V59.9h9.9v17.3h14V59.9h9.9v43.4h-9.9V85.9h-14V103.3z"/>
		<path class="st2" d="M116.9,68.6H102v8.6h14.3v8.7H102v8.7h14.9v8.7H92.1V59.9h24.8V68.6z"/>
		<path class="st2" d="M190,103.3h-10.6l-3.2-8.7h-16.5l-3.2,8.7h-10.6l17.5-43.4h9.2L190,103.3z M168,73.3h-0.1L163,85.9h9.8
			L168,73.3z"/>
		<path class="st2" d="M234.8,59.9c8,0,14.2,4.4,14.2,12.9c0,6.5-3.6,10.9-8.9,12.6l14.9,17.9h-12.6l-13.3-17.1v17.1h-9.9V59.9
			H234.8z M230.3,79.1c3.7,0,8.2-0.3,8.2-5.7c0-5.4-4.5-5.7-8.2-5.7h-1.2v11.4H230.3z"/>
		<path class="st2" d="M279.7,59.9h30.5v8.7h-10.3v34.7H290V68.6h-10.3V59.9z"/>
		<path class="st2" d="M48.9,147.5H33.7v8.6h14v8.7h-14v17.4h-9.9v-43.4h25.1V147.5z"/>
		<path class="st2" d="M84.1,138c12,0,21.8,9.8,21.8,22.5c0,12.7-9.4,22.5-21.8,22.5c-12.8,0-21.9-9.8-21.9-22.5
			C62.2,147.8,72.2,138,84.1,138z M84.1,173.4c7.9,0,11.2-6.5,11.2-12.9c0-6.5-3.5-12.9-11.2-12.9c-7.6,0-11.2,6.5-11.2,12.9
			C72.9,166.9,76,173.4,84.1,173.4z"/>
		<path class="st2" d="M136.4,138.8c8,0,14.1,4.4,14.1,12.9c0,6.5-3.6,10.9-8.9,12.6l14.9,17.9H144L130.7,165v17.1h-9.9v-43.4H136.4
			z M131.9,158c3.7,0,8.2-0.3,8.2-5.7c0-5.4-4.5-5.7-8.2-5.7h-1.2V158H131.9z"/>
		<path class="st2" d="M188.6,138.8h30.5v8.7h-10.3v34.7h-9.9v-34.7h-10.3V138.8z"/>
		<path class="st2" d="M243.1,182.2h-9.9v-43.4h9.9v17.3h14v-17.3h9.9v43.4h-9.9v-17.4h-14V182.2z"/>
		<path class="st2" d="M308.7,147.5h-14.9v8.6H308v8.7h-14.3v8.7h14.9v8.7h-24.8v-43.4h24.8V147.5z"/>
		<path class="st2" d="M33.4,261.1h-9.9v-43.4h9.9V235h14v-17.3h9.9v43.4h-9.9v-17.4h-14V261.1z"/>
		<path class="st2" d="M108.8,216.9c12,0,21.8,9.8,21.8,22.5c0,12.7-9.4,22.5-21.8,22.5c-12.8,0-21.9-9.8-21.9-22.5
			C86.9,226.7,96.8,216.9,108.8,216.9z M108.8,252.3c7.9,0,11.2-6.5,11.2-12.9c0-6.5-3.5-12.9-11.2-12.9c-7.6,0-11.2,6.5-11.2,12.9
			C97.6,245.8,100.7,252.3,108.8,252.3z"/>
		<path class="st2" d="M193.6,245.7c0,10.7-5.9,16.2-16.9,16.2c-11,0-16.9-5.5-16.9-16.2v-28h9.9v25.1c0,7.3,2.2,9.4,7,9.4
			c4.8,0,7-2.1,7-9.4v-25.1h9.9V245.7z"/>
		<path class="st2" d="M253,221l-4,7.9c0,0-4.3-3-8.8-3c-3.4,0-5.2,1.5-5.2,3.9c0,2.4,4.1,4.2,9,6.3c4.8,2.1,10.2,6.2,10.2,11.8
			c0,10.4-7.9,14-16.4,14c-10.2,0-16.3-5.7-16.3-5.7l4.9-8.3c0,0,5.8,4.9,10.6,4.9c2.2,0,6.3-0.2,6.3-4.3c0-3.2-4.6-4.6-9.8-7.2
			c-5.2-2.6-8.3-6.6-8.3-11.2c0-8.1,7.2-13.3,14.2-13.3C247.4,216.9,253,221,253,221z"/>
		<path class="st2" d="M309,226.4H294v8.6h14.3v8.7H294v8.7H309v8.7h-24.8v-43.4H309V226.4z"/>
	</g>
	<g class="st1">
		<g>
			<path class="st3" d="M168.6,168.2c-3.1-3.8-7.3-6.6-12.3-7c-6.4-0.5-9.6,6-9.7,11.4c-0.2,6.3,4.7,11.4,9.3,14.8
				c6.3,4.6,11.8,10.7,19.7,12.5c2.2,0.5,1.1-2.8-0.4-3.1c-5.2-1.2-9.4-4.5-13.5-7.8c-3.9-3.2-8.4-5.9-11-10.3
				c-2.9-5-0.7-12.6,5-14.1c4.1-1.1,8.5,2.2,11,5.2C168.2,171.5,170.1,170,168.6,168.2L168.6,168.2z"/>
		</g>
	</g>
	<g class="st1">
		<g>
			<path class="st3" d="M168.4,170.4c2.6-3.1,5.2-6.2,8.5-8.6c5.4-4,7.1,4,7.8,8.1c1.8,10.5-5.1,19.3-11.1,27.1
				c-0.3,0.4,2.9,2.1,3.5,1.2c7.8-10.2,17-24.5,7.3-36.9c-6.4-8.2-15.7,3.2-19.6,7.8C164.5,169.6,167.7,171.3,168.4,170.4
				L168.4,170.4z"/>
		</g>
	</g>
	<g class="st1">
		<path class="st2" d="M71.6,282.9C71.6,283,71.6,283,71.6,282.9c0,0.1,0,0.1,0,0.2c1.5-0.8,3.1-1.4,4.8-2c1.7-0.5,3.3-1,4.9-1.5
			c0.5,0,0.9,0.2,1,0.6c0.1,0.4,0,0.8-0.5,1c-1.1,0.5-2.2,1-3.3,1.5c-1.1,0.5-2.2,1-3.3,1.6c0.4,0.6,0.6,1.2,0.5,1.9
			c0,0.7-0.1,1.4-0.3,2.1c-0.2,0.6-0.4,1.1-0.7,1.8c-0.3,0.6-0.6,1.2-1.1,1.8c-0.4,0.6-0.9,1.1-1.4,1.6c-0.5,0.5-1,0.8-1.6,1
			c-0.3,0.2-0.7,0.2-1.1,0.3c-0.4,0-0.8,0.1-1.2,0.1c-0.3,0-0.6-0.1-0.7-0.2c-0.2-0.1-0.4-0.2-0.6-0.5c-0.2-0.3-0.3-0.5-0.5-0.7
			c-0.2-0.2-0.4-0.5-0.5-0.8c-0.3-0.7-0.3-1.6-0.2-2.6c0.2-1,0.4-2,0.8-3c0.4-1,0.8-2,1.4-2.9c0.5-0.9,1-1.6,1.5-2.2
			c0.6-0.5,1.1-0.5,1.5,0.2L71.6,282.9z M71.2,286.2c-0.6-0.3-1-0.7-1.1-1.2c-0.5,1-0.8,2.1-0.9,3.3c-0.2,1.2-0.2,2.3-0.1,3.4
			c0.4-0.1,0.7-0.3,1.1-0.6c0.3-0.3,0.7-0.7,0.9-1.1c0.3-0.4,0.5-0.8,0.7-1.3c0.2-0.4,0.4-0.8,0.5-1.1c0.2-0.4,0.3-0.8,0.3-1.2
			l0-0.1c-0.2-0.1-0.5-0.1-0.7,0C71.7,286.3,71.4,286.3,71.2,286.2z"/>
		<path class="st2" d="M81.4,279.4c0.1-0.3,0.3-0.4,0.5-0.5c0.2-0.1,0.4-0.1,0.6,0c0.2,0.1,0.3,0.2,0.4,0.4c0.1,0.2,0.1,0.5,0,0.8
			c-0.3,0.9-0.5,1.9-0.7,3c-0.2,1.1-0.4,2.3-0.5,3.5c-0.1,1.2-0.2,2.4-0.1,3.5c0,1.2,0.2,2.2,0.5,3.1c0.1-0.1,0.3-0.2,0.4-0.3
			c0.1-0.1,0.3-0.2,0.4-0.3l0,0c0.3-0.5,0.7-1,1.2-1.5c0.5-0.5,0.9-1,1.2-1.5c0.6-0.9,1.2-1.9,1.6-3c0.4-1,0.9-2.1,1.3-3.1
			c0.2-0.4,0.5-0.7,0.8-0.8c0.3-0.2,0.6-0.2,0.9-0.1c0.3,0.1,0.6,0.3,0.8,0.6c0.2,0.3,0.3,0.7,0.3,1.1c0,0.5-0.1,1-0.2,1.7
			c-0.1,0.7-0.1,1.4-0.1,2.2c0,0.8,0,1.5,0.1,2.3c0.1,0.8,0.3,1.5,0.6,2.1c0.1,0.2,0.2,0.2,0.4,0.2c0.2,0,0.4-0.1,0.6-0.3
			c0.2-0.1,0.5-0.3,0.7-0.4c0.2-0.1,0.4-0.2,0.6-0.1c0.2,0.2,0.4,0.3,0.4,0.5c0,0.2,0,0.3-0.1,0.5c-0.1,0.2-0.2,0.3-0.4,0.5
			c-0.2,0.2-0.3,0.3-0.5,0.4c-0.9,0.7-1.6,0.9-2.2,0.8c-0.6-0.1-1.1-0.5-1.4-0.9c-0.4-0.5-0.6-1.1-0.8-1.7c-0.2-0.6-0.3-1.1-0.4-1.4
			c-0.3,0.5-0.6,1.1-1,1.6c-0.6,0.9-1.3,1.7-2.2,2.5s-1.7,1.2-2.5,1.5c-0.8,0.2-1.6,0.1-2.3-0.4c-0.7-0.5-1.3-1.5-1.6-3.1
			c-0.2-0.7-0.2-1.7-0.1-3c0.1-1.3,0.3-2.6,0.6-4c0.3-1.4,0.6-2.7,1-3.9C80.7,280.9,81.1,280,81.4,279.4z"/>
		<path class="st2" d="M95.7,291.2c-0.3,0.1-0.5,0-0.7-0.1c-0.2-0.1-0.3-0.2-0.4-0.4c-0.1-0.2-0.1-0.4-0.1-0.6
			c0-0.2,0.2-0.4,0.3-0.6c0.3-0.6,0.7-1.4,1.1-2.4c0.5-1.1,0.9-2.2,1.4-3.3c0.5-1.2,0.9-2.2,1.4-3.3c0.5-1,0.8-1.8,1.1-2.2
			c0.6-0.5,1.3-0.6,2.1-0.2c0.8,1,1.4,1.8,2,2.5c0.5,0.7,1,1.4,1.3,2c0.3,0.6,0.6,1.2,0.7,1.8c0.1,0.6,0.2,1.2,0.2,1.9
			c0,0.7-0.1,1.5-0.2,2.4s-0.3,2-0.5,3.3c0.8-0.2,1.6-0.5,2.4-0.8c0.8-0.3,1.6-0.7,2.4-1c0.3-0.1,0.5-0.1,0.8,0
			c0.2,0.1,0.4,0.2,0.5,0.4c0.1,0.2,0.1,0.4,0.1,0.6c0,0.2-0.2,0.4-0.5,0.6c-1,0.6-2,1.2-3,1.8c-1,0.6-2.1,1.1-3.1,1.5
			c-0.4,0.1-0.7,0.1-0.9,0c-0.2-0.1-0.5-0.2-0.8-0.5c-0.4-0.4-0.7-0.8-0.8-1.3c-0.1-0.5-0.1-0.9-0.1-1.4c0-0.5,0.1-1,0.3-1.5
			c0.1-0.5,0.2-1,0.2-1.5c0.1-0.8,0.1-1.4,0.1-2.1c0-0.6-0.1-1.2-0.2-1.8c-0.1-0.6-0.3-1.1-0.6-1.7c-0.3-0.6-0.6-1.1-1-1.8
			c-0.2,0.3-0.6,1-1,1.9c-0.4,1-0.9,2-1.5,3.1c-0.5,1.1-1,2.1-1.6,3C96.5,290.5,96.1,291,95.7,291.2z"/>
		<path class="st2" d="M128.9,281.7c0.3-0.7,0.6-1.2,0.8-1.6c0.2-0.4,0.4-0.6,0.5-0.8c0.1-0.1,0.3-0.2,0.3-0.1
			c0.1,0,0.2,0.1,0.2,0.2c0.2,0.3,0.3,0.7,0.4,1.2c0,0.5,0,1-0.1,1.6c-0.1,0.6-0.2,1.2-0.3,1.8c-0.1,0.7-0.3,1.3-0.4,2
			c0.3-0.7,0.6-1.4,0.9-2c0.3-0.7,0.6-1.3,1-2c0.2-0.3,0.4-0.7,0.7-1.3c0.3-0.5,0.6-1,0.9-1.5c0.3-0.5,0.7-0.9,1.1-1.2
			c0.4-0.3,0.9-0.5,1.4-0.4c0.3,0.1,0.6,0.2,0.7,0.3c0.2,0.1,0.4,0.3,0.5,0.6c0.3,0.6,0.5,1.2,0.5,1.9c0,0.7-0.1,1.4-0.2,2.1
			c-0.1,0.7-0.3,1.4-0.4,2.1c-0.2,0.7-0.2,1.4-0.3,2l2.5-4.4c0.2-0.4,0.4-0.6,0.7-0.8c0.3-0.2,0.6-0.2,0.9-0.2
			c0.3,0,0.6,0.1,0.8,0.3c0.2,0.2,0.4,0.5,0.6,0.9c0,0.5,0,1.2-0.1,1.9c-0.1,0.8-0.1,1.5-0.1,2.3c0,0.8,0.1,1.5,0.2,2.2
			c0.1,0.7,0.4,1.2,0.7,1.6c0.7-0.1,1.4-0.5,2-1.1c0.7-0.6,1.3-1.3,1.8-2.1c0.5-0.8,1-1.7,1.4-2.5c0.4-0.9,0.7-1.6,0.9-2.2
			c0.2-0.5,0.6-0.6,1-0.5c0.4,0.1,0.6,0.4,0.7,0.9c-0.6,2-1.3,3.7-2.3,5.1c-0.9,1.5-2.2,2.9-3.7,4.3c-0.3,0.2-0.6,0.5-1.1,0.6
			c-0.5,0.2-1,0.2-1.6,0c-0.5-0.2-0.9-0.4-1.2-0.8c-0.3-0.3-0.6-0.8-0.8-1.2c-0.2-0.5-0.4-0.9-0.5-1.4c-0.1-0.5-0.2-0.9-0.2-1.3
			c-0.2,0.4-0.5,0.8-0.7,1.2c-0.3,0.4-0.6,0.8-0.9,1.1c-0.3,0.3-0.7,0.6-1.1,0.8c-0.4,0.2-0.8,0.3-1.3,0.3c-0.4,0-0.7-0.1-1-0.3
			c-0.3-0.2-0.5-0.4-0.7-0.8c-0.3-0.8-0.4-1.6-0.4-2.4c0-0.8,0-1.6,0.1-2.4c-0.7,1.4-1.4,2.7-2.1,4.1c-0.7,1.4-1.6,2.6-2.6,3.7
			c-0.5,0.3-0.9,0.4-1.3,0.3c-0.4-0.1-0.7-0.4-1-0.9c-0.2-0.7-0.2-1.6-0.1-2.6c0.1-1,0.3-2,0.5-3c0.3-1,0.5-2,0.8-3
			C128.5,283.3,128.7,282.5,128.9,281.7z M134.4,282.9C134.4,282.8,134.4,282.8,134.4,282.9c0,0.1-0.1,0.2-0.1,0.3L134.4,282.9z"/>
		<path class="st2" d="M150,280.2c0.4-0.7,0.8-1,1.2-0.9c0.3,0.1,0.5,0.4,0.5,1c-0.2,1.3-0.4,2.6-0.5,3.7c-0.2,1.2-0.3,2.2-0.3,3.1
			c-0.1,0.9-0.1,1.6,0,2.2c0.1,0.6,0.3,0.9,0.6,0.9l0,0c0.4,0.1,0.8,0.2,1.4,0.1c0.5-0.1,1.1-0.3,1.7-0.5c0.6-0.3,1.2-0.6,1.7-1
			c0.6-0.4,1.1-0.8,1.5-1.3c0.3-0.1,0.5-0.1,0.7-0.1c0.2,0.1,0.4,0.1,0.5,0.3c0.1,0.1,0.2,0.3,0.2,0.5c0,0.2-0.1,0.4-0.2,0.6
			c-2,1.7-3.7,2.9-5.1,3.5c-1.4,0.6-2.6,0.9-3.4,0.7c-0.9-0.1-1.5-0.6-1.9-1.3c-0.4-0.8-0.6-1.6-0.5-2.6c0.1-1.9,0.3-3.5,0.7-4.9
			C149,282.9,149.5,281.6,150,280.2z M153.1,270.5c0.2,0.3,0.3,0.5,0.3,0.8c0,0.3-0.1,0.5-0.2,0.7c-0.1,0.2-0.3,0.3-0.6,0.4
			c-0.2,0.1-0.5,0-0.8-0.2c-0.3-0.2-0.5-0.5-0.5-0.8c0-0.3,0-0.5,0.2-0.8c0.2-0.2,0.4-0.4,0.7-0.4
			C152.4,270.2,152.7,270.3,153.1,270.5z"/>
		<path class="st2" d="M158.7,289c-0.3,0.1-0.5,0-0.7-0.1c-0.2-0.1-0.3-0.2-0.4-0.4c-0.1-0.2-0.1-0.4-0.1-0.6c0-0.2,0.2-0.4,0.3-0.6
			c0.3-0.6,0.7-1.4,1.1-2.4c0.5-1.1,0.9-2.2,1.4-3.3c0.5-1.2,0.9-2.2,1.4-3.3c0.5-1,0.8-1.8,1.1-2.2c0.6-0.5,1.3-0.6,2.1-0.2
			c0.8,1,1.4,1.8,2,2.5c0.5,0.7,1,1.4,1.3,2c0.3,0.6,0.6,1.2,0.7,1.8c0.1,0.6,0.2,1.2,0.2,1.9c0,0.7-0.1,1.5-0.2,2.4
			c-0.1,0.9-0.3,2-0.5,3.3c0.8-0.2,1.6-0.5,2.4-0.8c0.8-0.3,1.6-0.7,2.4-1c0.3-0.1,0.5-0.1,0.8,0c0.2,0.1,0.4,0.2,0.5,0.4
			c0.1,0.2,0.1,0.4,0.1,0.6c-0.1,0.2-0.2,0.4-0.5,0.6c-1,0.6-2,1.2-3,1.8c-1,0.6-2.1,1.1-3.1,1.5c-0.4,0.1-0.7,0.1-0.9,0
			c-0.2-0.1-0.5-0.2-0.8-0.5c-0.4-0.4-0.7-0.8-0.8-1.3c-0.1-0.5-0.1-0.9-0.1-1.4c0-0.5,0.1-1,0.3-1.5c0.1-0.5,0.2-1,0.2-1.5
			c0.1-0.8,0.1-1.4,0.1-2.1c0-0.6-0.1-1.2-0.2-1.8c-0.1-0.6-0.3-1.1-0.6-1.7c-0.3-0.6-0.6-1.1-1-1.8c-0.2,0.3-0.6,1-1,1.9
			c-0.4,1-0.9,2-1.4,3.1c-0.5,1.1-1,2.1-1.6,3C159.5,288.3,159.1,288.8,158.7,289z"/>
		<path class="st2" d="M182.9,279.1c0,0.1,0,0.3-0.1,0.4c0.6-0.1,1,0,1.4,0.3c0.4,0.3,0.5,0.8,0.5,1.5c-0.1,0.5-0.3,1.2-0.5,2.1
			c-0.2,0.8-0.4,1.7-0.6,2.6c-0.2,0.9-0.3,1.7-0.4,2.5c-0.1,0.8-0.1,1.4,0.1,1.9c0.4,0,0.8-0.2,1.2-0.5c0.4-0.3,0.7-0.6,1.1-0.9
			c0.3-0.3,0.7-0.7,1-1.1c0.3-0.4,0.6-0.7,0.8-1.1c0.2-0.2,0.5-0.3,0.7-0.3c0.2,0,0.4,0.1,0.6,0.2c0.1,0.1,0.2,0.3,0.3,0.6
			c0,0.2,0,0.5-0.2,0.7c0,0-0.2,0.2-0.5,0.6c-0.3,0.4-0.6,0.8-1.1,1.3c-0.4,0.5-0.9,1-1.3,1.5c-0.5,0.5-0.9,0.8-1.3,1
			c-0.5,0.2-1.1,0.4-1.7,0.4c-0.6,0-1.1-0.3-1.5-0.9c-0.3-0.6-0.5-1.1-0.6-1.7c-0.1-0.6-0.2-1.1-0.2-1.7c-0.5,0.5-1.1,1-1.7,1.4
			c-0.6,0.4-1.3,0.8-2,1.2c-0.3,0.1-0.6,0.1-0.9,0c-0.3-0.1-0.7-0.2-1-0.3c-0.3-0.1-0.6-0.3-0.8-0.6c-0.3-0.2-0.4-0.5-0.5-0.8
			c-0.3-0.7-0.3-1.7-0.2-2.9c0.1-1.2,0.4-2.4,0.7-3.6c0.4-1.2,0.8-2.3,1.4-3.4c0.6-1,1.2-1.7,1.8-2.1c0.4-0.2,0.7-0.5,1.1-0.7
			c0.4-0.2,0.7-0.4,1.1-0.5c0.5-0.1,0.9-0.1,1.3,0c0.4,0.1,0.8,0.3,1.1,0.6c0.3,0.3,0.5,0.6,0.7,1
			C182.9,278.2,182.9,278.6,182.9,279.1z M176.5,287.6c0.7-0.4,1.3-1,1.7-1.6c0.4-0.7,0.8-1.4,1.2-2.1c0.4-0.7,0.7-1.4,1.1-2.1
			c0.4-0.7,0.8-1.3,1.4-1.8c-0.4-0.1-0.6-0.4-0.6-0.8l-0.1-0.4l-1.2-0.3c-0.6,0.5-1.2,1-1.7,1.8c-0.5,0.7-0.8,1.5-1.1,2.3
			c-0.3,0.8-0.5,1.7-0.6,2.6C176.4,286,176.4,286.8,176.5,287.6z"/>
		<path class="st2" d="M197.1,279.2c0,0.5-0.2,0.9-0.6,1c-0.4,0.1-0.8-0.1-1.1-0.5l-0.3-2.5l-0.6,0c-0.6,0.4-1.1,1-1.7,1.8
			c-0.6,0.8-1,1.7-1.4,2.6c-0.4,0.9-0.7,1.9-0.9,2.8c-0.2,1-0.2,1.8,0,2.5c0.1,0.3,0.2,0.6,0.5,0.9c0.2,0.4,0.5,0.6,0.8,0.6
			c0.4-0.1,0.9-0.3,1.3-0.5c0.5-0.3,0.9-0.6,1.4-1c0.5-0.4,0.9-0.7,1.4-1.1c0.4-0.4,0.8-0.7,1.2-0.9c0.3-0.1,0.5-0.1,0.7-0.1
			c0.2,0.1,0.3,0.1,0.5,0.3c0.1,0.1,0.2,0.3,0.2,0.5c0,0.2-0.1,0.4-0.2,0.6c-0.4,0.4-0.8,0.8-1.2,1.3c-0.4,0.5-0.9,1-1.3,1.5
			c-0.5,0.5-0.9,0.9-1.4,1.3c-0.5,0.4-1,0.7-1.6,0.9c-0.6,0.2-1.1,0.2-1.7,0.1c-0.6-0.1-1.1-0.4-1.5-0.7c-0.5-0.3-0.9-0.7-1.2-1.2
			c-0.3-0.5-0.6-1-0.8-1.5c-0.3-0.8-0.3-1.8-0.2-3c0.1-1.2,0.4-2.4,0.8-3.6c0.4-1.2,0.9-2.4,1.6-3.4c0.7-1,1.5-1.8,2.3-2.3
			c0.7-0.4,1.4-0.6,2.1-0.7c0.7,0,1.3,0.1,1.7,0.4c0.5,0.3,0.8,0.8,1.1,1.5C197.2,277.4,197.2,278.2,197.1,279.2z"/>
		<path class="st2" d="M210.2,265.1c-0.2,1.2-0.6,2.7-1.1,4.5c-0.5,1.7-1.1,3.5-1.8,5.2c-0.7,1.8-1.5,3.4-2.4,5
			c-0.9,1.5-1.8,2.8-2.8,3.7c0,0.5,0.1,0.9,0.1,1.4c0,0.5,0.1,0.9,0.3,1.3c0.1,0.4,0.3,0.8,0.6,1.2c0.2,0.4,0.6,0.7,1,0.9
			c1.6-0.4,3-1,4.2-1.9c1.2-0.9,2.3-2,3.3-3.3c0.2-0.2,0.4-0.3,0.6-0.3c0.2,0,0.4,0,0.5,0.2c0.1,0.1,0.3,0.3,0.3,0.4
			c0.1,0.2,0.1,0.4,0,0.7c-0.5,0.7-1,1.5-1.7,2.2c-0.7,0.8-1.4,1.5-2.3,2.2c-0.8,0.7-1.7,1.2-2.6,1.6c-0.9,0.4-1.8,0.6-2.6,0.6
			c-0.8,0-1.6-0.3-2.3-0.9c-0.7-0.6-1.3-1.5-1.8-2.9c-0.4-1-0.6-2.1-0.7-3.4c-0.1-1.2-0.2-2.4-0.2-3.4c0-1,0.1-2.1,0.2-3.3
			c0.1-1.3,0.3-2.6,0.5-3.9c0.2-1.4,0.6-2.7,1-4.1c0.4-1.4,0.9-2.7,1.4-4c0.6-1.3,1.2-2.4,1.9-3.4c0.7-1,1.6-1.8,2.5-2.4
			c0.7-0.5,1.4-0.6,2-0.3c0.6,0.2,1.1,0.5,1.4,1c0.3,0.5,0.5,1.1,0.5,1.8c0.1,0.7,0.1,1.3,0,2C210.3,264.1,210.3,264.6,210.2,265.1z
			 M204.2,268.8c-0.8,1.9-1.3,3.9-1.7,5.9c-0.4,2-0.5,4-0.5,6c0.5-0.7,0.9-1.5,1.2-2.3c0.3-0.8,0.6-1.6,0.9-2.4
			c0.3-0.8,0.7-1.8,1.1-3c0.4-1.2,0.8-2.4,1.1-3.6c0.3-1.2,0.6-2.5,0.8-3.7c0.2-1.2,0.3-2.3,0.2-3.2c-0.1,0.2-0.3,0.4-0.4,0.6
			c-0.1,0.2-0.3,0.4-0.4,0.6c-0.5,0.8-1,1.6-1.3,2.5C204.9,267.1,204.6,267.9,204.2,268.8z"/>
		<path class="st2" d="M220.6,278.6c-0.3,0.8-0.7,1.5-1.1,2.3c-0.4,0.8-0.8,1.5-1.3,2.1c-0.5,0.6-1,1.2-1.6,1.7
			c-0.6,0.5-1.3,0.9-2,1.1c0,0.5,0.1,0.9,0.2,1.4c0.1,0.5,0.2,0.9,0.5,1.2c0.2,0.3,0.5,0.5,0.9,0.6c0.4,0.1,0.8-0.1,1.4-0.4
			c0.2-0.1,0.5-0.3,0.9-0.6c0.4-0.3,0.8-0.6,1.3-1c0.5-0.4,0.9-0.8,1.3-1.3c0.4-0.5,0.7-0.9,0.9-1.4c0.1-0.3,0.3-0.4,0.5-0.4
			c0.2,0,0.4,0.1,0.6,0.2c0.2,0.2,0.3,0.4,0.4,0.6c0.1,0.3,0,0.5-0.1,0.7c-0.2,0.4-0.5,0.8-0.9,1.3c-0.4,0.5-0.9,1-1.4,1.5
			c-0.5,0.5-0.9,0.9-1.4,1.3c-0.5,0.4-0.8,0.7-1.1,0.8c-0.1,0-0.2,0.1-0.3,0.2c-0.2,0.1-0.4,0.2-0.6,0.3c-0.2,0.1-0.4,0.2-0.7,0.3
			c-0.2,0.1-0.4,0.1-0.6,0.2c-0.6,0-1.2-0.1-1.7-0.3c-0.5-0.2-1-0.5-1.4-0.9c-0.4-0.4-0.7-0.9-1-1.4c-0.3-0.5-0.4-1.1-0.5-1.7
			c0-0.2-0.1-0.4-0.1-0.6c0-0.2,0-0.4,0-0.6c-0.2-0.1-0.3-0.3-0.3-0.6c0-0.2,0.1-0.5,0.2-0.6c0-0.4,0-0.9,0-1.3
			c0-0.4,0.1-0.9,0.2-1.3c0.2-0.8,0.4-1.7,0.8-2.8c0.4-1.1,0.8-2.1,1.4-3.1c0.6-1,1.3-1.8,2.1-2.5c0.8-0.7,1.7-1,2.8-0.9
			c0.7,0,1.2,0.3,1.5,0.7c0.3,0.5,0.6,1,0.7,1.6c0.1,0.6,0.1,1.2,0,1.9C220.9,277.7,220.8,278.2,220.6,278.6z M218,276.5
			c-0.3,0.3-0.7,0.7-1,1.2c-0.3,0.5-0.6,1.1-0.9,1.8c-0.3,0.6-0.5,1.3-0.7,2c-0.2,0.7-0.4,1.3-0.5,1.9c0.2-0.2,0.5-0.5,0.7-0.9
			c0.2-0.4,0.5-0.8,0.8-1.4c0.1-0.2,0.3-0.5,0.5-0.9c0.2-0.4,0.4-0.8,0.5-1.2c0.2-0.4,0.3-0.9,0.4-1.3
			C217.9,277.2,218,276.8,218,276.5z"/>
		<path class="st2" d="M245.7,276.8C245.7,276.9,245.7,276.9,245.7,276.8c0,0.1,0,0.1,0,0.2c1.5-0.8,3.1-1.4,4.8-2
			c1.7-0.5,3.3-1,4.9-1.5c0.5,0,0.9,0.2,1,0.6c0.1,0.4,0,0.8-0.5,1c-1.1,0.5-2.2,1-3.3,1.5c-1.1,0.5-2.2,1-3.3,1.6
			c0.4,0.6,0.6,1.2,0.5,1.9c0,0.7-0.1,1.4-0.3,2.1c-0.2,0.6-0.4,1.1-0.7,1.8c-0.3,0.6-0.7,1.2-1.1,1.8c-0.4,0.6-0.9,1.1-1.4,1.6
			c-0.5,0.5-1,0.8-1.6,1c-0.3,0.2-0.7,0.2-1.1,0.3c-0.4,0-0.8,0.1-1.2,0.1c-0.3,0-0.6-0.1-0.7-0.2c-0.2-0.1-0.4-0.2-0.6-0.5
			c-0.2-0.3-0.3-0.5-0.5-0.7c-0.2-0.2-0.4-0.5-0.5-0.8c-0.3-0.7-0.3-1.6-0.2-2.6c0.2-1,0.4-2,0.8-3c0.4-1,0.8-2,1.4-2.9
			c0.5-0.9,1-1.6,1.5-2.2c0.6-0.5,1.1-0.5,1.5,0.2L245.7,276.8z M245.3,280.1c-0.6-0.3-1-0.7-1.1-1.2c-0.5,1-0.8,2.1-0.9,3.3
			c-0.2,1.2-0.2,2.3-0.1,3.4c0.4-0.1,0.7-0.3,1.1-0.6c0.4-0.3,0.7-0.7,0.9-1.1c0.3-0.4,0.5-0.8,0.7-1.3c0.2-0.4,0.4-0.8,0.5-1.1
			c0.2-0.4,0.3-0.8,0.3-1.2l0-0.1c-0.2-0.1-0.5-0.1-0.7,0C245.8,280.3,245.5,280.2,245.3,280.1z"/>
		<path class="st2" d="M259.7,278.2c-0.4,0.4-0.9,0.9-1.5,1.4c-0.6,0.5-1.2,1-1.7,1.5l-0.1,1.4l0-0.6c0,0.5-0.1,1-0.1,1.4
			c0,0.4,0,0.9,0,1.4c0.6-0.3,1.2-0.6,1.8-0.8c0.6-0.2,1.1-0.3,1.6-0.2l0.4-0.3c0.6-0.5,1.2-0.9,1.8-1.4c0.6-0.5,1.2-1,1.8-1.4
			c0.6-0.5,1.2-0.9,1.9-1.2c0.7-0.4,1.4-0.6,2.2-0.7c0.3,0,0.5,0.1,0.7,0.2c0.2,0.2,0.3,0.3,0.3,0.5c0,0.2,0,0.4-0.2,0.6
			c-0.1,0.2-0.3,0.3-0.6,0.3c-0.6,0.2-1.2,0.4-1.8,0.8c-0.6,0.4-1.1,0.7-1.6,1.2c-0.5,0.4-1,0.9-1.5,1.4c-0.5,0.5-1,1-1.4,1.4
			l0.1,0.2c0.3,0.5,0.4,1.1,0.3,1.9c-0.1,0.8-0.2,1.5-0.4,2.3c-0.2,0.8-0.5,1.5-0.8,2.3c-0.3,0.7-0.6,1.3-0.8,1.8
			c-0.5,1-0.9,1.9-1.5,2.9c-0.5,0.9-1.2,1.7-2.1,2.4c-0.5,0.3-1,0.4-1.4,0.3c-0.5-0.1-0.8-0.5-1.1-1c-0.4-0.9-0.7-2-0.8-3.1
			c-0.1-1.2-0.1-2.4-0.1-3.6c-0.5,0-0.9-0.1-1.1-0.4c-0.3-0.3-0.3-0.7-0.2-1.2c0.1-0.3,0.2-0.7,0.5-1.1c0.2-0.4,0.5-0.8,0.9-1.2
			c-0.1-3.9,0-7.7,0.4-11.4c0.4-3.7,1.2-7.4,2.3-11.1c0.2-0.6,0.3-1.2,0.6-2c0.2-0.8,0.5-1.5,0.8-2.3c0.3-0.7,0.6-1.4,1-2.1
			c0.4-0.7,0.8-1.2,1.4-1.5c0.5-0.4,1.1-0.6,1.6-0.6c0.5,0,1.1,0,1.5,0.2c0.5,0.2,0.9,0.6,1.2,1c0.3,0.5,0.6,1,0.7,1.7
			c0.2,1.2,0.3,2.4,0.3,3.6c0,1.2-0.2,2.4-0.4,3.6c-0.2,1.2-0.6,2.3-1,3.5c-0.4,1.2-0.9,2.3-1.3,3.4c-0.3,0.8-0.7,1.6-1.1,2.4
			C260.9,276.8,260.4,277.6,259.7,278.2z M258,287.8c-0.3,0.2-0.5,0.4-0.8,0.7c-0.3,0.2-0.5,0.5-0.8,0.7l0.2,4.5
			c0.6-1.1,1.1-2.2,1.5-3.2c0.4-1,0.7-2.2,0.8-3.3c-0.2,0.1-0.3,0.2-0.5,0.4C258.3,287.6,258.1,287.7,258,287.8z M261.3,259.5
			c-0.2,0.2-0.4,0.4-0.5,0.6c-0.2,0.3-0.3,0.6-0.5,1c-0.2,0.4-0.3,0.7-0.4,1.1c-0.1,0.4-0.2,0.8-0.4,1.1l-0.2,0.5
			c-0.8,2.5-1.3,4.9-1.8,7.3c-0.4,2.4-0.7,4.9-0.9,7.4c0.4-0.4,0.8-0.8,1.1-1.1c0.3-0.4,0.6-0.8,0.9-1.3c0.5-0.9,1.1-2,1.6-3.2
			c0.5-1.2,0.9-2.4,1.3-3.7c0.3-1.3,0.6-2.5,0.8-3.8c0.2-1.3,0.2-2.4,0.1-3.5c0-0.3,0-0.6-0.1-0.9c-0.1-0.3-0.2-0.6-0.3-0.8
			c-0.1-0.1-0.2-0.3-0.3-0.4C261.6,259.8,261.5,259.7,261.3,259.5z M259.2,264.5l0.2-0.6l0.2-0.4c0,0.1,0,0.2-0.1,0.3
			c-0.1,0.1-0.1,0.3-0.1,0.4C259.3,264.3,259.2,264.4,259.2,264.5C259.2,264.6,259.2,264.6,259.2,264.5z"/>
		<path class="st2" d="M271.4,277.8c-0.4,0.4-0.9,0.9-1.5,1.4c-0.6,0.5-1.2,1-1.7,1.5l-0.1,1.4l0-0.6c0,0.5-0.1,1-0.1,1.4
			c0,0.5,0,0.9,0,1.4c0.6-0.3,1.2-0.6,1.8-0.8c0.6-0.2,1.1-0.3,1.6-0.2l0.4-0.3c0.6-0.5,1.2-0.9,1.8-1.4c0.6-0.5,1.2-1,1.8-1.4
			c0.6-0.5,1.2-0.9,1.9-1.2c0.7-0.4,1.4-0.6,2.2-0.7c0.3,0,0.5,0.1,0.7,0.2c0.2,0.2,0.3,0.3,0.3,0.5c0,0.2,0,0.4-0.2,0.6
			c-0.1,0.2-0.3,0.3-0.6,0.3c-0.6,0.2-1.2,0.4-1.8,0.8c-0.6,0.4-1.1,0.7-1.6,1.2c-0.5,0.4-1,0.9-1.5,1.4c-0.5,0.5-1,0.9-1.4,1.4
			l0.1,0.2c0.3,0.5,0.4,1.1,0.3,1.9c-0.1,0.8-0.2,1.5-0.4,2.3c-0.2,0.8-0.5,1.5-0.8,2.3c-0.3,0.7-0.6,1.3-0.8,1.8
			c-0.5,1-0.9,1.9-1.5,2.9c-0.5,0.9-1.2,1.7-2.1,2.4c-0.5,0.3-1,0.4-1.4,0.3c-0.5-0.1-0.8-0.5-1.1-1c-0.4-0.9-0.7-2-0.8-3.1
			c-0.1-1.2-0.1-2.4-0.1-3.6c-0.5,0-0.9-0.1-1.1-0.4c-0.3-0.3-0.3-0.7-0.2-1.2c0.1-0.3,0.2-0.7,0.5-1.1c0.2-0.4,0.5-0.8,0.9-1.2
			c-0.1-3.9,0-7.7,0.4-11.4c0.4-3.7,1.2-7.4,2.3-11.1c0.2-0.6,0.3-1.2,0.6-2c0.2-0.8,0.5-1.5,0.8-2.3c0.3-0.7,0.6-1.5,1-2.1
			c0.4-0.7,0.8-1.2,1.4-1.5c0.5-0.4,1.1-0.6,1.6-0.6c0.5,0,1.1,0,1.5,0.2c0.5,0.2,0.9,0.6,1.2,1c0.3,0.5,0.6,1,0.7,1.7
			c0.2,1.2,0.3,2.4,0.3,3.6c0,1.2-0.2,2.4-0.4,3.6c-0.2,1.2-0.6,2.3-1,3.5c-0.4,1.2-0.9,2.3-1.3,3.4c-0.3,0.8-0.7,1.6-1.1,2.4
			C272.6,276.4,272,277.2,271.4,277.8z M269.7,287.4c-0.3,0.2-0.5,0.4-0.8,0.7c-0.3,0.2-0.5,0.5-0.8,0.7l0.2,4.5
			c0.6-1.1,1.1-2.2,1.5-3.2c0.4-1,0.7-2.2,0.8-3.3c-0.2,0.1-0.3,0.2-0.5,0.4C269.9,287.2,269.8,287.3,269.7,287.4z M273,259.1
			c-0.2,0.2-0.4,0.4-0.5,0.6c-0.2,0.3-0.3,0.6-0.5,1c-0.2,0.4-0.3,0.7-0.4,1.1c-0.1,0.4-0.2,0.8-0.4,1.1l-0.2,0.5
			c-0.8,2.4-1.3,4.9-1.8,7.3c-0.4,2.4-0.7,4.9-0.9,7.4c0.4-0.4,0.8-0.8,1.1-1.1c0.3-0.4,0.6-0.8,0.9-1.3c0.5-0.9,1.1-2,1.6-3.2
			c0.5-1.2,0.9-2.4,1.3-3.7c0.3-1.3,0.6-2.5,0.8-3.8c0.2-1.3,0.2-2.4,0.1-3.5c0-0.3,0-0.6-0.1-0.9c-0.1-0.3-0.2-0.6-0.3-0.8
			c-0.1-0.1-0.2-0.3-0.3-0.4C273.3,259.4,273.1,259.3,273,259.1z M270.9,264.1l0.2-0.6l0.2-0.4c0,0.1,0,0.2-0.1,0.3
			c-0.1,0.1-0.1,0.3-0.1,0.4C270.9,263.9,270.9,264,270.9,264.1C270.9,264.2,270.9,264.2,270.9,264.1z"/>
		<path class="st2" d="M286.5,276.3c-0.3,0.8-0.7,1.5-1.1,2.3c-0.4,0.8-0.8,1.5-1.3,2.1c-0.5,0.6-1,1.2-1.6,1.7
			c-0.6,0.5-1.3,0.9-2,1.1c0,0.5,0.1,0.9,0.2,1.4c0.1,0.5,0.2,0.9,0.5,1.2c0.2,0.3,0.5,0.5,0.9,0.6c0.4,0.1,0.8-0.1,1.4-0.4
			c0.2-0.1,0.5-0.3,0.9-0.6c0.4-0.3,0.8-0.6,1.3-1c0.5-0.4,0.9-0.8,1.3-1.3c0.4-0.5,0.7-0.9,0.9-1.4c0.1-0.3,0.3-0.4,0.5-0.4
			c0.2,0,0.4,0.1,0.6,0.2c0.2,0.2,0.3,0.4,0.4,0.6c0.1,0.3,0,0.5-0.1,0.7c-0.2,0.4-0.5,0.8-0.9,1.3c-0.4,0.5-0.9,1-1.4,1.5
			c-0.5,0.5-0.9,0.9-1.4,1.3c-0.5,0.4-0.8,0.7-1.1,0.8c-0.1,0-0.2,0.1-0.3,0.2c-0.2,0.1-0.4,0.2-0.6,0.3c-0.2,0.1-0.4,0.2-0.7,0.3
			c-0.2,0.1-0.4,0.1-0.6,0.2c-0.6,0-1.2-0.1-1.7-0.3c-0.5-0.2-1-0.5-1.4-0.9c-0.4-0.4-0.7-0.9-1-1.4c-0.2-0.5-0.4-1.1-0.5-1.7
			c0-0.2-0.1-0.4-0.1-0.6c0-0.2,0-0.4,0-0.6c-0.2-0.1-0.3-0.3-0.3-0.6c0-0.2,0.1-0.5,0.2-0.6c0-0.4,0-0.9,0-1.3
			c0-0.4,0.1-0.9,0.2-1.4c0.2-0.8,0.4-1.7,0.8-2.8c0.4-1.1,0.8-2.1,1.4-3.1c0.6-1,1.3-1.8,2.1-2.5c0.8-0.7,1.7-1,2.8-0.9
			c0.7,0,1.2,0.3,1.5,0.7c0.3,0.5,0.6,1,0.7,1.6c0.1,0.6,0.1,1.2,0,1.9C286.8,275.4,286.7,275.9,286.5,276.3z M283.9,274.2
			c-0.3,0.3-0.7,0.7-1,1.2c-0.3,0.5-0.6,1.1-0.9,1.8c-0.3,0.6-0.5,1.3-0.7,2c-0.2,0.7-0.4,1.3-0.5,1.9c0.2-0.2,0.5-0.5,0.7-0.9
			c0.2-0.4,0.5-0.8,0.8-1.4c0.1-0.2,0.3-0.5,0.5-0.9c0.2-0.4,0.4-0.8,0.5-1.2c0.2-0.4,0.3-0.9,0.4-1.3
			C283.8,274.9,283.9,274.5,283.9,274.2z"/>
		<path class="st2" d="M288.3,284.4c-0.3,0.1-0.5,0-0.7-0.1c-0.2-0.1-0.3-0.2-0.4-0.4c-0.1-0.2-0.1-0.4-0.1-0.6
			c0-0.2,0.2-0.4,0.3-0.6c0.3-0.6,0.7-1.4,1.1-2.4c0.5-1.1,0.9-2.2,1.4-3.3c0.5-1.2,0.9-2.2,1.4-3.3c0.5-1,0.8-1.8,1.1-2.2
			c0.6-0.5,1.3-0.6,2.1-0.2c0.8,1,1.4,1.8,2,2.5c0.5,0.7,1,1.4,1.3,2c0.3,0.6,0.6,1.2,0.7,1.8c0.1,0.6,0.2,1.2,0.2,1.9
			c0,0.7-0.1,1.5-0.2,2.4c-0.1,0.9-0.3,2-0.5,3.3c0.8-0.2,1.6-0.5,2.4-0.8c0.8-0.3,1.6-0.7,2.4-1c0.3-0.1,0.5-0.1,0.8,0
			c0.2,0.1,0.4,0.2,0.5,0.4c0.1,0.2,0.1,0.4,0.1,0.6c0,0.2-0.2,0.4-0.5,0.6c-1,0.6-2,1.2-3,1.8c-1,0.6-2.1,1.1-3.1,1.5
			c-0.4,0.1-0.7,0.1-0.9,0c-0.2-0.1-0.5-0.2-0.8-0.5c-0.4-0.4-0.7-0.8-0.8-1.3c-0.1-0.5-0.1-0.9-0.1-1.4c0-0.5,0.1-1,0.3-1.5
			c0.1-0.5,0.2-1,0.2-1.5c0.1-0.8,0.1-1.4,0.1-2.1c0-0.6-0.1-1.2-0.2-1.8c-0.1-0.6-0.3-1.1-0.6-1.7c-0.3-0.6-0.6-1.1-1-1.8
			c-0.2,0.3-0.6,1-1,1.9c-0.4,1-0.9,2-1.5,3.1c-0.5,1.1-1,2.1-1.6,3C289.1,283.8,288.7,284.3,288.3,284.4z"/>
		<path class="st2" d="M305.6,274.8c0.4-0.7,0.8-1,1.2-0.9c0.3,0.1,0.5,0.4,0.5,1c-0.2,1.3-0.4,2.6-0.5,3.7
			c-0.2,1.2-0.3,2.2-0.3,3.1c-0.1,0.9-0.1,1.6,0,2.2c0.1,0.6,0.3,0.9,0.6,0.9l0,0c0.4,0.1,0.8,0.2,1.4,0.1c0.5-0.1,1.1-0.3,1.7-0.5
			c0.6-0.3,1.2-0.6,1.7-1c0.6-0.4,1.1-0.8,1.5-1.3c0.3-0.1,0.5-0.1,0.7-0.1c0.2,0.1,0.4,0.1,0.5,0.3c0.1,0.1,0.2,0.3,0.2,0.5
			c0,0.2-0.1,0.4-0.2,0.6c-2,1.7-3.7,2.9-5.1,3.5c-1.4,0.6-2.6,0.9-3.4,0.7c-0.9-0.1-1.5-0.6-1.9-1.3c-0.4-0.8-0.6-1.6-0.5-2.6
			c0.1-1.9,0.3-3.5,0.7-4.9C304.6,277.5,305.1,276.1,305.6,274.8z M308.7,265c0.2,0.3,0.3,0.5,0.3,0.8c0,0.3-0.1,0.5-0.2,0.7
			c-0.1,0.2-0.3,0.3-0.6,0.4c-0.2,0.1-0.5,0-0.8-0.2c-0.3-0.2-0.5-0.5-0.5-0.8c0-0.3,0-0.5,0.2-0.8c0.2-0.2,0.4-0.4,0.7-0.4
			C308,264.7,308.3,264.8,308.7,265z"/>
		<path class="st2" d="M316.7,273.9c0.1,0.5,0.1,1,0.2,1.6c0.1,0.5,0.1,1,0,1.6c0.5-1,1.1-1.9,1.7-2.8c0.6-0.9,1.2-1.8,2-2.8
			c0.3-0.3,0.6-0.5,0.9-0.6c0.3-0.1,0.6-0.1,1,0.1c0.3,0.1,0.5,0.2,0.7,0.3c0.4,0.2,0.6,0.5,0.7,0.7c0.1,0.3,0.2,0.6,0.2,1
			c0,0.9-0.1,1.8-0.2,2.8c-0.1,0.9-0.2,1.8-0.2,2.7c-0.1,0.9-0.1,1.8-0.1,2.7c0,0.9,0.1,1.8,0.2,2.7l0.9,0.6l2.9-1
			c0.3-0.1,0.5-0.1,0.8,0c0.2,0.1,0.4,0.2,0.5,0.4c0.1,0.2,0.1,0.4,0.1,0.6c-0.1,0.2-0.2,0.4-0.5,0.6c-0.6,0.3-1.2,0.6-1.7,0.9
			c-0.6,0.3-1.1,0.5-1.6,0.7c-0.5,0.1-1.1,0.1-1.6-0.1c-0.5-0.2-1.1-0.6-1.6-1.3c-0.4-0.5-0.7-1.1-0.8-1.8c-0.2-0.7-0.3-1.5-0.3-2.2
			c0-0.8,0-1.5,0-2.3c0-0.8,0.1-1.4,0.1-2c-0.6,0.9-1.2,1.9-1.7,2.9c-0.5,1-1,2-1.4,3c-0.3,0.6-0.6,1.2-0.8,1.9
			c-0.2,0.6-0.6,1.2-1.1,1.7c-0.6,0.4-1.1,0.4-1.6,0.2c-0.5-0.2-0.8-0.6-0.9-1.3c0-0.6,0-1.3,0.1-2c0.1-0.7,0.2-1.5,0.4-2.2
			c0.2-0.7,0.4-1.4,0.6-2.1c0.2-0.7,0.4-1.3,0.5-1.9l0,0c0.1-0.5,0.1-1,0.1-1.5c0-0.5,0-1,0-1.6c0.1-0.2,0.2-0.4,0.3-0.6
			c0.2-0.1,0.3-0.2,0.5-0.2c0.2,0,0.3,0,0.5,0.1C316.4,273.4,316.6,273.6,316.7,273.9L316.7,273.9L316.7,273.9z"/>
		<path class="st2" d="M333,273.7c0.7-0.5,1.4-0.8,2.2-0.9c0.8,0,1.4,0.3,1.8,1c0.1-0.1,0.2-0.3,0.3-0.4c0.1-0.1,0.1-0.3,0.2-0.4
			c0.2-0.4,0.4-0.6,0.7-0.8c0.3-0.2,0.6-0.2,0.9-0.2c0.3,0,0.6,0.2,0.8,0.4c0.3,0.2,0.4,0.5,0.5,0.9c0,1.1,0,2.1-0.1,3.2
			c-0.1,1-0.1,2.1,0,3.2l0,0.2l0.4-0.4c0.3-0.3,0.7-0.7,1.3-1.1c0.5-0.4,1.1-0.8,1.7-1c0.5-0.2,0.8-0.2,0.9,0c0,0.2-0.1,0.5-0.3,1
			c-0.2,0.4-0.4,0.7-0.7,1c-0.3,0.3-0.6,0.6-0.9,0.9c-0.4,0.4-0.8,0.8-1.1,1.2c-0.3,0.4-0.7,0.8-1,1.2c0.1,1.2,0.3,2.5,0.4,3.6
			c0.1,1.2,0.2,2.4,0.3,3.6c0.1,1.2,0.1,2.4,0,3.7c0,1.3-0.2,2.6-0.4,3.9c-0.1,0.9-0.4,1.7-0.8,2.6c-0.4,0.9-0.9,1.7-1.6,2.3
			c-0.6,0.7-1.4,1.2-2.3,1.5c-0.9,0.3-1.8,0.4-2.9,0.1c-0.9-0.2-1.6-0.6-2.1-1c-0.5-0.5-0.8-1-1-1.7c-0.2-0.6-0.3-1.3-0.2-2
			c0-0.7,0.1-1.5,0.2-2.3c0.1-1,0.4-2.1,0.9-3.2c0.4-1.2,1-2.3,1.6-3.5c0.6-1.2,1.3-2.3,2-3.4c0.7-1.1,1.4-2.1,2-2.9l0.7-1
			c0-0.5-0.1-1-0.1-1.5c0-0.5-0.1-1-0.1-1.6l0-1.4c-1.1,1.2-2.2,2.4-3.4,3.6c-1.2,1.2-2.6,2.1-4,2.7c-0.4,0.1-0.7,0.1-1,0
			c-0.2-0.1-0.5-0.3-0.7-0.7c-0.3-0.7-0.3-1.5,0-2.5c0.3-1,0.7-2,1.3-3c0.6-1,1.2-2,1.9-2.8C331.9,274.7,332.5,274.1,333,273.7z
			 M330.8,280.9c0.3-0.3,0.7-0.6,1.1-1c0.4-0.4,0.9-0.9,1.3-1.3c0.5-0.5,0.9-1,1.4-1.5c0.5-0.5,0.9-1,1.3-1.5
			c-0.1-0.1-0.2-0.2-0.2-0.3c0-0.2-0.1-0.4-0.1-0.5c0-0.1-0.1-0.1-0.4,0c-0.6,0.2-1.1,0.5-1.5,1c-0.5,0.5-0.9,1-1.2,1.6
			c-0.4,0.6-0.7,1.2-1,1.9C331.2,279.8,330.9,280.4,330.8,280.9z M338,293.4c0-1.2,0-2.4,0-3.6c-0.1-1.2-0.2-2.4-0.3-3.5
			c-0.8,1.3-1.5,2.6-2.2,4c-0.6,1.4-1.2,2.8-1.7,4.2c-0.1,0.2-0.2,0.7-0.5,1.3c-0.2,0.7-0.4,1.3-0.5,2.1c-0.1,0.7-0.1,1.4,0,1.9
			c0.1,0.6,0.5,0.9,1,0.9c0.9,0.1,1.6-0.2,2.2-0.7c0.5-0.5,0.9-1.2,1.2-1.9c0.3-0.8,0.4-1.6,0.5-2.4C338,294.7,338,294,338,293.4z"
			/>
	</g>
	<g class="st1">
		<path class="st2" d="M84.6,20.8c0,0.4-0.1,0.7-0.3,1l-1.1,11.1c-0.1,1.6-0.3,3.1-0.5,4.6c-0.2,1.5-0.5,3-0.9,4.6
			c-0.1,0.6-0.3,1.1-0.4,1.7c-0.2,0.6-0.4,1.2-0.6,1.8c-0.3,0.6-0.6,1.2-0.9,1.7c-0.4,0.5-0.8,1-1.3,1.4c-1,0.8-2.1,1.3-3.3,1.5
			c-1.2,0.2-2.4,0.1-3.6-0.2c-1.2-0.3-2.2-0.8-3.2-1.5c-1-0.7-1.8-1.5-2.4-2.4c-0.5-0.8-0.8-1.6-0.8-2.3c0-0.7,0.2-1.4,0.6-2
			c0.4-0.6,0.9-1.2,1.5-1.7c0.6-0.5,1.3-0.9,2.1-1.3c0.7-0.4,1.5-0.7,2.2-0.9c0.7-0.2,1.4-0.4,2-0.5c1.1-0.2,2.1-0.4,3.2-0.6
			c1.1-0.2,2.1-0.2,3.2-0.2l0.6-3.6l0.8-4.7l-0.9,0.4c-0.8,0.5-1.9,1-3.1,1.5c-1.2,0.5-2.4,1-3.7,1.4c-1.3,0.4-2.5,0.7-3.8,0.9
			c-1.3,0.2-2.4,0.2-3.4-0.1c-1-0.2-1.9-0.7-2.6-1.5c-0.7-0.8-1.1-1.9-1.2-3.3c-0.1-1.4,0.2-2.6,0.8-3.7c0.6-1.1,1.5-2.1,2.7-2.9
			c1.2-0.8,2.5-1.6,4-2.2c1.5-0.6,3.2-1.1,4.9-1.5c1.7-0.4,3.4-0.7,5.2-1c1.8-0.2,3.4-0.4,5-0.5c1.6-0.1,3-0.1,4.3-0.1
			c1.3,0,2.3,0.1,3.1,0.2c0.3,0,0.7,0.1,1.1,0.2c0.4,0.1,0.7,0.2,1.1,0.2c0.3,0.1,0.7,0.2,0.9,0.4c0.3,0.1,0.5,0.3,0.6,0.6l0,0.2
			c0,0.2-0.2,0.4-0.6,0.5c-0.4,0.1-0.8,0.1-1.3,0.1c-0.5,0-0.9,0-1.4,0c-0.5,0-0.8-0.1-1-0.1c-1.5-0.1-3-0.1-4.6,0.1
			c-1.6,0.1-3.1,0.3-4.7,0.6c-3,0.4-6,1.1-9,2.1c-1.4,0.5-2.8,1.1-4.2,1.8c-1.4,0.7-2.5,1.7-3.3,3.1c-0.2,0.3-0.3,0.6-0.4,0.9
			c-0.1,0.3-0.2,0.7-0.2,1c0,0.3,0.1,0.7,0.2,1c0.1,0.3,0.3,0.5,0.6,0.7c0.4,0.2,1,0.3,1.5,0.3c0.6,0,1.1,0,1.6-0.1
			c1.7-0.2,3.4-0.5,5-1c1.6-0.5,3.3-1,4.9-1.7l2.1-0.9c0.2-0.8,0.3-1.7,0.5-2.5c0.2-0.8,0.3-1.7,0.5-2.5c0.2-0.4,0.4-0.7,0.8-0.8
			c0,0,0.1,0,0.1,0c0.2,0,0.4,0,0.6,0.1c0.1,0.1,0.3,0.2,0.4,0.4C84.5,20.6,84.6,20.7,84.6,20.8z M77.9,44.1c0.4-0.9,0.7-1.8,1-2.7
			c0.3-0.9,0.5-1.9,0.7-2.9c-0.9,0.1-1.8,0.2-2.7,0.4s-1.9,0.4-2.9,0.6c-0.9,0.3-1.8,0.6-2.7,1c-0.9,0.4-1.7,0.9-2.4,1.5
			c-0.4,0.3-0.5,0.7-0.5,1.1c0,0.5,0.1,0.9,0.4,1.3c0.5,0.8,1.2,1.4,2,1.8c0.8,0.5,1.7,0.7,2.6,0.7c0.9,0,1.7-0.2,2.6-0.6
			C76.7,45.9,77.4,45.2,77.9,44.1z"/>
		<path class="st2" d="M87,39.5c0-0.3,0.1-0.6,0.1-1c0-0.4,0.1-0.8,0.1-1.2c0-0.4,0.1-0.8,0.2-1.1c0.1-0.4,0.1-0.7,0.2-0.9
			c0.3-2.7,0.7-5.4,1.1-8.1c0.5-2.7,1.2-5.3,2.2-7.8c0.5-1.2,1.2-2.4,1.9-3.7c0.7-1.2,1.7-2.2,2.8-2.9c0.8-0.5,1.6-0.8,2.4-0.9
			c0.8,0,1.5,0.1,2.2,0.5c0.6,0.3,1.2,0.8,1.6,1.5c0.4,0.7,0.6,1.5,0.6,2.4c0.1,2.5-0.4,4.9-1.4,7c-1,2.1-2.4,4.1-4.1,5.9
			c-0.7,0.7-1.2,1.3-1.6,1.7c-0.4,0.4-0.8,0.8-1.1,1.1c-0.3,0.3-0.7,0.7-1.1,1.1c-0.4,0.4-1,0.9-1.7,1.6l-0.5,0.4
			c-0.1,1-0.3,2-0.3,3c-0.1,1-0.2,2-0.3,3.1c0.4-0.6,0.9-1.1,1.4-1.6c0.5-0.5,1-1,1.7-1.4c0.2-0.1,0.4-0.2,0.6-0.2
			c0.1,0,0.3,0,0.6,0.1c0.8,0.3,1.4,0.8,1.7,1.3c0.3,0.6,0.5,1.2,0.6,1.9c0.1,0.7,0.1,1.4,0.1,2.2c0,0.8,0.1,1.6,0.4,2.3
			c0.1,0,0.1,0,0.2,0c0.3-0.2,0.6-0.5,0.8-0.7c0.3-0.2,0.5-0.4,0.8-0.7c0.3-0.1,0.5-0.1,0.7-0.1c0.2,0.1,0.3,0.1,0.5,0.3
			c0.1,0.1,0.2,0.3,0.2,0.5c0,0.2-0.1,0.4-0.2,0.6c-0.3,0.3-0.7,0.6-1,1c-0.3,0.3-0.7,0.6-1.1,0.8c-0.6,0.3-1,0.3-1.4,0.1
			c-0.4-0.2-0.7-0.5-1-1c-0.3-0.4-0.5-1-0.6-1.6c-0.2-0.6-0.3-1.2-0.4-1.8c-0.1-0.6-0.2-1.2-0.3-1.7c-0.1-0.5-0.1-0.9-0.2-1.1
			c-0.6,0.5-1.1,1.1-1.4,1.7c-0.4,0.6-0.7,1.3-1,1.9c-0.3,0.7-0.6,1.3-0.9,2c-0.3,0.7-0.7,1.3-1.2,1.9c-1,0.6-1.7,0.4-2.4-0.6
			c-0.2-0.6-0.3-1.3-0.4-2c-0.1-0.7-0.1-1.4-0.1-2.1c0-0.7,0.1-1.4,0.1-2.1C86.8,40.8,86.9,40.2,87,39.5z M92.8,24.5
			c-0.7,2.4-1.2,4.9-1.6,7.3l1.1-1.1c0.9-1,1.8-2,2.7-3.1c0.9-1.1,1.6-2.2,2.3-3.3c0.7-1.1,1.2-2.4,1.5-3.6c0.4-1.3,0.5-2.6,0.5-4
			c0-0.5-0.2-0.8-0.6-1c-0.4-0.2-0.9-0.2-1.4,0.1c-0.4,0.2-0.7,0.5-1,0.8c-0.3,0.3-0.5,0.6-0.7,1c-0.6,0.9-1.2,2.1-1.6,3.4
			C93.5,22.2,93.1,23.4,92.8,24.5z"/>
		<path class="st2" d="M109.3,35.4c-0.3,0.8-0.7,1.5-1.1,2.3c-0.4,0.8-0.8,1.5-1.3,2.1c-0.5,0.6-1,1.2-1.6,1.7
			c-0.6,0.5-1.3,0.9-2,1.1c0,0.5,0.1,0.9,0.2,1.4c0.1,0.5,0.2,0.9,0.5,1.2c0.2,0.3,0.5,0.5,0.9,0.6c0.4,0.1,0.8-0.1,1.4-0.4
			c0.2-0.1,0.5-0.3,0.9-0.6c0.4-0.3,0.8-0.6,1.3-1c0.5-0.4,0.9-0.8,1.3-1.3c0.4-0.5,0.7-0.9,0.9-1.4c0.1-0.3,0.3-0.4,0.5-0.4
			c0.2,0,0.4,0.1,0.6,0.2c0.2,0.2,0.3,0.4,0.4,0.6c0.1,0.3,0,0.5-0.1,0.7c-0.2,0.4-0.5,0.8-0.9,1.3c-0.4,0.5-0.9,1-1.4,1.5
			c-0.5,0.5-0.9,0.9-1.4,1.3c-0.5,0.4-0.8,0.7-1.1,0.8c-0.1,0-0.2,0.1-0.3,0.2c-0.2,0.1-0.4,0.2-0.6,0.3c-0.2,0.1-0.4,0.2-0.7,0.3
			c-0.2,0.1-0.4,0.1-0.6,0.2c-0.6,0-1.2-0.1-1.7-0.3c-0.5-0.2-1-0.5-1.4-0.9c-0.4-0.4-0.7-0.9-1-1.4c-0.3-0.5-0.4-1.1-0.5-1.7
			c0-0.2-0.1-0.4-0.1-0.6c0-0.2,0-0.4,0-0.6c-0.2-0.1-0.3-0.3-0.3-0.6c0-0.2,0.1-0.5,0.2-0.6c0-0.4,0-0.9,0-1.3
			c0-0.4,0.1-0.9,0.2-1.4c0.2-0.8,0.4-1.7,0.8-2.8c0.4-1.1,0.8-2.1,1.4-3.1c0.6-1,1.3-1.8,2.1-2.5s1.7-1,2.8-0.9
			c0.7,0,1.2,0.3,1.5,0.7c0.3,0.5,0.6,1,0.7,1.6c0.1,0.6,0.1,1.2,0,1.9C109.6,34.5,109.5,35,109.3,35.4z M106.7,33.3
			c-0.3,0.3-0.7,0.7-1,1.2c-0.3,0.5-0.6,1.1-0.9,1.8c-0.3,0.6-0.5,1.3-0.7,2c-0.2,0.7-0.4,1.3-0.5,1.9c0.2-0.2,0.5-0.5,0.7-0.9
			c0.2-0.4,0.5-0.8,0.8-1.4c0.1-0.2,0.3-0.5,0.5-0.9c0.2-0.4,0.4-0.8,0.5-1.2c0.2-0.4,0.3-0.9,0.4-1.3
			C106.6,34,106.7,33.6,106.7,33.3z"/>
		<path class="st2" d="M130.1,40.2c-0.2,0.2-0.3,0.3-0.5,0.4c-0.2,0-0.4,0-0.5,0c-0.2-0.1-0.3-0.2-0.4-0.4c-0.1-0.2-0.1-0.4-0.1-0.7
			c0.4-1,0.9-2,1.6-3.1c0.7-1,1.4-2.1,2.1-3c0.7-1,1.4-1.9,2-2.7c0.6-0.8,1.1-1.5,1.3-2.1c0-0.1,0-0.1,0-0.1
			c0.2-0.4,0.5-0.6,0.8-0.8c0.3-0.1,0.6-0.2,1-0.1c0.3,0.1,0.6,0.3,0.8,0.5c0.2,0.3,0.3,0.6,0.3,1.1c-0.3,1.3-0.5,2.5-0.5,3.8
			c-0.1,1.2,0,2.5,0.2,3.8c0.1,0.5,0.2,1,0.3,1.4c0.1,0.5,0.3,1,0.5,1.4c1-0.5,1.9-1,2.9-1.5c1-0.5,1.9-0.9,2.9-1.4
			c0.3-0.1,0.5-0.1,0.8,0c0.2,0.1,0.4,0.2,0.5,0.4c0.1,0.2,0.1,0.4,0.1,0.6c-0.1,0.2-0.2,0.4-0.5,0.6c-0.9,0.5-1.8,1.1-2.9,1.7
			c-1.1,0.6-2.1,1.2-3.2,1.9c0,0.2,0,0.3,0,0.5c0,0.2,0,0.3,0,0.5c0,0.6-0.1,1.2-0.2,1.8c-0.1,0.6-0.4,1.1-0.8,1.6
			c-0.7,0.7-1.4,1.3-2.1,1.6c-0.7,0.3-1.4,0.4-2,0.4c-0.6,0-1.2-0.2-1.6-0.5c-0.4-0.3-0.7-0.7-0.9-1.2c-0.1-0.5-0.1-1,0.1-1.6
			c0.2-0.6,0.7-1.2,1.5-1.7c0.6-0.5,1.1-0.8,1.4-1.1c0.3-0.2,0.7-0.5,1.1-0.7c-0.3-1.3-0.5-2.5-0.7-3.6c-0.2-1.1-0.3-2.2-0.4-3.3
			c-0.8,0.9-1.7,1.8-2.5,2.7C131.3,38.1,130.6,39.1,130.1,40.2z"/>
		<path class="st2" d="M145.2,37.8c0.1-1.2,0.2-2.3,0.3-3.4c0.1-1.1,0.3-2.2,0.5-3.3c-0.7,0.2-1.3,0.3-1.9,0.5
			c-0.6,0.2-1,0.3-1.2,0.5c-0.1,0.1-0.3,0.1-0.5,0.2c-0.2,0-0.3,0.1-0.5,0c-0.1,0-0.3-0.1-0.4-0.2c-0.1-0.1-0.2-0.3-0.2-0.5
			c-0.1-0.6,0.2-1.1,0.9-1.7c0.7-0.5,1.5-1,2.4-1.4c0.6-0.5,1-1,1.3-1.4c0.3-0.4,0.5-0.8,0.7-1.3c0.2-0.4,0.3-0.9,0.5-1.5
			c0.1-0.5,0.3-1.2,0.5-1.9c0.1-0.3,0.2-0.9,0.3-1.7c0.1-0.8,0.3-1.6,0.6-2.3c0.3-0.8,0.6-1.4,1-2c0.4-0.5,0.9-0.8,1.6-0.6
			c0.3,0.1,0.4,0.3,0.5,0.6c0,0.3,0,0.9-0.2,1.7c-0.1,0.8-0.4,1.9-0.6,3.3c-0.3,1.4-0.6,3.2-0.9,5.5c0.3,0,0.6-0.1,1-0.1
			c0.3,0,0.7,0,1-0.1c0.7,0,1.4,0,1.9,0c0.5,0,1.2,0.1,1.9,0.1c0.3,0,0.5,0.1,0.7,0.2c0.2,0.2,0.3,0.3,0.3,0.5c0,0.2,0,0.4-0.2,0.6
			c-0.1,0.2-0.3,0.3-0.6,0.3c-0.3,0.1-0.8,0.2-1.4,0.4c-0.6,0.2-1.3,0.3-2,0.5c-0.7,0.2-1.4,0.4-2,0.5c-0.6,0.2-1,0.3-1.2,0.4
			c-0.2,1.1-0.4,2.3-0.6,3.5c-0.2,1.2-0.3,2.5-0.4,3.7s-0.1,2.4-0.1,3.6c0,1.2,0.2,2.2,0.4,3.2c0.1,0.1,0.3,0.1,0.7-0.2
			c0.4-0.2,0.9-0.7,1.5-1.2c0.6-0.6,1.2-1.3,1.9-2.2c0.7-0.9,1.4-2,2.1-3.2c0.2-0.2,0.5-0.3,0.7-0.3c0.2,0,0.4,0.1,0.6,0.2
			c0.1,0.1,0.2,0.3,0.3,0.6c0,0.2,0,0.5-0.2,0.7c-0.5,1.1-1.2,2.3-2,3.5c-0.8,1.2-1.6,2.3-2.5,3.2c-0.8,0.9-1.7,1.5-2.5,1.9
			c-0.8,0.4-1.5,0.3-2.1-0.3c-0.6-0.6-1-1.2-1.3-2c-0.3-0.8-0.5-1.5-0.5-2.4c-0.1-0.8-0.1-1.7,0-2.5
			C145.1,39.3,145.2,38.5,145.2,37.8z"/>
		<path class="st2" d="M159.9,32.8C159.9,32.8,159.9,32.8,159.9,32.8c0,0.1,0,0.1,0,0.2c1.5-0.8,3.1-1.4,4.8-2
			c1.7-0.5,3.3-1,4.9-1.5c0.5,0,0.8,0.2,1,0.6c0.1,0.4,0,0.8-0.5,1c-1.1,0.5-2.2,1-3.3,1.5c-1.1,0.5-2.2,1-3.3,1.6
			c0.4,0.6,0.6,1.2,0.5,1.9c0,0.7-0.1,1.4-0.3,2.1c-0.2,0.6-0.4,1.1-0.7,1.8c-0.3,0.6-0.6,1.2-1.1,1.8c-0.4,0.6-0.9,1.1-1.4,1.6
			c-0.5,0.5-1,0.8-1.6,1c-0.3,0.2-0.7,0.2-1.1,0.3c-0.4,0-0.8,0.1-1.2,0.1c-0.3,0-0.6-0.1-0.7-0.2c-0.2-0.1-0.4-0.2-0.6-0.5
			c-0.2-0.3-0.3-0.5-0.5-0.7c-0.2-0.2-0.4-0.5-0.5-0.8c-0.3-0.7-0.3-1.6-0.2-2.6c0.2-1,0.4-2,0.8-3c0.4-1,0.8-2,1.4-2.9
			c0.5-0.9,1-1.6,1.5-2.2c0.6-0.5,1.1-0.5,1.5,0.2L159.9,32.8z M159.6,36.1c-0.6-0.3-1-0.7-1.1-1.2c-0.5,1-0.8,2.1-0.9,3.3
			c-0.2,1.2-0.2,2.3-0.1,3.4c0.4-0.1,0.7-0.3,1.1-0.6c0.3-0.3,0.7-0.7,0.9-1.1c0.3-0.4,0.5-0.8,0.7-1.3c0.2-0.4,0.4-0.8,0.5-1.1
			c0.2-0.4,0.3-0.8,0.3-1.2l0-0.1c-0.2,0-0.5-0.1-0.7,0C160,36.2,159.8,36.1,159.6,36.1z"/>
		<path class="st2" d="M168.7,41.5c-0.3,0.1-0.5,0-0.7-0.1c-0.2-0.1-0.3-0.2-0.4-0.4c-0.1-0.2-0.1-0.4-0.1-0.6
			c0-0.2,0.2-0.4,0.3-0.6c0.3-0.6,0.7-1.4,1.1-2.4c0.5-1.1,0.9-2.2,1.4-3.3c0.5-1.2,0.9-2.2,1.4-3.3c0.5-1,0.8-1.8,1.1-2.2
			c0.6-0.5,1.3-0.6,2.1-0.2c0.8,1,1.4,1.8,2,2.5c0.5,0.7,1,1.4,1.3,2c0.3,0.6,0.6,1.2,0.7,1.8c0.1,0.6,0.2,1.2,0.2,1.9
			c0,0.7-0.1,1.5-0.2,2.4c-0.1,0.9-0.3,2-0.5,3.3c0.8-0.2,1.6-0.5,2.4-0.8c0.8-0.3,1.6-0.7,2.4-1c0.3-0.1,0.5-0.1,0.8,0
			c0.2,0.1,0.4,0.2,0.5,0.4c0.1,0.2,0.1,0.4,0.1,0.6c-0.1,0.2-0.2,0.4-0.5,0.6c-1,0.6-2,1.2-3,1.8c-1,0.6-2.1,1.1-3.1,1.5
			c-0.4,0.1-0.7,0.1-0.9,0c-0.2-0.1-0.5-0.2-0.8-0.5c-0.4-0.4-0.7-0.8-0.8-1.3c-0.1-0.5-0.1-0.9-0.1-1.4c0-0.5,0.1-1,0.3-1.5
			c0.1-0.5,0.2-1,0.2-1.5c0.1-0.8,0.1-1.4,0.1-2.1c0-0.6-0.1-1.2-0.2-1.8c-0.1-0.6-0.3-1.1-0.6-1.7c-0.3-0.6-0.6-1.1-1-1.8
			c-0.2,0.3-0.5,1-1,1.9c-0.4,1-0.9,2-1.5,3.1c-0.5,1.1-1,2.1-1.6,3C169.5,40.8,169.1,41.4,168.7,41.5z"/>
		<path class="st2" d="M183.4,31.4c0-0.3,0.1-0.5,0.3-0.6c0.2-0.1,0.3-0.2,0.5-0.2c0.2,0,0.4,0,0.5,0.2c0.2,0.1,0.3,0.3,0.3,0.6
			c0.1,0.7,0.1,1.5,0,2.2c-0.1,0.7-0.1,1.5-0.1,2.2c0,0.8,0,1.5,0,2.3c0,0.8,0.1,1.5,0.3,2.2c0.9-0.8,1.5-1.5,2-2.4
			c0.5-0.8,0.9-1.7,1.2-2.6c0.3-0.9,0.6-1.9,0.8-2.8c0.2-1,0.5-2,0.9-3c0.2-0.3,0.4-0.6,0.7-0.7c0.3-0.2,0.6-0.2,0.8-0.2
			c0.3,0,0.5,0.1,0.8,0.3c0.2,0.2,0.4,0.5,0.5,0.8c0.1,1.2,0.2,2.4,0.1,3.6c0,1.2,0,2.4,0,3.7l0,1c0.7-0.5,1.5-0.9,2.3-1.3
			c0.8-0.4,1.6-0.7,2.4-1c0.3-0.1,0.7-0.2,1.1-0.2c0.4,0,0.8,0,1.1,0c0.3,0.1,0.6,0.2,0.8,0.5c0.2,0.2,0.2,0.6,0.1,1.1
			c-0.2,0.5-0.4,0.7-0.8,0.7c-0.4,0-0.6-0.2-0.8-0.5l-0.3,0c-1,0.3-2,0.7-3,1.3c-0.9,0.6-1.8,1.1-2.7,1.8c0.2,2.7,0.2,5.4,0.1,8.1
			c-0.1,2.6-0.5,5.3-1.3,8.1c-0.3,0.9-0.6,1.8-1,2.7c-0.4,0.9-1,1.7-1.6,2.4c-0.6,0.7-1.4,1.2-2.2,1.6c-0.9,0.3-1.8,0.4-2.9,0.1
			c-0.7-0.2-1.3-0.5-1.9-1c-0.6-0.5-1-1.1-1.4-1.8c-0.4-0.7-0.6-1.4-0.8-2.1c-0.2-0.7-0.3-1.4-0.2-2.1c0.1-1.8,0.4-3.6,0.9-5.1
			c0.5-1.6,1.2-3,2.1-4.3c0.9-1.3,1.9-2.6,3.1-3.7c1.2-1.1,2.5-2.2,4-3.2c0-0.3,0-0.6,0-1c0-0.3,0-0.7,0-1c0,0,0,0,0,0
			c-0.2,0.5-0.5,0.9-0.8,1.4c-0.3,0.5-0.6,0.9-1,1.2l-1.9,1.5c-0.3,0.2-0.6,0.3-0.9,0.4c-0.3,0-0.6,0-1-0.1
			c-0.3-0.1-0.6-0.3-0.8-0.5c-0.3-0.2-0.4-0.5-0.5-0.9c-0.2-0.8-0.3-1.6-0.3-2.4c0-0.8,0-1.6,0.1-2.4c0.1-0.8,0.2-1.6,0.3-2.4
			C183.3,33,183.4,32.2,183.4,31.4z M190.2,48.5c0.1-1,0.1-2,0.1-2.9c0-1-0.1-1.9-0.1-2.9c-0.9,0.8-1.7,1.5-2.4,2.4
			c-0.7,0.8-1.4,1.7-2.1,2.7c-0.9,1.4-1.5,2.7-1.9,4c-0.4,1.3-0.6,2.7-0.6,4.3c0,0.3,0.1,0.8,0.2,1.3c0.1,0.5,0.3,1,0.6,1.5
			c0.2,0.5,0.6,0.8,0.9,1.1c0.4,0.3,0.8,0.3,1.3,0.2c0.4-0.1,0.8-0.4,1.1-0.8c0.3-0.4,0.6-0.8,0.8-1.2c0.2-0.4,0.4-0.9,0.5-1.4
			c0.1-0.5,0.3-0.9,0.4-1.2c0.2-0.5,0.3-0.9,0.4-1.4c0.1-0.5,0.2-0.9,0.3-1.4c0.1-0.3,0.2-0.6,0.2-1c0.1-0.4,0.1-0.8,0.2-1.2
			c0.1-0.4,0.1-0.8,0.2-1.2C190.2,49.2,190.2,48.9,190.2,48.5z"/>
		<path class="st2" d="M217.8,30.7C217.8,30.8,217.8,30.8,217.8,30.7c0,0.1,0,0.1,0,0.2c1.5-0.8,3.1-1.4,4.8-2
			c1.7-0.5,3.3-1,4.9-1.5c0.5,0,0.9,0.2,1,0.6c0.1,0.4,0,0.8-0.5,1c-1.1,0.5-2.2,1-3.3,1.5c-1.1,0.5-2.2,1-3.3,1.6
			c0.4,0.6,0.6,1.2,0.5,1.9c0,0.7-0.1,1.4-0.3,2.1c-0.2,0.6-0.4,1.1-0.7,1.8c-0.3,0.6-0.7,1.2-1.1,1.8c-0.4,0.6-0.9,1.1-1.4,1.6
			c-0.5,0.5-1,0.8-1.6,1c-0.3,0.2-0.7,0.2-1.1,0.3c-0.4,0-0.8,0.1-1.2,0.1c-0.3,0-0.6-0.1-0.7-0.2c-0.2-0.1-0.4-0.2-0.6-0.5
			c-0.2-0.3-0.3-0.5-0.5-0.7c-0.2-0.2-0.4-0.5-0.5-0.8c-0.3-0.7-0.3-1.6-0.2-2.6c0.2-1,0.4-2,0.8-3c0.4-1,0.8-2,1.4-2.9
			c0.5-0.9,1-1.6,1.5-2.2c0.6-0.5,1.1-0.5,1.5,0.2L217.8,30.7z M217.5,34c-0.6-0.3-1-0.7-1.1-1.2c-0.5,1-0.8,2.1-0.9,3.3
			c-0.2,1.2-0.2,2.3-0.1,3.4c0.4-0.1,0.7-0.3,1.1-0.6c0.3-0.3,0.7-0.7,0.9-1.1c0.3-0.4,0.5-0.8,0.7-1.3c0.2-0.4,0.4-0.8,0.5-1.1
			c0.2-0.4,0.3-0.8,0.3-1.2l0-0.1c-0.2,0-0.5-0.1-0.7,0C217.9,34.1,217.7,34.1,217.5,34z"/>
		<path class="st2" d="M231.8,32.1c-0.4,0.4-0.9,0.9-1.5,1.4c-0.6,0.5-1.2,1-1.7,1.5l-0.1,1.4l0-0.6c0,0.5-0.1,1-0.1,1.4
			c0,0.4,0,0.9,0,1.4c0.6-0.3,1.2-0.6,1.8-0.8s1.1-0.3,1.6-0.2l0.4-0.3c0.6-0.5,1.2-0.9,1.8-1.4c0.6-0.5,1.2-1,1.8-1.4
			c0.6-0.5,1.2-0.9,1.9-1.2c0.7-0.4,1.4-0.6,2.2-0.7c0.3,0,0.5,0.1,0.7,0.2c0.2,0.2,0.3,0.3,0.3,0.5c0,0.2,0,0.4-0.2,0.6
			c-0.1,0.2-0.3,0.3-0.6,0.3c-0.6,0.2-1.2,0.4-1.8,0.8c-0.6,0.4-1.1,0.7-1.6,1.2c-0.5,0.4-1,0.9-1.5,1.4c-0.5,0.5-1,1-1.4,1.4
			l0.1,0.2c0.3,0.5,0.4,1.1,0.3,1.9c-0.1,0.8-0.2,1.5-0.4,2.3c-0.2,0.8-0.5,1.5-0.8,2.3c-0.3,0.7-0.6,1.3-0.8,1.8
			c-0.5,1-0.9,2-1.5,2.9c-0.5,0.9-1.2,1.7-2.1,2.4c-0.5,0.3-1,0.4-1.4,0.3c-0.5-0.1-0.8-0.5-1.1-1c-0.4-0.9-0.7-2-0.8-3.1
			c-0.1-1.2-0.1-2.4-0.1-3.6c-0.5,0-0.9-0.1-1.1-0.4c-0.3-0.3-0.3-0.7-0.2-1.2c0.1-0.3,0.2-0.7,0.5-1.1s0.5-0.8,0.9-1.2
			c-0.1-3.9,0-7.7,0.4-11.4c0.4-3.7,1.2-7.4,2.3-11.1c0.2-0.6,0.3-1.2,0.6-2c0.2-0.8,0.5-1.5,0.8-2.3c0.3-0.7,0.6-1.5,1-2.1
			c0.4-0.7,0.8-1.2,1.4-1.5c0.5-0.4,1.1-0.6,1.6-0.6c0.5,0,1.1,0,1.5,0.2c0.5,0.2,0.9,0.6,1.2,1c0.3,0.5,0.6,1,0.7,1.7
			c0.2,1.2,0.3,2.4,0.3,3.6c0,1.2-0.2,2.4-0.4,3.6c-0.2,1.2-0.6,2.3-1,3.5c-0.4,1.2-0.9,2.3-1.3,3.4c-0.3,0.8-0.7,1.6-1.1,2.4
			C233,30.7,232.5,31.5,231.8,32.1z M230.1,41.7c-0.3,0.2-0.5,0.4-0.8,0.7c-0.3,0.2-0.5,0.5-0.8,0.7l0.2,4.5
			c0.6-1.1,1.1-2.2,1.5-3.2c0.4-1,0.7-2.2,0.8-3.3c-0.2,0.1-0.3,0.2-0.5,0.4C230.4,41.5,230.2,41.6,230.1,41.7z M233.4,13.4
			c-0.2,0.2-0.4,0.4-0.5,0.6c-0.2,0.3-0.3,0.6-0.5,1c-0.2,0.4-0.3,0.7-0.4,1.1c-0.1,0.4-0.2,0.8-0.3,1.1l-0.2,0.5
			c-0.8,2.5-1.3,4.9-1.8,7.3c-0.4,2.4-0.7,4.9-0.9,7.4c0.4-0.4,0.8-0.8,1.1-1.1c0.3-0.4,0.6-0.8,0.9-1.3c0.5-0.9,1.1-2,1.6-3.2
			c0.5-1.2,0.9-2.4,1.3-3.7c0.3-1.3,0.6-2.5,0.8-3.8c0.2-1.3,0.2-2.4,0.1-3.5c0-0.3,0-0.6-0.1-0.9c-0.1-0.3-0.2-0.6-0.3-0.8
			c-0.1-0.1-0.2-0.3-0.3-0.4C233.7,13.7,233.6,13.6,233.4,13.4z M231.3,18.4l0.2-0.6l0.2-0.4c0,0.1,0,0.2-0.1,0.3
			c-0.1,0.1-0.1,0.3-0.1,0.4C231.4,18.2,231.3,18.3,231.3,18.4C231.3,18.5,231.3,18.5,231.3,18.4z"/>
	</g>
	<g class="st1">
		<path class="st4" d="M202.2,209.9c0.4-0.1,1.3-0.2,2-0.3c0.7-0.1,1.4-0.4,1.3-0.4C204.3,209.6,202.5,209.8,202.2,209.9z
			 M209.1,203.7c-0.1-2.7,0.3-1.1,0.1-0.2C209.2,203.5,209.1,203.9,209.1,203.7z M208.5,172.4c0.5,8.8,0.9,16.9,0.9,25.9
			c0-0.1-0.1-0.3,0-0.4C209.3,188.7,208.7,179.5,208.5,172.4z M209.3,199.8c0.1,0.2,0.1,1.1,0,1.7
			C209.2,201.1,209.3,200.6,209.3,199.8z M195.7,210c-0.6,0.1,1.2,0.1-0.4,0.1c2.2,0.1,4.3-0.1,6.3-0.2c-3.4,0.3-6.7,0.3-10.1,0.5
			c-3.3,0.1-6.6,0.3-10,0.5c-6.7,0.5-13.4,1.2-20.1,2.1c-3.4,0.4-6.8,0.9-10.2,1.3c-3.4,0.4-6.9,0.9-10.6,0.8c-0.9,0-2.3-0.1-3-0.3
			l-0.3-0.1c-0.3-0.1-0.1,0-0.2-0.1l-0.1,0l-0.1,0l-0.2-0.1c-0.1-0.1-0.3-0.2-0.4-0.2c-0.2-0.2-0.4-0.4-0.5-0.5
			c-0.1-0.2-0.3-0.3-0.4-0.5c-0.4-0.6-0.6-1.1-0.8-1.6c-0.7-1.9-1-3.6-1.3-5.4c-0.6-3.5-0.9-7-1.3-10.4c-0.7-7.2-1.3-14.6-2.1-22.1
			c-0.4-3.8-0.9-7.6-1.3-11.4c-0.2-2-0.4-3.9-0.7-5.9c-0.1-1-0.1-1.9-0.2-2.9l-0.1-1.5l0-0.7l0-0.4l0-0.2l0,0l0-0.2
			c0-0.1,0-0.2,0-0.3c0.1-0.5,0.3-0.8,0.5-1.1c0.2-0.3,0.4-0.4,0.6-0.6c0.2-0.1,0.4-0.3,0.5-0.4l0.5-0.2c0.6-0.3,1.1-0.5,1.6-0.6
			c1-0.3,2-0.5,3-0.7c2-0.3,3.9-0.6,5.9-0.7c3.9-0.4,7.7-0.6,11.6-0.7c7.6-0.3,15.1-0.3,22.3-0.3c-0.7,0.1-1.6,0-2.1,0.1
			c2.1,0.1,4.5,0.1,7.1,0.2c2.5,0.1,5,0.2,7.5,0.3c2.7,0.1,5.5,0.1,6.9,0.5c2.4,0,3.8,0.3,6.2,0.3c0.2,0.3,1.2,0.3,2.3,0.6
			c-0.6,0-0.6-0.1-0.9,0c0.8,0.1,2.2,0.1,2.6,0.4c-0.8,0-1.5,0-2.3,0c0.2,0.2,2.4,0.1,1.9,0.3c-1.1,0-1.2,0.1-1.7,0.3
			c-14.7-0.2-29.5-0.5-44.4,0c-3.7,0.1-7.4,0.3-11.1,0.5c-3.7,0.2-7.4,0.5-11,1.1c-0.9,0.1-1.8,0.3-2.7,0.5
			c-0.4,0.1-0.8,0.2-1.2,0.4c-0.4,0.1-0.7,0.4-0.9,0.5c0,0,0,0,0,0c0,0,0,0,0,0c0,0-0.1,0-0.1-0.1c-0.1,0,0,0-0.1,0l0,0h0
			c-0.2,0,0.3-0.1,0.2,0l0,0.1l0,0.7l0.1,1.4l0.2,2.8c0.4,3.7,0.8,7.3,1.2,11c0.2,1.3,0.3,2.7,0.5,4c0.1,1.3,0.3,2.6,0.4,3.9
			c0.3,2.6,0.5,5.1,0.8,7.6c0.5,5,0.9,9.9,1.4,14.8c0.3,2.4,0.5,4.9,0.9,7.3c0.2,1.2,0.4,2.4,0.6,3.7c0.3,1.2,0.6,2.4,1,3.5
			c0.1,0.3,0.3,0.5,0.4,0.7c0.1,0.1,0.1,0.1,0.2,0.2c0,0,0,0,0,0c0,0,0.1,0,0,0l0.1,0l0.2,0.1c0.3,0.1,0.6,0.2,0.9,0.2l0.9,0.1
			c0.6,0.1,1.3,0,1.9,0c0.6,0,1.3-0.1,1.9-0.1c2.6-0.2,5.3-0.5,8-0.9c8.2-1.1,16.6-2.3,25-3c4.2-0.4,8.4-0.6,12.6-0.8
			c4.2-0.2,8.3-0.1,12.3-0.5c1.3-0.1,2.6-0.3,3.6-0.8c0.2-0.1,0.4-0.3,0.6-0.5c0.2-0.2,0.2-0.3,0.3-0.6c0.1-0.5,0.2-1.2,0.3-1.8
			c0.2-2.5,0.2-5.1,0.2-7.6c0-5-0.2-10-0.4-14.9c-0.2-4.9-0.5-9.7-0.8-14.6c-0.3-4.9-0.6-9.8-1.2-14.8c0-0.3,0-0.7,0-1
			c0-0.2,0-0.4-0.1-0.6c0-0.1,0-0.2-0.1-0.3l-0.1-0.1c0-0.1-0.1-0.1-0.2-0.2c0-0.1,0-0.1,0.2-0.1c0.1,0,0.2,0.1,0.2,0.1
			c0,0,0.1,0.1,0.1,0.1c0.2,0.2,0.3,0.4,0.4,0.6c0.3,0.5,0.5,1.2,0.7,2c0.4,1.6,0.7,3.5,0.9,4.9c0.3,1.7,0.6,3.5,0.8,5.2
			c0.5,5.1,0.7,9,1,14.4c0.3,5.2,0.6,10,0.7,14.8c0,1.6,0.2,3,0,4.5c0.1,2.2,0.1,4.7-0.1,7.2c-0.1,0.6-0.1,1.3-0.2,2
			c0,0.2-0.1,0.4-0.1,0.6l-0.1,0.4c0,0.1-0.1,0.2-0.1,0.3c-0.3,0.6-0.6,1-1,1.4c-0.8,0.7-1.6,0.9-2.3,1.1c-0.7,0.2-1.4,0.3-2,0.4
			c-1.1,0.2-2.3,0.4-3.3,0.4c-1.2,0.1-3,0.1-3.8,0.1C195.8,210,195.8,210,195.7,210z"/>
	</g>
	<g class="st1">
		<path class="st4" d="M186.6,123.7c0.2,0.3,0.7,1.2,0.8,1.1C187.1,124.4,186.7,123.7,186.6,123.7z M188.6,126.6
			C189.5,127.4,188.7,127.1,188.6,126.6C188.6,126.7,188.5,126.5,188.6,126.6z M196.3,138.2c-2.2-3.3-4.2-6.3-6.4-9.7
			c0.1,0,0.2,0.1,0.1,0.1C192.3,132.1,194.7,135.4,196.3,138.2z M189.5,127.9c-0.1,0-0.4-0.4-0.5-0.6
			C189.3,127.5,189.3,127.7,189.5,127.9z M185.2,121.2c-0.2-0.2,0.2,0.5-0.2-0.1c0.4,0.9,1.1,1.6,1.5,2.4c-3.9-5.6-7.9-11.4-12-17.2
			l-0.1-0.2l-0.1-0.3c-0.1-0.4-0.4-0.9-0.7-1.3c-0.3-0.4-0.6-0.7-0.9-0.9c-0.3-0.2-0.5-0.3-0.7-0.3c-0.1,0-0.2,0-0.4,0
			c-0.1,0-0.2,0.1-0.4,0.1l-0.7,0.5l-0.6,0.6c-0.2,0.2-0.4,0.4-0.7,0.6l-0.7,0.7c-0.9,0.9-1.8,1.8-2.8,2.8c-4.4,4.6-9.1,9.8-13.7,15
			c-2.3,2.6-4.6,5.2-6.8,7.8c-1.1,1.3-2.2,2.6-3.3,3.8c-1.1,1.3-2.2,2.5-3.3,3.7c0.1-0.3,0.5-0.5,0.5-0.8c-0.7,0.7-1.4,1.5-2.2,2.3
			c-0.8,0.8-1.6,1.6-2.4,2.4c-0.9,0.9-1.6,1.8-2.4,2.1c-0.7,0.8-1.3,1.1-2.1,1.9c-0.3-0.1-0.6,0.2-1.1,0.4c0.1-0.2,0.2-0.2,0.3-0.3
			c-0.4,0.2-0.8,0.6-1.1,0.6l0.7-0.7c-0.2-0.1-0.8,0.7-0.8,0.4c0.3-0.4,0.3-0.4,0.3-0.7c4.6-4.8,8.9-9.9,13.2-15
			c4.3-5.1,8.8-10.2,13.3-15.1c3.3-3.6,6.3-6.8,9.4-10c0.8-0.8,1.6-1.6,2.3-2.4c0.8-0.8,1.6-1.6,2.6-2.4c0.3-0.2,0.4-0.3,0.8-0.5
			c0.3-0.1,0.6-0.3,1-0.4c0.7-0.2,1.4-0.2,2.1,0c0.7,0.2,1.3,0.7,1.8,1.1c0.5,0.5,0.9,1,1.2,1.6c0.2,0.4,0.5,0.8,0.6,1.4l-0.1-0.2
			c4,5.8,8.1,11.7,12,17.4c2.7,4,5.2,7.7,7.6,11.4c2.4,3.7,4.8,7.3,7,11.3c0,0.3,0.1,0.7,0.1,0.9c-0.2,0-0.4,0-0.6-0.1
			c-0.1,0-0.2-0.1-0.3-0.1c-0.1-0.1-0.2-0.2-0.4-0.3c-0.5-0.5-1-1.2-1.4-1.7c-0.5-0.6-1.1-1.2-1.5-1.8c-1.4-1.8-2.2-3.4-3.6-5.4
			c-1.3-1.9-2.6-3.7-3.8-5.5c-0.4-0.6-0.8-1.1-1.1-1.7c-1.3-1.5-2.4-3.6-3.7-5.4c-0.3-0.4-0.7-0.7-0.9-1.1
			C185.8,122.2,185.4,121.5,185.2,121.2L185.2,121.2z"/>
	</g>
</g>
<g id="Layer_2">
	<g>
		<defs>
			<rect id="SVGID_1_" x="19.2" y="1" width="330.2" height="305.6"/>
		</defs>
		<clipPath id="SVGID_2_">
			<use xlink:href="#SVGID_1_"  style="overflow:visible;"/>
		</clipPath>
		<path class="st5" d="M169.1,168.1c-3.2-3.9-7.5-6.8-12.6-7.2c-6.6-0.5-9.8,6.1-10,11.6c-0.2,6.4,4.8,11.6,9.6,15.1
			c6.5,4.7,12.1,10.9,20.2,12.7c2.3,0.5,1.1-2.8-0.4-3.2c-5.4-1.2-9.6-4.6-13.8-8c-4-3.2-8.6-6-11.3-10.5c-3-5.1-0.7-12.8,5.2-14.4
			c4.2-1.1,8.8,2.3,11.2,5.3C168.7,171.5,170.6,169.9,169.1,168.1"/>
		<path class="st6" d="M69.3,288.5c-0.6-0.3-1-0.7-1.1-1.2c-0.5,1-0.8,2.2-0.9,3.3c-0.2,1.2-0.2,2.3-0.1,3.4
			c0.4-0.1,0.8-0.3,1.1-0.6c0.4-0.3,0.7-0.7,1-1.1c0.3-0.4,0.5-0.9,0.8-1.3c0.2-0.5,0.4-0.8,0.5-1.2c0.2-0.4,0.3-0.9,0.3-1.2l0-0.1
			c-0.2-0.1-0.5-0.1-0.8,0C69.7,288.6,69.5,288.6,69.3,288.5 M69.6,285.1C69.6,285.2,69.6,285.2,69.6,285.1c0,0.1,0,0.1,0.1,0.2
			c1.6-0.8,3.2-1.5,4.9-2c1.7-0.5,3.4-1.1,5.1-1.5c0.5,0,0.9,0.2,1,0.6c0.1,0.4,0,0.8-0.5,1.1c-1.1,0.5-2.2,1-3.3,1.5
			c-1.1,0.5-2.2,1.1-3.3,1.7c0.4,0.6,0.6,1.2,0.6,2c0,0.7-0.1,1.4-0.3,2.1c-0.2,0.6-0.4,1.2-0.7,1.8c-0.3,0.6-0.7,1.3-1.1,1.8
			c-0.4,0.6-0.9,1.1-1.4,1.6c-0.5,0.5-1.1,0.8-1.6,1.1c-0.3,0.2-0.7,0.2-1.1,0.3c-0.4,0-0.8,0.1-1.2,0.1c-0.3,0-0.6-0.1-0.8-0.2
			c-0.2-0.1-0.4-0.2-0.6-0.5c-0.2-0.3-0.3-0.5-0.6-0.8c-0.2-0.2-0.4-0.5-0.5-0.8c-0.3-0.8-0.3-1.6-0.2-2.7c0.2-1,0.4-2.1,0.8-3.1
			c0.4-1,0.9-2,1.4-2.9c0.5-0.9,1.1-1.7,1.6-2.2c0.6-0.6,1.1-0.5,1.6,0.2L69.6,285.1z"/>
		<path class="st6" d="M79.7,281.5c0.1-0.3,0.3-0.4,0.6-0.5c0.2-0.1,0.4-0.1,0.6,0c0.2,0.1,0.3,0.2,0.4,0.4c0.1,0.2,0.1,0.5,0,0.8
			c-0.3,0.9-0.5,1.9-0.7,3.1c-0.2,1.2-0.4,2.4-0.5,3.6c-0.1,1.2-0.2,2.4-0.1,3.6c0,1.2,0.2,2.2,0.5,3.1c0.1-0.1,0.3-0.2,0.4-0.3
			c0.1-0.1,0.3-0.2,0.4-0.3l0,0c0.3-0.5,0.7-1,1.2-1.5c0.5-0.5,0.9-1,1.2-1.5c0.6-1,1.2-2,1.6-3c0.5-1,0.9-2.1,1.4-3.1
			c0.2-0.4,0.5-0.7,0.8-0.8c0.3-0.2,0.7-0.2,1-0.1c0.3,0.1,0.6,0.3,0.8,0.6c0.2,0.3,0.3,0.7,0.3,1.2c0,0.5-0.1,1.1-0.2,1.7
			c-0.1,0.7-0.1,1.4-0.1,2.2c0,0.8,0,1.6,0.1,2.4c0.1,0.8,0.3,1.5,0.6,2.2c0.1,0.2,0.2,0.2,0.4,0.2c0.2,0,0.4-0.1,0.6-0.3
			c0.2-0.1,0.5-0.3,0.7-0.4c0.2-0.1,0.5-0.2,0.6-0.1c0.2,0.2,0.4,0.3,0.4,0.5c0,0.2,0,0.4-0.1,0.5c-0.1,0.2-0.2,0.4-0.4,0.5
			c-0.2,0.2-0.3,0.3-0.5,0.4c-0.9,0.7-1.7,0.9-2.3,0.8c-0.6-0.1-1.1-0.5-1.5-1c-0.4-0.5-0.7-1.1-0.8-1.7c-0.2-0.6-0.3-1.1-0.4-1.4
			c-0.3,0.5-0.6,1.1-1,1.7c-0.6,0.9-1.4,1.7-2.2,2.5c-0.9,0.8-1.7,1.3-2.6,1.5c-0.8,0.2-1.6,0.1-2.4-0.4c-0.7-0.5-1.3-1.5-1.6-3.1
			c-0.2-0.7-0.2-1.7-0.1-3c0.1-1.3,0.3-2.7,0.6-4.1c0.3-1.4,0.6-2.7,1-4C79,283.1,79.3,282.2,79.7,281.5"/>
		<path class="st6" d="M94.3,293.6c-0.3,0.1-0.5,0-0.7-0.1c-0.2-0.1-0.3-0.3-0.4-0.4c-0.1-0.2-0.1-0.4-0.1-0.6
			c0-0.2,0.2-0.4,0.4-0.6c0.3-0.6,0.7-1.4,1.2-2.5c0.5-1.1,1-2.2,1.5-3.4c0.5-1.2,1-2.3,1.4-3.3c0.5-1,0.8-1.8,1.1-2.2
			c0.7-0.6,1.4-0.6,2.1-0.2c0.8,1,1.5,1.9,2,2.6c0.6,0.7,1,1.4,1.3,2c0.3,0.6,0.6,1.2,0.7,1.8c0.1,0.6,0.2,1.2,0.2,2
			c0,0.7-0.1,1.6-0.2,2.5c-0.1,0.9-0.3,2-0.5,3.4c0.9-0.2,1.7-0.5,2.5-0.8c0.8-0.4,1.6-0.7,2.4-1.1c0.3-0.1,0.5-0.1,0.8,0
			c0.2,0.1,0.4,0.2,0.5,0.4c0.1,0.2,0.1,0.4,0.1,0.6c-0.1,0.2-0.2,0.4-0.5,0.6c-1,0.6-2,1.2-3.1,1.8c-1,0.6-2.1,1.1-3.2,1.6
			c-0.4,0.1-0.7,0.1-0.9,0c-0.2-0.1-0.5-0.2-0.8-0.5c-0.5-0.4-0.7-0.8-0.8-1.3c-0.1-0.5-0.1-0.9-0.1-1.4c0-0.5,0.1-1,0.3-1.5
			c0.1-0.5,0.2-1,0.3-1.6c0.1-0.8,0.1-1.5,0.1-2.1c0-0.6-0.1-1.3-0.2-1.8c-0.1-0.6-0.3-1.1-0.6-1.7c-0.3-0.6-0.6-1.2-1.1-1.8
			c-0.2,0.3-0.6,1-1,2c-0.5,1-0.9,2-1.5,3.1s-1.1,2.1-1.6,3.1C95.2,292.9,94.7,293.4,94.3,293.6"/>
		<path class="st6" d="M134,285.1C134,285,134,285,134,285.1c0,0.1-0.1,0.2-0.1,0.4L134,285.1z M128.4,283.9
			c0.3-0.7,0.6-1.3,0.8-1.7c0.2-0.4,0.4-0.7,0.5-0.8c0.1-0.1,0.3-0.2,0.4-0.1c0.1,0,0.2,0.1,0.2,0.2c0.2,0.3,0.3,0.8,0.4,1.2
			c0,0.5,0,1-0.1,1.6c-0.1,0.6-0.2,1.2-0.3,1.9c-0.1,0.7-0.3,1.3-0.4,2c0.3-0.7,0.7-1.4,1-2.1c0.3-0.7,0.7-1.4,1-2
			c0.2-0.3,0.4-0.8,0.7-1.3c0.3-0.5,0.6-1.1,0.9-1.6c0.4-0.5,0.7-0.9,1.2-1.3c0.4-0.3,0.9-0.5,1.4-0.4c0.3,0.1,0.6,0.2,0.8,0.3
			c0.2,0.1,0.4,0.3,0.6,0.6c0.3,0.6,0.5,1.3,0.5,1.9c0,0.7-0.1,1.4-0.2,2.1c-0.1,0.7-0.3,1.4-0.4,2.1c-0.2,0.7-0.3,1.4-0.3,2
			l2.6-4.5c0.2-0.4,0.4-0.6,0.7-0.8c0.3-0.2,0.6-0.2,0.9-0.2c0.3,0,0.6,0.1,0.8,0.3c0.2,0.2,0.4,0.5,0.6,0.9c0,0.5,0,1.2-0.1,1.9
			c-0.1,0.8-0.1,1.5-0.1,2.3c0,0.8,0.1,1.5,0.2,2.2c0.1,0.7,0.4,1.2,0.7,1.6c0.7-0.1,1.4-0.5,2.1-1.1c0.7-0.6,1.3-1.3,1.9-2.2
			c0.6-0.8,1.1-1.7,1.5-2.6c0.4-0.9,0.7-1.6,1-2.3c0.2-0.5,0.6-0.7,1-0.5c0.4,0.1,0.7,0.4,0.7,1c-0.6,2-1.4,3.7-2.3,5.2
			c-1,1.5-2.2,3-3.8,4.4c-0.3,0.2-0.7,0.5-1.1,0.7c-0.5,0.2-1,0.2-1.7,0c-0.5-0.2-0.9-0.4-1.2-0.8c-0.3-0.4-0.6-0.8-0.8-1.2
			c-0.2-0.5-0.4-0.9-0.5-1.4c-0.1-0.5-0.2-1-0.2-1.4c-0.2,0.4-0.5,0.8-0.7,1.2c-0.3,0.4-0.6,0.8-0.9,1.1c-0.3,0.3-0.7,0.6-1.1,0.8
			c-0.4,0.2-0.9,0.3-1.4,0.3c-0.4,0-0.8-0.1-1-0.3c-0.3-0.2-0.5-0.4-0.7-0.8c-0.3-0.8-0.4-1.6-0.4-2.4c0-0.8,0-1.6,0.1-2.4
			c-0.7,1.4-1.4,2.8-2.2,4.2c-0.7,1.4-1.6,2.7-2.7,3.7c-0.5,0.3-0.9,0.4-1.3,0.3c-0.4-0.1-0.8-0.4-1.1-0.9c-0.2-0.8-0.2-1.6-0.1-2.6
			c0.1-1,0.3-2,0.6-3c0.3-1,0.5-2.1,0.8-3.1C128,285.6,128.2,284.7,128.4,283.9"/>
		<path class="st6" d="M153.1,272.4c0.2,0.3,0.3,0.5,0.3,0.8c0,0.3-0.1,0.5-0.2,0.8c-0.1,0.2-0.3,0.3-0.6,0.4
			c-0.2,0.1-0.5,0-0.8-0.2c-0.3-0.2-0.5-0.5-0.5-0.8c0-0.3,0-0.6,0.2-0.8c0.2-0.2,0.4-0.4,0.7-0.4
			C152.4,272.1,152.8,272.2,153.1,272.4 M150,282.4c0.4-0.7,0.8-1,1.2-0.9c0.3,0.1,0.5,0.4,0.5,1c-0.2,1.3-0.4,2.6-0.5,3.8
			c-0.2,1.2-0.3,2.3-0.4,3.2c-0.1,0.9-0.1,1.7,0,2.2c0.1,0.6,0.3,0.9,0.6,0.9l0,0c0.4,0.1,0.9,0.2,1.4,0.1c0.6-0.1,1.1-0.3,1.7-0.5
			c0.6-0.3,1.2-0.6,1.8-1c0.6-0.4,1.1-0.8,1.6-1.3c0.3-0.1,0.5-0.1,0.7-0.1c0.2,0.1,0.4,0.2,0.5,0.3c0.1,0.1,0.2,0.3,0.2,0.5
			c0,0.2-0.1,0.4-0.2,0.6c-2,1.7-3.8,2.9-5.2,3.6c-1.4,0.6-2.6,0.9-3.5,0.7c-0.9-0.1-1.6-0.6-2-1.4c-0.4-0.8-0.6-1.7-0.6-2.7
			c0.1-1.9,0.3-3.6,0.8-5C149,285.1,149.4,283.7,150,282.4"/>
		<path class="st6" d="M158.9,291.3c-0.3,0.1-0.5,0-0.7-0.1c-0.2-0.1-0.3-0.3-0.4-0.4c-0.1-0.2-0.1-0.4-0.1-0.6
			c0-0.2,0.2-0.4,0.4-0.6c0.3-0.6,0.7-1.4,1.2-2.5c0.5-1.1,1-2.2,1.5-3.4c0.5-1.2,1-2.3,1.4-3.3c0.5-1,0.8-1.8,1.1-2.2
			c0.7-0.6,1.4-0.6,2.1-0.2c0.8,1,1.5,1.9,2,2.6c0.6,0.7,1,1.4,1.3,2c0.3,0.6,0.6,1.2,0.7,1.8c0.1,0.6,0.2,1.2,0.2,2
			c0,0.7-0.1,1.5-0.2,2.5c-0.1,0.9-0.3,2.1-0.5,3.4c0.8-0.2,1.7-0.5,2.5-0.8c0.8-0.4,1.6-0.7,2.4-1.1c0.3-0.1,0.6-0.1,0.8,0
			c0.2,0.1,0.4,0.2,0.5,0.4c0.1,0.2,0.1,0.4,0.1,0.6c-0.1,0.2-0.2,0.4-0.5,0.6c-1,0.6-2,1.2-3.1,1.8c-1,0.6-2.1,1.1-3.2,1.6
			c-0.4,0.1-0.7,0.1-0.9,0c-0.2-0.1-0.5-0.2-0.8-0.5c-0.5-0.4-0.7-0.8-0.8-1.3c-0.1-0.5-0.1-0.9-0.1-1.4c0-0.5,0.1-1,0.3-1.5
			c0.1-0.5,0.2-1,0.3-1.6c0.1-0.8,0.1-1.5,0.1-2.1c0-0.6-0.1-1.3-0.2-1.8c-0.1-0.6-0.3-1.1-0.6-1.7c-0.3-0.6-0.6-1.2-1.1-1.8
			c-0.2,0.3-0.6,1-1,2c-0.5,1-0.9,2-1.5,3.1c-0.5,1.1-1.1,2.1-1.6,3.1C159.8,290.6,159.3,291.2,158.9,291.3"/>
		<path class="st6" d="M177.2,289.9c0.7-0.4,1.3-1,1.8-1.7c0.4-0.7,0.9-1.4,1.2-2.1c0.4-0.7,0.7-1.4,1.1-2.1
			c0.4-0.7,0.8-1.3,1.4-1.8c-0.4-0.1-0.6-0.4-0.6-0.8L182,281l-1.3-0.4c-0.7,0.5-1.2,1.1-1.7,1.8c-0.5,0.7-0.9,1.5-1.2,2.4
			c-0.3,0.8-0.5,1.7-0.6,2.6C177.1,288.3,177.1,289.1,177.2,289.9 M183.8,281.2c0,0.1,0,0.3-0.1,0.4c0.6-0.1,1.1,0,1.4,0.3
			c0.4,0.3,0.5,0.8,0.5,1.5c-0.1,0.5-0.3,1.2-0.5,2.1c-0.2,0.9-0.4,1.7-0.6,2.6c-0.2,0.9-0.3,1.8-0.4,2.6c-0.1,0.8-0.1,1.5,0.1,1.9
			c0.4,0,0.9-0.2,1.2-0.5c0.4-0.3,0.8-0.6,1.1-0.9c0.4-0.3,0.7-0.7,1-1.1c0.3-0.4,0.6-0.8,0.8-1.1c0.2-0.2,0.5-0.3,0.7-0.3
			c0.2,0,0.4,0.1,0.6,0.2c0.2,0.1,0.2,0.3,0.3,0.6c0,0.2,0,0.5-0.2,0.7c0,0-0.2,0.2-0.5,0.7c-0.3,0.4-0.7,0.9-1.1,1.4
			c-0.4,0.5-0.9,1-1.4,1.5c-0.5,0.5-0.9,0.8-1.4,1c-0.5,0.3-1.1,0.4-1.8,0.4c-0.7,0-1.2-0.3-1.5-0.9c-0.3-0.6-0.5-1.2-0.6-1.7
			c-0.1-0.6-0.2-1.2-0.2-1.8c-0.5,0.5-1.1,1-1.7,1.4c-0.6,0.4-1.3,0.8-2,1.3c-0.3,0.1-0.6,0.1-1,0c-0.3-0.1-0.7-0.2-1-0.3
			c-0.3-0.2-0.6-0.3-0.9-0.6c-0.3-0.2-0.4-0.5-0.5-0.8c-0.3-0.7-0.3-1.7-0.2-2.9c0.1-1.2,0.4-2.4,0.8-3.7c0.4-1.2,0.9-2.4,1.4-3.4
			c0.6-1.1,1.2-1.8,1.9-2.2c0.4-0.2,0.7-0.5,1.1-0.7c0.4-0.2,0.7-0.4,1.2-0.5c0.5-0.1,1-0.1,1.4,0c0.4,0.1,0.8,0.3,1.1,0.6
			c0.3,0.3,0.6,0.6,0.7,1C183.7,280.4,183.8,280.8,183.8,281.2"/>
		<path class="st6" d="M198.3,281.3c0,0.6-0.2,0.9-0.6,1c-0.4,0.1-0.8-0.1-1.1-0.6l-0.3-2.6l-0.6,0c-0.6,0.4-1.1,1-1.7,1.8
			c-0.6,0.8-1.1,1.7-1.5,2.7c-0.4,1-0.7,1.9-0.9,2.9c-0.2,1-0.2,1.8,0,2.5c0.1,0.3,0.2,0.6,0.5,0.9c0.2,0.4,0.5,0.6,0.8,0.6
			c0.4-0.1,0.9-0.3,1.4-0.6c0.5-0.3,1-0.6,1.5-1c0.5-0.4,1-0.7,1.4-1.1c0.5-0.4,0.9-0.7,1.2-0.9c0.3-0.1,0.5-0.1,0.7-0.1
			c0.2,0.1,0.4,0.1,0.5,0.3c0.1,0.1,0.2,0.3,0.2,0.5c0,0.2-0.1,0.4-0.2,0.6c-0.4,0.4-0.8,0.8-1.3,1.3c-0.4,0.5-0.9,1-1.4,1.5
			s-1,0.9-1.5,1.3c-0.5,0.4-1.1,0.7-1.6,0.9c-0.6,0.2-1.2,0.2-1.7,0.1c-0.6-0.1-1.1-0.4-1.6-0.7c-0.5-0.3-0.9-0.7-1.2-1.2
			c-0.4-0.5-0.6-1-0.8-1.5c-0.3-0.8-0.3-1.8-0.2-3c0.1-1.2,0.4-2.5,0.8-3.7c0.4-1.3,1-2.4,1.7-3.5c0.7-1.1,1.5-1.9,2.4-2.4
			c0.8-0.4,1.5-0.6,2.2-0.7c0.7,0,1.3,0.1,1.8,0.4c0.5,0.3,0.8,0.8,1.1,1.5C198.4,279.5,198.4,280.3,198.3,281.3"/>
		<path class="st6" d="M205.6,270.7c-0.8,2-1.4,4-1.7,6c-0.4,2-0.6,4.1-0.5,6.2c0.5-0.7,0.9-1.5,1.2-2.3c0.3-0.8,0.7-1.6,1-2.4
			c0.3-0.8,0.7-1.8,1.1-3c0.4-1.2,0.8-2.4,1.1-3.7c0.4-1.3,0.6-2.5,0.9-3.8c0.2-1.2,0.3-2.3,0.2-3.3c-0.1,0.2-0.3,0.4-0.4,0.6
			c-0.1,0.2-0.3,0.4-0.4,0.6c-0.5,0.8-1,1.6-1.3,2.5C206.3,269,205.9,269.8,205.6,270.7 M211.7,266.9c-0.2,1.3-0.6,2.8-1.1,4.5
			c-0.5,1.8-1.1,3.5-1.9,5.3c-0.7,1.8-1.5,3.5-2.4,5.1c-0.9,1.6-1.9,2.8-2.9,3.7c0,0.5,0.1,0.9,0.1,1.4c0,0.5,0.1,0.9,0.3,1.4
			c0.1,0.4,0.3,0.8,0.6,1.2c0.2,0.4,0.6,0.7,1,0.9c1.6-0.4,3.1-1,4.3-1.9c1.3-0.9,2.4-2,3.4-3.4c0.2-0.2,0.4-0.3,0.6-0.3
			c0.2,0,0.4,0,0.6,0.2c0.2,0.1,0.3,0.3,0.3,0.5c0.1,0.2,0.1,0.4,0,0.7c-0.5,0.7-1.1,1.5-1.8,2.3c-0.7,0.8-1.5,1.5-2.3,2.2
			c-0.8,0.7-1.7,1.2-2.6,1.7c-0.9,0.4-1.8,0.7-2.6,0.6c-0.8,0-1.6-0.3-2.4-0.9c-0.7-0.6-1.3-1.6-1.8-2.9c-0.4-1-0.6-2.2-0.7-3.4
			c-0.1-1.3-0.2-2.4-0.2-3.5c0-1,0.1-2.1,0.2-3.4c0.1-1.3,0.3-2.6,0.5-4c0.2-1.4,0.6-2.8,1-4.2c0.4-1.4,0.9-2.8,1.5-4.1
			c0.6-1.3,1.2-2.4,2-3.4c0.7-1,1.6-1.8,2.6-2.4c0.7-0.5,1.4-0.6,2.1-0.3c0.6,0.2,1.1,0.5,1.4,1c0.3,0.5,0.5,1.1,0.6,1.8
			c0.1,0.7,0.1,1.4,0,2C211.8,265.9,211.8,266.5,211.7,266.9"/>
		<path class="st6" d="M219.7,278.6c-0.3,0.3-0.7,0.7-1,1.3c-0.3,0.5-0.6,1.1-0.9,1.8c-0.3,0.7-0.5,1.3-0.8,2
			c-0.2,0.7-0.4,1.3-0.5,1.9c0.2-0.2,0.5-0.5,0.7-0.9c0.3-0.4,0.5-0.8,0.8-1.4c0.1-0.2,0.3-0.6,0.5-0.9c0.2-0.4,0.4-0.8,0.6-1.3
			c0.2-0.4,0.3-0.9,0.4-1.3C219.7,279.3,219.7,278.9,219.7,278.6 M222.4,280.7c-0.3,0.8-0.7,1.6-1.1,2.3c-0.4,0.8-0.8,1.5-1.3,2.1
			c-0.5,0.7-1,1.2-1.6,1.7c-0.6,0.5-1.3,0.9-2.1,1.1c0,0.5,0.1,1,0.2,1.5c0.1,0.5,0.2,0.9,0.5,1.2c0.2,0.3,0.5,0.5,0.9,0.6
			c0.4,0.1,0.9-0.1,1.4-0.4c0.2-0.1,0.5-0.3,0.9-0.6c0.4-0.3,0.9-0.6,1.3-1c0.5-0.4,0.9-0.8,1.3-1.3c0.4-0.5,0.7-0.9,0.9-1.4
			c0.1-0.3,0.3-0.4,0.5-0.4c0.2,0,0.4,0.1,0.6,0.2c0.2,0.2,0.3,0.4,0.4,0.6c0.1,0.3,0,0.5-0.2,0.8c-0.2,0.4-0.5,0.8-0.9,1.3
			c-0.4,0.5-0.9,1-1.4,1.5c-0.5,0.5-1,1-1.4,1.4c-0.5,0.4-0.8,0.7-1.1,0.8c-0.1,0-0.2,0.1-0.4,0.2c-0.2,0.1-0.4,0.2-0.6,0.3
			c-0.2,0.1-0.4,0.2-0.7,0.3c-0.2,0.1-0.4,0.1-0.6,0.2c-0.6,0-1.2-0.1-1.8-0.3c-0.5-0.2-1-0.6-1.4-1c-0.4-0.4-0.7-0.9-1-1.4
			c-0.3-0.5-0.4-1.1-0.5-1.8c0-0.2-0.1-0.4-0.1-0.6c0-0.2,0-0.4,0-0.6c-0.2-0.1-0.3-0.3-0.3-0.6c0-0.2,0.1-0.5,0.2-0.6
			c0-0.4,0-0.9,0-1.3c0-0.4,0.1-0.9,0.2-1.4c0.2-0.8,0.5-1.7,0.8-2.8c0.4-1.1,0.8-2.1,1.4-3.1c0.6-1,1.3-1.8,2.1-2.5
			c0.8-0.7,1.8-1,2.8-0.9c0.7,0,1.2,0.3,1.5,0.7c0.3,0.5,0.6,1,0.7,1.6c0.1,0.6,0.1,1.2,0,1.9C222.7,279.8,222.6,280.3,222.4,280.7"
			/>
		<path class="st6" d="M247.7,282.3c-0.6-0.3-1-0.7-1.1-1.2c-0.5,1-0.8,2.2-0.9,3.3c-0.2,1.2-0.2,2.3-0.1,3.5
			c0.4-0.1,0.8-0.3,1.1-0.6c0.4-0.3,0.7-0.7,1-1.1c0.3-0.4,0.5-0.9,0.8-1.3c0.2-0.4,0.4-0.8,0.5-1.2c0.2-0.4,0.3-0.8,0.3-1.2l0-0.1
			c-0.2-0.1-0.5-0.1-0.8,0C248.2,282.4,247.9,282.4,247.7,282.3 M248.1,278.9C248.1,279,248.1,279,248.1,278.9c0,0.1,0,0.1,0.1,0.2
			c1.6-0.8,3.2-1.5,4.9-2c1.7-0.5,3.4-1.1,5.1-1.5c0.5,0,0.9,0.2,1,0.6c0.1,0.4,0,0.8-0.5,1.1c-1.1,0.5-2.2,1-3.3,1.5
			c-1.1,0.5-2.2,1.1-3.3,1.7c0.4,0.6,0.6,1.2,0.6,2c0,0.7-0.1,1.4-0.3,2.1c-0.2,0.6-0.4,1.2-0.7,1.8c-0.3,0.6-0.7,1.3-1.1,1.8
			c-0.4,0.6-0.9,1.1-1.4,1.6c-0.5,0.5-1.1,0.8-1.6,1c-0.3,0.2-0.7,0.2-1.1,0.3c-0.4,0-0.8,0.1-1.2,0.1c-0.3,0-0.6-0.1-0.8-0.2
			c-0.2-0.1-0.4-0.2-0.6-0.5c-0.2-0.3-0.3-0.5-0.6-0.8c-0.2-0.2-0.4-0.5-0.5-0.8c-0.3-0.8-0.3-1.6-0.2-2.7c0.2-1,0.4-2.1,0.8-3.1
			c0.4-1,0.9-2,1.4-2.9c0.5-0.9,1.1-1.7,1.6-2.2c0.6-0.5,1.1-0.5,1.6,0.2L248.1,278.9z"/>
		<path class="st6" d="M262,266.4l0.2-0.6l0.2-0.4c0,0.1,0,0.2-0.1,0.3c-0.1,0.2-0.1,0.3-0.1,0.4C262,266.2,262,266.3,262,266.4
			C261.9,266.4,261.9,266.4,262,266.4 M264.1,261.3c-0.2,0.2-0.4,0.4-0.6,0.7c-0.2,0.3-0.3,0.6-0.5,1c-0.2,0.4-0.3,0.8-0.4,1.2
			c-0.1,0.4-0.3,0.8-0.4,1.1l-0.2,0.5c-0.8,2.5-1.4,5-1.8,7.5c-0.4,2.5-0.8,5-0.9,7.6c0.4-0.4,0.8-0.8,1.1-1.2
			c0.3-0.4,0.6-0.8,0.9-1.3c0.6-0.9,1.1-2,1.6-3.2c0.5-1.2,1-2.5,1.3-3.8c0.4-1.3,0.6-2.6,0.8-3.9c0.2-1.3,0.2-2.5,0.1-3.6
			c0-0.3,0-0.6-0.1-0.9c-0.1-0.3-0.2-0.6-0.3-0.8c-0.1-0.1-0.2-0.3-0.3-0.4C264.4,261.6,264.3,261.4,264.1,261.3 M260.7,290.1
			c-0.3,0.2-0.5,0.4-0.8,0.7c-0.3,0.2-0.5,0.5-0.8,0.7l0.2,4.6c0.6-1.1,1.1-2.2,1.5-3.3c0.4-1.1,0.7-2.2,0.9-3.4
			c-0.2,0.1-0.3,0.2-0.5,0.4C261,289.9,260.8,290,260.7,290.1 M262.5,280.3c-0.4,0.5-1,0.9-1.6,1.4c-0.6,0.5-1.2,1-1.7,1.6l-0.1,1.5
			l0-0.7c0,0.5-0.1,1-0.1,1.4c0,0.5,0,0.9,0,1.4c0.6-0.3,1.2-0.6,1.8-0.8c0.6-0.2,1.2-0.3,1.7-0.2l0.4-0.3c0.6-0.5,1.2-1,1.8-1.5
			c0.6-0.5,1.2-1,1.8-1.5c0.6-0.5,1.3-0.9,2-1.2c0.7-0.4,1.4-0.6,2.2-0.8c0.3,0,0.5,0.1,0.7,0.2c0.2,0.2,0.3,0.3,0.3,0.5
			c0,0.2,0,0.4-0.2,0.6c-0.1,0.2-0.3,0.3-0.6,0.4c-0.6,0.2-1.3,0.4-1.8,0.8c-0.6,0.4-1.1,0.8-1.7,1.2c-0.5,0.4-1,0.9-1.5,1.4
			c-0.5,0.5-1,1-1.5,1.4l0.1,0.2c0.3,0.5,0.4,1.2,0.3,1.9c-0.1,0.8-0.2,1.6-0.4,2.4c-0.2,0.8-0.5,1.6-0.8,2.3
			c-0.3,0.7-0.6,1.4-0.8,1.8c-0.5,1-1,2-1.5,2.9c-0.5,0.9-1.3,1.8-2.2,2.5c-0.5,0.3-1,0.5-1.5,0.3c-0.5-0.1-0.9-0.5-1.2-1
			c-0.4-0.9-0.7-2-0.8-3.2c-0.1-1.2-0.1-2.4-0.1-3.7c-0.5,0-0.9-0.1-1.1-0.4c-0.3-0.3-0.3-0.7-0.2-1.2c0.1-0.3,0.2-0.7,0.5-1.1
			c0.3-0.4,0.6-0.8,0.9-1.2c-0.1-3.9,0-7.8,0.4-11.6c0.4-3.8,1.2-7.6,2.4-11.4c0.2-0.6,0.4-1.2,0.6-2c0.2-0.8,0.5-1.5,0.8-2.3
			c0.3-0.8,0.7-1.5,1.1-2.2c0.4-0.7,0.9-1.2,1.4-1.5c0.5-0.4,1.1-0.6,1.7-0.6c0.6,0,1.1,0,1.6,0.3c0.5,0.2,0.9,0.6,1.3,1
			s0.6,1,0.7,1.7c0.3,1.2,0.4,2.5,0.3,3.7c0,1.2-0.2,2.5-0.4,3.7c-0.2,1.2-0.6,2.4-1,3.6c-0.4,1.2-0.9,2.3-1.4,3.5
			c-0.3,0.8-0.7,1.6-1.1,2.5C263.7,278.9,263.1,279.7,262.5,280.3"/>
		<path class="st6" d="M273.9,265.9l0.2-0.6l0.2-0.4c0,0.1,0,0.2-0.1,0.3c-0.1,0.1-0.1,0.3-0.1,0.4
			C274,265.7,273.9,265.9,273.9,265.9C273.9,266,273.9,266,273.9,265.9 M276.1,260.9c-0.2,0.2-0.4,0.4-0.6,0.7
			c-0.2,0.3-0.3,0.6-0.5,1c-0.2,0.4-0.3,0.8-0.4,1.2c-0.1,0.4-0.3,0.8-0.4,1.1l-0.2,0.5c-0.8,2.5-1.4,5-1.8,7.5
			c-0.4,2.5-0.8,5-0.9,7.6c0.4-0.4,0.8-0.8,1.1-1.2c0.3-0.4,0.7-0.8,0.9-1.3c0.6-0.9,1.1-2,1.6-3.2c0.5-1.2,1-2.5,1.3-3.8
			c0.4-1.3,0.6-2.6,0.8-3.9c0.2-1.3,0.2-2.5,0.1-3.6c0-0.3,0-0.6-0.1-0.9c-0.1-0.3-0.2-0.6-0.3-0.8c-0.1-0.1-0.2-0.3-0.3-0.4
			C276.4,261.1,276.2,261,276.1,260.9 M272.7,289.7c-0.3,0.2-0.5,0.4-0.8,0.7c-0.3,0.2-0.5,0.5-0.8,0.7l0.2,4.6
			c0.6-1.1,1.1-2.2,1.5-3.3c0.4-1.1,0.7-2.2,0.9-3.4c-0.2,0.1-0.3,0.2-0.5,0.4C273,289.5,272.8,289.6,272.7,289.7 M274.5,279.9
			c-0.4,0.5-1,0.9-1.6,1.4s-1.2,1-1.7,1.6l-0.1,1.5l0-0.7c0,0.5-0.1,1-0.1,1.4c0,0.5,0,0.9,0,1.4c0.6-0.3,1.2-0.6,1.8-0.8
			c0.6-0.2,1.2-0.3,1.7-0.2l0.4-0.3c0.6-0.5,1.2-1,1.8-1.5c0.6-0.5,1.2-1,1.8-1.5c0.6-0.5,1.3-0.9,2-1.2c0.7-0.4,1.4-0.6,2.2-0.8
			c0.3,0,0.5,0.1,0.7,0.2c0.2,0.2,0.3,0.3,0.3,0.5c0,0.2,0,0.4-0.2,0.6c-0.1,0.2-0.3,0.3-0.6,0.4c-0.6,0.2-1.3,0.4-1.8,0.8
			c-0.6,0.4-1.1,0.8-1.7,1.2c-0.5,0.4-1,0.9-1.5,1.4c-0.5,0.5-1,1-1.5,1.4l0.1,0.2c0.3,0.5,0.4,1.2,0.3,1.9
			c-0.1,0.8-0.2,1.6-0.4,2.4c-0.2,0.8-0.5,1.6-0.8,2.3c-0.3,0.7-0.6,1.4-0.8,1.8c-0.5,1-1,2-1.5,2.9c-0.5,0.9-1.3,1.8-2.2,2.5
			c-0.5,0.3-1,0.5-1.5,0.3c-0.5-0.1-0.9-0.5-1.2-1c-0.4-0.9-0.7-2-0.8-3.2c-0.1-1.2-0.1-2.4-0.1-3.7c-0.5,0-0.9-0.1-1.1-0.4
			c-0.3-0.3-0.3-0.7-0.2-1.2c0.1-0.3,0.2-0.7,0.5-1.1c0.3-0.4,0.6-0.8,0.9-1.2c-0.1-3.9,0-7.8,0.4-11.6c0.4-3.8,1.2-7.6,2.4-11.4
			c0.2-0.6,0.4-1.2,0.6-2c0.2-0.8,0.5-1.5,0.8-2.3c0.3-0.8,0.7-1.5,1.1-2.2c0.4-0.7,0.9-1.2,1.4-1.5c0.5-0.4,1.1-0.6,1.7-0.6
			c0.6,0,1.1,0,1.6,0.3c0.5,0.2,0.9,0.6,1.3,1c0.4,0.5,0.6,1,0.7,1.7c0.2,1.2,0.4,2.5,0.3,3.7c0,1.2-0.2,2.5-0.4,3.7
			c-0.2,1.2-0.6,2.4-1,3.6c-0.4,1.2-0.9,2.3-1.4,3.5c-0.3,0.8-0.7,1.6-1.1,2.5C275.6,278.5,275.1,279.3,274.5,279.9"/>
		<path class="st6" d="M287.2,276.2c-0.3,0.3-0.7,0.7-1,1.3c-0.3,0.5-0.6,1.1-0.9,1.8c-0.3,0.7-0.5,1.3-0.7,2
			c-0.2,0.7-0.4,1.3-0.5,1.9c0.2-0.2,0.5-0.5,0.7-0.9c0.3-0.4,0.5-0.8,0.8-1.4c0.1-0.2,0.3-0.6,0.5-0.9c0.2-0.4,0.4-0.8,0.6-1.3
			c0.2-0.5,0.3-0.9,0.4-1.3C287.2,277,287.2,276.6,287.2,276.2 M289.9,278.4c-0.3,0.8-0.7,1.6-1.1,2.3c-0.4,0.8-0.9,1.5-1.3,2.1
			c-0.5,0.7-1,1.2-1.6,1.7c-0.6,0.5-1.3,0.9-2.1,1.1c0,0.5,0.1,1,0.2,1.4c0.1,0.5,0.2,0.9,0.5,1.2c0.2,0.3,0.5,0.5,0.9,0.6
			c0.4,0.1,0.9-0.1,1.4-0.4c0.2-0.1,0.5-0.3,0.9-0.6c0.4-0.3,0.9-0.6,1.3-1c0.5-0.4,0.9-0.8,1.3-1.3c0.4-0.5,0.7-0.9,0.9-1.4
			c0.1-0.3,0.3-0.4,0.5-0.4c0.2,0,0.4,0.1,0.6,0.2c0.2,0.2,0.3,0.4,0.4,0.6c0.1,0.3,0,0.5-0.2,0.8c-0.2,0.4-0.5,0.8-0.9,1.3
			c-0.4,0.5-0.9,1-1.4,1.5c-0.5,0.5-1,1-1.4,1.4c-0.5,0.4-0.8,0.7-1.1,0.8c-0.1,0-0.2,0.1-0.4,0.2c-0.2,0.1-0.4,0.2-0.6,0.3
			c-0.2,0.1-0.4,0.2-0.7,0.3c-0.2,0.1-0.4,0.1-0.6,0.2c-0.7,0-1.2-0.1-1.8-0.3c-0.5-0.2-1-0.6-1.4-1c-0.4-0.4-0.7-0.9-1-1.4
			c-0.3-0.5-0.4-1.1-0.5-1.8c0-0.2-0.1-0.4-0.1-0.6c0-0.2,0-0.4,0-0.6c-0.2-0.1-0.3-0.3-0.3-0.6c0-0.3,0.1-0.5,0.2-0.6
			c0-0.4,0-0.9,0-1.3c0-0.4,0.1-0.9,0.2-1.4c0.2-0.8,0.5-1.7,0.8-2.8c0.4-1.1,0.8-2.1,1.4-3.1c0.6-1,1.3-1.8,2.1-2.5
			c0.8-0.7,1.8-1,2.8-0.9c0.7,0,1.2,0.3,1.5,0.7c0.3,0.5,0.6,1,0.7,1.6c0.1,0.6,0.1,1.2,0,1.9C290.3,277.4,290.1,278,289.9,278.4"/>
		<path class="st6" d="M291.8,286.7c-0.3,0.1-0.5,0-0.7-0.1c-0.2-0.1-0.3-0.3-0.4-0.4c-0.1-0.2-0.1-0.4-0.1-0.6
			c0-0.2,0.2-0.4,0.4-0.6c0.3-0.6,0.7-1.4,1.2-2.5c0.5-1.1,1-2.2,1.5-3.4c0.5-1.2,1-2.3,1.4-3.3c0.5-1,0.8-1.8,1.1-2.2
			c0.7-0.6,1.4-0.6,2.1-0.2c0.8,1,1.5,1.9,2,2.6c0.6,0.7,1,1.4,1.3,2c0.3,0.6,0.6,1.2,0.7,1.8c0.1,0.6,0.2,1.2,0.2,2
			c0,0.7-0.1,1.6-0.2,2.5c-0.1,0.9-0.3,2.1-0.5,3.4c0.9-0.2,1.7-0.5,2.5-0.8c0.8-0.4,1.6-0.7,2.4-1.1c0.3-0.1,0.5-0.1,0.8,0
			c0.2,0.1,0.4,0.2,0.5,0.4c0.1,0.2,0.1,0.4,0.1,0.6c-0.1,0.2-0.2,0.4-0.5,0.6c-1,0.6-2,1.2-3.1,1.8c-1,0.6-2.1,1.1-3.2,1.6
			c-0.4,0.1-0.7,0.1-0.9,0c-0.2-0.1-0.5-0.2-0.8-0.5c-0.5-0.4-0.7-0.8-0.8-1.3c-0.1-0.5-0.1-0.9-0.1-1.4c0-0.5,0.1-1,0.3-1.5
			c0.1-0.5,0.2-1,0.3-1.6c0.1-0.8,0.1-1.5,0.1-2.1c0-0.6-0.1-1.3-0.2-1.8c-0.1-0.6-0.3-1.1-0.6-1.7c-0.3-0.6-0.6-1.2-1.1-1.8
			c-0.2,0.3-0.6,1-1,2c-0.5,1-0.9,2-1.5,3.1c-0.5,1.1-1.1,2.1-1.6,3.1C292.6,286,292.2,286.5,291.8,286.7"/>
		<path class="st6" d="M312.7,266.9c0.2,0.3,0.3,0.5,0.3,0.8c0,0.3-0.1,0.5-0.2,0.8c-0.1,0.2-0.3,0.3-0.6,0.4
			c-0.2,0.1-0.5,0-0.8-0.2c-0.3-0.2-0.5-0.5-0.5-0.8c0-0.3,0-0.6,0.2-0.8c0.2-0.2,0.4-0.4,0.7-0.4
			C312,266.6,312.3,266.7,312.7,266.9 M309.5,276.9c0.4-0.7,0.8-1,1.2-0.9c0.3,0.1,0.5,0.4,0.5,1c-0.2,1.3-0.4,2.6-0.5,3.8
			c-0.2,1.2-0.3,2.3-0.4,3.2c-0.1,0.9-0.1,1.7,0,2.2c0.1,0.6,0.3,0.9,0.6,0.9l0,0c0.4,0.1,0.9,0.2,1.4,0.1c0.6-0.1,1.1-0.3,1.7-0.5
			c0.6-0.3,1.2-0.6,1.8-1c0.6-0.4,1.1-0.8,1.6-1.3c0.3-0.1,0.5-0.1,0.7-0.1c0.2,0.1,0.4,0.1,0.5,0.3c0.1,0.1,0.2,0.3,0.2,0.5
			c0,0.2-0.1,0.4-0.2,0.6c-2,1.8-3.8,2.9-5.2,3.6c-1.4,0.6-2.6,0.9-3.5,0.7c-0.9-0.1-1.6-0.6-2-1.4c-0.4-0.8-0.6-1.7-0.6-2.7
			c0.1-1.9,0.3-3.6,0.8-5C308.5,279.6,309,278.2,309.5,276.9"/>
		<path class="st6" d="M320.9,275.9c0.1,0.5,0.1,1.1,0.2,1.6c0.1,0.5,0.1,1.1,0,1.6c0.5-1,1.1-1.9,1.7-2.8c0.6-0.9,1.3-1.8,2-2.8
			c0.3-0.3,0.6-0.5,0.9-0.6c0.3-0.1,0.6-0.1,1.1,0.1c0.3,0.1,0.5,0.2,0.7,0.3c0.4,0.2,0.6,0.5,0.8,0.7c0.1,0.3,0.2,0.6,0.2,1.1
			c0,0.9-0.1,1.9-0.2,2.8c-0.1,0.9-0.2,1.9-0.3,2.8c-0.1,0.9-0.1,1.9-0.1,2.8c0,0.9,0.1,1.9,0.3,2.8l0.9,0.6l2.9-1
			c0.3-0.1,0.6-0.1,0.8-0.1c0.2,0.1,0.4,0.2,0.5,0.4c0.1,0.2,0.1,0.4,0.1,0.6c-0.1,0.2-0.2,0.4-0.5,0.6c-0.6,0.3-1.2,0.6-1.8,0.9
			c-0.6,0.3-1.1,0.5-1.7,0.7c-0.6,0.1-1.1,0.1-1.6-0.1c-0.5-0.2-1.1-0.6-1.7-1.3c-0.4-0.5-0.7-1.1-0.9-1.8c-0.2-0.7-0.3-1.5-0.3-2.3
			c0-0.8,0-1.6,0-2.3c0-0.8,0.1-1.4,0.1-2c-0.6,0.9-1.2,1.9-1.7,2.9s-1,2-1.4,3.1c-0.3,0.6-0.6,1.3-0.8,1.9
			c-0.2,0.6-0.6,1.2-1.1,1.7c-0.6,0.4-1.1,0.4-1.6,0.2c-0.5-0.2-0.8-0.7-0.9-1.3c0-0.6,0-1.3,0.1-2.1c0.1-0.7,0.3-1.5,0.4-2.2
			c0.2-0.7,0.4-1.5,0.6-2.2c0.2-0.7,0.4-1.4,0.5-2l0,0c0.1-0.5,0.1-1,0.1-1.5c0-0.5,0-1.1,0-1.7c0.1-0.2,0.2-0.4,0.4-0.6
			c0.2-0.1,0.3-0.2,0.5-0.2c0.2,0,0.3,0,0.5,0.1C320.6,275.4,320.8,275.6,320.9,275.9L320.9,275.9L320.9,275.9z"/>
		<path class="st6" d="M342.8,295.8c0-1.2,0-2.5,0-3.7c-0.1-1.2-0.2-2.4-0.3-3.6c-0.8,1.3-1.6,2.6-2.2,4.1c-0.6,1.4-1.2,2.8-1.7,4.3
			c-0.1,0.2-0.2,0.7-0.5,1.4c-0.2,0.7-0.4,1.4-0.5,2.1c-0.1,0.7-0.1,1.4,0,2c0.1,0.6,0.5,0.9,1.1,0.9c0.9,0.1,1.7-0.2,2.2-0.7
			c0.5-0.5,0.9-1.2,1.2-2c0.3-0.8,0.4-1.6,0.5-2.5C342.7,297.2,342.7,296.4,342.8,295.8 M335.3,283.1c0.3-0.3,0.7-0.6,1.1-1.1
			c0.4-0.4,0.9-0.9,1.3-1.4c0.5-0.5,0.9-1,1.4-1.5c0.5-0.5,0.9-1.1,1.4-1.6c-0.1-0.1-0.2-0.2-0.2-0.3c0-0.2-0.1-0.4-0.1-0.5
			c0-0.1-0.1-0.1-0.4,0c-0.6,0.2-1.1,0.5-1.6,1c-0.5,0.5-0.9,1-1.3,1.7c-0.4,0.6-0.7,1.3-1,1.9C335.7,282,335.5,282.6,335.3,283.1
			 M337.6,275.7c0.7-0.6,1.4-0.8,2.3-0.9c0.8,0,1.4,0.3,1.8,1c0.1-0.2,0.2-0.3,0.3-0.5c0.1-0.2,0.1-0.3,0.2-0.5
			c0.2-0.4,0.4-0.6,0.7-0.8c0.3-0.2,0.6-0.2,0.9-0.2c0.3,0,0.6,0.2,0.8,0.4c0.3,0.2,0.4,0.5,0.5,0.9c0,1.1,0,2.2-0.1,3.2
			c-0.1,1.1-0.1,2.1,0,3.2l0,0.2l0.4-0.4c0.3-0.3,0.8-0.7,1.3-1.2c0.6-0.4,1.1-0.8,1.8-1c0.6-0.2,0.9-0.2,0.9,0c0,0.2-0.1,0.6-0.3,1
			c-0.2,0.4-0.4,0.7-0.7,1s-0.6,0.6-0.9,0.9c-0.4,0.4-0.8,0.9-1.1,1.3c-0.4,0.4-0.7,0.9-1,1.3c0.1,1.3,0.3,2.5,0.4,3.7
			c0.1,1.2,0.2,2.4,0.3,3.7c0.1,1.2,0.1,2.5,0,3.8c0,1.3-0.2,2.6-0.4,4c-0.1,0.9-0.4,1.8-0.9,2.7c-0.4,0.9-1,1.7-1.6,2.4
			c-0.7,0.7-1.4,1.2-2.3,1.5c-0.9,0.3-1.9,0.4-2.9,0.1c-1-0.2-1.7-0.6-2.2-1.1c-0.5-0.5-0.9-1-1.1-1.7c-0.2-0.6-0.3-1.3-0.2-2.1
			c0-0.8,0.1-1.5,0.2-2.3c0.1-1,0.4-2.1,0.9-3.3c0.5-1.2,1-2.4,1.7-3.6c0.6-1.2,1.3-2.3,2-3.4c0.7-1.1,1.4-2.1,2-2.9l0.8-1
			c0-0.5-0.1-1-0.1-1.5c0-0.5-0.1-1.1-0.1-1.6l0-1.4c-1.1,1.2-2.2,2.5-3.5,3.7c-1.2,1.2-2.6,2.2-4.1,2.8c-0.4,0.1-0.7,0.1-1,0
			c-0.3-0.1-0.5-0.3-0.7-0.7c-0.3-0.7-0.3-1.6,0-2.6c0.3-1,0.7-2.1,1.3-3.1c0.6-1,1.2-2,1.9-2.9
			C336.4,276.8,337.1,276.1,337.6,275.7"/>
	</g>
	<polygon class="st2" points="45,56.1 45,74 30.5,74 30.5,56.1 20.2,56.1 20.2,100.9 30.5,100.9 30.5,83 45,83 45,100.9 55.2,100.9 
		55.2,56.1 	"/>
	<polygon class="st2" points="136.7,65.1 121.2,65.1 121.2,74 136.1,74 136.1,83 121.2,83 121.2,92 136.7,92 136.7,100.9 111,100.9 
		111,56.1 136.7,56.1 	"/>
	<g>
		<defs>
			<rect id="SVGID_3_" x="19.2" y="1" width="330.2" height="305.6"/>
		</defs>
		<clipPath id="SVGID_4_">
			<use xlink:href="#SVGID_3_"  style="overflow:visible;"/>
		</clipPath>
		<path class="st7" d="M203.3,76c3.9,0,8.5-0.3,8.5-5.9c0-5.6-4.6-5.9-8.5-5.9h-1.2V76H203.3z M207.9,56.1c8.3,0,14.7,4.5,14.7,13.3
			c0,6.7-3.7,11.2-9.2,13l15.5,18.5h-13l-13.7-17.7v17.7h-10.3V56.1H207.9z"/>
	</g>
	<polygon class="st2" points="295.6,92 316.4,92 316.4,100.9 277.7,100.9 299.9,65.1 280.9,65.1 280.9,56.1 317.9,56.1 	"/>
	<polygon class="st2" points="19.2,137.6 19.2,182.4 29.5,182.4 29.5,164.4 44.1,164.4 44.1,155.5 29.5,155.5 29.5,146.5 
		45.3,146.5 45.3,137.6 	"/>
	<g>
		<defs>
			<rect id="SVGID_5_" x="19.2" y="1" width="330.2" height="305.6"/>
		</defs>
		<clipPath id="SVGID_6_">
			<use xlink:href="#SVGID_5_"  style="overflow:visible;"/>
		</clipPath>
		<path class="st8" d="M80.7,122.5c-2.8,0-5,2.2-5,5c0,2.8,2.2,5,5,5c2.8,0,5-2.2,5-5C85.7,124.7,83.4,122.5,80.7,122.5 M67.7,122.5
			c-2.8,0-5,2.2-5,5c0,2.8,2.2,5,5,5c2.8,0,5-2.2,5-5C72.7,124.7,70.5,122.5,67.7,122.5 M81.5,137.6h10.3v28.9
			c0,11.1-6.1,16.7-17.6,16.7s-17.6-5.6-17.6-16.7v-28.9h10.3v25.9c0,7.5,2.3,9.7,7.3,9.7c5,0,7.3-2.2,7.3-9.7V137.6z"/>
		<path class="st8" d="M116.3,157.5c3.9,0,8.5-0.3,8.5-5.9c0-5.6-4.6-5.9-8.5-5.9h-1.2v11.7H116.3z M120.9,137.6
			c8.3,0,14.7,4.5,14.7,13.3c0,6.7-3.7,11.2-9.2,13l15.5,18.5h-13l-13.7-17.7v17.7h-10.3v-44.8H120.9z"/>
		<path class="st8" d="M202.3,141l-4.1,8.1c0,0-4.5-3.1-9.1-3.1c-3.5,0-5.3,1.6-5.3,4c0,2.5,4.3,4.3,9.4,6.5
			c5,2.1,10.5,6.4,10.5,12.2c0,10.7-8.2,14.4-17,14.4c-10.5,0-16.9-5.9-16.9-5.9l5.1-8.6c0,0,6,5,11,5c2.2,0,6.5-0.2,6.5-4.4
			c0-3.3-4.8-4.7-10.1-7.4c-5.4-2.7-8.6-6.8-8.6-11.5c0-8.4,7.4-13.7,14.7-13.7C196.5,136.8,202.3,141,202.3,141"/>
	</g>
	<polygon class="st2" points="241.2,146.5 225.7,146.5 225.7,155.5 240.5,155.5 240.5,164.4 225.7,164.4 225.7,173.4 241.2,173.4 
		241.2,182.4 215.5,182.4 215.5,137.6 241.2,137.6 	"/>
	<rect x="254.1" y="137.6" class="st2" width="10.3" height="44.8"/>
	<polygon class="st2" points="288.2,182.4 278,182.4 278,137.6 288.2,137.6 306.1,165.4 306.2,165.4 306.2,137.6 316.5,137.6 
		316.5,182.4 306.2,182.4 288.3,154.6 288.2,154.6 	"/>
	<polygon class="st2" points="31.1,263.8 20.8,263.8 20.8,219 31.1,219 31.1,236.9 45.6,236.9 45.6,219 55.9,219 55.9,263.8 
		45.6,263.8 45.6,245.9 31.1,245.9 	"/>
	<path class="st2" d="M127.3,232.9h-0.1l-5,13h10.1L127.3,232.9z M150.1,263.8h-11l-3.3-9h-17.1l-3.3,9h-11l18.2-44.8h9.5
		L150.1,263.8z"/>
	<g>
		<defs>
			<rect id="SVGID_7_" x="19.2" y="1" width="330.2" height="305.6"/>
		</defs>
		<clipPath id="SVGID_8_">
			<use xlink:href="#SVGID_7_"  style="overflow:visible;"/>
		</clipPath>
		<path class="st9" d="M233.2,247.9c0,11.1-6.1,16.7-17.6,16.7c-11.5,0-17.6-5.6-17.6-16.7V219h10.3v25.9c0,7.5,2.3,9.7,7.3,9.7
			c5,0,7.3-2.2,7.3-9.7V219h10.3V247.9z"/>
		<path class="st9" d="M315.3,222.5l-4.1,8.1c0,0-4.5-3.1-9.1-3.1c-3.5,0-5.3,1.6-5.3,4c0,2.5,4.3,4.3,9.4,6.5
			c5,2.1,10.5,6.4,10.5,12.2c0,10.7-8.2,14.4-17,14.4c-10.5,0-16.9-5.9-16.9-5.9l5.1-8.6c0,0,6,5.1,11,5.1c2.2,0,6.5-0.2,6.5-4.4
			c0-3.3-4.8-4.7-10.1-7.4c-5.4-2.7-8.6-6.8-8.6-11.5c0-8.4,7.4-13.7,14.7-13.7C309.5,218.2,315.3,222.5,315.3,222.5"/>
		<path class="st9" d="M31.3,27.6c0.2-1.3,0.3-2.6,0.4-3.9c0.1-1.3,0.2-2.6,0.3-3.9c-2,2.4-3.7,5.1-5.1,8.1c-1.3,3-2.1,6-2.2,9
			c0,0.6-0.1,1.2,0,1.9c0,0.7,0.1,1.3,0.2,2c0.1,0.7,0.3,1.3,0.5,2c0.2,0.6,0.5,1.2,0.9,1.7c0.1,0.1,0.2,0.1,0.3,0.2
			c0.2,0,0.3-0.1,0.4-0.2c0.2-0.2,0.4-0.5,0.6-0.8c0.1-0.3,0.3-0.6,0.4-0.9c0.5-1.3,1-2.6,1.3-3.8c0.3-1.3,0.6-2.6,0.8-3.9
			c0.2-1.1,0.4-2.3,0.6-3.8C31,29.9,31.2,28.6,31.3,27.6 M32.2,12.8c0-0.3,0.1-0.5,0.3-0.7c0.2-0.2,0.4-0.2,0.6-0.3
			c0.2,0,0.4,0,0.6,0.2c0.2,0.1,0.3,0.3,0.4,0.6l0,0c2.4-1.7,4.6-2.7,6.6-2.9c2-0.2,3.8,0.1,5.3,1c1.6,0.8,2.9,2.1,4,3.7
			c1.1,1.6,1.9,3.4,2.4,5.3c0.6,2.1,0.8,4.3,0.7,6.8c-0.2,2.4-0.6,4.8-1.4,7.2c-0.7,2.3-1.8,4.5-3,6.6c-1.3,2-2.7,3.7-4.4,4.9
			s-3.4,2-5.4,2.2c-1.9,0.2-4-0.3-6-1.5c-0.2-0.2-0.3-0.5-0.3-0.9c0-0.4,0.1-0.6,0.3-0.9c0.2-0.2,0.4-0.3,0.7-0.3
			c0.3,0,0.5,0.3,0.8,0.8L34,44.8c1.9,0.7,3.6,0.8,5.3,0.4c1.6-0.4,3-1.3,4.3-2.5c1.3-1.2,2.3-2.7,3.2-4.5c0.9-1.8,1.6-3.7,2.1-5.7
			c0.5-2,0.7-4,0.8-6.1c0.1-2.1-0.2-4-0.6-5.7c-0.5-1.7-1.2-3.2-2.2-4.5c-1-1.2-2.2-2.1-3.8-2.4c-0.6-0.2-1.2-0.2-1.9-0.2
			c-0.6,0.1-1.3,0.2-1.9,0.3c-0.6,0.2-1.2,0.4-1.7,0.7c-0.5,0.3-1,0.6-1.4,0.9c-0.3,0.3-0.7,0.6-1,0.9c-0.3,0.3-0.7,0.6-1,0.9
			c0,1.8,0,3.5-0.1,5.3c-0.1,1.7-0.2,3.5-0.4,5.2c-0.1,1.5-0.3,2.8-0.4,4.1c-0.1,1.3-0.3,2.7-0.6,4.2c-0.2,1-0.3,1.8-0.4,2.4
			c-0.1,0.6-0.2,1.1-0.3,1.5c-0.1,0.5-0.2,0.9-0.4,1.5c-0.2,0.5-0.4,1.2-0.7,2.2c-0.4,1.4-1,2.4-1.7,3.1c-0.7,0.7-1.5,1.1-2.3,1.1
			c-0.8,0.1-1.6-0.2-2.3-0.8c-0.8-0.6-1.4-1.5-2-2.7c-0.5-1.1-0.9-2.3-1.1-3.5c-0.2-1.3-0.3-2.5-0.3-3.8c0-1.3,0.1-2.5,0.4-3.8
			c0.2-1.3,0.5-2.4,0.9-3.6c0.3-1,0.7-2.1,1.2-3.2c0.5-1.1,1-2.2,1.6-3.3c0.6-1.1,1.2-2.2,1.9-3.2c0.7-1,1.3-1.9,2-2.8
			c0.4-0.5,0.9-1.1,1.4-1.5c0.5-0.5,1-1,1.5-1.5c0-0.2,0-0.5,0-0.8C32.2,13.3,32.2,13.1,32.2,12.8"/>
		<path class="st9" d="M58.4,20.3c0.2,0.3,0.3,0.6,0.3,0.9c0,0.3-0.1,0.6-0.2,0.8c-0.1,0.2-0.4,0.4-0.6,0.4c-0.3,0.1-0.6,0-0.9-0.2
			c-0.4-0.2-0.5-0.5-0.6-0.8c0-0.3,0-0.6,0.2-0.8c0.2-0.2,0.4-0.4,0.7-0.5C57.7,19.9,58,20,58.4,20.3 M55.1,30.8
			c0.5-0.7,0.9-1,1.3-1c0.4,0.1,0.6,0.5,0.6,1.1c-0.2,1.4-0.4,2.7-0.6,4c-0.2,1.3-0.3,2.4-0.4,3.4c-0.1,1-0.1,1.8,0,2.4
			c0.1,0.6,0.3,0.9,0.6,0.9l0,0c0.4,0.1,0.9,0.2,1.5,0.1c0.6-0.1,1.2-0.3,1.8-0.6c0.6-0.3,1.2-0.6,1.9-1c0.6-0.4,1.2-0.9,1.6-1.4
			c0.3-0.1,0.5-0.1,0.7-0.1c0.2,0.1,0.4,0.2,0.5,0.3c0.1,0.2,0.2,0.3,0.2,0.6c0,0.2-0.1,0.5-0.3,0.7c-2.2,1.8-4,3.1-5.5,3.8
			c-1.5,0.7-2.8,0.9-3.7,0.8c-1-0.2-1.6-0.6-2.1-1.4c-0.4-0.8-0.6-1.8-0.6-2.8c0.1-2,0.4-3.8,0.8-5.3C54,33.7,54.5,32.2,55.1,30.8"
			/>
		<path class="st9" d="M69.8,28.8c-0.4,0.3-0.7,0.8-1.1,1.3c-0.4,0.6-0.7,1.2-1,1.9c-0.3,0.7-0.6,1.4-0.8,2.1
			c-0.2,0.7-0.4,1.4-0.5,2c0.2-0.3,0.5-0.6,0.8-1c0.3-0.4,0.6-0.9,0.9-1.5c0.1-0.3,0.3-0.6,0.5-1c0.2-0.4,0.4-0.9,0.6-1.3
			c0.2-0.5,0.3-0.9,0.5-1.4S69.8,29.1,69.8,28.8 M72.6,31c-0.3,0.8-0.7,1.6-1.2,2.5c-0.4,0.8-0.9,1.6-1.4,2.3
			c-0.5,0.7-1.1,1.3-1.7,1.8c-0.6,0.5-1.4,0.9-2.2,1.2c0,0.5,0.1,1,0.2,1.5c0.1,0.5,0.3,1,0.5,1.3c0.2,0.3,0.5,0.6,1,0.6
			c0.4,0.1,0.9-0.1,1.5-0.5c0.2-0.1,0.5-0.4,1-0.7c0.4-0.3,0.9-0.7,1.4-1.1c0.5-0.4,1-0.9,1.4-1.4c0.4-0.5,0.8-1,1-1.5
			c0.1-0.3,0.3-0.4,0.5-0.4c0.2,0,0.4,0.1,0.6,0.3c0.2,0.2,0.3,0.4,0.4,0.7c0.1,0.3,0,0.5-0.2,0.8c-0.2,0.4-0.5,0.8-1,1.4
			c-0.5,0.5-1,1.1-1.5,1.6c-0.5,0.5-1,1-1.5,1.5c-0.5,0.4-0.9,0.7-1.2,0.9c-0.1,0-0.2,0.1-0.4,0.2c-0.2,0.1-0.4,0.2-0.6,0.3
			c-0.2,0.1-0.5,0.2-0.7,0.4c-0.2,0.1-0.5,0.2-0.7,0.2c-0.7,0-1.3-0.1-1.9-0.3c-0.6-0.2-1.1-0.6-1.5-1c-0.4-0.4-0.8-0.9-1-1.5
			c-0.3-0.6-0.4-1.2-0.5-1.8c0-0.2-0.1-0.4-0.1-0.6c0-0.2,0-0.4,0-0.6c-0.2-0.1-0.3-0.4-0.3-0.6c0-0.3,0.1-0.5,0.3-0.7
			c0-0.5,0-0.9,0-1.4c0-0.5,0.1-1,0.3-1.5c0.2-0.8,0.5-1.8,0.9-3c0.4-1.2,0.9-2.3,1.5-3.3c0.6-1,1.4-1.9,2.2-2.6
			c0.9-0.7,1.9-1,3-0.9c0.7,0,1.3,0.3,1.6,0.8c0.4,0.5,0.6,1.1,0.7,1.7c0.1,0.6,0.1,1.3,0,2C73,30,72.9,30.6,72.6,31"/>
		<path class="st9" d="M94.8,30.2c-0.3,0.1-0.6,0.1-0.8-0.1c-0.2-0.1-0.3-0.3-0.4-0.5c-0.1-0.2,0-0.4,0.1-0.7
			c0.1-0.2,0.3-0.4,0.6-0.5c0.7-0.3,1.7-0.6,2.8-1.1c1.2-0.5,2.4-0.9,3.8-1.4c1.4-0.5,2.7-0.9,4.2-1.2c1.4-0.3,2.8-0.5,4-0.6
			c1.3,0,2.4,0.1,3.4,0.5c1,0.4,1.7,1,2.2,2c0.2,0.3,0.2,0.7,0.2,1.1c0,0.4,0,0.8,0.1,1.1c0,0.3-0.1,0.5-0.2,0.7
			c-0.1,0.2-0.3,0.3-0.5,0.3c-0.2,0.1-0.4,0-0.6,0c-0.2-0.1-0.4-0.2-0.5-0.5c-0.2-0.6-0.5-1.1-0.8-1.4c-0.3-0.3-0.6-0.5-1-0.5
			c-0.4-0.1-0.8-0.1-1.3,0c-0.5,0.1-1.1,0.1-1.8,0.2c-0.7,0.1-1.3,0.2-2,0.3c-0.7,0.1-1.3,0.3-2,0.5l-0.2,1.7
			c-0.2,1.7-0.4,3.2-0.6,4.5c-0.2,1.3-0.5,2.6-0.7,3.8c-0.3,1.2-0.5,2.5-0.8,3.8c-0.3,1.3-0.5,2.8-0.7,4.5c-0.3,0.4-0.7,0.6-1.1,0.5
			c-0.4-0.1-0.7-0.4-0.7-0.9c0-0.5,0-1,0-1.6c0.1-0.6,0.1-1.2,0.2-1.8c0.1-0.6,0.1-1.2,0.2-1.7c0.1-0.5,0.1-1,0.2-1.4
			c0-0.1,0-0.2,0-0.4c0-0.1,0-0.3,0.1-0.4c-0.5,0.8-1,1.6-1.6,2.3c-0.6,0.7-1.1,1.4-1.8,1.9c-0.5,0.5-1.1,1-1.8,1.5
			c-0.6,0.5-1.3,0.8-2,1.1c-0.7,0.3-1.5,0.4-2.3,0.4c-0.8,0-1.6-0.2-2.4-0.7c-1.4-0.8-2.3-1.8-2.9-3.3c-0.5-1.4-0.8-3-0.8-4.7
			c0-1.7,0.2-3.5,0.6-5.3c0.4-1.8,0.8-3.6,1.3-5.2c0.9-2.9,2-5.6,3.3-8.2s2.9-5,4.7-7.4c0.4-0.6,1-1.2,1.6-1.7
			c0.6-0.5,1.3-0.9,2-1.2c0.7-0.3,1.5-0.5,2.2-0.6c0.8-0.1,1.5-0.1,2.3,0.1c0.7,0.1,1.2,0.5,1.7,1.1c0.5,0.6,0.9,1.3,1.2,2.2
			c0.3,0.9,0.5,1.8,0.7,2.9c0.2,1,0.2,2.1,0.2,3c0,1-0.1,1.9-0.3,2.7c-0.2,0.8-0.4,1.5-0.8,1.9c-0.2,0.3-0.4,0.4-0.7,0.4
			c-0.2,0-0.5,0-0.6-0.1c-0.2-0.1-0.3-0.3-0.4-0.5c-0.1-0.2,0-0.5,0.1-0.8c0.1-0.4,0.2-1,0.3-1.8c0.1-0.8,0.1-1.7,0-2.6
			c0-0.9-0.1-1.9-0.3-2.8c-0.2-0.9-0.5-1.7-0.9-2.3c-0.4-0.6-0.9-1-1.5-1.1c-0.6-0.1-1.3,0.1-2.2,0.7c-1.6,1.1-3,2.6-4.2,4.5
			c-1.2,1.8-2.3,3.8-3.2,6c-0.9,2.1-1.6,4.3-2.2,6.5c-0.6,2.2-1,4.2-1.2,5.9c-0.1,0.6-0.1,1.3-0.2,2.3c-0.1,1,0,1.9,0.1,2.9
			c0.1,0.9,0.4,1.8,0.9,2.5c0.4,0.7,1.1,1.1,2.1,1.2c0.2-0.1,0.3-0.1,0.5-0.1c2.7-1.4,4.9-3.3,6.4-5.5c1.5-2.2,2.5-4.8,2.9-7.6
			c0,0.1-0.1,0.3-0.1,0.6c-0.1,0.2-0.1,0.3,0,0.2c0.1-0.3,0.2-0.6,0.2-1c-0.1,0-0.2,0.1-0.3,0.1c-0.1,0-0.2,0-0.3,0
			c-1,0.2-1.9,0.4-2.9,0.5C96.8,29.9,95.8,30.1,94.8,30.2"/>
		<path class="st9" d="M119.1,27c-0.4,0.3-0.7,0.8-1.1,1.3c-0.4,0.6-0.7,1.2-1,1.9s-0.6,1.4-0.8,2.1c-0.2,0.7-0.4,1.4-0.5,2
			c0.2-0.3,0.5-0.6,0.8-1c0.3-0.4,0.6-0.9,0.9-1.5c0.1-0.3,0.3-0.6,0.5-1c0.2-0.4,0.4-0.9,0.6-1.3c0.2-0.5,0.3-0.9,0.5-1.4
			C119.1,27.8,119.2,27.4,119.1,27 M122,29.3c-0.3,0.8-0.7,1.6-1.2,2.5c-0.4,0.8-0.9,1.6-1.4,2.3c-0.5,0.7-1.1,1.3-1.7,1.8
			c-0.6,0.5-1.4,0.9-2.2,1.2c0,0.5,0.1,1,0.2,1.5c0.1,0.5,0.3,1,0.5,1.3c0.2,0.3,0.5,0.6,1,0.6c0.4,0.1,0.9-0.1,1.5-0.5
			c0.2-0.1,0.5-0.4,1-0.7c0.4-0.3,0.9-0.7,1.4-1.1c0.5-0.4,1-0.9,1.4-1.4c0.4-0.5,0.8-1,1-1.5c0.1-0.3,0.3-0.4,0.5-0.4
			c0.2,0,0.4,0.1,0.6,0.3c0.2,0.2,0.3,0.4,0.4,0.7c0.1,0.3,0,0.5-0.2,0.8c-0.2,0.4-0.5,0.8-1,1.4c-0.5,0.5-1,1.1-1.5,1.6
			c-0.5,0.5-1,1-1.5,1.5c-0.5,0.4-0.9,0.7-1.2,0.9c-0.1,0-0.2,0.1-0.4,0.2c-0.2,0.1-0.4,0.2-0.6,0.3c-0.2,0.1-0.5,0.2-0.7,0.4
			c-0.2,0.1-0.5,0.2-0.7,0.2c-0.7,0-1.3-0.1-1.9-0.3c-0.6-0.2-1.1-0.6-1.5-1s-0.8-0.9-1-1.5c-0.3-0.6-0.4-1.2-0.5-1.8
			c0-0.2-0.1-0.4-0.1-0.6c0-0.2,0-0.4,0-0.6c-0.2-0.1-0.3-0.4-0.3-0.6c0-0.3,0.1-0.5,0.3-0.7c0-0.5,0-0.9,0-1.4c0-0.5,0.1-1,0.3-1.5
			c0.2-0.8,0.5-1.8,0.9-3c0.4-1.2,0.9-2.3,1.5-3.3c0.6-1,1.4-1.9,2.2-2.6c0.9-0.7,1.9-1,3-0.9c0.7,0,1.3,0.3,1.6,0.8
			c0.4,0.5,0.6,1.1,0.7,1.7c0.1,0.6,0.1,1.3,0,2C122.3,28.3,122.2,28.9,122,29.3"/>
		<path class="st9" d="M125.9,35.1c-0.2,0.2-0.4,0.4-0.6,0.4c-0.2,0.1-0.4,0-0.6-0.1c-0.2-0.1-0.3-0.2-0.4-0.4s-0.1-0.4-0.1-0.7
			c0.4-1.1,1-2.2,1.7-3.3c0.7-1.1,1.5-2.2,2.2-3.3c0.8-1.1,1.5-2,2.1-2.9c0.7-0.9,1.1-1.6,1.4-2.2c0-0.1,0-0.1,0-0.1
			c0.2-0.4,0.5-0.7,0.9-0.8c0.4-0.1,0.7-0.2,1-0.1c0.3,0.1,0.6,0.3,0.8,0.6c0.2,0.3,0.3,0.7,0.3,1.2c-0.3,1.4-0.5,2.7-0.6,4.1
			c-0.1,1.3,0,2.7,0.3,4.1c0.1,0.5,0.2,1,0.4,1.5c0.2,0.5,0.3,1,0.5,1.5c1-0.6,2.1-1.1,3.1-1.6c1-0.5,2.1-1,3.1-1.5
			c0.3-0.1,0.6-0.2,0.8-0.1c0.2,0.1,0.4,0.2,0.5,0.4c0.1,0.2,0.1,0.4,0.1,0.6c-0.1,0.3-0.2,0.5-0.5,0.6c-0.9,0.6-2,1.2-3.1,1.8
			c-1.1,0.6-2.3,1.3-3.4,2.1c0,0.2,0,0.4,0,0.5c0,0.2,0,0.4,0,0.5c0,0.6-0.1,1.3-0.3,1.9s-0.4,1.2-0.9,1.7c-0.8,0.8-1.5,1.4-2.3,1.7
			c-0.8,0.3-1.5,0.5-2.2,0.4c-0.7,0-1.2-0.2-1.7-0.5c-0.5-0.3-0.8-0.8-1-1.3c-0.2-0.5-0.1-1.1,0.2-1.7c0.3-0.6,0.8-1.3,1.6-1.9
			c0.7-0.5,1.2-0.9,1.5-1.2s0.7-0.5,1.2-0.8c-0.3-1.4-0.6-2.7-0.8-3.9c-0.2-1.2-0.3-2.4-0.4-3.6c-0.9,0.9-1.8,1.9-2.7,2.9
			C127.3,32.9,126.5,34,125.9,35.1"/>
		<path class="st9" d="M150.5,28.1c0,0.6-0.2,0.9-0.7,1c-0.5,0.1-0.8-0.1-1.1-0.6l-0.3-2.7l-0.7,0c-0.6,0.4-1.2,1.1-1.8,2
			c-0.6,0.9-1.1,1.8-1.5,2.8c-0.4,1-0.7,2-0.9,3.1c-0.2,1-0.2,1.9,0,2.7c0.1,0.3,0.2,0.6,0.5,1c0.3,0.4,0.6,0.6,0.9,0.6
			c0.5-0.1,1-0.3,1.5-0.6c0.5-0.3,1-0.7,1.5-1.1c0.5-0.4,1-0.8,1.5-1.2c0.5-0.4,0.9-0.7,1.3-1c0.3-0.1,0.5-0.1,0.7-0.1
			c0.2,0.1,0.4,0.2,0.5,0.3c0.1,0.2,0.2,0.3,0.2,0.6c0,0.2-0.1,0.5-0.3,0.7c-0.4,0.4-0.9,0.9-1.3,1.4c-0.5,0.5-0.9,1-1.4,1.6
			c-0.5,0.5-1,1-1.6,1.4c-0.5,0.4-1.1,0.7-1.7,0.9c-0.6,0.2-1.2,0.2-1.8,0.1c-0.6-0.2-1.1-0.4-1.6-0.8c-0.5-0.4-0.9-0.8-1.3-1.3
			c-0.4-0.5-0.7-1-0.9-1.6c-0.3-0.8-0.4-1.9-0.2-3.2c0.1-1.3,0.4-2.6,0.8-3.9c0.4-1.3,1-2.5,1.8-3.7c0.7-1.1,1.6-2,2.5-2.5
			c0.8-0.4,1.6-0.7,2.3-0.7c0.7,0,1.4,0.1,1.9,0.4c0.5,0.3,0.9,0.8,1.2,1.6C150.6,26.2,150.6,27,150.5,28.1"/>
		<path class="st9" d="M159.8,15.7c-0.7,2.6-1.3,5.3-1.7,7.9l1.2-1.2c1-1.1,2-2.2,2.9-3.3c0.9-1.2,1.7-2.3,2.4-3.6
			c0.7-1.2,1.3-2.5,1.7-3.9c0.4-1.4,0.6-2.8,0.5-4.3c0-0.5-0.2-0.9-0.7-1.1c-0.4-0.2-0.9-0.2-1.5,0.1c-0.4,0.2-0.7,0.5-1,0.9
			c-0.3,0.3-0.6,0.7-0.8,1.1c-0.7,1-1.3,2.2-1.7,3.6C160.5,13.2,160.1,14.5,159.8,15.7 M153.5,31.9c0-0.3,0.1-0.7,0.1-1.1
			c0-0.4,0.1-0.8,0.1-1.2c0-0.4,0.1-0.8,0.2-1.2c0.1-0.4,0.1-0.7,0.2-1c0.3-2.9,0.7-5.8,1.2-8.8c0.5-2.9,1.3-5.7,2.4-8.4
			c0.6-1.3,1.3-2.6,2-3.9c0.8-1.3,1.8-2.3,3.1-3.1c0.9-0.6,1.7-0.9,2.6-0.9c0.9,0,1.6,0.1,2.3,0.5c0.7,0.4,1.3,0.9,1.7,1.6
			c0.4,0.7,0.7,1.6,0.7,2.5c0.1,2.7-0.4,5.2-1.5,7.6c-1.1,2.3-2.6,4.4-4.5,6.4c-0.8,0.8-1.3,1.4-1.8,1.8c-0.4,0.5-0.8,0.9-1.2,1.2
			c-0.4,0.4-0.8,0.7-1.2,1.1c-0.4,0.4-1.1,1-1.9,1.7l-0.5,0.4c-0.1,1.1-0.3,2.2-0.4,3.3s-0.2,2.2-0.3,3.3c0.4-0.6,0.9-1.2,1.5-1.7
			c0.5-0.5,1.1-1,1.8-1.6c0.2-0.1,0.4-0.2,0.6-0.2c0.2,0,0.4,0,0.6,0.1c0.9,0.3,1.5,0.8,1.8,1.5c0.3,0.6,0.5,1.3,0.6,2.1
			c0.1,0.8,0.1,1.6,0.2,2.4c0,0.8,0.2,1.7,0.4,2.5c0.1,0,0.2,0,0.2,0c0.3-0.3,0.6-0.5,0.9-0.7c0.3-0.2,0.6-0.4,0.8-0.7
			c0.3-0.1,0.5-0.1,0.7-0.1c0.2,0.1,0.4,0.2,0.5,0.3c0.1,0.2,0.2,0.3,0.2,0.6c0,0.2-0.1,0.5-0.3,0.7c-0.4,0.3-0.7,0.7-1.1,1
			c-0.3,0.4-0.8,0.7-1.2,0.9c-0.6,0.3-1.1,0.3-1.5,0.1c-0.4-0.2-0.8-0.6-1.1-1c-0.3-0.5-0.5-1-0.7-1.7c-0.2-0.7-0.3-1.3-0.4-2
			c-0.1-0.6-0.2-1.3-0.3-1.8c-0.1-0.6-0.2-1-0.2-1.2c-0.6,0.5-1.1,1.2-1.5,1.8c-0.4,0.7-0.7,1.4-1.1,2.1c-0.3,0.7-0.6,1.4-1,2.2
			c-0.3,0.7-0.8,1.4-1.3,2c-1,0.7-1.9,0.4-2.6-0.7c-0.2-0.6-0.3-1.3-0.4-2.1c-0.1-0.8-0.1-1.5-0.1-2.3c0-0.8,0.1-1.5,0.2-2.3
			C153.3,33.2,153.4,32.5,153.5,31.9"/>
		<path class="st9" d="M172.6,16.3c0.2,0.3,0.3,0.6,0.3,0.9c0,0.3-0.1,0.6-0.2,0.8c-0.1,0.2-0.4,0.4-0.6,0.4c-0.3,0.1-0.6,0-0.9-0.2
			c-0.4-0.2-0.5-0.5-0.6-0.8c0-0.3,0.1-0.6,0.2-0.8c0.2-0.2,0.4-0.4,0.7-0.5C171.8,16,172.2,16.1,172.6,16.3 M169.2,26.8
			c0.5-0.7,0.9-1,1.3-1c0.4,0.1,0.6,0.5,0.6,1.1c-0.2,1.4-0.4,2.7-0.6,4c-0.2,1.3-0.3,2.4-0.4,3.4c-0.1,1-0.1,1.8,0,2.4
			c0.1,0.6,0.3,0.9,0.6,0.9l0,0c0.4,0.1,0.9,0.2,1.5,0.1c0.6-0.1,1.2-0.3,1.8-0.6c0.6-0.3,1.2-0.6,1.9-1c0.6-0.4,1.2-0.9,1.6-1.4
			c0.3-0.1,0.5-0.1,0.7-0.1c0.2,0.1,0.4,0.2,0.5,0.3c0.1,0.2,0.2,0.3,0.2,0.6c0,0.2-0.1,0.5-0.3,0.7c-2.2,1.8-4,3.1-5.5,3.8
			c-1.5,0.7-2.8,0.9-3.7,0.8c-1-0.2-1.6-0.6-2.1-1.4c-0.4-0.8-0.6-1.8-0.6-2.8c0.1-2,0.4-3.8,0.8-5.3
			C168.2,29.7,168.7,28.2,169.2,26.8"/>
		<path class="st9" d="M187.2,26.8c0,0.6-0.2,0.9-0.7,1c-0.5,0.1-0.8-0.1-1.1-0.6l-0.3-2.7l-0.7,0c-0.6,0.4-1.2,1.1-1.8,2
			c-0.6,0.9-1.1,1.8-1.5,2.8c-0.4,1-0.7,2-0.9,3.1c-0.2,1-0.2,1.9,0,2.7c0.1,0.3,0.2,0.6,0.5,1c0.3,0.4,0.5,0.6,0.9,0.6
			c0.5-0.1,1-0.3,1.5-0.6c0.5-0.3,1-0.7,1.5-1.1c0.5-0.4,1-0.8,1.5-1.2c0.5-0.4,0.9-0.7,1.3-1c0.3-0.1,0.5-0.1,0.7-0.1
			c0.2,0.1,0.4,0.2,0.5,0.3c0.1,0.2,0.2,0.3,0.2,0.6c0,0.2-0.1,0.5-0.3,0.7c-0.4,0.4-0.9,0.9-1.3,1.4c-0.5,0.5-0.9,1-1.4,1.6
			c-0.5,0.5-1,1-1.6,1.4c-0.5,0.4-1.1,0.7-1.7,0.9c-0.6,0.2-1.2,0.2-1.8,0.1c-0.6-0.2-1.1-0.4-1.6-0.8c-0.5-0.4-0.9-0.8-1.3-1.3
			c-0.4-0.5-0.7-1-0.9-1.6c-0.3-0.8-0.4-1.9-0.2-3.2c0.1-1.3,0.4-2.6,0.8-3.9s1-2.5,1.8-3.7c0.7-1.1,1.6-2,2.5-2.5
			c0.8-0.4,1.6-0.7,2.3-0.7c0.7,0,1.4,0.1,1.9,0.4c0.5,0.3,0.9,0.8,1.2,1.6C187.3,24.9,187.4,25.8,187.2,26.8"/>
		<path class="st9" d="M196.6,14.4c-0.7,2.6-1.3,5.3-1.7,7.9l1.2-1.2c1-1.1,2-2.2,2.9-3.3c0.9-1.2,1.7-2.3,2.4-3.6
			c0.7-1.2,1.3-2.5,1.7-3.9c0.4-1.4,0.6-2.8,0.5-4.3c0-0.5-0.3-0.9-0.7-1.1c-0.4-0.2-0.9-0.2-1.5,0.1c-0.4,0.2-0.7,0.5-1,0.9
			c-0.3,0.3-0.6,0.7-0.8,1.1c-0.7,1-1.3,2.2-1.7,3.6C197.3,11.9,196.9,13.2,196.6,14.4 M190.3,30.6c0-0.3,0.1-0.7,0.1-1.1
			c0-0.4,0.1-0.8,0.1-1.2c0-0.4,0.1-0.8,0.2-1.2c0.1-0.4,0.1-0.7,0.2-1c0.3-2.9,0.7-5.9,1.2-8.8c0.5-2.9,1.3-5.7,2.4-8.4
			c0.6-1.3,1.3-2.6,2-3.9c0.8-1.3,1.8-2.3,3.1-3.1c0.9-0.6,1.7-0.9,2.6-0.9c0.9,0,1.6,0.1,2.3,0.5c0.7,0.4,1.3,0.9,1.7,1.6
			c0.4,0.7,0.7,1.6,0.7,2.5c0.1,2.7-0.4,5.2-1.5,7.6c-1.1,2.3-2.6,4.4-4.5,6.4c-0.8,0.8-1.3,1.4-1.8,1.8c-0.4,0.5-0.8,0.9-1.2,1.2
			c-0.4,0.4-0.8,0.7-1.2,1.1c-0.4,0.4-1.1,1-1.9,1.7l-0.5,0.4c-0.1,1.1-0.3,2.2-0.4,3.3c-0.1,1.1-0.2,2.2-0.3,3.3
			c0.4-0.6,0.9-1.2,1.5-1.7c0.5-0.5,1.1-1,1.8-1.6c0.2-0.1,0.4-0.2,0.6-0.2c0.2,0,0.4,0,0.6,0.1c0.9,0.3,1.5,0.8,1.8,1.5
			c0.3,0.6,0.5,1.3,0.6,2.1c0.1,0.8,0.1,1.6,0.2,2.4c0,0.8,0.2,1.7,0.4,2.5c0.1,0,0.2,0,0.2,0c0.3-0.3,0.6-0.5,0.9-0.7
			c0.3-0.2,0.6-0.4,0.8-0.7c0.3-0.1,0.5-0.1,0.7-0.1c0.2,0.1,0.4,0.2,0.5,0.3c0.1,0.2,0.2,0.3,0.2,0.6c0,0.2-0.1,0.5-0.3,0.7
			c-0.4,0.3-0.7,0.7-1.1,1c-0.3,0.4-0.8,0.7-1.2,0.9c-0.6,0.3-1.1,0.3-1.5,0.1c-0.4-0.2-0.8-0.6-1.1-1c-0.3-0.5-0.5-1-0.7-1.7
			c-0.2-0.7-0.3-1.3-0.4-2c-0.1-0.6-0.2-1.3-0.3-1.8c-0.1-0.6-0.2-1-0.2-1.2c-0.6,0.5-1.1,1.2-1.5,1.8c-0.4,0.7-0.7,1.4-1.1,2.1
			c-0.3,0.7-0.6,1.4-1,2.2c-0.3,0.7-0.8,1.4-1.3,2c-1,0.7-1.9,0.4-2.6-0.7c-0.2-0.6-0.3-1.3-0.4-2.1c-0.1-0.8-0.1-1.5-0.1-2.3
			c0-0.8,0.1-1.5,0.2-2.3C190.1,32,190.2,31.2,190.3,30.6"/>
		<path class="st9" d="M206.1,30.3c0.1-1.2,0.2-2.5,0.3-3.7c0.1-1.2,0.3-2.4,0.5-3.6c-0.7,0.2-1.4,0.4-2,0.6c-0.6,0.2-1,0.4-1.3,0.5
			c-0.2,0.1-0.3,0.1-0.5,0.2c-0.2,0.1-0.4,0.1-0.5,0c-0.2,0-0.3-0.1-0.4-0.2c-0.1-0.1-0.2-0.3-0.2-0.5c-0.1-0.6,0.2-1.2,1-1.8
			c0.7-0.6,1.6-1.1,2.6-1.5c0.6-0.5,1.1-1,1.4-1.5c0.3-0.4,0.6-0.9,0.8-1.4c0.2-0.5,0.4-1,0.5-1.6c0.1-0.6,0.3-1.3,0.5-2
			c0.1-0.4,0.2-1,0.4-1.8c0.2-0.8,0.4-1.7,0.7-2.5c0.3-0.8,0.6-1.5,1.1-2.1c0.4-0.6,1-0.8,1.7-0.7c0.3,0.1,0.5,0.3,0.5,0.7
			c0,0.4,0,1-0.2,1.8c-0.2,0.9-0.4,2.1-0.7,3.6c-0.3,1.5-0.6,3.5-1,5.9c0.3,0,0.7-0.1,1.1-0.1c0.4,0,0.7,0,1.1-0.1
			c0.8,0,1.5,0,2.1,0c0.6,0,1.3,0.1,2.1,0.1c0.3,0,0.6,0.1,0.8,0.2c0.2,0.2,0.3,0.4,0.3,0.6c0,0.2,0,0.4-0.2,0.6
			c-0.1,0.2-0.4,0.3-0.7,0.4c-0.3,0.1-0.9,0.2-1.6,0.4c-0.7,0.2-1.4,0.3-2.2,0.5c-0.8,0.2-1.5,0.4-2.1,0.6c-0.6,0.2-1.1,0.3-1.3,0.4
			c-0.2,1.2-0.4,2.5-0.6,3.8c-0.2,1.3-0.4,2.7-0.4,4c-0.1,1.3-0.1,2.6-0.1,3.9c0,1.3,0.2,2.4,0.4,3.4c0.1,0.2,0.4,0.1,0.8-0.2
			c0.4-0.3,1-0.7,1.6-1.3c0.6-0.6,1.3-1.4,2.1-2.4c0.8-1,1.5-2.1,2.3-3.4c0.2-0.2,0.5-0.3,0.7-0.3c0.3,0,0.5,0.1,0.6,0.2
			c0.2,0.2,0.3,0.3,0.3,0.6c0,0.2-0.1,0.5-0.2,0.8c-0.6,1.2-1.3,2.5-2.2,3.8c-0.9,1.3-1.7,2.4-2.7,3.4c-0.9,1-1.8,1.6-2.7,2
			c-0.9,0.4-1.7,0.3-2.3-0.3c-0.6-0.6-1.1-1.3-1.4-2.1c-0.3-0.8-0.5-1.7-0.6-2.5c-0.1-0.9-0.1-1.8,0-2.7C206,32,206,31.1,206.1,30.3
			"/>
		<path class="st9" d="M223.5,23.4c-0.4,0.3-0.7,0.8-1.1,1.3c-0.4,0.6-0.7,1.2-1,1.9c-0.3,0.7-0.6,1.4-0.8,2.1
			c-0.2,0.7-0.4,1.4-0.5,2c0.2-0.3,0.5-0.6,0.8-1c0.3-0.4,0.6-0.9,0.9-1.5c0.1-0.3,0.3-0.6,0.5-1c0.2-0.4,0.4-0.9,0.6-1.3
			c0.2-0.5,0.3-0.9,0.5-1.4C223.4,24.2,223.5,23.8,223.5,23.4 M226.3,25.7c-0.3,0.8-0.7,1.6-1.2,2.5c-0.4,0.8-0.9,1.6-1.4,2.3
			c-0.5,0.7-1.1,1.3-1.7,1.8c-0.6,0.5-1.4,0.9-2.2,1.2c0,0.5,0.1,1,0.2,1.5c0.1,0.5,0.3,1,0.5,1.3c0.2,0.3,0.5,0.6,1,0.6
			c0.4,0.1,0.9-0.1,1.5-0.5c0.2-0.1,0.5-0.4,1-0.7c0.4-0.3,0.9-0.7,1.4-1.1c0.5-0.4,1-0.9,1.4-1.4c0.4-0.5,0.8-1,1-1.5
			c0.1-0.3,0.3-0.4,0.5-0.4c0.2,0,0.4,0.1,0.6,0.3c0.2,0.2,0.3,0.4,0.4,0.7c0.1,0.3,0,0.5-0.2,0.8c-0.2,0.4-0.5,0.8-1,1.4
			c-0.5,0.5-1,1.1-1.5,1.6c-0.5,0.5-1,1-1.5,1.5s-0.9,0.7-1.2,0.9c-0.1,0-0.2,0.1-0.4,0.2c-0.2,0.1-0.4,0.2-0.6,0.3
			c-0.2,0.1-0.5,0.2-0.7,0.4c-0.2,0.1-0.5,0.2-0.7,0.2c-0.7,0-1.3-0.1-1.9-0.3c-0.6-0.2-1.1-0.6-1.5-1c-0.4-0.4-0.8-0.9-1-1.5
			c-0.3-0.6-0.4-1.2-0.5-1.8c0-0.2-0.1-0.4-0.1-0.6c0-0.2,0-0.4,0-0.6c-0.2-0.1-0.3-0.4-0.3-0.6c0-0.3,0.1-0.5,0.3-0.7
			c0-0.5,0-0.9,0-1.4c0-0.5,0.1-1,0.3-1.5c0.2-0.8,0.5-1.8,0.9-3c0.4-1.2,0.9-2.3,1.5-3.3c0.6-1,1.4-1.9,2.2-2.6
			c0.9-0.7,1.9-1,3-0.9c0.7,0,1.3,0.3,1.6,0.8c0.4,0.5,0.6,1.1,0.7,1.7c0.1,0.6,0.1,1.3,0,2C226.7,24.7,226.5,25.3,226.3,25.7"/>
		<path class="st9" d="M238.3,23.1c-0.1-0.2-0.2-0.5-0.1-0.7c0-0.2,0.1-0.4,0.3-0.5c0.1-0.1,0.3-0.2,0.6-0.2c0.2,0,0.5,0.1,0.7,0.2
			c0.2,0.2,0.4,0.4,0.6,0.6c0.2,0.2,0.4,0.4,0.5,0.6c0.2,0.4,0.4,1,0.5,1.8c0.1,0.8,0.2,1.6,0.3,2.5c0.1,0.9,0.1,1.8,0.1,2.8
			s0,1.7,0,2.4c0.1,0.3,0.1,0.7,0.1,1c0,0.4,0,0.7,0.1,1c2-2.9,3.9-5.8,5.6-8.8c1.7-3,3.5-6,5.4-9c0.1-0.3,0.3-0.5,0.6-0.5
			c0.2-0.1,0.5-0.1,0.7,0c0.2,0.1,0.3,0.2,0.5,0.5c0.1,0.2,0.1,0.5,0,0.8c-0.6,1.3-1.3,2.9-2.1,4.8c-0.8,2-1.7,4-2.7,6
			c-1,2-2,4-3.1,5.7c-1,1.8-2.1,3.2-3.1,4.1c-0.2,0.2-0.6,0.4-0.9,0.5c-0.4,0.1-0.7,0.2-1,0.4c-1.1,0.2-1.9-0.1-2.4-1.1
			c-0.3-0.8-0.5-1.6-0.6-2.5c-0.1-0.9-0.1-1.9-0.1-2.8c0-1,0.1-1.9,0.2-2.9c0.1-1,0.2-1.9,0.2-2.7c0-0.9,0-1.6-0.1-2.3
			C238.8,24.1,238.6,23.5,238.3,23.1"/>
		<path class="st9" d="M256.8,27.3c-0.7-0.3-1.1-0.7-1.2-1.3c-0.5,1.1-0.8,2.3-1,3.5c-0.2,1.2-0.2,2.5-0.2,3.6
			c0.4-0.1,0.8-0.3,1.2-0.6c0.4-0.3,0.7-0.7,1-1.2c0.3-0.4,0.6-0.9,0.8-1.4c0.2-0.5,0.4-0.9,0.6-1.2c0.2-0.5,0.3-0.9,0.3-1.3l0-0.1
			c-0.3-0.1-0.5-0.1-0.8,0C257.2,27.4,257,27.3,256.8,27.3 M257.1,23.7C257.1,23.7,257.1,23.8,257.1,23.7c0,0.1,0.1,0.2,0.1,0.2
			c1.7-0.8,3.4-1.5,5.2-2.1c1.8-0.6,3.6-1.1,5.4-1.6c0.6,0,0.9,0.2,1.1,0.6c0.2,0.4,0,0.8-0.5,1.1c-1.2,0.5-2.3,1.1-3.5,1.6
			c-1.2,0.5-2.4,1.1-3.5,1.8c0.4,0.6,0.6,1.3,0.6,2.1c0,0.8-0.1,1.5-0.3,2.2c-0.2,0.6-0.4,1.2-0.7,1.9c-0.3,0.7-0.7,1.3-1.1,2
			c-0.4,0.6-1,1.2-1.5,1.7c-0.6,0.5-1.1,0.9-1.7,1.1c-0.4,0.2-0.8,0.3-1.2,0.3c-0.4,0-0.9,0.1-1.3,0.1c-0.3,0-0.6-0.1-0.8-0.2
			c-0.2-0.1-0.4-0.2-0.7-0.5c-0.2-0.3-0.4-0.5-0.6-0.8c-0.2-0.3-0.4-0.5-0.5-0.8c-0.3-0.8-0.3-1.7-0.2-2.8c0.2-1.1,0.5-2.2,0.9-3.3
			c0.4-1.1,0.9-2.1,1.5-3.1c0.6-1,1.1-1.7,1.7-2.3c0.6-0.6,1.2-0.5,1.6,0.2L257.1,23.7z"/>
		<path class="st9" d="M269.1,22.8c0.1,0.6,0.2,1.1,0.2,1.7c0.1,0.6,0.1,1.1,0,1.7c0.6-1,1.2-2,1.8-3c0.6-1,1.3-1.9,2.1-3
			c0.3-0.3,0.6-0.5,1-0.6c0.3-0.1,0.7-0.1,1.1,0.1c0.3,0.1,0.6,0.2,0.8,0.3c0.4,0.2,0.6,0.5,0.8,0.8c0.2,0.3,0.2,0.6,0.2,1.1
			c0,1-0.1,2-0.2,3c-0.1,1-0.2,2-0.3,2.9c-0.1,1-0.1,2-0.1,2.9c0,1,0.1,2,0.3,2.9l1,0.7l3.1-1.1c0.3-0.1,0.6-0.2,0.8-0.1
			c0.2,0.1,0.4,0.2,0.5,0.4c0.1,0.2,0.1,0.4,0.1,0.7c-0.1,0.3-0.2,0.5-0.5,0.6c-0.6,0.3-1.3,0.6-1.9,1c-0.6,0.3-1.2,0.6-1.8,0.7
			c-0.6,0.1-1.2,0.1-1.7-0.1c-0.6-0.2-1.2-0.6-1.8-1.4c-0.4-0.5-0.7-1.2-0.9-1.9c-0.2-0.8-0.3-1.6-0.3-2.4c0-0.8,0-1.7,0-2.5
			c0-0.8,0.1-1.5,0.1-2.1c-0.7,1-1.3,2-1.8,3.1c-0.5,1.1-1,2.1-1.5,3.2c-0.3,0.7-0.6,1.3-0.9,2c-0.3,0.7-0.7,1.3-1.2,1.8
			c-0.6,0.4-1.2,0.5-1.7,0.2c-0.5-0.2-0.9-0.7-1-1.4c0-0.7,0-1.4,0.1-2.2c0.1-0.8,0.3-1.6,0.5-2.3c0.2-0.8,0.4-1.6,0.6-2.3
			c0.2-0.8,0.4-1.4,0.5-2.1v0c0.1-0.5,0.1-1.1,0.1-1.6c0-0.5,0-1.1,0-1.7c0.1-0.3,0.2-0.5,0.4-0.6c0.2-0.1,0.3-0.2,0.5-0.2
			c0.2,0,0.4,0,0.5,0.1C268.8,22.3,269,22.4,269.1,22.8L269.1,22.8L269.1,22.8z"/>
		<path class="st10" d="M168.8,170.4c2.7-3.1,5.3-6.3,8.7-8.8c5.6-4.1,7.2,4.1,8,8.3c1.9,10.7-5.2,19.7-11.4,27.6
			c-0.3,0.4,3,2.1,3.6,1.3c8-10.4,17.5-25,7.5-37.6c-6.6-8.4-16.1,3.2-20.1,8C164.9,169.5,168.1,171.2,168.8,170.4"/>
		<path class="st10" d="M196.9,210.7c-0.7,0.1,1.2,0.1-0.4,0.1c2.2,0.1,4.4-0.1,6.4-0.2c-3.5,0.3-6.9,0.3-10.3,0.5
			c-3.4,0.1-6.8,0.3-10.2,0.5c-6.8,0.5-13.7,1.3-20.6,2.2c-3.5,0.5-7,0.9-10.5,1.4c-3.5,0.4-7,0.9-10.9,0.9c-1,0-2.3-0.1-3-0.4
			l-0.3-0.1c-0.3-0.1-0.1,0-0.2-0.1l-0.1,0l-0.1-0.1l-0.2-0.1c-0.1-0.1-0.3-0.2-0.4-0.3c-0.2-0.2-0.4-0.4-0.6-0.5
			c-0.1-0.2-0.3-0.3-0.4-0.5c-0.4-0.6-0.6-1.1-0.8-1.6c-0.7-2-1-3.7-1.3-5.5c-0.6-3.6-1-7.1-1.3-10.6c-0.7-7.3-1.3-14.9-2.2-22.6
			c-0.4-3.8-0.9-7.7-1.4-11.6c-0.2-2-0.5-4-0.7-6c-0.1-1-0.1-2-0.2-3l-0.1-1.5l0-0.7l0-0.4l0-0.2l0,0l0-0.2c0-0.1,0-0.2,0-0.4
			c0.1-0.5,0.3-0.8,0.5-1.2c0.2-0.3,0.4-0.4,0.6-0.6c0.2-0.1,0.4-0.3,0.5-0.4l0.5-0.3c0.6-0.3,1.2-0.5,1.7-0.6
			c1.1-0.3,2.1-0.5,3.1-0.7c2-0.3,4-0.6,6-0.8c4-0.4,7.9-0.6,11.9-0.7c7.8-0.3,15.5-0.4,22.9-0.3c-0.7,0.1-1.6,0-2.1,0.1
			c2.1,0.1,4.6,0.1,7.3,0.2c2.6,0.1,5.1,0.2,7.7,0.3c2.8,0.1,5.6,0.1,7.1,0.5c2.5,0,3.9,0.3,6.3,0.3c0.2,0.3,1.2,0.4,2.3,0.6
			c-0.6,0-0.6-0.1-1,0c0.8,0.2,2.3,0.1,2.7,0.4c-0.8,0-1.5,0-2.3,0c0.2,0.2,2.4,0.1,1.9,0.3c-1.1,0-1.2,0.1-1.7,0.3
			c-15.1-0.2-30.3-0.5-45.5,0c-3.8,0.1-7.6,0.3-11.4,0.5c-3.8,0.2-7.6,0.5-11.3,1.1c-0.9,0.1-1.8,0.3-2.7,0.6
			c-0.4,0.1-0.9,0.2-1.3,0.4c-0.4,0.1-0.8,0.4-0.9,0.5c0,0,0,0,0,0c0,0,0,0,0,0c0,0-0.1,0-0.1-0.1c-0.1,0,0,0-0.1,0l0,0h0
			c-0.2,0,0.3-0.1,0.2,0l0,0.1l0,0.7l0.1,1.4l0.2,2.8c0.4,3.7,0.9,7.5,1.3,11.2c0.2,1.4,0.3,2.7,0.5,4c0.1,1.3,0.3,2.7,0.4,4
			c0.3,2.6,0.5,5.2,0.8,7.8c0.5,5.1,0.9,10.1,1.4,15.1c0.3,2.5,0.5,5,0.9,7.5c0.2,1.2,0.4,2.5,0.7,3.7c0.3,1.2,0.6,2.5,1.1,3.5
			c0.1,0.3,0.3,0.5,0.4,0.7c0.1,0.1,0.1,0.1,0.2,0.2c0,0,0,0,0,0c0,0,0.1,0,0,0l0.1,0l0.2,0.1c0.3,0.1,0.7,0.2,1,0.2l0.9,0.1
			c0.6,0.1,1.3,0,1.9,0c0.7,0,1.3-0.1,2-0.1c2.7-0.2,5.4-0.5,8.2-0.9c8.4-1.1,17-2.3,25.6-3.1c4.3-0.4,8.6-0.7,12.9-0.8
			c4.3-0.2,8.5-0.1,12.6-0.5c1.3-0.1,2.7-0.3,3.7-0.8c0.2-0.1,0.5-0.3,0.6-0.5c0.2-0.2,0.2-0.4,0.3-0.6c0.1-0.5,0.2-1.2,0.3-1.8
			c0.2-2.6,0.2-5.2,0.2-7.8c0-5.1-0.2-10.2-0.5-15.2c-0.2-5-0.5-9.9-0.8-14.9c-0.3-5-0.6-10-1.2-15.1c0-0.3,0-0.7,0-1.1
			c0-0.2,0-0.4-0.1-0.6c0-0.1,0-0.2-0.1-0.3l-0.1-0.2c0-0.1-0.1-0.1-0.2-0.2c0-0.1,0.1-0.1,0.2-0.1c0.1,0,0.2,0.1,0.2,0.1
			c0,0,0.1,0.1,0.1,0.1c0.2,0.2,0.3,0.4,0.5,0.6c0.3,0.5,0.5,1.2,0.7,2c0.4,1.6,0.7,3.6,0.9,5c0.3,1.7,0.6,3.6,0.8,5.3
			c0.6,5.2,0.7,9.2,1,14.7c0.3,5.3,0.6,10.2,0.7,15.1c0,1.7,0.2,3.1,0,4.6c0.1,2.3,0.1,4.8-0.1,7.4c-0.1,0.7-0.1,1.3-0.3,2.1
			c0,0.2-0.1,0.4-0.1,0.6l-0.1,0.4c0,0.1-0.1,0.2-0.1,0.3c-0.3,0.6-0.6,1.1-1,1.4c-0.8,0.7-1.6,0.9-2.4,1.2
			c-0.7,0.2-1.4,0.3-2.1,0.4c-1.2,0.2-2.3,0.4-3.4,0.4c-1.2,0.1-3.1,0.1-3.9,0.1C197,210.7,196.9,210.7,196.9,210.7 M210.8,200.4
			c0.1,0.2,0.1,1.1,0,1.8C210.7,201.6,210.8,201.2,210.8,200.4 M209.9,172.4c0.5,9,0.9,17.2,0.9,26.4c0-0.1-0.1-0.3,0-0.4
			C210.8,189,210.1,179.6,209.9,172.4 M210.6,204.3c-0.1-2.8,0.3-1.1,0.1-0.2C210.7,204.1,210.6,204.5,210.6,204.3 M203.5,210.6
			c0.5-0.1,1.3-0.2,2.1-0.3c0.8-0.2,1.4-0.4,1.4-0.4C205.7,210.3,203.8,210.5,203.5,210.6"/>
		<path class="st10" d="M186.1,120.1c-0.2-0.2,0.2,0.5-0.2-0.1c0.4,0.9,1.1,1.6,1.5,2.4c-4-5.7-8.1-11.6-12.3-17.6l-0.1-0.2
			l-0.1-0.3c-0.1-0.4-0.4-0.9-0.7-1.3c-0.3-0.4-0.6-0.7-0.9-1c-0.3-0.2-0.5-0.3-0.7-0.3c-0.1,0-0.2,0-0.4,0c-0.1,0-0.2,0.1-0.4,0.1
			l-0.7,0.5l-0.7,0.6c-0.2,0.2-0.4,0.4-0.7,0.6l-0.7,0.7c-0.9,0.9-1.9,1.9-2.8,2.8c-4.6,4.7-9.4,10-14.1,15.3
			c-2.3,2.7-4.7,5.3-7,7.9c-1.1,1.3-2.3,2.6-3.4,3.9c-1.1,1.3-2.2,2.5-3.3,3.8c0.1-0.3,0.5-0.5,0.5-0.8c-0.7,0.7-1.4,1.5-2.3,2.4
			c-0.8,0.8-1.7,1.6-2.5,2.4c-0.9,0.9-1.7,1.9-2.5,2.1c-0.7,0.8-1.4,1.1-2.1,2c-0.3-0.1-0.6,0.2-1.1,0.4c0.1-0.2,0.2-0.2,0.3-0.3
			c-0.4,0.2-0.8,0.6-1.1,0.6l0.7-0.7c-0.2-0.1-0.8,0.7-0.8,0.4c0.3-0.4,0.3-0.4,0.3-0.7c4.7-4.9,9.1-10.1,13.6-15.4
			c4.4-5.2,9-10.4,13.7-15.4c3.4-3.6,6.4-6.9,9.6-10.2c0.8-0.8,1.6-1.6,2.4-2.4c0.8-0.8,1.6-1.6,2.7-2.4c0.3-0.2,0.4-0.3,0.8-0.5
			c0.3-0.1,0.7-0.3,1-0.4c0.7-0.2,1.5-0.2,2.2,0c0.7,0.3,1.3,0.7,1.8,1.2c0.5,0.5,0.9,1.1,1.2,1.6c0.3,0.4,0.5,0.9,0.7,1.4l-0.1-0.2
			c4.1,5.9,8.3,12,12.3,17.8c2.8,4.1,5.3,7.9,7.8,11.6c2.5,3.8,4.9,7.5,7.2,11.5c0,0.3,0.1,0.7,0.1,0.9c-0.2,0-0.4,0-0.6-0.1
			c-0.1,0-0.2-0.1-0.3-0.1c-0.1-0.1-0.2-0.2-0.4-0.3c-0.5-0.5-1-1.2-1.5-1.7c-0.5-0.6-1.1-1.2-1.6-1.8c-1.4-1.9-2.3-3.5-3.7-5.5
			c-1.4-2-2.6-3.7-3.9-5.6c-0.4-0.6-0.9-1.1-1.1-1.7c-1.3-1.6-2.5-3.7-3.8-5.5c-0.3-0.4-0.7-0.7-0.9-1.1
			C186.7,121.2,186.3,120.4,186.1,120.1L186.1,120.1z M190.5,127c-0.1,0-0.4-0.4-0.5-0.6C190.2,126.5,190.3,126.7,190.5,127
			 M197.4,137.5c-2.2-3.4-4.3-6.4-6.6-9.8c0.1,0,0.2,0.1,0.1,0.1C193.3,131.2,195.8,134.7,197.4,137.5 M189.5,125.6
			C190.5,126.4,189.6,126.1,189.5,125.6C189.5,125.7,189.5,125.6,189.5,125.6 M187.5,122.7c0.2,0.3,0.8,1.2,0.8,1.1
			C188.1,123.4,187.6,122.7,187.5,122.7"/>
	</g>
</g>
</svg>
