<?xml version="1.0" encoding="utf-8"?>
<!-- Generator: Adobe Illustrator 17.1.0, SVG Export Plug-In . SVG Version: 6.00 Build 0)  -->
<!DOCTYPE svg PUBLIC "-//W3C//DTD SVG 1.1//EN" "http://www.w3.org/Graphics/SVG/1.1/DTD/svg11.dtd">
<svg version="1.1" id="Layer_1" xmlns="http://www.w3.org/2000/svg" xmlns:xlink="http://www.w3.org/1999/xlink" x="0px" y="0px"
	 viewBox="0 0 168.8 22.2" enable-background="new 0 0 168.8 22.2" xml:space="preserve">
<path fill="#CF2029" d="M48.4,3.3C48.4,3.3,48.3,3.3,48.4,3.3C48.4,3.3,48.4,3.3,48.4,3.3z M115.6,4.2
	C115.6,4.3,115.6,4.3,115.6,4.2C115.6,4.3,115.6,4.3,115.6,4.2z M140.2,20.2c-0.2-0.2-0.7-0.2-0.9-0.4c-0.5,0.2-1.9,0.2-2.3-0.2
	c0.7-0.2,1.3,0.2,1.8,0.2c0.1-0.2-0.3,0-0.3-0.2c0.4,0.1,0.5,0,0.7-0.2c-0.6,0.2-0.8-0.1-1.3,0c0-0.1-0.2-0.2-0.1-0.3
	c0.1,0.2,0.8,0.2,1,0.1c-0.2-0.2-0.3-0.1-0.5-0.2c0.1-0.2,0.3,0,0.5-0.1c0.1,0.1,0.1,0.3,0.3,0.4c0-0.2-0.3-0.3-0.1-0.5
	c-0.4,0.1-1.5-0.1-1.9,0c0.1-0.3-0.4-0.2-0.4-0.4c0.2-0.2,0.5,0.2,0.6-0.1c-0.5,0-0.4-0.2-0.6-0.4c-0.2,0.1-0.6,0.1-0.6-0.2
	c0.4,0.1,1.7,0.1,2.1,0.2c-0.1-0.3-0.6-0.1-0.6-0.5c0.7,0.2,1.3-0.3,1.8,0.1c-0.1,0.1-0.2,0.1-0.1,0.2c0.2,0,0.3,0,0.5,0
	c0.1-0.2-0.4-0.1-0.4-0.3c0.2-0.1,0.3,0,0.4-0.2c0.7,0.3,1.6,0.1,2.6,0.1c-0.1-0.1-0.2-0.2-0.1-0.3c-0.1,0-0.1,0.1-0.2,0.1
	c-0.3-0.4-1.1,0-1.5-0.3c0.1-0.2,0.2-0.5,0-0.6c0,0.2-0.1,0.3-0.3,0.3c0,0.1,0.2,0.3,0,0.4c-0.3-0.1-1.1-0.1-1.3-0.2
	c0.2-0.4,0.5-0.3,1-0.2c-0.5-0.3-0.9-0.1-1.6-0.4c-0.1,0.3,0.4,0.3,0.4,0.5c-0.3,0-0.4-0.1-0.7,0c-0.1-0.2,0.2-0.5,0-0.5
	c-0.1,0.3-0.3,0.2-0.5,0.2c-0.1-0.1,0-0.1,0-0.2c-0.5,0.1-0.6-0.2-1,0.1c0.1-0.2-0.2-0.1-0.3-0.1c0.1-0.3-0.2-0.2-0.3-0.4
	c0.1-0.1,0.1-0.2,0.2-0.1c0.1-0.2-0.3-0.1-0.2-0.3c0.2,0,0.5,0.1,0.4-0.1c-0.2,0-0.5,0.1-0.4-0.1c0.6-0.1,1.2-0.2,1.7,0.1
	c0.1-0.1,0.1-0.2,0.2-0.1c0-0.2,0-0.4-0.2-0.4c0,0.1-1.3,0.1-1-0.3c-0.3-0.1-0.6-0.1-0.7,0.1c-0.1-0.1-0.1-0.2-0.2-0.2
	c-0.1,0.1-0.1,0.2-0.3,0.2c-0.1-0.1,0.1-0.4-0.1-0.4c-0.1,0-0.1,0.2-0.2,0.2c-0.4,0.1-0.4-0.2-0.5-0.3c0,0.2-0.1-0.2-0.4,0.1
	c0-0.2-0.4-0.6,0.1-0.6c0,0.2,0.1,0.2,0,0.4c0.3,0.1,0-0.3,0.3-0.3c0.2,0,0.3,0.1,0.6,0.1c0,0.2,0.2,0.3,0.3,0.5
	c0-0.5,0.4-0.2,0.8-0.4c0-0.1-0.1-0.1-0.1-0.2c-0.3-0.1-0.8,0.1-0.9-0.2c-0.2,0.3-1.2,0.1-1.1-0.4c-0.7,0-1.3,0.1-1.8-0.2
	c-0.5,0.2-0.5-0.1-0.9-0.1c-0.2,0.2-0.2,0.3-0.6,0.3c-0.3-0.2-0.3-0.9,0.4-0.6c0.1-0.1-0.1-0.4,0.1-0.4c0.3,0,0.1,0.4,0.4,0.4
	c0.1-0.2-0.2-0.4,0.1-0.5c0.1,0.2,0.4,0.1,0.5-0.1c-0.5-0.1-0.7-0.1-1.3-0.2c0.1-0.3-0.3-0.2-0.4-0.4c-0.4,0.6-1.4-0.4-1.8,0.2
	c-0.1-0.1,0-0.4-0.2-0.4c-0.1,0.3-0.6,0.2-0.8,0.4c-0.1-0.1-0.1-0.3-0.3-0.2c-0.2,0.1-0.4,0.3-0.7,0.2c-0.1-0.1-0.1-0.4-0.2-0.5
	c-0.1,0.1-0.5,0-0.6-0.1c-0.1,0.5-0.8,0.3-1,0c-0.1,0.1-0.6,0.2-0.6-0.3c0.6,0,1.6,0.1,1.9-0.1c-0.8-0.3-1.3-0.6-1.9-0.5
	c-0.1-0.1-0.1-0.2-0.1-0.3c0.3-0.1,0.6-0.1,0.8,0.1c0-0.2,0.1-0.2,0.1-0.4c-0.5,0,0-0.3,0.1-0.4c-0.9-0.3-1.8,0-2.8-0.4
	c0,0.1-0.1,0.2-0.2,0.2c-1.8-0.1-3.7-0.2-5.9-0.1c-0.1-0.1-0.2-0.2-0.2-0.4c0.4,0,0.4-0.1,0.6,0c0.1-0.1-0.1-0.4,0.2-0.4
	c0.1,0.1,0.2,0.2,0.1,0.3c0.2-0.1,0.3-0.2,0.4-0.4c-0.4,0-0.5-0.2-1-0.1c-0.2-0.6,1.2-0.4,1.5-0.2c0.1-0.2,0.5-0.1,0.6,0
	c0,0.2,0.1,0.2,0.1,0.4c0.3-0.1,0.2-0.2,0.2-0.5c0.5-0.2,0.7,0.2,1,0c0.1,0.1,0.1,0.2,0.1,0.3c-0.3,0-0.3,0.1-0.5-0.1
	c0,0.1,0,0.2,0,0.4c0.5,0,0.9,0,1.3-0.1c-0.3-0.1-0.5,0-0.6-0.2c0-0.4,0.8-0.4,1.4-0.2c0.2,0.1,0.3,0.2,0.6,0.3
	c0.4,0.1,1.1-0.1,1.5,0.3c0.3-0.3,1.1,0,1.4,0.1c0.5-0.4,1.2,0.2,1.5-0.1c0.1-0.1-0.1-0.3,0.2-0.4c0.8,0.1,1.4-0.2,2,0.2
	c0.8-0.4,1.9,0.1,2.6-0.2c-0.9-0.2-2-0.2-2.8-0.1c0-0.1-0.1-0.1-0.2-0.2c-2.9-0.1-5.9-0.3-9-0.4c-0.1-0.1,0-0.3-0.2-0.4
	c0,0.2-0.3-0.2-0.3,0.1c0.3-0.1,0.2,0.1,0.2,0.3c-2.2,0.1-4.8,0.1-6.5-0.4c0-0.1-0.1-0.1-0.1-0.2c0.1-0.1,0.3,0,0.4,0.1
	c0.2-0.4,0.9,0,1.2-0.1c0.1-0.1-0.1-0.3,0.1-0.3c0.2,0,0.2,0.2,0.1,0.3c1.1,0.3,2.6-0.3,3.8,0c0.6-0.1,1.9-0.1,2.5,0.2
	c0.3-0.3,0.9-0.2,1.1,0.1c0.7-0.4,2.8,0.4,3.8-0.1c0.3,0.1,0.5,0.1,0.7-0.1c0.4,0.2,0.7,0.1,1.3,0.1c0-0.1,0-0.2,0-0.2
	c-0.6,0-1.5,0.1-2.2,0.1c-0.1-0.1-0.2-0.1-0.2-0.2c-0.3,0.1-0.5,0.1-0.8,0.1c0-0.1,0.1-0.1,0-0.2c-0.1,0,0,0.2-0.1,0.2
	c-0.1-0.2-0.1-0.5-0.4-0.5c-0.1,0.2,0.2,0.3,0,0.3c-0.3,0.1-0.1-0.3-0.3-0.2c-0.3,0.3-0.4-0.2-0.5,0.2c-0.3,0.1-0.4-0.2-0.5-0.1
	c0,0.5-0.7-0.3-0.9,0.1c-0.1-0.2,0.1-0.2,0.1-0.4c-0.4,0.1-1,0.1-1.3,0.3c-0.2-0.2-1.4-0.1-0.9-0.5c0.2,0,0.3,0.1,0.5,0.1
	c0-0.3-0.2-0.4-0.3-0.6c-0.6-0.2-0.9,0.4-1.3,0.1c0,0.1-0.2,0.1-0.2,0.2c0.2,0.1,0,0.4,0.1,0.5c-0.2,0-0.4,0-0.6,0
	c-0.1-0.3-0.3-0.4-0.3-0.7c0.1,0,0.1,0.1,0.2,0.1c-0.1-0.3-0.3-0.5-0.2-0.9c-0.5,0-0.9-0.1-1.4-0.2c0.1,0.3-0.3,0.3-0.4,0.4
	c-0.5-0.3-1.4-0.3-1.6-1c0.1,0,0.2,0,0.4,0c0.1,0.1,0.2,0.2,0.2,0.4c0.3-0.1,0.3,0,0.6-0.1c0,0.1,0,0.2,0.1,0.2
	c-0.1-0.3,0.4-0.3,0.5-0.1c0-0.2,0.3-0.1,0.3-0.2c-0.4-0.1-0.8,0-1.3,0c-0.2-0.3,0.1-0.4,0.2-0.6c-0.2-0.3-0.2-0.1-0.4-0.4
	c-0.2,0.1-0.3,0.2-0.6,0.2c-0.1,0.2,0.3,0.4,0.1,0.5c-0.3,0.1-0.1-0.3-0.2-0.3c-0.6,0.1-1.4-0.2-1.6,0.1c0-0.3-0.5-0.2-0.7-0.1
	c0-0.1-0.2-0.1-0.2-0.3c-0.2,0-0.2,0.2-0.4,0.2c-0.1-0.1-0.2-0.2-0.4-0.2c0,0.1-0.1,0.2-0.2,0.2c0-0.3-0.5-0.2-0.6-0.2
	c-0.1-0.1,0-0.2-0.2-0.2c0,0,0,0.2-0.1,0.2c-0.3,0-0.8-0.1-0.8-0.4c0.5,0,0.9-0.1,1.4-0.1c-0.2,0-0.4-0.1-0.5-0.2
	c0-0.3,0.2-0.4,0.5-0.4c0-0.3-0.4-0.2-0.6-0.4c-0.2,0.2-0.4,0.4-0.8,0.4c0-0.1,0-0.2,0-0.2c-0.7,0.1-1.5-0.1-2.3,0.1
	c0.1,0.2,0.4,0.1,0.2,0.4c0.4,0.1,0.4-0.3,0.6-0.4c0.5,0.2,0.8,0.1,1.4,0.1c0.1,0.4,0,0.6-0.5,0.5c-0.2,0.1-0.1,0.4-0.3,0.5
	c-0.4,0.1-0.4-0.2-0.4-0.4c-0.5-0.2-1.5-0.1-1.9-0.1c0.5,0.2,1.1,0.3,1.8,0.1c0.1,0.1,0.2,0.3,0,0.4c-2.1-0.1-3.7,0.3-5.7,0.2
	c-0.7,0.3-1.3-0.3-1.8-0.1c0.1,0,0.3,0,0.2,0.1c-0.9,0.2-1.6,0.1-2.4,0.1c0-0.3-0.1-0.2-0.3-0.5c0-0.1,0.1-0.1,0.1-0.2
	c0.4,0.1,0.6,0,0.7,0.2c0.2-0.3,0.6-0.2,0.7,0c0.2,0,0.4-0.1,0.6-0.2c0.1,0,0.1,0.1,0.3,0.1c0.4,0.1,0.4-0.1,0-0.1
	c-0.1-0.1-0.3,0-0.3-0.1c-0.2,0-0.3,0.1-0.5,0.1c0-0.1-0.3-0.1-0.2-0.2c0.5-0.2,1,0.1,1.4-0.2c-0.6,0-1-0.2-1.3,0
	c-0.1-0.2-0.5-0.1-0.6,0c0.2,0,0.3,0,0.4,0.1C98.5,2.3,98.5,2,98.2,2c-0.2,0.3-0.5,0.1-0.8,0c0,0.3-0.9,0-1,0.2
	c0.2,0.1,0.4,0,0.4,0.2c-0.1-0.1-0.3,0-0.5,0.1c-0.1-0.1-0.2-0.2-0.1-0.3c-0.5-0.1-1.4-0.2-1.7,0.2c-0.2-0.2-0.7-0.2-0.8-0.1
	c0.1,0,0.4-0.1,0.4,0.1c-0.6,0.4-1.5-0.1-1.8-0.1c-0.1,0.3-1.4,0.1-1.7,0.4c0.5,0,0.8,0.1,1.3,0.1c0,0.1-0.1,0.1-0.2,0.2
	c0.3,0,0.7,0,0.7,0.2c-0.4,0.1-0.8,0-1.1,0c0.1-0.1,0.2-0.2,0.3-0.2c-0.2-0.1-0.7-0.2-0.7,0.1C91.2,3,91.4,2.8,91.5,3
	c-0.5,0-0.8-0.2-1-0.1C90.5,3,90.2,3,90.2,3.2C90.1,3.1,89.8,3,90,2.8c-0.3-0.1-0.6,0.1-0.9-0.1c0.1-0.3,0.8,0.1,1-0.2
	c-0.5,0.1-1.2-0.2-1.3,0.2c0.1,0,0.4-0.1,0.3,0.1c-1-0.1-1.7,0.1-2.4,0c0.4-0.1,1.1-0.1,1.3-0.2c-0.3,0-0.3-0.3-0.5-0.4
	c2.3-0.3,5.2,0,7.4-0.4c-1.4-0.1-3.3,0.1-4.3-0.2c0,0,0,0.1,0,0.1c-0.9-0.1-1.8,0-2.4-0.2c-0.1-0.2,0.3,0.1,0.3-0.1
	c-0.6,0.1-0.9-0.2-1.2-0.2c0.1,0,0.2-0.1,0.1-0.1c-1.2,0.2-2.4,0-3.2,0.3c0.1,0,0.2,0.1,0.1,0.2c-0.1,0-0.1-0.1-0.2-0.1
	c0,0.2-0.1,0.3-0.2,0.4c-0.1-0.1,0.1-0.4-0.1-0.4c-0.1,0.2-0.5,0.1-0.8,0.1c0-0.1,0-0.2-0.1-0.2c0,0.2-0.4-0.1-0.4,0.1
	c0.2,0,0.3,0,0.3,0.1C80.5,1.7,77.9,2,75.7,2c-1.2,0.4-2.6,0.1-3.8,0.4c-0.1-0.4-0.5,0.2-0.7-0.2c-0.1,0.1,0,0.1,0,0.2
	c-0.3,0.1-0.6,0.2-0.8,0.1c0.2,0.3,0.5,0.2,0.8,0.2c0-0.1,0-0.2,0.1-0.2c0.3,0.2,0.7,0.1,1-0.1c0.2,0,0.1,0.2,0.2,0.2
	c0.1-0.2,0.6-0.2,0.8-0.1c0.8-0.3,1.3,0.1,1.9-0.3c-0.1,0.2,0.3,0,0.5,0.1c0.1,0.4,0.3-0.1,0.6,0.1c-0.3,0.1-0.4,0.4-0.5,0.6
	c-0.4,0.1-0.7,0.1-1.2,0.1c0.1-0.2-0.2-0.1-0.2-0.2c0-0.2,0.4,0,0.4-0.2c-2.3,0.3-5.7,0.3-7,0.2c0.4-0.3,1.3,0,2-0.2
	c-0.1,0.3,0.5,0.3,0.7,0.1c-0.4,0.1-0.4,0-0.4-0.2c-0.9,0.1-1.7,0.2-2.6,0.2c-0.1,0.1,0.2,0.2,0,0.2c-0.5-0.1-1.6-0.5-2.1,0
	c-0.3-0.2-0.9-0.1-1.2-0.2c-0.6,0.2-1.4,0.1-2.2,0.2c-0.5,0-1,0.2-1.5,0.2c-0.7,0-1.5-0.3-1.9,0.2c-0.1,0-0.1-0.1-0.2-0.1
	c-0.4,0.5-1.6-0.3-2.7,0.1c-0.2-0.1,0-0.2,0-0.4c-0.2,0-0.4,0-0.4,0.1c0.3-0.1,0.2,0.1,0.2,0.3c-0.6-0.1-0.9,0.3-1.2-0.1
	C54.1,3,54.3,3,54.2,2.9c-0.3,0-0.3,0-0.6,0c-0.1,0.3,0.5,0,0.5,0.2c-0.1,0.5-1,0.1-1.4,0.3c0-0.1-0.1-0.1-0.1-0.2
	c0.2-0.3,0.7,0,0.9-0.2c-0.3,0-0.9-0.1-1,0.1c-0.1-0.2-0.8-0.2-0.8,0.1c0.4-0.1,0.2,0,0.7-0.1c0.1,0.2,0.1,0.3-0.2,0.4
	c-0.1-0.1-0.2-0.1-0.4-0.2c-0.3,0.2-1.4,0.3-1.7,0.1c-0.6,0.3-1.5,0.1-1.8,0c0,0.1-0.1,0.2-0.1,0.2c0-0.1,0-0.2,0-0.3
	c0.2,0,0.5,0.1,0.6-0.1c-0.6-0.1-1.1,0.1-1.7,0.1c-0.1,0.2,0.3-0.1,0.4,0.2c-0.1,0.1-0.1,0.1,0,0.2c-0.2,0-0.5,0-0.7,0
	c0-0.1-0.1-0.1-0.1-0.2c0.1,0,0.4,0.1,0.4-0.1c-0.5-0.2-1.2-0.1-1.7,0c0.2,0,0.3,0,0.4,0.1c0,0.1,0,0.2,0,0.2
	c-2.2,0.2-2.9,0-4.8,0.2c-0.1-0.1-0.2-0.1-0.2-0.2c1.3-0.4,3.1,0,4.4-0.4c-1.5,0.1-4.4,0.1-5.7,0.1c0.1,0.1,0.5,0.1,0.5,0.3
	c-0.3,0.2-0.8,0.3-1-0.1c0.2-0.1,0.4,0,0.4-0.2c-0.5-0.3-1.3,0.3-1.7-0.1c-2.7,0.2-5.6,0.2-8.3,0.2c-1.9,0-3.9,0.4-5.9,0.4
	c-2.1,0-5.4-0.2-7.7,0.1c-0.9,0.1-2,0.5-2.7,0.4c-0.2-0.1-0.1-0.2-0.1-0.2c-0.1,0.1-0.2-0.1-0.3,0.1c0-0.3-0.1-0.1-0.2-0.1
	c-0.2-0.3-0.3-0.3-0.5-0.5c0,0.1,0,0.1-0.1,0.1c-0.2-0.3-0.6-0.1-0.9-0.2c-0.7-0.1-1.1-0.5-1.5-0.9C9.2,2.7,9.3,2.9,9.2,3
	C9,2.9,8.8,2.6,8.5,2.8c0.7,0.9,1.6,1.7,2.7,2.3c0,0.2-0.1,0.2-0.1,0.3c0.5-0.1,1.3,0.1,1.5,0.5c-0.7,0.1-0.8,0.1-1.3,0.4
	c-0.2-0.4-1,0.2-1.3-0.1C10,6.2,10,6.4,9.9,6.3C9.6,6.3,9.5,6.2,9.5,5.9c0.3,0,0.5-0.1,0.8-0.3c-1.1,0.2-1.7,0.8-2.8,1
	c0,0.3-0.6,0.3-0.4,0.5c0.6-0.8,1.5-0.5,2.4-0.7c0.1,0,0.2,0.1,0.2,0.2c0.2-0.1,0.7-0.1,0.9,0c-0.2,0.1-0.4,0.1-0.5,0.2
	c0.4,0.1,0.5-0.1,0.8-0.1c0.1,1-1.6,0-2.1,0.5c0-0.1,0.1-0.1-0.1-0.1C8.2,7.2,7.4,7.5,6.9,7.2c0,0.1,0,0.2-0.1,0.2
	C6.6,7.4,6.5,7.3,6.5,7.2C6.6,7,6.8,7.2,6.9,7C6.6,7,6.5,6.8,6.3,6.9c0.1,0,0.2,0.3,0.1,0.3C6,7.2,5.9,6.9,5.7,6.8
	c0,0.3,0.4,0.3,0.4,0.6c-0.3,0.1-0.7,0.1-1,0.2C5,7.4,5.2,7.2,5.1,7.2C5,7.3,4.8,7.4,4.5,7.4C4.4,7.9,3.2,7.9,2.6,8.1
	c0.1,0.4-0.3,0.3-0.1,0.6C2.4,8.8,2,8.7,2,8.9C2.2,9,2.7,9.1,2.5,9.4c0.5-0.1,0.7,0.1,0.6,0.5C3.2,10,3.5,9.8,3.6,10
	c-0.1,0.4-0.1,0.6,0,1.1c-1.2-0.2-2.7,0.5-3.6,0.6c0,0.1,0.1,0.1,0.1,0.2c0.2,0.1,0.2-0.1,0.4-0.1c0.5,0.3,2,0.6,2.6,0.8
	c0.1,0.3-0.2,0.3-0.2,0.5c0.3,0,0.3-0.1,0.6,0.1c0.1,0.2,0,0.3-0.1,0.4c0.3,0.1,0.4-0.1,0.7-0.1c0,0.1,0.1,0.1,0.1,0.2
	c0.5,0.1,0.5-0.2,0.8,0c0.1,0.3-0.4,0.1-0.3,0.4c0.9,0.1,1.5,0.3,2.1,0.6c0,0.2-0.3,0.1-0.5,0.2c-0.1,0.3,0.1,0.4,0.1,0.6
	c-1.1,0.1-1.9,0.1-2.7,0.6c-0.2,0-0.4-0.2-0.4-0.1c0.3,0.5,0.5,0.9,1.2,1.1c0,0.1-0.1,0.1-0.1,0.2c0.6,0,0.9,0.2,1.3,0.1
	c-0.2,0.1-0.2,0.4-0.4,0.5c-0.4,0-0.7-0.1-1.1-0.1c-0.2,0.5-0.6,0.7-0.8,1.1c0.2,0,0.4-0.1,0.5,0c-0.4,0.1,1,0.9,1.1,0.9
	c0.5,0.2,1.2,0.1,1.5,0.2c0,0.1,0,0.1,0.1,0.2c0.7,0,1.3,0.2,1.5,0.6c0.2,0,0.6-0.3,0.7,0c-0.1,0.1-0.3,0-0.3,0.1
	c0.3-0.1,0.3,0.1,0.5,0c-0.2-0.1,0.2-0.4-0.1-0.5c0.4-0.2,0.7-0.4,1.3-0.5c-0.1,0-0.2-0.1-0.2-0.1c0.1,0,0.1-0.1,0.2-0.1
	c0.2,0,0.2,0.1,0.4,0.1c0-0.2,0-0.4,0.2-0.5c0.8,0.1,1.2,0.2,1.9,0.5c-0.1,0,0.1,0.2-0.2,0.3c-0.3-0.3-0.9-0.1-1-0.5
	c0.2,0.5-0.7,0-0.6,0.2c0.5,0,0.7,0.3,1.1,0.1c-0.1,0.2,0.2,0.1,0.2,0.4c0.5-0.1,0.5,0.1,0.5,0.3c0.2-0.1,0.4,0,0.6-0.1
	c0,0.2,0.2,0.2,0.3,0.2c0.9-0.3,1.9-0.2,2.8,0.2c0.6-0.2,1.2,0.1,1.5,0.3c-0.1,0.1-0.2-0.1-0.2,0.1c0.4,0.2,1.3-0.2,1.6,0.3
	c0.8-0.1,1.6,0,2.2,0.2c1.2-0.2,2.9,0,4.4-0.3c-0.1-0.3,0.3-0.1,0.2-0.3c-0.6-0.1-1.2-0.3-1.7-0.5c0-0.3,0.1-0.3-0.1-0.5
	c0.2-0.1,0.3,0.1,0.4-0.1c-0.2-0.3-0.7,0-0.8-0.4c0.3-0.1,0.9-0.1,1.2,0c0.7-0.2,1.7-0.5,2.2-0.1c-0.5,0.2-0.8,0.2-1.5,0.3
	c0,0.1-0.1,0.3,0.1,0.3c0.9-0.3,2.1,0.5,3,0.2c-0.4-0.3-1.1,0.2-1.2-0.4c0.6,0,1.1,0.1,1.6,0.1c0,0.2,0,0.3,0.2,0.4
	c0.1-0.1,0.3-0.1,0.4-0.2c0.1,0.1,0.3,0.1,0.4,0.2c0,0.1,0,0.2-0.1,0.3c1.1,0.2,2,0.2,3.6,0.2c0.2,0.1,0.1,0.3,0.3,0.3
	c0.1,0,0.1-0.2,0.2-0.2c0.2,0.1,0.5,0.1,0.5,0.4c0.4-0.1,0.4,0.1,0.7,0.1c0.6-0.4,2-0.2,2.6,0.1c0.5-0.4,1.4,0,1.9-0.3
	c0.1-0.1-0.2-0.2,0-0.2c0.4,0.1,0.8-0.1,1,0c0-0.3,0.5-0.2,0.6-0.4c-0.1,0-0.3,0-0.3-0.1c0-0.1,0-0.2,0.1-0.2
	c0.4,0.1,0.7,0.3,1.2,0.1c-0.8-0.5-2.8,0-3-0.9c0.3-0.1,0.4,0,0.6,0c0-0.4,0.7-0.2,0.2-0.5c0.7,0,1.2,0.1,1.5-0.2l0,0l0,0
	c-0.1,0.1,0.3,0.2,0.4,0.1c-0.1,0-0.1-0.2,0-0.2c0.9-0.2,1.7-0.1,2.2-0.2c-0.1-0.1-0.5,0-0.4-0.2c-0.4,0.1-0.4,0-0.9-0.1
	c0.3,0,0.7-0.2,1.2-0.2c0-0.1-0.1-0.1-0.2-0.2c0.3-0.4,0.8-0.1,1.3-0.2c0.3,0,0.5-0.2,0.7-0.2c1.6-0.1,3.3,0.2,4.7,0.1
	c0.9-0.3,2,0,2.9,0.1c-0.2,0.2-0.7-0.1-0.8,0.1c0.4,0.2,0.9,0,1.2,0.4c0-0.3,0.8-0.2,0.4,0c1.9,0.2,4,0,5.8-0.2
	c-0.6,0-1.3-0.2-1.8,0.1c-0.3-0.2-0.5-0.3-0.9-0.2c0.2-0.3-0.2,0-0.3-0.3c0.6-0.2,1.3-0.2,1.8-0.2c0.7-0.1-0.8-0.1-0.8,0
	c0-0.1-0.1-0.1-0.2-0.1c0-0.2,0.1-0.1,0-0.2c-0.8-0.2-1.5,0.1-2.1-0.2c0-0.1,0.2-0.2,0.2-0.3c0.6,0.3,1.4,0.1,2-0.1
	c0,0.1,0,0.1-0.1,0.2c0.2,0.1,0.4,0,0.6,0c-0.2,0-0.2-0.1-0.1-0.1s0.2,0.2,0.2,0.2c0,0,0.1-0.2,0.1-0.2c0.2-0.1,0.5-0.1,0.6,0.1
	c-0.1,0.2-0.3,0.2-0.6,0.2c0,0.2,0.7,0.1,0.6,0.1c-0.3-0.2,0.2-0.2,0-0.5c0.2,0.1,0.4,0.1,0.6,0.1c0,0,0,0,0,0.1
	c0.1,0.2,0.1,0,0.1-0.1c0.3,0,0.6-0.1,0.9-0.1c-0.1,0.1-0.4,0-0.5,0.2c0.2-0.1,0.8,0.2,0.8,0.1c-0.1-0.1-0.3-0.1-0.3-0.2
	c0.1,0,0.4,0.2,0.4,0c-0.1-0.1-0.3,0-0.3-0.2c1-0.2,2.4,0,3.3-0.1c-0.5,0.3-1.3,0.3-1.9,0.1c-0.2,0.1,0.3,0.2,0.1,0.3
	c-0.1-0.1-0.2,0-0.4,0c-0.2,0-0.3,0-0.5,0c-0.2,0-0.6,0.1-0.2,0.1c0.6-0.1,1.2,0.1,1.5,0.1c0.1-0.3-0.2,0.1-0.2-0.2
	c0.3-0.1,0.3,0.3,0.2,0.3c-0.8-0.1-1.5,0-2.1,0.1c-0.1-0.1-0.5-0.1-0.3,0c1,0.3,2.7-0.2,3.5,0.1c0.1-0.1,0.2-0.1,0.3-0.1
	c0.1,0.1,0.5,0.4,0.6,0.2c-0.1,0-0.3,0-0.3-0.1c0.4,0,1.1,0.3,1.6,0.1c-0.1,0.2,0.4,0,0.4,0.2c-0.3,0.1-0.6-0.1-0.9,0.1
	c0.2,0.1-0.2,0.1-0.2,0.2c3.1,0.3,7,0.6,10.1,0c-0.4-0.1-0.5-0.5-0.9-0.5c0.2-0.2-0.2-0.1-0.1-0.4c0.4,0,0.9,0,1-0.3
	c0.2,0-0.1,0.3,0.2,0.2c0.1-0.1-0.1-0.1,0.1-0.3c-1,0-2-0.1-3-0.2c0-0.1,0-0.2,0.1-0.2c0.8,0.1,1.3-0.2,1.9-0.1
	c0-0.1,0.1-0.2,0.1-0.2c0,0.1,0.2,0.1,0.3,0.2c0.7-0.4,1.6-0.2,2.7-0.2c-0.4-0.2-0.7-0.2-1.2-0.1c0-0.1-0.1-0.1-0.1-0.1
	c0.1-0.3,0.4-0.2,0.6-0.1c0.1,0,0-0.3,0.2-0.3c0.1,0.1,0.1,0.2,0.3,0.2c0.2-0.2,0.5-0.1,0.8-0.4c-0.3-0.1-0.5,0-0.6-0.1
	c0.1-0.1-0.1-0.3,0.1-0.3c0.6,0,1.5,0.2,1.8-0.1c-0.1-0.1-0.3-0.2-0.3-0.4c-0.1,0.2-0.4-0.1-0.6,0.1c-0.2-0.1-0.3-0.2-0.4-0.4
	c0.1,0,0.1-0.1,0.1-0.1c0.6,0,1.1-0.1,1.9,0c0.2,0.3-0.1,0.4-0.2,0.7c0.6-0.1,1.4,0.1,1.7-0.3c-0.4,0.1-0.8-0.3-0.8-0.1
	c-0.1-0.1-0.2-0.2-0.2-0.3c0.5,0,0.9-0.2,1.2,0.1c0.2-0.2,0-0.4-0.1-0.5c-0.3-0.1-0.4,0.1-0.6,0.1c0-0.1-0.1-0.2-0.2-0.2
	c0,0.1,0,0.1,0.1,0.2c-1,0.2-1.2-0.2-1.9-0.1c0.2-0.4,0.9-0.2,1.2-0.4c0.1,0.2,0.3,0.3,0.5,0.4c0-0.2-0.3-0.3,0-0.4
	c0.1,0.1,0.3,0.1,0.5,0.1c0.1-0.1,0.1-0.2,0.3-0.2c0.2,0.4,0.8,0,0.9,0.5c-0.3-0.2-0.2,0.3-0.4,0.1c0,0.2,0.2,0.3,0.2,0.5
	c0-0.3,0.4-0.3,0.6-0.2c0.1-0.3-0.2-0.3-0.1-0.5c0.3-0.1,0.4-0.1,0.7,0c-0.1,0.3,0.1,0.4,0.3,0.3c0-0.2-0.3-0.1-0.2-0.4
	c0.3-0.1,0.3,0.2,0.6,0.2c0.2,0,0-0.3,0.2-0.3c0.3,0.1,0.4,0.4,0.7,0.4c0.2-0.1,0.6-0.3,0.9-0.1c0-0.1,0-0.2,0.1-0.2
	c0,0.1,0,0.2,0.1,0.2c0.3-0.3,0.8,0.1,1.1,0.1c0.2-0.4,1.1-0.3,1.5-0.1c0.3-0.4,0.8-0.1,1.2-0.1c0.4,0,0.8-0.2,1.2,0.1
	c0.9-0.4,2.1-0.1,3,0.1c0.8-0.1,2-0.1,2.6,0c-0.1,0.3-0.5,0.2-0.5,0.5c0.5,0.1,1.3-0.1,1.9,0c0-0.2,0-0.3-0.2-0.3
	c0,0.1,0,0.1-0.1,0.1c-0.1-0.1-0.1-0.2-0.1-0.4c0.1,0.2,0.4-0.1,0.4,0.1c0,0.1,0,0.2,0,0.4c0.1,0.1,0.4,0.1,0.6,0.1
	c-0.1-0.2-0.5-0.1-0.5-0.4c0.2,0.2,0.4-0.1,0.6-0.1c0.1,0.2-0.1,0.3,0,0.4c0.3-0.1,0.3,0,0.7,0c0.1,0.1,0.1,0.2,0.1,0.3
	c0.6,0.1,0.8-0.1,1.5,0c0.1,0.1,0,0.3,0.1,0.4c0.1-0.3,0.2,0.1,0.4,0.1c0-0.1,0.1-0.2,0.1-0.2c0.5,0.3-0.1,0.6-0.8,0.5
	c0,0.1,0,0.2-0.1,0.2c-0.8,0.1-1.7-0.1-2.7,0.1c0.8,0.2,2.1,0,2.6,0.3c0,0.1-0.2,0.2-0.2,0.2c0.3,0.1,1,0,1.3,0.1
	c0.5,0.1,1.4-0.2,1.6,0.2c-0.2,0.1-0.4,0.2-0.4,0.4c-0.2-0.3-0.7,0.1-1,0.2c0.1,0.2,0.6,0.1,0.8,0.1c0.1,0,0,0.2,0.1,0.2
	c-0.1,0,0.5-0.4,0.6-0.1c0,0.1,0,0.2,0,0.2c-0.2-0.1-0.4,0-0.6,0.2c0-0.1,0-0.2,0-0.2c-0.4,0.1-0.5-0.1-0.8,0.1c0.2,0,0.3,0,0.3,0.2
	c-0.1,0.5-0.9,0.1-1.2,0.5c0.1,0,0.1,0.1,0.1,0.1c0.4-0.1,1,0,1.2,0.1c-0.3,0-0.3,0.5-0.6,0.6c-0.2-0.2,0.1-0.4-0.1-0.5
	c0,0.3-0.5,0.5-0.3,0.7c0.8,0.1,2-0.2,3-0.1c2.1,0.3,4.1,0,6-0.1c0.1-0.1-0.1-0.3,0.1-0.3c0.4,0.1,0.9-0.1,1.3,0
	c0.2,0.1,0.2,0.2,0.4,0.2c0,0,0.1-0.1,0.1-0.1s0.1,0.2,0.1,0.2c0.2,0,0.8,0,1.2,0c0.7,0,1.6,0.2,1.9,0c0.1-0.1-0.1-0.2,0.1-0.2
	c0.3-0.1,0.6-0.1,0.8-0.2c-0.4,0.1-0.2-0.3-0.2-0.5c-0.3,0.1-0.7-0.1-0.4-0.4c0.4,0,0.3,0.5,0.6,0.6c0.1-0.3-0.3-0.4-0.2-0.6
	c0.4,0.1,1,0,0.8,0.6c-0.3,0-0.3,0.3-0.6,0.3c0.7,0.1,1.7-0.1,2.3,0.3c2.2-0.1,4,0.4,5.4,0.2c0.2,0,0.3,0.1,0.4,0.1
	c-0.4-0.7-1.7-0.1-2-0.6c0.3-0.2,0.7,0,1-0.1c0,0.1,0,0.4,0.1,0.2c0-0.2,0.1-0.3,0.1-0.4c0.3,0.1,0.5,0.1,0.8,0.2
	c0.2-0.1,0.3-0.3,0.6-0.3c0.1,0.1,0.2,0.2,0.3,0.2c0-0.1,0-0.2,0.1-0.2c0.1,0,0.5,0.2,0.6,0c-0.6-0.4-1.3,0.1-1.7-0.4
	c0.3-0.2,0.5-0.1,0.8-0.2c0-0.2-0.1-0.2,0.1-0.3c0.2,0.2-0.1,0.4,0.2,0.5c0-0.1,0.2,0,0.2-0.1c-0.3,0.1-0.1-0.2-0.2-0.4
	c0.7-0.1,1.1,0,1.3,0.1c0.1,0,0-0.2,0.2-0.2c0.2,0.2,0.3,0.4,0.5,0.5c-0.1,0-0.2,0-0.3,0c0,0.3,0.4,0.3,0.4,0.5
	c-0.2,0-0.3-0.1-0.4,0.1c0.3,0.1,0.5,0.2,0.6,0.5c0.3,0.1,0.6-0.2,0.6,0.2c-0.2,0-0.3-0.1-0.4,0.1c0.4,0,0.5,0.1,0.7,0
	c-0.1,0-0.3-0.2-0.1-0.2c0.3,0.1,1.3-0.1,1.4,0.4c-0.8,0-1.3-0.1-1.9,0c-0.3-0.1-0.1-0.2-0.3-0.2c-0.1,0.2,0.2,0.3,0.3,0.3
	c0.9,0.3,2.2,0,3,0.3c0,0.1,0.1,0.2,0.2,0.2c-0.1-0.2,0.6-0.2,0.6,0c-0.3,0-0.7-0.1-0.7,0.2c0.6,0.3,1.3,0.3,2.2,0.2
	c-0.3-0.2-0.8,0.1-1-0.3c1.2-0.6,1.6,1.1,2.7,0.5c-0.1-0.2-0.5-0.1-0.6-0.4c1.4-0.2,2.5,0.6,3.6,0.2c0.2,0.4,1.5,0.3,1.7,0.4
	c-0.2-0.1-0.5-0.1-0.6-0.2C139.6,20.2,140.1,20.4,140.2,20.2z M90.4,1.6c0.1,0,0.1,0,0.1,0.1C90.5,1.6,90.5,1.6,90.4,1.6z M83.3,0.1
	C83-0.1,83.1,0.3,83.3,0.1L83.3,0.1z M75.2,0.7c-0.1,0-0.1,0-0.1,0.1C75.1,0.8,75.2,0.8,75.2,0.7z M85.9,0.9c-0.2,0-0.5-0.1-0.5,0.1
	C85.6,0.9,85.9,1,85.9,0.9z M86.1,0.9c-0.1,0-0.1,0-0.1,0.1C86,0.9,86.1,0.9,86.1,0.9z M83.5,1C83.5,1,83.5,1,83.5,1L83.5,1z
	 M83.5,1C83.6,1,83.6,1,83.5,1C83.6,1,83.5,1,83.5,1C83.5,1,83.5,1,83.5,1z M83.6,1C83.6,1,83.6,1,83.6,1C83.7,1,83.6,1,83.6,1z
	 M84.6,0.9c-0.2,0-0.7-0.1-0.8,0.1C84,1,84.5,1.1,84.6,0.9z M84.8,0.9c-0.1,0-0.1,0-0.1,0.1C84.7,1,84.8,1,84.8,0.9z M80.8,1.3
	c1.1-0.1,2,0.1,2.5-0.1c-0.2-0.1-0.2-0.1-0.2-0.2c-0.5,0.2-1.2-0.1-1.5,0.2c-0.4,0.1-0.6-0.2-0.8-0.1C81,1.2,80.9,1.2,80.8,1.3z
	 M83.2,1.1c0.1,0,0.2,0,0.2-0.1C83.3,1,83.2,1,83.2,1.1z M81.5,1.1c-0.1,0-0.1,0-0.1,0.1C81.4,1.2,81.5,1.2,81.5,1.1z M131.3,19.8
	c0.1,0.1,0.3,0.1,0.3-0.1C131.5,19.7,131.3,19.7,131.3,19.8z M131.7,12.2c0.1,0,0.1,0.1,0.1,0C131.8,12.1,131.7,12.1,131.7,12.2z
	 M118.6,8c-0.2,0-0.2-0.1-0.3-0.2c0.1,0.2-0.2,0.1-0.2,0.2c0.2,0,0.2,0.2,0.3,0.2C118.3,8.1,118.6,8.2,118.6,8z M96.2,1.9
	c0.4,0,1.1-0.1,1.5,0C97.3,1.7,96.4,1.8,96.2,1.9z M87.6,1.1c-0.1,0-0.1,0-0.1,0.1C87.5,1.2,87.6,1.2,87.6,1.1z M80.3,1.3
	c-0.7,0-1.5-0.1-2.3,0.1C79,1.3,79.5,1.4,80.3,1.3z M80.6,1.3C80.7,1.5,80.7,1.1,80.6,1.3L80.6,1.3z M96.4,1.6
	c-0.3-0.1,0.2-0.1,0.1-0.2c-0.3-0.2-0.3,0.2-0.6,0.1c-0.2-0.4-1.1-0.1-1.6-0.1C94.9,1.7,95.8,1.7,96.4,1.6z M97.2,1.7
	c0.1-0.1,0.2-0.3,0.1-0.4c-0.1,0.2-0.7-0.2-0.6,0.2C96.8,1.4,97,1.7,97.2,1.7z M89.7,1.4c-0.1,0-0.1,0-0.2,0c0,0.1,0,0.1,0,0.1
	c0.1,0,0.1,0,0.2,0C89.7,1.5,89.7,1.4,89.7,1.4z M76.2,1.6c0-0.3-0.5,0-0.6,0C75.9,1.6,75.9,1.6,76.2,1.6z M90,1.5
	C90.1,1.7,90.1,1.3,90,1.5L90,1.5z M96.7,1.6c-0.1,0-0.1,0-0.1,0.1C96.6,1.7,96.7,1.7,96.7,1.6z M110.9,1.9c0-0.2-0.1-0.2-0.2-0.2
	c0,0.1-0.2,0.1-0.2,0.2C110.7,1.9,110.6,1.9,110.9,1.9z M95.2,1.9c0.4,0,0.7,0.2,1-0.1C95.9,1.9,95.3,1.7,95.2,1.9z M105,1.8
	c-0.2,0-0.5-0.1-0.6,0.1C104.7,1.8,104.8,1.9,105,1.8z M105.2,1.8c-0.1,0-0.1,0-0.2,0.1C105.1,1.8,105.2,1.8,105.2,1.8z M111.1,1.9
	c-0.1,0-0.1,0-0.2,0.1C111,1.9,111.1,1.9,111.1,1.9z M103.8,2.1c-0.3,0.1-0.4-0.3-0.6-0.1C103.3,2.3,103.6,2.2,103.8,2.1z
	 M103.7,1.9c-0.1,0-0.1,0-0.2,0.1C103.6,2,103.7,2,103.7,1.9z M114.5,2.3c0-0.2,0.1-0.4-0.1-0.4c-0.1,0.1-0.1,0.2-0.1,0.3
	C114.3,2.2,114.4,2.3,114.5,2.3z M100.9,2c-0.1,0-0.1,0-0.2,0.1C100.8,2.1,100.9,2.1,100.9,2z M101.9,2.1C102,2.4,102,1.9,101.9,2.1
	L101.9,2.1z M106.4,2.1C106.6,2.3,106.5,1.9,106.4,2.1L106.4,2.1z M72.2,2.1c-0.1,0-0.2,0-0.2,0.1C72.1,2.2,72.2,2.2,72.2,2.1z
	 M119.1,2.2c-0.2-0.1-0.3,0.1-0.4,0.1c0-0.1,0-0.1-0.1-0.1C118.6,2.4,119.1,2.4,119.1,2.2z M88.9,2.4c0.1,0,0.4,0.1,0.4-0.1
	C89.1,2.3,89,2.2,88.9,2.4z M68.3,2.3c0,0.1-0.1,0-0.1,0C68,2.5,68.6,2.4,68.3,2.3z M69.1,2.4c0.1-0.2-0.5-0.2-0.5-0.1
	C68.9,2.5,69,2.3,69.1,2.4z M89.8,2.3c-0.1,0-0.2,0-0.2,0.1C89.7,2.3,89.8,2.4,89.8,2.3z M67.2,2.4c0,0,0.1,0,0.2,0
	C67.6,2.4,67.3,2.4,67.2,2.4z M68,2.4c-0.2,0-0.5-0.1-0.5,0.1C67.7,2.5,67.9,2.5,68,2.4z M101.9,2.5c-0.1,0-0.3,0-0.3,0.1
	C101.7,2.5,101.9,2.5,101.9,2.5z M139.7,2.8c0.1-0.2-0.2-0.1-0.3-0.2C139.3,2.8,139.6,2.7,139.7,2.8z M75.4,2.7
	c-0.2-0.1-0.3-0.1-0.4,0.1C75.1,2.9,75.4,2.8,75.4,2.7z M75.5,2.7C75.6,2.9,75.6,2.5,75.5,2.7L75.5,2.7z M141,2.8
	c-0.2-0.1-0.4-0.2-0.6,0C140.5,2.9,141,2.9,141,2.8z M99.4,2.8C99.6,3,99.5,2.6,99.4,2.8L99.4,2.8z M145.2,2.8c-0.1,0-0.2,0-0.2,0.1
	C145,2.8,145.1,2.8,145.2,2.8z M54.8,2.8c-0.1-0.1-0.2,0.1-0.2,0.1C54.6,3,54.9,2.9,54.8,2.8z M98.1,2.8c-0.1,0-0.2,0-0.2,0.1
	C98,2.9,98.1,2.9,98.1,2.8z M119.9,2.8c-0.1,0-0.2,0-0.2,0.1C119.7,2.9,119.9,2.9,119.9,2.8z M141.4,2.9c0.1,0,0.1,0,0.2,0
	C141.5,2.9,141.5,2.9,141.4,2.9z M141.8,3.3c0.1,0,0.2,0,0.4,0c0-0.2-0.1-0.1-0.1-0.3c0.6-0.1,1.3,0.2,1.9,0.4
	c0.1,0.2-0.2,0.1-0.2,0.3c0.1,0,0.1,0,0.2,0.1c0.3,0.1,0.1-0.3,0.4-0.3c0.1,0.2-0.1,0.2-0.2,0.3c0.2,0,0.3,0,0.5,0
	c0.1-0.2-0.3,0-0.2-0.2c0.1-0.1,0.4,0,0.5,0.1c0.2,0.1,0,0.1-0.1,0.2c1-0.1,2.3,0.4,3.4,0.2c-1.3-0.5-2.1-0.3-3.5-0.6
	c0.5-0.3,1.1,0.3,1.5-0.1c-1.4-0.1-3.2-0.3-4.7-0.4C141.9,2.9,141.9,3.1,141.8,3.3z M122.7,2.9C122.8,3.2,122.8,2.7,122.7,2.9
	L122.7,2.9z M50.2,3.1C50.2,3.1,50.2,3,50.2,3.1C50.2,3,50.2,3,50.2,3.1z M50.2,3.1C50.2,3.1,50.2,3.1,50.2,3.1L50.2,3.1z M50.2,3
	L50.2,3C50.2,3,50.2,3,50.2,3z M50.2,3L50.2,3C50.2,3,50.2,3,50.2,3L50.2,3z M50.2,3C50.2,2.9,50.2,2.9,50.2,3
	C50.2,2.9,50.2,2.9,50.2,3z M140,3.3c0.3-0.1,0.7-0.1,0.9-0.2c-0.3,0-0.3-0.1-0.4-0.2c0,0.3-0.2,0.1-0.4,0.2
	c-0.1-0.1-0.1-0.2-0.2-0.2c-0.1,0.3-0.6,0.1-0.8,0.1C139.2,3.4,139.9,3,140,3.3z M120.2,3.7c0-0.3,0.6-0.1,0.7,0
	c0.1,0.2-0.1,0.3-0.2,0.4c0.2,0,0.2,0.3,0.4,0.3c0.1-0.5,1.1,0,1.3-0.3c-0.1,0.1-0.4-0.2-0.5,0c-0.1-0.1-0.1-0.4,0-0.6
	c-0.3-0.1-0.2,0.2-0.5,0.1c0-0.2-0.1-0.1-0.1-0.3c-0.3,0.1-0.6,0.1-0.8,0c-0.1,0.1-0.2,0.2-0.4,0.2C120.1,3.6,120.1,3.7,120.2,3.7z
	 M147.8,3.4c-0.1,0-0.2,0-0.3-0.1C147.5,3.5,147.8,3.6,147.8,3.4z M115.5,3.5C115.6,3.7,115.7,3.3,115.5,3.5L115.5,3.5z M122.5,3.5
	c-0.2,0-0.3,0.1-0.4,0.2C122.3,3.8,122.5,3.7,122.5,3.5z M123.1,3.7c0-0.1,0-0.1,0-0.1c-0.1,0-0.1-0.1-0.2-0.1
	c0.1,0.2-0.3-0.1-0.3,0.1C122.8,3.7,122.8,3.6,123.1,3.7z M123.7,3.7c0.2,0,0.3,0,0.3-0.1c-0.1,0-0.3-0.1-0.4,0
	C123.7,3.6,123.8,3.6,123.7,3.7z M135.8,3.7c0.1-0.2-0.2-0.1-0.2-0.2C135.6,3.7,135.6,3.7,135.8,3.7z M119.2,3.6
	C119.3,3.9,119.3,3.4,119.2,3.6L119.2,3.6z M123,4.6c0,0.2-0.2,0.3-0.3,0.4c-0.2,0-0.2-0.1-0.5-0.1c1.1,0.6,2.4,0.1,3.7,0.3
	c-0.1-0.2,0.2-0.1,0.2-0.2c-0.4,0-0.3-0.3-0.4-0.6c1.2,0.1,1.9,0.1,2.8,0.1c0-0.1,0.1-0.1,0.1-0.2c-0.4-0.2-1.2,0-1.7-0.2
	c0-0.1,0-0.2,0.1-0.2c-0.6,0.1-1.4-0.2-1.9-0.1c0.3,0.2,1,0,1.1,0.3c0,0.2-0.2,0.2-0.4,0.3c0-0.3-0.6-0.1-0.8-0.2
	c0,0.3,0.3,0.4,0.4,0.7c-0.6,0.1-1.1,0-1.5-0.4C123.8,4.8,123.3,4.6,123,4.6z M135.9,3.6C136,3.9,136,3.4,135.9,3.6L135.9,3.6z
	 M140.5,3.7C140.3,3.9,140.7,3.5,140.5,3.7L140.5,3.7z M128,3.8C128.1,4,128.2,3.6,128,3.8L128,3.8z M117.5,3.9
	C117.6,4.1,117.6,3.6,117.5,3.9L117.5,3.9z M156.8,3.8c-0.1,0-0.1,0-0.1,0.1C156.7,3.8,156.8,3.9,156.8,3.8z M157.3,3.8
	c-0.1,0-0.1,0-0.2,0c0,0.1,0,0.1-0.1,0.2c0.1,0,0.2,0,0.3,0C157.3,3.9,157.3,3.9,157.3,3.8z M139.3,4c0-0.1-0.1-0.2-0.1-0.2
	C139.2,4,139.2,4,139.3,4z M155.5,3.9C155,3.8,155.4,4,155.5,3.9L155.5,3.9z M144.3,4C144.4,4.2,144.4,3.7,144.3,4L144.3,4z
	 M122.5,4.1c0.2,0.1,0.3,0.1,0.7,0.1c0-0.2-0.2,0-0.3-0.2C122.9,4.1,122.5,3.9,122.5,4.1z M145.2,4C144.8,3.9,145,4.2,145.2,4
	L145.2,4z M123.7,4.1c0.1,0,0.1,0,0.2-0.1C123.8,4,123.7,4,123.7,4.1z M135.3,4.1c-0.1,0-0.1-0.1-0.1-0.1c-0.2,0-0.2,0.1-0.3,0
	C134.9,4.2,135.2,4.2,135.3,4.1z M136.6,4.4c0.1-0.1,0.2-0.1,0.3-0.2c-0.1,0-0.3,0-0.2-0.1c-0.5,0.1-0.6-0.1-1,0
	C135.9,4.3,136.3,4.1,136.6,4.4z M141.6,4c0,0.1,0,0.2,0.1,0.2c0,0,0-0.1,0.1-0.1C141.7,4.1,141.7,4,141.6,4z M160.8,4
	C160.4,4,160.7,4.2,160.8,4L160.8,4z M161.6,4c-0.1,0-0.3,0-0.3,0.1C161.4,4.2,161.6,4.2,161.6,4z M162.6,4c-0.1,0-0.1,0-0.1,0.1
	C162.6,4.1,162.6,4.1,162.6,4z M142.5,5c0.2,0.1,0.3,0.2,0.6,0.1c0.1-0.3,0,0.2,0.2,0.1c0-0.2-0.1-0.3,0.1-0.4
	c0.2-0.1,0.2,0.1,0.4,0.1c-0.1-0.2,0.1-0.2,0.2-0.3c-0.2-0.1-0.1,0-0.3,0.1c0-0.2-0.1-0.2,0-0.3c-0.2-0.1-0.1,0.2-0.3,0.2
	c-0.1-0.2,0-0.2-0.1-0.4c-0.2,0.1-0.3-0.1-0.4-0.1c-0.1,0.2,0.2,0.1,0.2,0.2c0,0.1-0.1,0.1-0.2,0.1c-0.3-0.2-0.8,0.2-0.8-0.3
	c-0.1,0-0.2,0-0.3-0.1c-0.1,0.3,0.1,0.2-0.2,0.4C142.1,4.5,142.8,4.6,142.5,5z M148,4.3c-0.2,0-0.3,0-0.3,0.1
	C147.9,4.4,148,4.4,148,4.3z M148.7,4.5C148.7,4.5,148.7,4.4,148.7,4.5c-0.1,0.1,0,0.1,0.1,0.2c0-0.2,0.1-0.2,0.1-0.4
	C148.7,4.3,148.8,4.5,148.7,4.5z M149.6,4.4c-0.1,0-0.2,0-0.2,0c0,0.1,0,0.1,0,0.2c0.1,0,0.1,0,0.2,0C149.5,4.5,149.6,4.5,149.6,4.4
	z M155.2,4.4c-0.1,0-0.2,0-0.2,0.1C155,4.5,155.1,4.5,155.2,4.4z M157.2,4.4c-0.1,0-0.1,0-0.2,0.1C157.1,4.5,157.2,4.5,157.2,4.4z
	 M163.3,4.4c-0.1,0-0.1,0-0.2,0.1C163.2,4.5,163.3,4.5,163.3,4.4z M150.2,4.6c-0.1-0.1-0.2-0.1-0.4-0.1
	C149.8,4.7,150.2,4.6,150.2,4.6z M162.9,4.5c-0.1,0-0.2,0.1-0.2,0.1C162.8,4.6,162.9,4.6,162.9,4.5z M131.9,4.6
	c-0.2,0-0.2-0.1-0.4-0.1C131.4,4.7,131.9,4.7,131.9,4.6z M119.7,4.8c-0.6,0-1.2-0.1-1.7-0.2c-0.1,0.1,0.1,0.3-0.1,0.3
	c-0.2,0-0.1-0.2-0.2-0.2c0.1,0.2-0.1,0.3-0.2,0.4c0.7,0.1,1.4-0.1,1.9,0.1C119.2,4.8,119.7,5,119.7,4.8z M122.1,4.6
	c0,0.2-0.2,0.2-0.2,0.4C122.2,5.1,122.2,4.7,122.1,4.6z M132.2,4.6c-0.1,0-0.2,0.1-0.2,0.1C132.1,4.7,132.2,4.7,132.2,4.6z
	 M135.2,4.7c-0.1-0.1-0.3-0.1-0.4-0.1c0,0.1,0.1,0.1,0.1,0.2C135,4.8,135.1,4.8,135.2,4.7z M137.6,4.7c-0.1,0-0.1-0.1-0.2-0.1
	c0,0.1,0,0.1,0,0.2C137.5,4.8,137.5,4.8,137.6,4.7C137.6,4.8,137.6,4.8,137.6,4.7z M121.7,4.8c-0.2,0.2-0.5,0.1-0.6-0.1
	c0,0.1-0.2,0.1-0.2,0.2c0.3,0,0.9,0.2,1,0C121.7,5,121.7,4.9,121.7,4.8z M127.1,5c-0.3-0.1-0.4,0.1-0.7-0.2c0,0.2-0.3,0.1-0.3,0.3
	c0.3,0.1,0.6,0.1,0.8,0.2C126.8,5,127.1,5.1,127.1,5z M136.5,4.8C136.6,5.1,136.6,4.6,136.5,4.8L136.5,4.8z M141.7,5.1
	c0-0.1,0-0.1,0.1-0.1s0.1,0.1,0.1,0.1c-0.1-0.4-0.4-0.3-0.7-0.2C141.2,5.2,141.5,4.9,141.7,5.1z M140.8,5.1c0-0.1,0.2-0.3-0.1-0.3
	C140.8,4.9,140.7,5.1,140.8,5.1z M142.3,5.1c0.1-0.1,0.2-0.3-0.1-0.2C142.3,4.9,142.2,5.1,142.3,5.1z M127.6,4.9
	c0,0.2-0.3,0.1-0.3,0.2c0.2,0.1,0.2,0.1,0.4,0C127.7,5,127.7,4.9,127.6,4.9z M144,4.9c0.2,0.2-0.1,0.4,0.2,0.4
	C144.3,5.2,144.2,4.9,144,4.9z M152.3,4.9c-0.1,0-0.1,0-0.2,0.1C152.2,4.9,152.3,5,152.3,4.9z M152.6,5c0.1,0.1,0.2,0.1,0.4,0.1
	C153,4.8,152.6,4.9,152.6,5z M120.6,5c0.1,0,0.1,0,0.2-0.1C120.7,5,120.6,5,120.6,5z M127.8,5c0.3,0.3,1,0.3,1.7,0.3
	c0-0.1,0-0.2,0-0.3C129,5.3,128.2,4.9,127.8,5z M153,5.1c0.1,0,0.1,0,0.2-0.1C153.1,5,153,5,153,5.1z M130.3,5.3
	c0.7,0,1.1,0.1,1.6,0.1C131.7,4.9,130.7,5.1,130.3,5.3z M10.8,5.2c0,0,0.2,0,0.2,0.1C11.2,5.1,10.8,5.1,10.8,5.2z M143.4,5.3
	C143.5,5.5,143.6,5,143.4,5.3L143.4,5.3z M134.1,5.5C134,5.5,134,5.5,134.1,5.5c0,0,0.1-0.1,0-0.2c0,0,0,0.1-0.1,0.1
	c0.2-0.2-0.1-0.1-0.3-0.1C133.7,5.4,134,5.6,134.1,5.5z M144.3,5.3C144.3,5.6,144.3,5.1,144.3,5.3L144.3,5.3z M144.7,5.4
	c0.1,0,0.2-0.1,0.3-0.1C144.8,5.3,144.7,5.3,144.7,5.4z M8.5,5.3c-0.1,0-0.3,0-0.4,0c0,0.1,0,0.1,0,0.1C8.2,5.4,8.5,5.5,8.5,5.3z
	 M117.6,5.6c0.1,0,0.1-0.1,0.2-0.1c0,0.1,0,0.1,0.1,0.1c0.1-0.2-0.1-0.2-0.3-0.2C117.6,5.4,117.6,5.5,117.6,5.6z M136.4,5.4
	c0-0.1,0-0.1-0.1-0.1c0,0.1,0,0.2,0,0.2c0.3,0,0.9,0.2,1,0c-0.2,0-0.2-0.2-0.4-0.2C136.5,5.3,136.6,5.4,136.4,5.4z M134.4,5.6
	c0.2,0,0.3,0,0.4-0.1c-0.1,0-0.1-0.1-0.1-0.1c0.1,0.2-0.3-0.1-0.3,0.1C134.4,5.5,134.4,5.5,134.4,5.6z M143.1,5.5
	c0.4,0,0.5,0.3,0.7,0.5c-0.1-0.2,0.2-0.1,0.3-0.2C143.7,5.7,143.5,5.2,143.1,5.5z M150,5.6C150.1,5.8,150.1,5.3,150,5.6L150,5.6z
	 M121.9,5.6c0,0.1-0.1,0.1-0.1,0.2C122,5.9,122,5.5,121.9,5.6z M137.5,5.6c-0.1,0-0.2,0-0.2,0.1C137.4,5.6,137.5,5.6,137.5,5.6z
	 M139.8,5.6c-0.2,0-0.5-0.1-0.5,0.1C139.6,5.6,139.7,5.8,139.8,5.6z M140.6,5.7c-0.1-0.1-0.3-0.1-0.4,0.1c0.1,0,0.2,0.1,0.3,0.1
	C140.5,5.8,140.6,5.7,140.6,5.7z M122.9,5.8c0.1,0,0.1,0.1,0.2,0.1c0.1-0.2,0.2,0.1,0.3,0c0.2-0.2,0.7,0.2,0.9-0.1
	C123.6,5.8,123.2,5.5,122.9,5.8z M145,5.7C145,6,145,5.5,145,5.7L145,5.7z M151.6,5.7C151.5,6,151.9,5.7,151.6,5.7L151.6,5.7z
	 M11.7,5.7c-0.5,0-0.7-0.1-0.9,0.1C11.1,5.8,11.6,5.9,11.7,5.7z M122.3,5.7c0,0-0.2,0.2,0,0.2C122.2,5.9,122.5,5.8,122.3,5.7z
	 M124.9,5.9c0.2-0.1,0.3,0.1,0.4,0.1c0-0.1,0-0.1,0.1-0.2C125.2,5.7,124.9,5.8,124.9,5.9z M128.8,5.7C128.6,5.9,129.1,5.9,128.8,5.7
	L128.8,5.7z M144.2,5.8C144,6,144.4,5.6,144.2,5.8L144.2,5.8z M120.2,5.8C120,6,120.4,5.7,120.2,5.8L120.2,5.8z M128.5,5.8
	C128.5,6.1,128.5,5.6,128.5,5.8L128.5,5.8z M130.8,5.9C130.9,6.1,130.9,5.7,130.8,5.9L130.8,5.9z M150.6,5.9c-0.1-0.1-0.2,0-0.3,0.1
	C150.5,6,150.6,6.1,150.6,5.9z M137.3,6.2c0-0.1,0-0.2-0.1-0.3c-0.1,0-0.2,0-0.2,0C137.1,6.1,137.2,6.1,137.3,6.2z M151,6.1
	c0-0.1,0-0.2,0-0.2c-0.1,0-0.2,0-0.3,0C150.7,6.1,150.8,6.1,151,6.1z M8.3,6.2c0-0.1,0.1-0.1,0-0.2C8.3,6.1,8.1,6.2,8.3,6.2z
	 M134.2,6.4c0.3-0.4,1.2-0.1,1.4-0.2c0-0.4-1.2-0.2-1.9-0.2C133.9,6.2,134.1,6.2,134.2,6.4z M132.4,6.8c-0.1-0.2,0.1-0.4-0.1-0.5
	C132.4,6.6,132.1,6.8,132.4,6.8z M131.9,6.5c-0.1,0-0.2,0-0.3,0c-0.1,0.2,0.1,0.2,0,0.3c0.1,0,0.2,0,0.3,0
	C131.9,6.7,131.9,6.6,131.9,6.5z M124.6,6.5c-0.1,0-0.2,0-0.2,0.1C124.5,6.6,124.6,6.6,124.6,6.5z M8.7,6.8c0-0.1-0.1-0.2-0.2-0.2
	C8.4,6.7,8.1,6.7,8,6.8C8.2,6.9,8.4,6.8,8.7,6.8z M130.3,6.7c-0.1,0-0.1,0-0.2,0c0,0.1,0,0.1,0,0.1c0.1,0,0.1,0,0.2,0
	C130.3,6.7,130.3,6.7,130.3,6.7z M6.2,6.7c-0.1,0-0.1,0-0.1,0.1C6.1,6.8,6.2,6.8,6.2,6.7z M127.6,6.7c-0.1,0.1-0.3,0.3,0.1,0.3
	C127.6,6.9,127.7,6.7,127.6,6.7z M128.5,7c0-0.1,0-0.4-0.1-0.2c0,0.1,0,0.2-0.1,0.3c0.7,0.2,1.4,0,1.7,0.2
	C129.8,6.8,129.2,7.2,128.5,7z M157.5,6.8C157.2,6.6,157.3,7,157.5,6.8L157.5,6.8z M128.2,6.8c0,0.1-0.1,0.1-0.1,0.2
	c-0.1,0-0.4-0.1-0.4,0.1c0.2,0.2,0.2,0.1,0.5,0.1C128.2,7,128.3,6.8,128.2,6.8z M157.6,6.9c0.2,0,0.3,0,0.4,0.1
	C158.1,6.7,157.5,6.9,157.6,6.9z M147.7,7c0-0.1-0.1-0.2-0.2-0.2C147.6,6.9,147.6,7,147.7,7z M158.3,7c0.2,0,0.2,0.2,0.4,0.1
	C158.8,6.9,158.4,6.9,158.3,7z M162.2,7C162.3,7.2,162.3,6.8,162.2,7L162.2,7z M135,7c-0.1,0-0.2,0-0.2,0.1C134.9,7.1,135,7.1,135,7
	z M159,7.2c0.7,0.2,1.7,0.5,2.4,0.5c-0.8-0.3-1.8-0.3-2.4-0.8C159.1,7.1,159.1,7.2,159,7.2z M130.5,7.1c0,0.2,0.4,0.4,0.4,0.1
	C130.6,7.2,130.6,7,130.5,7.1z M131.4,7.2c-0.3,0-0.5-0.3-0.5,0.1C131.2,7.3,131.4,7.3,131.4,7.2z M131.6,7.2
	C131.4,7.4,131.8,7.1,131.6,7.2L131.6,7.2z M132.5,7.4c0-0.1,0-0.1,0-0.2c-0.2,0.2-0.5-0.2-0.6,0.1C132.1,7.4,132.2,7.3,132.5,7.4z
	 M133.7,7.5c0.1-0.1,0.1-0.3-0.1-0.3C133.6,7.3,133.5,7.5,133.7,7.5z M133,7.3C133.1,7.6,133.1,7.1,133,7.3L133,7.3z M140.9,8
	c0.1,0,0.3,0,0.3-0.1c-0.3-0.1-0.3-0.4-0.5-0.6c-0.3,0.1-0.5-0.2-0.6,0.1c0.6,0.2,0.4,0.1,0.3,0.4c0.2,0,0.2,0.1,0.4,0.1
	c0-0.1,0-0.2,0.1-0.2C140.8,7.8,140.9,7.8,140.9,8z M153.9,7.5c0,0.2,0.2,0.2,0.3,0.2C154.2,7.5,153.9,7.6,153.9,7.5z M153,7.6
	c0.1,0,0.4,0.1,0.4-0.1C153.2,7.5,153.1,7.6,153,7.6z M149.9,7.7c-0.1,0.1,0.3,0.1,0.2,0C150.1,7.6,149.9,7.6,149.9,7.7z M155.9,7.8
	C156,8,156,7.6,155.9,7.8L155.9,7.8z M142.7,8C142.1,7.9,142.4,8.2,142.7,8L142.7,8z M132.6,8.1C132.4,8.3,132.8,8,132.6,8.1
	L132.6,8.1z M133,8.1c-0.1,0-0.1-0.1-0.3-0.1C132.6,8.2,133,8.2,133,8.1z M2.2,8.4c-0.1,0-1.4-0.2-1.4,0C0.8,8.4,2.1,8.5,2.2,8.4z
	 M117.7,8.3C117.6,8.6,118,8.3,117.7,8.3L117.7,8.3z M118.8,8.4C118.8,8.6,118.8,8.1,118.8,8.4L118.8,8.4z M131.5,8.8
	c-0.8,0-1.4-0.2-2.2-0.2c0.3,0.4,1.4,0.3,1.7,0.6c0.1-0.3,0.4,0,0.6,0c0-0.2,0.3-0.1,0.5-0.2c0,0.1,0,0.2,0.1,0.2
	c0.9-0.2,2.3,0.6,3.1,0.2c0,0.1,0,0.2,0.1,0.2c0.3-0.4,1.1,0.1,1.6-0.1c0,0.1,0.1,0.1,0.1,0.2c0.3-0.2,0.5-0.1,0.8,0.1
	c-0.1-0.2,0-0.4-0.1-0.5c-0.1-0.1-0.7,0.1-0.9-0.2c-0.2,0-0.3,0.2-0.6,0.2c-0.3-0.3-0.7-0.1-1-0.1c-0.5,0-0.9-0.2-1.5-0.3
	c-0.4-0.1-0.8,0.2-1.4,0.2C132.1,9,131.8,8.8,131.5,8.8z M142.7,8.8c0.1-0.2-0.2-0.2-0.4-0.2C142.2,8.9,142.6,8.6,142.7,8.8z
	 M145.8,9.1C146,8.8,145.6,8.9,145.8,9.1L145.8,9.1z M145.9,8.9c0,0.1,0,0.1,0,0.1c0.1,0,0.1,0,0.2,0c0-0.1,0-0.1,0-0.1
	C146,8.9,146,8.9,145.9,8.9z M147.5,9.2c0.1-0.3-0.3-0.4-0.5-0.3C147.2,9,147.2,9.2,147.5,9.2z M151.9,9.3
	C152.1,9.6,152.1,9.1,151.9,9.3L151.9,9.3z M150.1,9.5C150.3,9.7,150.2,9.3,150.1,9.5L150.1,9.5z M151.5,9.5c-0.1,0-0.1,0-0.2,0
	c0,0.1,0,0.2,0,0.2C151.5,9.7,151.5,9.6,151.5,9.5z M125.2,9.8c0.3,0.1,0.5-0.1,0.4-0.3C125.3,9.5,125.2,9.6,125.2,9.8z M143.9,9.6
	C144,9.8,144,9.3,143.9,9.6L143.9,9.6z M164.2,9.7c0.1-0.2,0.5,0.3,0.6,0c-0.2-0.1-0.5-0.1-0.6-0.2C164.2,9.5,164,9.7,164.2,9.7z
	 M126.6,9.6C126.5,10,126.9,9.7,126.6,9.6L126.6,9.6z M149.5,9.8c0,0.2,0.1,0.4,0.2,0.5C149.8,10.2,149.7,9.9,149.5,9.8z
	 M161.1,10.6c0-0.2,0.3-0.1,0.4-0.2c-0.1,0-0.1-0.2-0.4-0.1c0,0.1,0,0.2-0.1,0.2c-0.3,0.1-0.3-0.2-0.3-0.4c-0.2-0.1-0.4-0.1-0.6-0.2
	c-0.1,0.4,0.5,0.2,0.4,0.6C160.8,10.5,160.9,10.6,161.1,10.6z M150.6,10.1c0,0.1,0,0.1,0.1,0.2C150.6,11,151,10.2,150.6,10.1z
	 M165.8,10.1c0.1,0.2-0.2,0.1-0.2,0.2c0.1,0.1,0.5,0.2,0.6,0C165.9,10.5,166.1,10.1,165.8,10.1z M151.6,10.8c0-0.1,0-0.2,0-0.4
	c-0.3,0.1-0.2-0.2-0.3-0.2c0,0.1-0.1,0.1-0.2,0.1c0,0.2,0.1,0.2,0,0.4C151.4,10.8,151.4,10.7,151.6,10.8z M166.2,10.4
	c0.2-0.1,0.2,0.1,0.4,0.1c0-0.1,0-0.1,0-0.1C166.6,10.3,166.3,10.4,166.2,10.4z M151.6,10.4C152,10.6,152,10.2,151.6,10.4
	L151.6,10.4z M128.1,10.4c0,0.2-0.1,0.2-0.2,0.3c0.7,0.2,1,0,1.7,0.1c0.3,0,0-0.1-0.1-0.1c-0.3,0-0.4-0.1-0.8-0.1
	c0.1-0.2-0.1-0.2-0.2-0.2C128.4,10.5,128.3,10.6,128.1,10.4z M150.9,10.6c0.1,0,0.1,0,0.2,0c0-0.1,0-0.1,0-0.2c-0.1,0-0.1,0-0.2,0
	C151,10.5,150.9,10.5,150.9,10.6z M149.1,10.6c0.2,0.1,0.1,0.3,0.3,0.3c0.1-0.1,0.1-0.2,0.1-0.4C149.3,10.5,149,10.4,149.1,10.6z
	 M126.4,10.7c0.2,0,0.2-0.1,0.3,0C126.8,10.6,126.3,10.6,126.4,10.7z M152.7,10.7c-0.1,0-0.1-0.1-0.2-0.1c0,0.2-0.2,0.4,0.1,0.5
	C152.6,11,152.8,10.9,152.7,10.7z M168.7,10.7c0,0.1,0,0.1,0,0.1c0.1,0,0.1,0,0.2,0c0-0.1,0-0.1,0-0.1
	C168.8,10.7,168.7,10.7,168.7,10.7z M137.8,11.1c0-0.1,0-0.2,0.1-0.2c-0.1,0-0.1,0-0.2,0C137.6,11,137.7,11.1,137.8,11.1z M144.5,11
	c0.1,0,0.1,0,0.1-0.1C144.6,11,144.5,11,144.5,11z M143,11.5c0.1,0.1,0.1,0.2,0.3,0.2c0-0.3,0.2,0,0.3,0.1c0-0.1,0.2-0.1,0.2-0.2
	c-0.3-0.2-0.7-0.1-0.9-0.4c0,0.1,0,0.2-0.1,0.2c-0.3-0.1-0.9,0-1.2,0.1c-0.2-0.1-0.1-0.3-0.3-0.4c-0.1,0.2-0.1,0.2-0.2,0.1
	c-0.5,0.5-1.2-0.1-1.7,0.2c0.1,0.2,0.4-0.2,0.4,0.2c0.1,0,0.1-0.1,0.2-0.1c0,0.2,0.2,0.2,0.4,0.2c0.2-0.2,0.6,0.1,1.1,0.1
	C141.7,11.3,142.6,11.8,143,11.5z M136.9,11.2C137,11.4,137,11,136.9,11.2L136.9,11.2z M144.7,11.2C144.8,11.4,144.8,11,144.7,11.2
	L144.7,11.2z M137.1,11.2C137.2,11.5,137.2,11,137.1,11.2L137.1,11.2z M139.2,11.3C139.3,11.5,139.4,11.1,139.2,11.3L139.2,11.3z
	 M148.7,11.8c-0.5-0.1-0.8-0.3-1.1-0.5c0.1,0.3-0.2,0.3-0.2,0.5c1,0,1.8,0.2,2.8,0.1c-0.5-0.1-0.7-0.5-1.3-0.5
	C148.8,11.6,148.9,11.8,148.7,11.8z M146,11.4C146,11.4,146,11.4,146,11.4C146,11.4,146,11.4,146,11.4z M146,11.5L146,11.5
	C146,11.4,146,11.4,146,11.5L146,11.5z M146,11.5C146,11.5,146,11.5,146,11.5C146,11.5,146,11.5,146,11.5z M146,11.5
	C146,11.6,146,11.6,146,11.5L146,11.5z M146,11.4L146,11.4C146,11.4,146,11.4,146,11.4z M157.3,11.4c0.1-0.1,0.2,0.2,0.3,0
	C157.5,11.4,157.3,11.3,157.3,11.4z M144.3,11.4c-0.2,0.1,0.1,0.3,0.2,0.1C144.4,11.6,144.4,11.5,144.3,11.4z M146.4,11.6
	C146.1,11.4,146.2,11.8,146.4,11.6L146.4,11.6z M153.3,11.6c0,0.2-0.7,0.5-0.2,0.6c0-0.1,0-0.2,0.1-0.2c0.2,0.1-0.1,0.3,0.2,0.3
	c0.1-0.1,0-0.4,0.4-0.3C153.6,11.7,153.5,11.7,153.3,11.6z M146.5,11.6c-0.1,0.2,0.4,0.3,0.4,0.1C146.8,11.6,146.6,11.7,146.5,11.6z
	 M150.9,11.7c0.1,0.5-0.6,0-0.7,0.3c0.5,0.1,2.1,0.1,1-0.1c0-0.1,0-0.1,0-0.2C151,11.9,151.2,11.8,150.9,11.7z M133.4,12.1
	c0-0.1,0-0.2-0.1-0.2C133.3,12,133.2,12.1,133.4,12.1z M154.1,12.1c0.2,0,0.1,0.2,0.2,0.3c0.6,0.1,0.6,0.1,1.3,0.1
	c0.1-1-1-0.2-1.5-0.6c-0.1,0.2-0.3,0.3-0.6,0.4c0.2,0,0.3,0.1,0.5,0.1C154,12.2,154,12.1,154.1,12.1z M161.7,12
	C162,12.1,161.9,11.8,161.7,12L161.7,12z M166,11.9c-0.1,0.1-0.1,0.2,0.1,0.2C166.2,12.1,166.2,11.9,166,11.9z M136.4,12.4
	c0-0.2,0.1-0.2-0.1-0.3c-0.1,0.3-0.5,0-0.6-0.1c0,0.1-0.1,0.1-0.1,0.2c0-0.1-0.4,0-0.5-0.1c0-0.1-0.2-0.4-0.3-0.2
	C134.9,12.7,136,12.4,136.4,12.4z M152.2,12C151.9,11.8,152.1,12.2,152.2,12L152.2,12z M157.5,12.3c0,0.2,0.1,0.3,0.2,0.5
	c0.4-0.1,0.9,0.1,1,0.4c0.3-0.1,0.5-0.1,0.6-0.1c-0.2-0.1-0.4,0-0.4-0.4c0.1,0,0.1-0.1,0.1-0.1c0.3,0.1,0.4,0.1,0.8,0.1
	c0.1-0.1,0-0.3-0.1-0.4c-0.1,0.3-0.2-0.3-0.3,0c0.1,0,0.1,0.1,0.1,0.2c-0.5-0.1-1.3,0.1-1.1-0.5c-0.3,0-0.3,0.2-0.6,0.2
	c0.1,0,0.3,0,0.3,0.1C157.9,12.2,157.7,12.3,157.5,12.3z M142,12.2C142.1,12.4,142.1,12,142,12.2L142,12.2z M156.1,12.1
	c-0.1,0-0.1,0-0.2,0c0,0.1,0,0.1,0,0.1c0.1,0,0.1,0,0.2,0C156.1,12.2,156.1,12.2,156.1,12.1z M159.2,12.2
	C159.3,12.4,159.3,12,159.2,12.2L159.2,12.2z M162.8,12.1c-0.1,0.2,0.7,0.2,0.7,0C163.2,12.2,163.2,12.2,162.8,12.1z M167.2,12.2
	C167.3,12.4,167.3,12,167.2,12.2L167.2,12.2z M139.8,12.5c-0.3-0.1-0.4,0-0.6-0.2c-0.1,0.2-0.5,0.1-0.6-0.1
	c-0.3,0.2-1.2-0.2-1.5,0.1c0.3,0.4,1.4,0.5,1.7,0.4c0,0.1,0.1,0.2,0.2,0.2c0.1-0.3,0.2,0.3,0.3-0.1c0,0.1,0,0.2,0.1,0.2
	c0-0.1,0.1-0.1,0.2-0.2c0,0.1,0,0.1,0,0.2C139.7,12.9,139.7,12.7,139.8,12.5z M160.1,12.3c0.1,0,0.2,0,0.2-0.1
	C160.3,12.3,160.1,12.2,160.1,12.3z M161.3,12.3c0,0.2,0.2,0.3,0.3,0.5c0-0.2,0.4-0.1,0.5-0.4C161.8,12.4,161.5,12.5,161.3,12.3z
	 M144.8,12.4c-0.1,0-0.1,0-0.2,0c0,0.1,0,0.1,0,0.1c0.1,0,0.1,0,0.2,0C144.8,12.5,144.8,12.5,144.8,12.4z M161.9,12.8
	C162,13.1,162,12.6,161.9,12.8L161.9,12.8z M157,13.1c-0.1,0-0.1,0-0.2,0.1C156.9,13.1,157,13.1,157,13.1z M160.1,13.2
	c0.1,0,0.1,0,0.1-0.1C160.2,13.1,160.1,13.1,160.1,13.2z M160.3,13.2c0.1,0,0.1,0,0.1-0.1C160.4,13.2,160.3,13.2,160.3,13.2z
	 M84.5,13.2c0,0.1-0.1,0.1,0,0.2C84.5,13.3,84.6,13.3,84.5,13.2z M161.1,13.5c0.3,0-0.1-0.3-0.2-0.2C161.1,13.4,161,13.5,161.1,13.5
	z M141.8,13.7c-0.2,0.1-1.2,0.1-0.9-0.3c-0.3,0-0.1,0.3-0.4,0.3c-0.2-0.1-0.6-0.2-0.6-0.3c-0.1,0.1,0.1,0.3-0.1,0.3
	c-0.2,0-0.3-0.1-0.4-0.2c-0.1,0.3,0.3,0.2,0.2,0.4c0.2-0.1,0.3,0,0.4,0.1c-0.1-0.3,0.8-0.2,0.9-0.1c0-0.2,0.2-0.2,0.4-0.2
	c0.2,0.2,0.4,0.2,0.6,0.2C142.1,13.9,141.9,13.8,141.8,13.7z M141.1,14C141.1,14,141.1,14,141.1,14C141.1,14,141.1,14,141.1,14z
	 M140.3,13.4C140.5,13.6,140.4,13.2,140.3,13.4L140.3,13.4z M83.4,13.5C83.5,13.8,83.5,13.3,83.4,13.5L83.4,13.5z M143.3,13.5
	c0-0.1-0.1-0.1-0.2,0C143.2,13.5,143.3,13.6,143.3,13.5z M142.9,13.5c0.1,0,0.2,0.1,0.3,0.1C143.2,13.5,142.9,13.4,142.9,13.5z
	 M154.1,14.6c0.2,0,0.2,0.2,0.2,0.4c0.4-0.1,0.5,0.1,0.8,0.1c0.1-0.3-0.2-0.8-0.4-1.1C154.6,14.4,154.4,14.4,154.1,14.6z
	 M154.7,13.5c-0.3,0-0.4,0.6-0.1,0.6C154.6,13.9,154.8,13.6,154.7,13.5z M137.5,13.9c0-0.2-0.2-0.2-0.2-0.4c-0.2,0-0.2,0.1-0.3,0
	c-0.1,0.1-0.1,0.3-0.2,0.4C137.1,13.9,137.1,13.9,137.5,13.9z M138.6,14.4c-0.2-0.2-0.4-0.6-0.2-0.9c-0.1,0-0.1,0-0.2,0
	c0,0.2,0,0.3-0.2,0.3C138.4,14,138.4,14.5,138.6,14.4z M156.5,13.6C156.6,13.8,156.6,13.4,156.5,13.6L156.5,13.6z M87,13.8
	c0.3,0.1,0.4,0.3,0.6,0.4c0.3-0.1,0.6,0,0.8-0.2C88.1,13.7,87.6,13.7,87,13.8z M92.1,14c0.9,0.4,2.9,0,4.1-0.2
	C95,13.7,93.1,13.8,92.1,14z M138.9,13.7c0,0.1-0.1,0.1-0.2,0.1c0,0.1,0,0.2,0,0.3c0.3,0.1,0.1-0.3,0.3-0.1
	C139,13.8,139,13.7,138.9,13.7z M158.9,14.3c0,0.2,0.1,0.4-0.2,0.4c-0.3-0.3-0.4,0-0.8-0.2c0-0.2,0.1-0.1,0.1-0.3
	c-0.2-0.1-0.2,0-0.4-0.1c0,0.2,0.2,0.4-0.2,0.4c0-0.2,0.1-0.4-0.1-0.5c-0.3,0.1-0.4,0.1-0.6-0.1c0-0.1,0-0.2-0.1-0.1
	c-0.2,0.3,0.1,0.3,0,0.5c-0.5,0.1-0.9,0-1.3,0.3c0.3,0,0.1,0.4,0.4,0.4c0.2-0.5,1.2,0.6,1.8,0.1c0.1,0.6,0.8,0.4,1.1,0.4
	c0-0.3-0.6-0.1-0.8-0.2c0.1-0.1,0.5-0.1,0.6-0.2c0.1,0.2,0.2,0.2,0.5,0.2c0.1-0.1,0.1-0.3,0.2-0.4c0.7-0.1,1,0.2,1.4-0.1
	c-0.1,0-0.1-0.1-0.1-0.1c-0.5,0.1-0.8-0.2-1-0.2C159.2,14.3,159,14.6,158.9,14.3z M138,13.9C137.8,14.1,138.2,13.7,138,13.9
	L138,13.9z M82.2,13.9c-0.1-0.1-0.3-0.1-0.3,0.1C82.1,14.1,82.2,14,82.2,13.9z M88.9,13.9L88.9,13.9L88.9,13.9
	C88.9,13.9,88.9,13.9,88.9,13.9z M89,13.9L89,13.9C89,13.9,89,13.9,89,13.9z M88.9,14C88.9,14,88.9,14,88.9,14
	C88.9,14,88.9,14,88.9,14z M88.9,14L88.9,14L88.9,14z M89,13.9L89,13.9L89,13.9z M89.6,13.9c0,0.1,0,0.2,0.2,0.2
	C89.8,14,89.7,13.9,89.6,13.9z M89.9,13.9C90,13.9,90,13.9,89.9,13.9C89.9,14,89.9,13.9,89.9,13.9c-0.1,0.1,0,0.1,0,0.2
	c0.2,0,0.3,0,0.5,0c0-0.1,0-0.2,0.1-0.2C90.2,14,90,13.8,89.9,13.9z M91,14.2c0.1-0.1,0.1-0.2,0.2-0.3c-0.1,0.1-0.4,0-0.5,0.1
	C90.9,14,90.7,14.3,91,14.2z M79.5,14.2C79.3,14.4,79.8,14.3,79.5,14.2L79.5,14.2z M82.2,14.2c-0.1,0.2,0.2,0.2,0.2,0.3
	C82.4,14.3,82.3,14.2,82.2,14.2z M152.9,14.3c-0.5-0.5-0.3,0.4-0.9,0.3c-0.1,0.2,0.1,0.3,0.2,0.4c0.3-0.1,0.4-0.1,0.7,0
	c0.1-0.3-0.2-0.3-0.2-0.5C152.6,14.4,152.7,14.2,152.9,14.3z M3.3,14.3C3.4,14.6,3.4,14.1,3.3,14.3L3.3,14.3z M85.5,14.5
	c0.1-0.2-0.4-0.2-0.4-0.1C85.3,14.5,85.3,14.3,85.5,14.5z M138.9,14.4C138.9,14.6,138.9,14.2,138.9,14.4L138.9,14.4z M140.5,14.4
	c-0.1,0-0.1-0.1-0.2-0.1C140.2,14.5,140.6,14.5,140.5,14.4z M79.5,14.4c0,0.1,0,0.2,0.2,0.2c0,0,0-0.1,0.1-0.1c0-0.1,0-0.1-0.1-0.1
	c0,0,0,0.1-0.1,0.1C79.6,14.5,79.6,14.4,79.5,14.4z M155.1,14.6C155.3,14.9,155.3,14.4,155.1,14.6L155.1,14.6z M161.3,14.6
	c0,0.1-0.4,0-0.3,0.2c0.3-0.1,0.2,0.1,0.4,0.1C161.4,14.7,161.4,14.6,161.3,14.6z M146.1,14.6c0,0.1,0,0.1,0,0.1c0.1,0,0.1,0,0.2,0
	c0-0.1,0-0.1,0-0.1C146.2,14.6,146.2,14.6,146.1,14.6z M148.8,14.7C148.8,14.7,148.8,14.7,148.8,14.7
	C148.7,14.7,148.7,14.7,148.8,14.7C148.8,14.7,148.8,14.7,148.8,14.7z M148.8,14.7C148.8,14.7,148.7,14.8,148.8,14.7
	C148.7,14.8,148.8,14.7,148.8,14.7z M148.7,14.8C148.7,14.8,148.7,14.8,148.7,14.8C148.7,14.8,148.7,14.8,148.7,14.8z M148.7,14.8
	C148.7,14.9,148.7,14.9,148.7,14.8L148.7,14.8z M148.8,14.7L148.8,14.7L148.8,14.7z M149,14.6c0.1,0.2,0.3,0.1,0.6,0.3
	C149.6,14.7,149.2,14.8,149,14.6z M141,14.8C141.1,15,141.1,14.5,141,14.8L141,14.8z M153.2,15c0.2,0.1,0.2-0.3,0.1-0.3
	C153.3,14.9,153.2,14.9,153.2,15z M140.5,14.8C140.4,15.2,140.8,14.8,140.5,14.8L140.5,14.8z M83.7,14.9
	C83.2,14.8,83.4,15.1,83.7,14.9L83.7,14.9z M141.3,14.9c-0.1,0-0.2,0-0.2,0.1C141.2,14.9,141.3,14.9,141.3,14.9z M144.1,15
	C144.2,15.2,144.3,14.8,144.1,15L144.1,15z M141,15.1c-0.1,0-0.3-0.2-0.3,0C140.9,15,141,15.2,141,15.1z M149.5,15.1
	c-0.1,0.1-0.2,0.1-0.1,0.3c0.1,0,0.2-0.1,0.3-0.1C149.5,15.2,149.6,15.1,149.5,15.1z M150.7,15.2C150.7,15.2,150.7,15.2,150.7,15.2
	C150.7,15.2,150.7,15.2,150.7,15.2z M150.7,15.1C150.7,15.1,150.7,15.1,150.7,15.1L150.7,15.1z M150.7,15.1
	C150.7,15.1,150.7,15.1,150.7,15.1C150.7,15.1,150.7,15.1,150.7,15.1C150.7,15.1,150.7,15.1,150.7,15.1z M150.7,15.2
	C150.7,15.3,150.7,15.3,150.7,15.2L150.7,15.2z M150.7,15.2C150.7,15.2,150.7,15.2,150.7,15.2C150.7,15.2,150.7,15.2,150.7,15.2z
	 M150.9,15.2C150.9,15.3,150.9,15.3,150.9,15.2C150.9,15.3,150.9,15.3,150.9,15.2z M150.9,15.2C150.9,15.2,150.9,15.2,150.9,15.2
	C150.9,15.2,150.9,15,150.9,15.2z M78.5,15.2C78.2,15,78.3,15.4,78.5,15.2L78.5,15.2z M143.2,15.2c-0.1,0-0.2,0-0.2,0.1
	C143,15.3,143.2,15.3,143.2,15.2z M150,15.3C150.1,15.5,150.1,15.1,150,15.3L150,15.3z M152.5,15.3c-0.1,0.2-0.3,0.1-0.2,0.4
	c0.3,0,0.7,0.1,0.8-0.1C152.7,15.6,152.8,15.3,152.5,15.3z M141.1,15.4C140.9,15.2,141,15.6,141.1,15.4L141.1,15.4z M84.7,15.6
	c0.2,0.1,0.5-0.1,0.6-0.2C85,15.4,84.7,15.3,84.7,15.6z M149.5,16.2c-1.1,0-2.8-0.2-3.7-0.4c-0.3,0.1-0.7,0.1-1.1,0
	c0-0.3-0.1-0.3-0.4-0.4c-0.1,0.4,0.3,0.1,0.3,0.4c-0.3,0.3-1-0.2-1.3,0.2c0.6,0,0.7,0.1,1.3,0.1c0.2,0,0.1,0.2,0.3,0.2
	c1.5,0.2,2.7,0,4.1,0.3c0.4-0.2,0.9-0.2,1.5-0.2C150.2,15.9,149.8,16.2,149.5,16.2z M137.1,15.6c0.1,0,0.1,0.1,0.2,0
	C137.2,15.6,137.1,15.6,137.1,15.6z M78,15.7c-0.1,0-0.4-0.1-0.3,0.1C77.8,15.9,77.9,15.8,78,15.7z M78.4,15.9c0.1,0,0.1,0,0.2-0.1
	C78.5,15.8,78.4,15.8,78.4,15.9z M155.3,16.2c-0.5,0.2-1.1-0.4-1.4-0.1c0.4,0.1,1,0.1,1.3,0.4c0-0.2,0.1,0,0.2-0.1
	C155.4,16.4,155.3,16.3,155.3,16.2z M87.8,16.1c0,0.1-0.1,0.1-0.1,0.1c0.2,0.1,0.4,0.1,0.5-0.1C88,16.1,88,16.2,87.8,16.1z
	 M136.7,16.2C136.9,16.4,136.8,16,136.7,16.2L136.7,16.2z M150.5,16.2c0.1,0,0.1,0,0.2,0c0-0.1,0-0.1,0-0.1c-0.1,0-0.1,0-0.2,0
	C150.5,16.1,150.5,16.2,150.5,16.2z M153.5,16.5c0-0.1,0-0.2,0-0.4c-1,0.1-1.8-0.2-2.4,0.1c0.2,0.1,0.3,0.2,0.6,0.2
	C152.1,15.9,152.7,16.6,153.5,16.5z M157.7,16.3c-0.7,0-1.3-0.2-1.9-0.2c0,0.2,0.1,0.1,0.1,0.3c0.4-0.1,0.5,0.2,0.7,0.3
	c0-0.1,0.1,0,0.2,0C156.7,16.3,157.6,16.7,157.7,16.3z M155.5,16.4C155.6,16.6,155.6,16.2,155.5,16.4L155.5,16.4z M158.8,16.5
	C158.8,16.5,158.8,16.5,158.8,16.5C158.8,16.5,158.9,16.4,158.8,16.5z M158.8,16.6C158.8,16.6,158.8,16.6,158.8,16.6
	C158.8,16.6,158.8,16.6,158.8,16.6z M159.2,16.4c-0.1,0-0.2,0.1-0.2,0.2C159.4,16.6,159,16.6,159.2,16.4z M143.4,16.6
	c-0.2,0-0.5-0.2-0.5,0C143.2,16.6,143.4,16.9,143.4,16.6z M144.8,16.5c-0.2,0.3-0.6,0.1-0.8,0.1c0.2,0.3,1,0.2,1.3,0.1
	C145,16.7,144.9,16.6,144.8,16.5z M148.8,16.8c-0.2-0.5-1-0.1-1.6-0.2c-0.1,0.3,0.4,0,0.3,0.2C148,16.9,148.3,16.6,148.8,16.8z
	 M149.4,16.6c-0.2,0-0.3-0.1-0.5-0.1C148.8,16.7,149.4,16.6,149.4,16.6z M142,16.6c-0.1,0-0.2,0-0.4,0c0.1,0.2-0.2,0.5,0.1,0.5
	C141.6,16.8,141.9,16.6,142,16.6z M142.8,16.6c-0.1,0-0.2,0.1-0.2,0.1C142.7,16.7,142.8,16.6,142.8,16.6z M145.6,16.7
	c0.1,0.1,0.3,0.1,0.3-0.1C145.7,16.6,145.6,16.5,145.6,16.7z M96.5,16.7c0-0.1-0.1-0.1-0.1,0C96.4,16.7,96.5,16.8,96.5,16.7z
	 M146.4,16.7c-0.1,0-0.2,0-0.2,0.1C146.3,16.7,146.4,16.7,146.4,16.7z M160.9,16.7c-0.1-0.1-0.4-0.1-0.4,0.1
	C160.6,16.8,160.9,16.9,160.9,16.7z M61.6,16.8c0.1,0,0.1,0,0.1-0.1C61.6,16.7,61.6,16.7,61.6,16.8z M94.8,16.8c0-0.1,0-0.1,0-0.1
	c-0.1,0-0.1,0-0.2,0c0,0.1,0,0.1,0,0.1C94.8,16.8,94.8,16.8,94.8,16.8z M159.9,16.8C160,17,160,16.6,159.9,16.8L159.9,16.8z
	 M153.2,16.8c0,0.1,0,0.2,0.1,0.2c0-0.1,0.1-0.1,0.2-0.1C153.3,16.8,153.3,16.8,153.2,16.8z M160.3,16.8
	C160.4,17.1,160.4,16.6,160.3,16.8L160.3,16.8z M75.6,16.9C75.7,17.1,75.7,16.7,75.6,16.9L75.6,16.9z M92.3,16.9
	C92.2,17.1,92.6,16.8,92.3,16.9L92.3,16.9z M141.1,17.1c0-0.1,0-0.2-0.1-0.2c0,0.1-0.1,0.1-0.2,0.1C141,17,141,17.1,141.1,17.1z
	 M162.3,16.9C161.9,16.8,162.1,17.1,162.3,16.9L162.3,16.9z M163.1,17c0,0.1-0.1,0.1-0.2,0.1c0-0.1,0-0.1-0.1-0.1
	C162.7,17.2,163.4,17.1,163.1,17z M88.3,17c0.1,0,0.1,0,0.2-0.1C88.4,17,88.3,17,88.3,17z M157.2,17.1c-0.1-0.2-0.5-0.1-0.7-0.2
	C156.6,17.3,157,17,157.2,17.1z M164.7,17.1c0,0.1,0,0.1,0,0.1c0.1,0,0.4,0.1,0.4-0.1C165,17.1,164.8,17.1,164.7,17.1z M82.3,17.3
	c0.2,0.1,0.5,0.1,0.7,0.1C83,17.1,82.4,17,82.3,17.3z M159.4,17.2c0,0.2,0.1,0.2,0.2,0.2c0-0.1,0-0.1,0.1-0.2
	C159.6,17.2,159.5,17.2,159.4,17.2z M159.2,17.3c-0.1,0-0.1,0-0.2,0.1C159.2,17.3,159.2,17.3,159.2,17.3z M63.9,17.3
	c0,0.1-0.3,0.1-0.1,0.2c0-0.2,0.1,0.1,0.3,0C64.1,17.3,63.9,17.4,63.9,17.3z M77.1,17.6c-0.4,0-0.7-0.1-1-0.1c0,0.2,0.2,0.2,0.1,0.3
	C76.5,17.7,76.9,17.9,77.1,17.6z M145,17.6C145.1,17.8,145.1,17.3,145,17.6L145,17.6z M147.9,17.6c0.1,0,0.4,0.2,0.4,0
	C148.2,17.5,147.9,17.4,147.9,17.6z M78.6,17.6c0,0,0.2,0,0.2,0.1C78.9,17.5,78.5,17.5,78.6,17.6z M152.9,17.7
	C152.7,17.9,153.1,17.5,152.9,17.7L152.9,17.7z M156.4,17.9c0-0.1,0-0.2-0.1-0.2c-0.1,0.3-0.7-0.2-0.8,0.2
	C155.8,17.8,156,17.9,156.4,17.9z M155.3,17.7c-0.1,0-0.2,0.1-0.2,0.1C155.2,17.8,155.3,17.8,155.3,17.7z M63.9,17.9
	c0.1,0,0.4,0.1,0.4-0.1C64.1,17.9,63.8,17.8,63.9,17.9z M64.6,17.9c-0.1,0-0.4-0.1-0.4,0.1C64.4,18,64.6,18,64.6,17.9z M75.3,17.9
	c0.1,0,0.1,0,0.1-0.1C75.4,17.9,75.3,17.9,75.3,17.9z M126.8,18c0.2-0.1,0.2,0.1,0.4,0.1C127.3,17.8,126.8,17.9,126.8,18z
	 M138.6,17.9c-0.1,0-0.4-0.1-0.4,0.1C138.3,17.9,138.6,18,138.6,17.9z M140.7,18c-0.2,0-0.4-0.1-0.6-0.1c0.1,0.2,0.2,0.2,0.4,0.1
	c0,0.1-0.1,0.4,0.1,0.3c0.1-0.2-0.1-0.2-0.1-0.3C140.6,18,140.7,18,140.7,18z M49.9,18.1c0.2,0,0.5,0,0.6-0.1
	C50.4,18,49.9,17.9,49.9,18.1z M142.5,18.3c0.1-0.1,0.4,0,0.4-0.1c-0.1,0-0.1,0-0.2,0c0-0.1-0.1-0.2-0.2-0.2
	C142.6,18.2,142.3,18.1,142.5,18.3z M47.8,18.1C48,18.3,47.9,17.9,47.8,18.1L47.8,18.1z M60,18.2C60.9,18.2,60.4,17.9,60,18.2
	L60,18.2z M47.5,18.1c-0.2-0.1-0.1,0.1-0.3-0.1C47.1,18.2,47.5,18.2,47.5,18.1z M141.3,18.1c-0.1,0-0.1,0-0.2,0.1
	C141.2,18.1,141.3,18.1,141.3,18.1z M149.7,18.1c0,0.2,0.6,0.2,0.7,0.1C150.1,18.2,150.1,18.1,149.7,18.1z M156,18.5
	c0.1-0.1-0.2-0.2,0-0.2c0.1,0.1,0.7,0.1,1,0c-0.3,0-1-0.1-1.5-0.1c0-0.1,0-0.1-0.1-0.1c-0.1,0.2,0.2,0.1,0.2,0.2
	c0,0.1-0.3,0-0.3,0.2c0.3,0.2,0.5,0,1,0.1C156.5,18.4,156.1,18.5,156,18.5z M44.9,18.3c-0.2,0-0.6-0.2-0.8-0.1
	C44.2,18.3,44.7,18.4,44.9,18.3z M145.4,18.3c0-0.1,0-0.1-0.1-0.1C145.2,18.2,145.2,18.3,145.4,18.3
	C145.3,18.3,145.3,18.2,145.4,18.3z M137.6,18.2c-0.1,0-0.2,0-0.2,0.1c0.1,0,0.1,0.1,0.1,0.1C137.6,18.3,137.6,18.3,137.6,18.2z
	 M151.9,18.3C152,18.5,152,18,151.9,18.3L151.9,18.3z M152.4,18.2c-0.1,0-0.2,0-0.2,0.1C152.3,18.2,152.4,18.3,152.4,18.2z
	 M68.4,18.3c0,0.1,0.1,0.1,0.2,0.1c0.1-0.3-0.5-0.2-0.4,0C68.3,18.4,68.3,18.4,68.4,18.3z M68.9,18.3c-0.1,0-0.1-0.1-0.2-0.1
	c0,0.1-0.2,0.1-0.2,0.2c0.1,0,0.2,0,0.4,0C68.9,18.4,68.9,18.4,68.9,18.3z M137.9,18.3c0.2,0.1,0.6,0.1,0.8,0
	C138.4,18.3,138.1,18.2,137.9,18.3z M154,18.3c-0.1,0.1-0.1,0.2-0.1,0.3c0.4,0-0.1,0,0,0.2c0.2,0.1,0.2-0.1,0.4-0.1
	c0-0.2,0-0.3-0.1-0.4C154.2,18.3,154.1,18.3,154,18.3z M51.4,18.4c0.1,0,0.1,0,0.2-0.1C51.5,18.3,51.4,18.3,51.4,18.4z M70,18.4
	c-0.2-0.1-0.3-0.2-0.6-0.1C69.5,18.6,69.9,18.4,70,18.4z M152.7,18.8c0.1-0.1,1.1,0.1,0.9-0.2c-0.1,0.1-0.2,0-0.4,0
	c0-0.1,0.1-0.1,0.1-0.2c-0.2-0.1-0.2,0-0.5,0c-0.1,0.2,0.3,0,0.2,0.2C152.9,18.6,152.5,18.7,152.7,18.8z M152.8,18.4
	C152.1,18.4,152.4,18.7,152.8,18.4L152.8,18.4z M154.7,18.4C154.2,18.4,154.5,18.6,154.7,18.4L154.7,18.4z M156.6,18.5
	C156.8,18.7,156.7,18.3,156.6,18.5L156.6,18.5z M152,18.8c-0.2-0.4-1.3-0.3-1.8-0.1C151,18.5,151.5,19.1,152,18.8z M161,18.6
	c-0.1,0-0.1-0.1-0.2-0.1c0,0.1,0,0.1-0.1,0.2c0.1,0,0.1,0,0.1,0C160.9,18.7,161,18.7,161,18.6z M138.9,18.6
	C139,18.8,139,18.4,138.9,18.6L138.9,18.6z M139.2,18.6c0.1,0,0.1,0.1,0.2,0.1C139.5,18.6,139.2,18.5,139.2,18.6z M155.1,18.6
	C154.9,18.8,155.3,18.5,155.1,18.6L155.1,18.6z M157.3,18.6C157.4,18.8,157.5,18.4,157.3,18.6L157.3,18.6z M157.5,18.6
	c0.1,0,0.1,0.2,0.2,0.1C157.8,18.6,157.5,18.5,157.5,18.6z M43.9,18.9c0.6-0.1,0.9-0.1,1.5-0.1C45,18.5,44.2,18.6,43.9,18.9z
	 M47.6,18.7c0.1,0,0.4,0.1,0.4-0.1C47.9,18.6,47.6,18.5,47.6,18.7z M65.1,18.7c0.1,0,0.1,0,0.2-0.1C65.2,18.6,65.1,18.6,65.1,18.7z
	 M154.4,18.7c0.1,0,0.2,0,0.2-0.1C154.5,18.6,154.4,18.6,154.4,18.7z M111.5,18.7c0.1,0,0.1,0,0.2-0.1
	C111.6,18.7,111.5,18.7,111.5,18.7z M125.8,18.7c0.1,0,0.1,0,0.1-0.1C125.8,18.7,125.8,18.7,125.8,18.7z M138.8,18.7
	c-0.1,0-0.1,0-0.1,0.1C138.7,18.7,138.8,18.7,138.8,18.7z M140.5,18.7c0.1,0,0.1,0,0.1-0.1C140.5,18.7,140.5,18.7,140.5,18.7z
	 M145.6,18.8c0.8,0,1.6,0,2-0.1c-0.7-0.1-1.9,0.1-2.5,0.1C144.6,18.8,145.4,18.8,145.6,18.8z M152.1,18.7
	C152.3,18.9,152.2,18.5,152.1,18.7L152.1,18.7z M152.5,18.7C152.3,18.5,152.3,18.9,152.5,18.7L152.5,18.7z M49.2,18.8
	C49.4,19,49.4,18.6,49.2,18.8L49.2,18.8z M71.7,18.8c-0.1-0.1-0.2-0.1-0.4-0.1C71.2,18.9,71.7,18.9,71.7,18.8z M126,18.8
	c0.4,0.1,0.7,0.3,1,0.1C126.6,18.9,126.3,18.6,126,18.8z M47.7,18.8c-0.1,0-0.1,0-0.1,0.1C47.6,18.8,47.7,18.8,47.7,18.8z
	 M139.3,18.8C139.3,18.8,139.3,18.8,139.3,18.8c-0.2,0.3,0.4,0.1,0.5,0.3c0.6-0.3,1.6,0,2.4-0.2C141.5,18.7,140,19,139.3,18.8z
	 M144.8,18.8c-0.1,0-0.2,0-0.2,0.1C144.7,18.8,144.8,18.8,144.8,18.8z M91.4,18.9c0.1,0.1,0.3,0.1,0.5,0.1
	C92,18.8,91.5,18.8,91.4,18.9z M101,18.9c0.1,0,0.1,0,0.2-0.1C101.1,18.8,101,18.8,101,18.9z M127.4,18.8c-0.1,0.2,0.4,0.2,0.4,0.1
	C127.6,18.9,127.6,18.8,127.4,18.8z M60.1,19c-0.2-0.2-0.2-0.1-0.5-0.1C59.5,19.2,60.1,19.1,60.1,19z M62,19
	c-0.6-0.1-1.5-0.3-1.9,0.1C61,19,61.7,19.3,62,19z M62,19c0.1,0,0.1,0,0.1-0.1C62.1,18.9,62,18.9,62,19z M144.7,19.1
	c-0.2,0.1,0.4,0.1,0.4,0.2c0,0.1-0.2,0.1-0.2,0.2c1.3,0.1,2.1-0.1,3.5-0.1c-0.1-0.2,0.1-0.2,0.1-0.4
	C147.3,19.1,145.7,18.9,144.7,19.1z M155,19C155.5,19.2,155.3,18.8,155,19L155,19z M47.6,19.1C47.7,19.4,47.7,18.9,47.6,19.1
	L47.6,19.1z M54.3,19.1c0.1,0,0.1,0,0.2-0.1C54.4,19.1,54.3,19.1,54.3,19.1z M68.1,19.1c-0.1,0-0.1,0-0.1,0.1
	C68,19.1,68.1,19.1,68.1,19.1z M152.3,19.1c-0.4,0-0.4,0-0.8,0c0.2,0.2-0.1,0.2-0.2,0.3c0.3,0,0.5,0,0.8,0
	C151.9,19.1,152.4,19.3,152.3,19.1z M150.3,19.2c0,0.1,0,0.1,0,0.2c0.3,0.1,0.3,0,0.6,0C150.9,19.1,150.6,19.1,150.3,19.2z
	 M151.2,19.2C151.3,19.4,151.3,19,151.2,19.2L151.2,19.2z M140.2,19.2c0.1,0,0.1,0,0.1-0.1C140.3,19.2,140.2,19.2,140.2,19.2z
	 M140.9,19.2c-0.1,0-0.1,0-0.2,0.1C140.9,19.2,140.9,19.2,140.9,19.2z M149.3,19.5c0-0.2-0.2-0.3-0.4-0.3
	C149,19.4,149.2,19.4,149.3,19.5z M77.3,19.2c0,0.1,0,0.2,0,0.2c0.7,0.1,1.9,0.1,2.4,0C78.8,19.3,78,19.3,77.3,19.2z M152.3,19.4
	c0.1,0,0.1,0,0.2-0.1C152.4,19.3,152.3,19.3,152.3,19.4z M57.5,19.4c0.1,0,0.4,0.1,0.4-0.1C57.8,19.4,57.5,19.3,57.5,19.4z
	 M97.1,19.5c-0.2,0-0.3-0.1-0.5-0.1c-0.7,0.4-2.2-0.2-3.3,0.1c-0.6-0.4-1.9,0.1-2.7-0.1c-0.1,0.3,0.2,0.2,0.5,0.2
	c-0.1,0.1-0.1,0.2,0,0.2c0.9,0.2,2.4-0.2,3.7,0c0.1-0.1,0.3-0.2,0.4-0.2c0,0.4,0.2-0.2,0.6,0c0.3,0.4,1,0.1,1.5,0.1
	C97.3,19.6,97.1,19.6,97.1,19.5z M67.9,19.5c0.1,0,0.1,0.1,0.2,0C68,19.4,67.9,19.4,67.9,19.5z M79.9,19.5c-0.1,0-0.2,0-0.2,0.1
	C79.8,19.5,79.9,19.5,79.9,19.5z M11,19.6C11.1,19.9,11.1,19.4,11,19.6L11,19.6z M12,19.6c-0.1,0-0.3,0-0.3,0.1
	C11.8,19.6,12,19.7,12,19.6z M68.6,19.8c0.1,0,0.2-0.1,0.2-0.1C68.6,19.6,68.6,19.7,68.6,19.8z M153.3,19.8c0.2,0.1,0.4,0.1,0.6-0.1
	C153.6,19.7,153.4,19.6,153.3,19.8z M41.6,19.8c-0.1,0-0.2,0-0.3,0.1c0-0.1,0-0.1-0.1-0.1c0,0.1-0.1,0.1-0.1,0.2
	c0.1,0,0.1,0.1,0.2,0.1C41.3,19.8,41.7,20,41.6,19.8z M82.1,19.7C82,19.8,81.9,20,82,20.1c0.7,0,1.3,0.2,1.9,0
	C83.3,19.8,83.1,19.7,82.1,19.7z M97.3,19.8C97.4,20,97.4,19.5,97.3,19.8L97.3,19.8z M139.1,19.8c0.1,0,0.2,0,0.2-0.1
	C139.2,19.7,139.1,19.7,139.1,19.8z M151.9,19.7c0,0.1-0.1,0.1-0.2,0.1c0,0.2,0.1,0.2,0.3,0.1C152,19.8,152.1,19.7,151.9,19.7z
	 M152.6,19.8c0.2,0.1,0.5,0.2,0.6-0.1C153,19.7,152.7,19.6,152.6,19.8z M45.6,19.8C45.1,19.7,45.4,19.9,45.6,19.8L45.6,19.8z
	 M45.7,19.8c0.1,0,0.1,0,0.2-0.1C45.8,19.8,45.7,19.8,45.7,19.8z M86.2,19.8c-0.1,0,0,0.2-0.2,0.2c0-0.2-0.3-0.1-0.2-0.2
	c-0.6,0.2-0.9,0.1-1.6,0.1c0,0.1,0,0.2,0,0.3c0.6-0.1,1.7,0.1,2.4-0.1C86.3,20,86.6,19.9,86.2,19.8z M90.8,19.8
	C91,20,90.9,19.6,90.8,19.8L90.8,19.8z M144.7,19.8c0.1,0,0.1,0,0.2-0.1C144.8,19.8,144.7,19.8,144.7,19.8z M152.4,19.8
	C152.2,19.6,152.2,20,152.4,19.8L152.4,19.8z M43.1,19.9c0.1,0,0.1,0,0.2-0.1C43.1,19.8,43.1,19.8,43.1,19.9z M43.6,19.9
	c0.1,0,0.1,0,0.1-0.1C43.7,19.8,43.6,19.8,43.6,19.9z M51,19.9c0.1,0,0.1,0,0.1-0.1C51.1,19.8,51,19.8,51,19.9z M51.5,19.9
	C51.2,19.7,51.1,20.1,51.5,19.9L51.5,19.9z M52,20c0-0.2-0.4-0.1-0.5-0.2C51.5,20.1,51.8,19.9,52,20z M55.4,19.9
	C55.8,20,55.7,19.7,55.4,19.9L55.4,19.9z M57.6,19.9c0.1,0,0.3,0.2,0.3,0C57.8,19.9,57.7,19.7,57.6,19.9z M67.9,19.9
	c0.5,0.1,1.3-0.1,1.5,0.3c-0.1,0.1,0.1,0.3,0.3,0.3c0.1,0-0.1-0.2,0.1-0.3c0.2,0,0.9-0.2,1.1-0.2C70,19.8,68.8,19.8,67.9,19.9z
	 M75.1,20.1c0.1,0,0.1,0.2,0,0.2c-0.2-0.1-0.4,0-0.4-0.2c-0.2,0.1-0.6-0.1-0.8,0.1c-0.1-0.3-0.4-0.1-0.6-0.3
	c-0.9,0.3-1.7-0.3-2.4,0.3c0.3,0.2,0.5-0.1,0.7-0.2c0.2,0.2,0.5,0.2,0.6,0.4c0.8-0.1,2,0.2,3.1,0C75.3,20.2,75.3,19.9,75.1,20.1z
	 M39.5,20c0.1,0,0.1,0,0.1,0c0-0.1,0-0.1,0-0.1c-0.1,0-0.1,0-0.1,0C39.5,19.9,39.5,20,39.5,20z M55.3,19.9c-0.1,0-0.1,0-0.1,0.1
	C55.2,19.9,55.3,19.9,55.3,19.9z M88.8,20.1c0.6,0.1,1.3,0.1,1.5-0.1C89.9,20,89.3,19.9,88.8,20.1z M41.3,20.1
	C41.4,20.3,41.4,19.9,41.3,20.1L41.3,20.1z M43.9,20.4c0.1,0,0.3,0,0.3-0.1c-0.2-0.2-0.8,0.1-0.7-0.3c-0.6-0.1-1.3,0.1-1.9-0.1
	c0.1,0.5,0.9,0.2,0.8,0.6c0.9,0.1,1.8,0,2.5,0.1C45.1,20.2,44.1,20.6,43.9,20.4z M58.3,20C57.9,19.9,58.2,20.2,58.3,20L58.3,20z
	 M75.4,20.2c0.6,0.2,1.3,0.1,2.1,0.1c-0.6-0.3-1.4-0.1-2.1-0.4C75.4,20.1,75.4,20.1,75.4,20.2z M130.2,20.1c0.1,0,0.1,0,0.2-0.1
	C130.3,20,130.2,20,130.2,20.1z M78.1,20.1c-0.1,0.2,0.5,0.3,0.6,0.1C78.4,20.1,78.3,20,78.1,20.1z M79.5,20.2
	c0.1,0.1,0.5,0.1,0.6,0C80,20.1,79.6,20,79.5,20.2z M144.8,20.3c0.3-0.1,0.3,0.2,0.5,0.2c0.1-0.2,0.6,0,0.6-0.2
	c-0.4,0-0.6-0.2-0.7-0.2C145.4,20.4,144.9,20.1,144.8,20.3z M136,20.2C135.7,20,135.8,20.4,136,20.2L136,20.2z M140.6,20.3
	c0-0.1,0-0.2,0-0.2C140.4,20.1,140.3,20.4,140.6,20.3z M50,20.2c0.3,0,0.4,0.1,0.6-0.1C50.4,20.2,50,20.1,50,20.2z M53.3,20.3
	c0.1,0,0.1,0,0.2-0.1C53.4,20.2,53.3,20.2,53.3,20.3z M66.1,20.2c-0.1,0-0.1,0-0.2,0.1C66,20.3,66.1,20.3,66.1,20.2z M77.6,20.3
	C77.7,20.5,77.7,20.1,77.6,20.3L77.6,20.3z M24.1,20.3c0.1,0.3,0.8,0.1,0.4-0.1C24.5,20.4,24.3,20.3,24.1,20.3z M140.9,20.3
	c0.1,0,0.2,0.1,0.3,0.1C141.3,20.2,140.9,20.2,140.9,20.3z M50.1,20.3C49.5,20.3,49.8,20.5,50.1,20.3L50.1,20.3z M50.4,20.4
	c0.1,0,0.2,0,0.2-0.1C50.5,20.3,50.4,20.3,50.4,20.4z M68.6,20.5c0.2,0,0.3-0.1,0.5,0C69.2,20.3,68.5,20.3,68.6,20.5z M135.9,20.4
	C135.9,20.4,135.9,20.4,135.9,20.4c0.1,0.1,0.2,0.1,0.2,0.1C136.2,20.3,135.8,20.3,135.9,20.4z M49,20.5c0.1,0,0.2,0,0.2-0.1
	C49.1,20.4,49,20.4,49,20.5z M69.3,20.5C69.4,20.7,69.4,20.2,69.3,20.5L69.3,20.5z M70.6,20.5c0.1,0,0.1,0,0.2-0.1
	C70.7,20.4,70.6,20.4,70.6,20.5z M70.9,20.5c0.1,0,0.2,0,0.2-0.1C71,20.4,70.9,20.4,70.9,20.5z M137.6,20.5c0.1,0,0.1,0,0.2-0.1
	C137.7,20.4,137.6,20.4,137.6,20.5z M45.7,20.6c0.1,0,0.2-0.1,0.2-0.1C45.8,20.5,45.7,20.5,45.7,20.6z M49.2,20.5
	c0.1,0,0.2,0,0.2-0.1C49.4,20.5,49.2,20.4,49.2,20.5z M45.3,20.6c0.1,0,0.1,0,0.2-0.1C45.4,20.5,45.3,20.5,45.3,20.6z M65.5,20.7
	c0.6,0.1,1.2,0.1,1.7,0C66.4,20.5,66.2,20.5,65.5,20.7z M68.5,20.6C68.2,20.4,68.3,20.8,68.5,20.6L68.5,20.6z M140.9,20.6
	c0.1,0,0.1,0.1,0.2,0C141,20.5,140.9,20.5,140.9,20.6z M46.2,20.7c0.1,0,0.4,0.2,0.4,0C46.5,20.7,46.3,20.5,46.2,20.7z M64.1,20.7
	c0.1,0,0.1,0,0.2-0.1C64.2,20.7,64.1,20.7,64.1,20.7z M64.8,20.7C64.3,20.6,64.6,20.8,64.8,20.7L64.8,20.7z M15.7,20.9
	c0.1,0,0.1,0,0.2-0.1C15.8,20.8,15.7,20.8,15.7,20.9z M146.2,20.9c0.2,0,0.5,0.1,0.5-0.1C146.6,20.9,146.2,20.8,146.2,20.9z
	 M156.5,20.9c0,0.1-0.1,0.1-0.1,0.1c0.1,0,0.3,0,0.2-0.1C156.6,20.9,156.6,20.9,156.5,20.9z M50.1,21C49.7,20.9,50,21.2,50.1,21
	L50.1,21z M15.9,21.1c-0.1,0.2,0.2,0.2,0.2,0.1C16.1,21.1,16.1,21,15.9,21.1z M149.1,21.1c0.1,0,0.2,0,0.2-0.1
	C149.3,21.1,149.1,21,149.1,21.1z M68.3,21.1c-0.5,0.1-1.2,0-1.8,0.1C67.1,21.3,67.7,21.3,68.3,21.1z M159.3,21.1
	c-0.2,0.1,0.2,0.4,0.3,0.2C159.4,21.3,159.4,21.2,159.3,21.1z M43,21.4c0.1,0,0.1,0,0.2-0.1C43.1,21.4,43,21.3,43,21.4z M157.8,21.3
	c0,0.1-0.1,0.1-0.1,0.2c0.1,0,0.3,0,0.3-0.1C157.8,21.5,157.8,21.4,157.8,21.3z M44.2,21.5c0.1,0,0.4,0.1,0.4-0.1
	C44.4,21.4,44.2,21.3,44.2,21.5z M17.1,21.6c0.1,0.1,0.2,0,0.3-0.1C17.3,21.5,17.1,21.5,17.1,21.6z M18,21.6c0.1,0,0.1,0,0.2-0.1
	C18.1,21.5,18,21.5,18,21.6z M18.2,21.6c0.1,0,0.1,0,0.2-0.1C18.3,21.5,18.2,21.5,18.2,21.6z M35.4,21.6c0.1,0,0.1,0,0.2-0.1
	C35.5,21.5,35.4,21.5,35.4,21.6z M161.7,21.6c0.1,0,0.1,0,0.2-0.1C161.8,21.5,161.7,21.5,161.7,21.6z M161.9,21.6
	c0.1,0,0.1,0,0.2-0.1C162,21.6,161.9,21.6,161.9,21.6z M12.4,21.7C12.6,21.9,12.6,21.5,12.4,21.7L12.4,21.7z M160.3,21.7
	C159.9,21.6,160.2,21.9,160.3,21.7L160.3,21.7z M9.8,21.8c0.1,0.2-0.2,0.1-0.2,0.2c0.1,0,0.4,0.1,0.4-0.1
	C9.8,21.9,9.9,21.8,9.8,21.8z M160.8,21.9c0.1,0.1,0.3,0.1,0.5,0.1C161.3,21.8,160.8,21.7,160.8,21.9z M17.6,22c0.1,0,0.1,0.1,0.2,0
	C17.7,21.9,17.6,21.9,17.6,22z M162.8,22.2C162.9,22.4,162.9,21.9,162.8,22.2L162.8,22.2z M77.7,1.3c-0.2,0.1-0.6-0.1-0.8,0.1
	C77.2,1.4,77.6,1.5,77.7,1.3z M92.2,1.5c0,0.1,0,0.2,0.1,0.2c0.1-0.2,0.3-0.1,0.5,0c-0.2-0.4,1,0.1,0.7-0.3c-0.9,0.1-1.7,0-2.8,0.1
	C90.8,1.6,91.9,1.5,92.2,1.5z M89.2,1.4c-0.3,0.1-0.6,0-0.6,0.1C88.7,1.5,89.2,1.6,89.2,1.4z M105.5,2.7c-0.2-0.7,0.4-0.5,0.8-0.6
	c0-0.1,0-0.2,0.1-0.3c-0.5,0-1,0.1-1.1,0.1c0.2,0.2,0,0.5-0.1,0.8C105.4,2.6,105.4,2.7,105.5,2.7z M101.2,2.2c0-0.2,0.3-0.1,0.4-0.2
	c-0.1,0-0.1,0-0.1-0.1c0.1,0,0.1,0,0.1-0.1C101.4,1.9,101,2.1,101.2,2.2z M70.5,2.2c-0.1,0.2-1.2-0.1-1,0.2
	C69.7,2.2,70.6,2.5,70.5,2.2z M88.5,2.3c-0.3,0-0.5,0-0.6,0.1C88.1,2.4,88.5,2.5,88.5,2.3z M139.9,2.8
	C140.1,2.9,139.7,2.6,139.9,2.8L139.9,2.8z M119.3,2.8L119.3,2.8L119.3,2.8z M119.5,2.9C119.5,2.9,119.5,2.9,119.5,2.9L119.5,2.9z
	 M119.4,2.8C119.4,2.8,119.4,2.8,119.4,2.8C119.4,2.8,119.4,2.8,119.4,2.8C119.4,2.8,119.4,2.8,119.4,2.8z M112.8,3.1
	c0.2,0,0.3,0,0.4-0.1c-0.3-0.1-0.4,0.1-0.6-0.1C112.6,3.1,112.9,2.9,112.8,3.1z M116.6,3.6c0-0.4,0.6,0,0.8,0.1
	c0.2,0,0.3-0.1,0.4-0.1c0.4,0,0.6,0.4,0.9,0.4c0-0.1,0-0.2,0.1-0.2c-0.1,0.5,0.4-0.2,0.2-0.2c-0.4-0.1-1-0.1-1.9-0.1
	c0-0.1,0-0.2,0-0.3c-0.2,0-0.5,0-0.3-0.1c-0.2,0-0.1,0.2-0.4,0.1c0-0.1,0-0.2-0.1-0.2c0,0.1-0.1,0.1-0.1,0.2
	C116.6,3.1,116.4,3.5,116.6,3.6z M142.5,3.5c0.2-0.2,0.4,0.1,0.5-0.1c-0.4,0.1-0.6-0.3-0.8-0.2C142.4,3.2,142.4,3.5,142.5,3.5z
	 M150.6,4.2c0,0.1,0.2,0.1,0.1,0.2c-0.2,0.1-0.3-0.1-0.5,0.1c0.2,0.2,0.8,0.6,1.1,0.3c-0.1-0.1-0.3-0.1-0.4-0.2
	c0.2-0.2,0.4-0.1,0.8-0.2c0,0,0.1,0.1,0.1,0c-1-0.6-2.2-0.2-3.4-0.6c0,0.1,0,0.1-0.1,0.1C148.8,4.3,150.3,4.4,150.6,4.2z M131.3,4
	c0.1,0,0.1,0,0.2-0.1C131.4,4,131.3,4,131.3,4z M130.8,4.4c-0.2,0-0.4-0.1-0.6-0.1c0.3,0.3,0.6,0.5,1.1,0.6c0.1-0.2,0.2-0.2,0.1-0.4
	C131,4.5,131,4.2,131.3,4c-0.3,0-0.4-0.3-0.5-0.1C131,3.9,131,4.4,130.8,4.4z M138.2,5.6c0.3,0,0.4,0.1,0.4,0.3
	c0.2,0,0.4-0.1,0.4-0.3c-0.2,0-0.4,0-0.4-0.2c0.3,0,0.6,0,0.8,0c-0.2-0.5,0.2-0.5,0-0.9c0.1-0.1,0.4,0,0.4,0.1
	c0.1,0.2-0.1,0.2-0.1,0.4c0.4,0-0.1-0.4,0.3-0.4c0.1,0.1,0,0.3,0.2,0.4c0.1-0.2,0.3,0.1,0.1-0.2c0.7,0.1,0,0.2,0.8,0
	c-0.1-0.2,0.1-0.3,0.1-0.5c-0.5-0.3-1.2-0.3-1.7-0.2c0.1,0.1,0.2,0.1,0.3,0.2c-0.4,0.2-0.5,0-0.9,0.2c-0.2-0.1-0.5-0.2-0.4-0.4
	c-0.1-0.1-0.5-0.1-0.5,0c0.4,0.2,0,0.5,0.4,0.8c-0.1,0-0.1,0.1-0.2,0.1c0.2-0.2-0.2-0.1-0.4-0.1c0,0.1,0,0.1-0.1,0.2
	c0.3,0.1,0.5,0.4,0.8,0.5C138.5,5.5,138.2,5.4,138.2,5.6z M159.2,3.9C159.2,4,159.2,4,159.2,3.9C159.2,4,159.2,4,159.2,3.9
	C159.2,4,159.2,3.9,159.2,3.9z M159.2,4C159.2,4,159.2,4,159.2,4C159.2,4,159.2,4,159.2,4z M159.2,4.1L159.2,4.1L159.2,4.1z M116,4
	c0,0,0.1,0,0.1,0.1C116.3,4.2,116,4.1,116,4z M150.3,8.1c-0.2,0,0.2,0.2-0.1,0.2c-0.1,0-0.1,0-0.2,0c0.1-0.3-0.5-0.5-0.6-0.8
	c-0.9,0.1-1.5,0-2.6-0.2c0-0.1,0.1-0.3-0.2-0.2c-0.2,0,0,0.3-0.1,0.4c-0.5,0-1,0.1-1.2-0.3c0.2-0.1,0.2-0.4,0.4-0.4
	c0.2,0,1,0.2,1.1,0.1c-0.2-0.3-1.1,0.1-1.2-0.3c0.5,0,0.9-0.3,1.4-0.3c0.6,0,1,0.4,1.5,0.3c0,0.1,0.1,0.2,0.2,0.2
	c-0.1-0.2,0.3-0.1,0.3,0c-0.1,0.2-0.6,0.2-0.7,0.1c0.3,0.3,0.9,0.2,1.3,0.4c-0.1-0.3,0.4-0.4,0.5-0.5c0-0.3-0.5-0.1-0.6-0.2
	c0.1-0.3,0.4-0.3,0.3-0.7c-0.1-0.1-0.3,0-0.4-0.1c-0.1-0.2,0.3,0,0.2-0.2c-0.7-0.1-1.7,0.1-2.1-0.2c0.3-0.2,0.9,0,1.5,0
	c-0.1-0.1-0.4-0.4-0.6-0.4c0.1,0,0.1,0.1,0.1,0.2c-1.2-0.3-2,0.2-2.5-0.6c-0.2,0.1,0,0.3-0.2,0.4c-0.4-0.2-0.5-0.1-0.9-0.2
	c0-0.2-0.1-0.2-0.2-0.3c0,0.1-0.2,0-0.2,0.1c0.2,0.1,0.4,0.2,0.4,0.4c-0.2,0.1-0.7-0.1-0.9,0.1c0.6,0.2,1.6-0.1,2.4,0.3
	c-0.3,0.1-0.4,0.4-0.8,0.3c0-0.2-0.1-0.2-0.2-0.3c-0.1,0.2,0.3,0.2,0.1,0.3c-0.3,0.1-0.3-0.1-0.4-0.1c0.2,0.7,1.3-0.2,1.5,0.5
	c0.2,0,0.6-0.1,0.6,0.1c-0.1,0.2-0.2,0.3-0.3,0.4c-0.8,0.1-1-0.4-1.7-0.4c-0.1,0.3,0.3,0.1,0.3,0.3c-0.1,0.2-0.2,0.3-0.4,0.2
	c0,0.1,0,0.2,0,0.4c0.3,0.1,0.1-0.2,0.3-0.2c0,0.2-0.1,0.4-0.2,0.5c-0.3,0-0.7-0.1-0.8,0.1c-0.1-0.1-0.1-0.2-0.1-0.3
	c0.1-0.1,0.4,0.1,0.4-0.1c-0.8-0.1-1.5-0.1-1.9-0.5c-0.2,0.5-0.8,0.2-1.2,0.1c0-0.2-0.2-0.4,0-0.6c-0.3,0.1-0.8,0.2-1,0.2
	c-0.1,0.3,0.1,0.2,0.1,0.5c-0.1,0.1-0.1,0.2-0.2,0.2c-0.7,0-1.3-0.3-1.7,0c-0.2,0-0.1-0.2-0.4-0.2c-0.1,0.1-0.3,0.2-0.3,0.4
	c0.7,0,1.4,0.4,1.7,0c0.1,0,0.2,0.1,0.2,0.2c0.7-0.1,1.5-0.2,2.1,0.1c0,0.1-0.1,0.2-0.1,0.2c-0.1,0-0.6,0-0.4,0.1
	c0.4,0,0.7,0,0.9,0.1c-0.1-0.2,0.4,0,0.4-0.2c-0.3-0.1-0.5,0.1-0.6,0.1c-0.1-0.1-0.2-0.4,0-0.5c0.2,0.1,0.7,0.1,0.8,0.3
	c0.2-0.2,0.6,0.1,0.8-0.1c-0.2,0,0-0.2-0.1-0.3c0.1,0,0.4-0.1,0.4,0.1c-0.1,0.3,0.1,0.7-0.2,0.9c-0.3,0.1-0.4-0.1-0.6,0.1
	c0.1,0.1,0.2,0.2,0.1,0.4c-0.2,0.2-0.6-0.1-0.6,0.1c0.5,0.1,1.1,0.1,1.5,0.3c0.3-0.3,1,0.1,1.5,0.1c1.2,0.2,2.4,0,3.4,0.1
	c0.2-0.2,0-0.4,0.4-0.5c0.2,0.1,0.2,0.4,0.4,0.5c0.3-0.1,0.7,0.2,0.8-0.1C150.3,8.7,150.6,8.2,150.3,8.1z M152.5,4.5
	c0,0,0.1,0,0.1,0C152.5,4.5,152.5,4.5,152.5,4.5z M153.4,4.5c-0.3-0.3-0.6,0.1-0.9,0c0.1,0.1,0.1,0.1,0.3,0.1
	C152.9,4.5,153.3,4.4,153.4,4.5z M155.7,6.1c-0.4,0.3-1-0.2-1.4,0c0-0.1,0.1-0.3-0.1-0.2c-0.2,0,0.2,0.2-0.1,0.2
	c0-0.1-0.2,0-0.2-0.1c0.1-0.2,0.1-0.2,0.1-0.4c0.5-0.2,1,0.5,1.4,0.1c-1-0.5-2.5-0.3-3.8-0.5c-0.9-0.1-1.9-0.6-2.4-0.1
	c0.5,0.1,1.1-0.1,1.5,0.2c-0.2,0-0.4,0-0.6,0c0.3,0.4,1,0.2,1.2,0.2c-0.3,0-0.5-0.2-0.4-0.3c0.8-0.1,1.2,0.4,0.9,0.9
	c-0.1-0.2-0.4-0.2-0.7-0.2c-0.1,0.2,0.2,0.1,0.2,0.2C151.3,6.3,151,6,151,6.2c0.3,0.2,0.9,0.1,1.5,0.4c0.1,0,0.1-0.2,0.2-0.2
	c0.2,0,0.4,0.1,0.7,0.1c0.1,0.1,0.1,0.2,0.1,0.4c0.4-0.1,0.5-0.2,0.8-0.1c-0.1-0.3,0.4-0.1,0.4-0.3c1.1,0,2.3,0.2,3.5,0.2
	c0.5,0,1.7-0.1,2.1,0.2c0.5-0.1,1-0.1,1.3,0.2c0.2,0,0.4,0,0.4-0.1c-0.8-0.3-1.5-0.5-2.4-0.5c-0.2-0.6-1,0-1.3-0.5
	c-0.3,0.2-0.7,0.1-0.8-0.1c-0.2,0.4-0.9,0-1-0.2c-0.4,0.1-0.7,0.3-1,0.4C155.5,6.1,155.7,6.1,155.7,6.1z M154.1,5.1
	c-0.1,0-0.2-0.2-0.3-0.1C153.9,5.1,154.1,5.3,154.1,5.1z M138,5.5c-0.1,0.2-0.2-0.1-0.3,0c0,0.1,0,0.1,0,0.2
	C138,5.8,138.2,5.5,138,5.5z M163.7,9.7c0.2,0.1,0.2-0.1,0.4-0.1c-0.1-0.5-0.7-0.5-1.3-0.6c-0.4-0.5-1.7-0.2-2.1-0.6
	c-0.5,0.2-0.6-0.2-0.8-0.3c-0.3-0.2-0.7-0.1-1-0.1c-0.2-0.1-0.5,0-0.8,0.3c0-0.3-0.4-0.2-0.3-0.5c-0.6-0.1-0.7-0.1-1.3-0.1
	c0,0.2,0,0.3-0.2,0.3c-0.2,0.1-0.6-0.1-0.9-0.2c-0.2,0.2,0.2,0.1,0.1,0.4c-0.4-0.1,0.1,0.3-0.2,0.3c-0.4,0.1-0.3-0.3-0.3-0.5
	c0.1,0.1,0.2-0.1,0.2-0.2c-0.8,0.5-1.2,0.3-2.1,0.1c0.1,0,0.1,0,0.2-0.1c-0.4,0.1-0.5,0.6-1,0.3c-0.1,0,0,0.2-0.1,0.2
	c0-0.4-0.5-0.3-0.6-0.5c0.1,0,0.3,0,0.2-0.1c-0.4-0.2-1.1-0.2-1.1,0.5c0.2,0,0.3,0.1,0.5,0.1c0.1,0.1-0.1,0.3,0.1,0.3
	c0.1-0.3,0.2-0.1,0.4-0.1c0-0.1,0-0.2,0.1-0.2c0,0.1,0.4,0.1,0.4,0c0,0.1,0,0.1,0.1,0.2c-0.1,0.2-0.3,0.3-0.6,0.4
	c0.2,0,0.3,0,0.3,0.2c0.3-0.2,0.3,0.1,0.6-0.1c0.3,0.3-0.2,0.5-0.3,0.5c0.2,0,0.3,0,0.5,0c0.1,0.5,0.7,0.4,1.2,0.5
	c0-0.6,0.6-0.1,1-0.3c-0.6-0.1-1.2-0.2-1.9-0.2c0.1-0.3-0.3-0.3-0.2-0.1c-0.2-0.4,0.5-0.5,1.1-0.2c0.9-0.1,1.3,0.2,1.9,0.3
	c0.2,0.1,0.9-0.1,0.8,0.3c-0.6-0.1-1.1,0.1-1.3-0.2c-0.1,0.1-0.1,0.1-0.2,0.1c0.2,0.2,0.6,0.3,0.8,0.5c-0.2,0.1-0.1,0.5-0.4,0.2
	c0,0.2,0.2,0.2,0.3,0.3c0.1,0,0-0.2,0.2-0.2c-0.1,0.3,0.3,0.2,0.2,0.4c-0.1,0.1-0.1,0.2-0.2,0.2c0-0.2-0.3-0.1-0.5-0.1
	c0-0.2-0.1-0.2-0.2-0.3c-0.2,0.1-0.4,0-0.6-0.1c0.1,0.4-0.3,0.3-0.4,0.5c0.6,0.3,1.6,0.3,2.4,0.2c-0.1,0-0.1-0.3,0-0.3
	c0.6,0.1,1.4,0.1,2,0.4c0,0.1,0,0.1,0,0.2c-0.3,0-0.2-0.1-0.4,0c-0.1,0,0.6,0.2,0.6,0.1c-0.3-0.1,0-0.3,0.3-0.3
	c0.1,0.2,0,0.3-0.2,0.4c0.4,0.2,0.7-0.1,1-0.1c-0.2,0.4,1.5,0.4,0.6,0.8c0,0.3,0,0.5,0.6,0.4c0-0.2,0.1-0.3,0.2-0.5
	c-0.1-0.1-0.3,0-0.3-0.1c-0.1-0.3,0.3-0.2,0.5-0.2c0-0.3-0.4-0.2-0.2-0.5c0.2,0.1,0.3-0.1,0.3-0.2c-1-0.2-1.9-0.5-2.9-0.9
	c0.3,0,0.9,0.1,1.4,0.1c-0.1-0.2,0.1-0.3,0.1-0.5c-0.4-0.3-0.9,0-1.2-0.4c1.2-0.4,2.7,0.6,3.8,0.4c0.2,0,0.1,0.3,0.4,0.2
	c0.6-0.2,1.3,0.4,2,0.2C164.6,9.8,163.9,10.1,163.7,9.7z M126.7,8.4C126.9,8.6,126.5,8.2,126.7,8.4L126.7,8.4z M129,8.6
	c-0.1,0-0.1,0.1-0.1,0.1C128.9,8.6,129.2,8.5,129,8.6z M128.9,8.6C128.9,8.6,128.9,8.6,128.9,8.6C128.9,8.6,128.9,8.6,128.9,8.6z
	 M125.9,9c0.1,0.2-0.3,0.1-0.2,0.3c0.3,0,0.5,0.5,0.6,0.4c-0.4-0.5,0.4-0.2,0.4-0.5C126.2,9.1,126.1,9.2,125.9,9z M128.8,9.9
	c0.1,0,0.2,0,0.3,0.1c-0.2-0.3,0.1-0.3,0.2-0.5c-0.3-0.2-0.7-0.1-0.8-0.1C128.5,9.6,128.8,9.6,128.8,9.9z M150.5,10.3
	c-0.1,0-0.1,0.1-0.1,0.1S150.5,10.3,150.5,10.3z M150.5,10.3C150.5,10.3,150.6,10.3,150.5,10.3C150.6,10.3,150.5,10.3,150.5,10.3z
	 M168,10.8C168.2,10.9,167.8,10.6,168,10.8L168,10.8z M134.7,12c0.1,0.2,0.1,0.1,0,0.3C135,12.3,134.8,12,134.7,12z M152.6,12.5
	C152.6,12.5,152.6,12.6,152.6,12.5C152.6,12.6,152.6,12.5,152.6,12.5z M151.3,12.3c-0.1,0.3-0.2,0.2-0.4,0.4
	c-0.2-0.1-0.1-0.4-0.4-0.4c-0.6,0.5-0.9-0.1-1.7-0.1c-0.1,0.3-0.4,0.1-0.6,0.1c0,0.1,0,0.2-0.1,0.2c-0.5-0.1-0.6-0.2-1.2-0.3
	c0,0.2,0,0.3-0.1,0.3c-0.2-0.1-0.8,0.1-1-0.2c0,0.2-0.1,0.2-0.3,0.2c-0.1,0.2,0.1,0.2,0.1,0.4c0,0.3-0.7,0.3-0.7-0.1
	c-0.3,0-0.3,0.2-0.5,0.2c0-0.3,0.1-0.5,0-0.6c-0.3,0.2-0.7,0-1-0.1c-0.1,0.1-0.3,0.2-0.4,0.2c-0.1-0.4-0.6-0.1-0.8-0.2
	c-0.1,0.1-0.1,0.3-0.2,0.4c-0.2,0.1-0.6,0-1,0.1c0-0.1,0-0.2-0.1-0.2c-0.1,0.1-0.2,0-0.4-0.1c0.2,0.3-0.1,0.1-0.1,0.3
	c0.4,0,0.8,0.5,0.8,0.1c0,0.1,0.1,0.1,0,0.2c0.3,0.1,0.1-0.2,0.2-0.2c0.1,0.2,0.2,0.1,0.3,0c0.2,0.7,2.5,0,2.4,0.8
	c0.2,0.2,0.7-0.1,0.8,0.3c0.4,0.1,1.1-0.2,1.4,0.2c-0.2,0.3-0.7-0.1-0.8,0.2c0.6,0.1,0.7,0.5,1.4,0.4c0,0.1,0,0.2,0.1,0.2
	c0.4,0,0.8-0.1,1,0.1c0.3-0.2,0.5-0.1,0.8-0.3c-0.2,0-0.1-0.3-0.2-0.4c0.4,0,1.4-0.2,1.5,0.4c0.4-0.1,0.2-0.1,0.6-0.2
	c0.1,0.2-0.1,0.3-0.1,0.4c0.2,0.2,0.5,0,1,0.1c0-0.1,0-0.2,0-0.2c-0.3-0.1-0.6,0.1-0.6-0.3c0.6,0.1,0.7,0,1.2,0.1c0-0.1,0-0.2,0-0.2
	c-0.2,0.1-0.6-0.1-0.4-0.3c0.4-0.1,0.9,0,1.3-0.1c0.1,0.4,0.8,0.1,0.9,0.3c-0.1,0-0.1,0.2-0.1,0.2c0.1,0.1,0.3,0,0.4,0.1
	c0-0.3,0-0.5,0-0.8c-0.1,0.1-0.2-0.1-0.4,0.1c0-0.4,0.1-0.6,0.4-0.8c0.3,0,0.3,0.2,0.5,0.2c0.1-0.3,0.6,0,1-0.1
	c0.1,0.1,0.1,0.2,0.2,0.3c0.2-0.3,0.3-0.3,0.8-0.3c0-0.2-0.1-0.2-0.1-0.4c-0.1,0.2-0.6,0.3-0.6-0.1c0.2,0,0.3,0.1,0.5,0.1
	c0-0.2-0.3-0.3-0.2-0.4c0.2,0.1,0.6,0.1,0.4,0.4c0.3-0.1,0.3,0.2,0.4,0.3c0.2-0.1,0.1-0.1,0.4,0c0.1-0.4-0.4-0.3-0.3-0.6
	c-0.4,0-0.6-0.3-1-0.1c0.1,0.2,0.1,0.2-0.2,0.3c-0.1,0-0.1-0.2-0.2-0.1c0,0.1-0.2,0-0.2,0.1c0.2,0,0.1,0.2,0,0.2
	c-1-0.1-1.6-0.3-2.2,0.1c0.2,0,0.3,0,0.4,0.1c-0.1,0.2,0.1,0.4-0.1,0.5c-0.1-0.4-0.4-0.2-0.8-0.1c-0.2-0.2-0.1-0.4-0.1-0.6
	c-0.2,0.2-0.2,0-0.3-0.1c0,0.1-0.3,0.2-0.3,0.2c-0.2,0-0.4-0.2-0.6,0C151.6,12.6,151.5,12.4,151.3,12.3z M136.9,13.5
	C137.1,13.6,136.7,13.3,136.9,13.5L136.9,13.5z M143.2,14.3c0-0.2,0.5-0.1,0.5,0c0.1-0.4,0.7,0.1,0.9-0.1c0.1,0.1,0.2,0.2,0.4,0.2
	c0.1-0.2,0.4-0.1,0.4-0.3c-0.3,0-0.4,0.1-0.6-0.1c0-0.2,0-0.3-0.1-0.4c-0.1,0.2-0.3,0.2-0.4,0c-0.2,0.3-0.8,0.1-1.2,0
	c-0.1,0.3-0.5-0.1-0.6,0.2c-0.3-0.1,0-0.5-0.3-0.5c0.1,0.4-0.2,0.8,0.4,0.9C142.6,14.1,143.1,14.2,143.2,14.3z M85.8,14
	c0.2-0.1,0.2,0.2,0.3,0.1C86,14,86,13.8,85.9,13.7C86,13.9,85.8,13.8,85.8,14z M83.1,14c0.1,0.2,0.1,0.3,0.3,0.3
	C83.4,14.1,83.2,14.1,83.1,14z M150.4,14.7C150.2,14.9,150.6,14.5,150.4,14.7L150.4,14.7z M138.4,15.5c0.1,0,0.1-0.1,0.1-0.1
	c-0.1-0.1-0.6-0.4-0.6-0.2c0.1,0.1,0.3,0.1,0.3,0.4C138.3,15.5,138.3,15.5,138.4,15.5z M157.8,16.4
	C157.7,16.6,158.1,16.3,157.8,16.4L157.8,16.4z M142.1,16.6c0,0,0.3,0.1,0.1,0.1C142.2,16.6,142.1,16.6,142.1,16.6z M159.6,16.7
	L159.6,16.7C159.6,16.7,159.6,16.7,159.6,16.7C159.6,16.7,159.6,16.7,159.6,16.7z M159.6,16.7C159.6,16.7,159.6,16.7,159.6,16.7
	C159.6,16.7,159.6,16.7,159.6,16.7z M61.8,16.7C62,16.8,61.6,16.5,61.8,16.7L61.8,16.7z M143.4,17C143.3,17,143.3,17,143.4,17
	c-0.1-0.1-0.1-0.1-0.2-0.1c-0.2,0.2-0.3,0-0.6,0C142.8,17.1,143.2,17,143.4,17z M144.5,17C144.8,17.2,144.4,16.8,144.5,17L144.5,17z
	 M60,17.2c-0.5-0.1-1.3,0.1-1.7,0.1c0.1,0,0.1,0,0.1-0.1c-0.2-0.1-0.4,0.2-0.5-0.1c-0.3,0.4,0.8,0.3,0.9,0.2c0.2,0,0.3,0.1,0.4,0.2
	c0.4,0.1,0.6-0.1,0.1-0.1c0-0.2-0.3,0-0.2-0.2C59.5,17.2,59.8,17.4,60,17.2z M142.8,17.4c0-0.1-0.1-0.3-0.2-0.3
	c0.1,0.2-0.3,0.1-0.3,0.3c0.1,0,0.1,0.2,0.1,0.2c0.1,0,0.2,0.1,0.2,0C142.3,17.6,142.5,17.3,142.8,17.4z M78.9,17.6
	c0-0.1,0.1-0.1,0.2-0.1c0-0.2,0-0.3-0.2-0.3C79,17.4,78.8,17.6,78.9,17.6z M79.3,17.3c0.2,0,0.2,0.3,0.4,0.3
	c0.2-0.2-0.1-0.2-0.1-0.4C79.5,17.4,79.2,17.2,79.3,17.3z M147,17.5c-0.2,0-0.5,0-0.6,0.1c0.1,0,0.2,0.1,0.3,0.1
	C146.8,17.7,147,17.7,147,17.5z M149.5,18c-0.7-0.1-2.2-0.3-2.9-0.2c0-0.1,0-0.1,0-0.1c-0.4,0.4-0.9,0-1.3-0.2
	c0,0.1,0.1,0.3-0.1,0.3c-0.4,0.2-0.5-0.3-0.8-0.4c-0.1,0.1,0.1,0.3-0.1,0.3c-0.2,0-0.3-0.1-0.5-0.1c0-0.1,0-0.2-0.1-0.3
	c-0.4-0.1-0.5,0.1-0.8-0.1c0.1,0.2,0,0.3-0.2,0.4c0.2,0,0.3-0.1,0.4,0.1c-0.1,0-0.1,0.1-0.2,0.1c-0.2,0-0.1-0.2-0.3-0.1
	c0.2,0.4,1.2,0.1,1.5,0.2c-0.1,0.3-0.7,0.2-0.9,0c-0.2,0.2-0.1,0.1-0.1,0.4c0.4-0.2,1,0,1.6,0c0.1-0.2-0.2-0.2-0.2-0.3
	c0.4-0.1,0.9-0.3,1,0.1c0.1-0.1,0.6-0.3,0.6,0.1c-0.2,0-0.3,0-0.4-0.1c0.1,0.3,0.5,0.1,0.7,0.1c1.1,0,1.8,0.2,3,0.1
	C149.6,18.2,149.5,18.2,149.5,18z M79.2,17.6C79.5,17.7,79.1,17.4,79.2,17.6L79.2,17.6z M3.7,17.7C3.9,17.9,3.5,17.6,3.7,17.7
	L3.7,17.7z M51,18.2L51,18.2L51,18.2L51,18.2z M51,18.2c0,0.1,0.2,0.2,0.2,0.1C51.1,18.3,51,18.2,51,18.2z M50.3,18.3
	c0.2-0.1,0.5,0.1,0.6-0.1C50.7,18.1,50.6,18.1,50.3,18.3z M50.3,18.4C50.3,18.3,50.3,18.3,50.3,18.4C50.3,18.3,50.3,18.4,50.3,18.4z
	 M59.8,18.1C60.1,18.3,59.7,18,59.8,18.1L59.8,18.1z M159.9,18.5c-0.9,0.1-1.7-0.3-2.7-0.2c0.2,0.3-0.2,0.2-0.3,0.4
	c0.1,0,0.2,0,0.4,0c-0.1-0.3,0.3-0.2,0.4-0.3c0.1,0.3,0.6,0.1,0.6,0.4c0,0,0-0.1,0.1-0.1c0.3,0.3,0.9,0.2,1.3,0.1
	c0.3,0.1,0.9,0.3,1.2,0.1C160.3,18.8,160,18.7,159.9,18.5z M67,18.7c-0.3,0-1-0.1-1.3,0.1c0-0.1,0-0.2-0.1-0.2
	c0,0.1-0.1,0.1-0.1,0.2c1.1-0.1,1.8,0.1,3.1,0.1c0.4,0,1.4,0,1.3,0.3c0.5,0.1,0.8-0.2,1.1,0.1c-0.2,0.2-0.6,0.1-0.9,0
	c0.1,0.2-0.2,0-0.2,0.2c0.7,0,1.2,0.2,1.7,0.3c-0.1-0.2,0.1-0.1,0.2-0.2c-0.3-0.1-0.4-0.1-0.8-0.1c-0.1-0.2,0.1-0.2,0.1-0.3
	c-0.4-0.2-0.9-0.2-1-0.5c-0.4,0-0.7-0.1-1,0c0.1-0.1,0.1-0.2,0-0.3c-0.2,0-0.2,0.1-0.3,0.2c0.1,0,0.3,0,0.3,0.1
	c-0.2,0,0.2,0.2-0.1,0.2c-0.3-0.3-1.1,0.1-1.4-0.3c0.1,0.3-0.4,0.2-0.6,0.2c0.1-0.2,0.2-0.5-0.1-0.4C67.3,18.4,67.2,18.6,67,18.7z
	 M138.6,18.6c-0.5,0-0.7-0.3-1-0.2C137.7,18.7,138.4,18.6,138.6,18.6z M127.6,18.5c0,0.1,0.1,0.4,0.2,0.2c-0.1-0.2,0.1,0.1,0.2,0.1
	C128,18.5,127.7,18.6,127.6,18.5z M148,18.8c0.6-0.1,0.9-0.1,1.5-0.1C149.8,18.6,148,18.5,148,18.8z M142.2,19c0.4,0,0.8,0,1.1-0.1
	C143,18.8,142.6,18.9,142.2,19z M62.5,18.9c-0.1,0-0.3,0-0.2,0.1C62.5,19,62.6,18.7,62.5,18.9z M52.9,19.1c0.1,0.3,0.5,0.1,0.6,0.3
	c-0.1,0-0.2,0.1-0.2,0.1c1.1-0.3,2.7,0.2,3.8-0.2c-0.7,0-1.6,0.3-1.9-0.1C54.3,19.4,53.6,18.8,52.9,19.1z M153.4,19.1
	c0,0-0.2-0.1-0.2-0.1C153.2,19,153.3,19,153.4,19.1C153.4,19.1,153.4,19.1,153.4,19.1z M57.1,19.5c0-0.1,0.1-0.1,0.2-0.1
	c0,0.1,0.1,0.1,0.2,0c-0.1,0-0.1-0.1-0.3-0.1C57.2,19.4,57,19.4,57.1,19.5z M68.4,19.5C68.6,19.6,68.2,19.3,68.4,19.5L68.4,19.5z
	 M145.1,19.7C145.1,19.7,145.1,19.8,145.1,19.7c-0.1,0-0.2-0.1-0.2-0.1C144.8,19.9,145.3,19.8,145.1,19.7z M60.4,20.1
	c0,0,0-0.2,0-0.2c-0.3-0.2-1-0.1-0.9,0.1c0-0.3-0.6-0.3-0.8-0.1c0.2,0.1,0.2-0.1,0.3-0.1c0.1,0.1,0,0.1,0,0.2
	c-0.2,0-0.6-0.1-0.6,0.1c0.3,0.2,0.8-0.1,1,0.2c-1-0.1-1.3,0-2-0.1c0-0.2,0.2-0.2,0.2-0.4c-0.3,0-0.4,0.2-0.7,0.2
	c0-0.1-0.1-0.1-0.1-0.1c0.1,0,0.3,0,0.2-0.1c-0.4,0.1-0.6,0-0.9,0.1c0.2,0,0.3,0,0.4,0.1c-0.3,0-0.2,0-0.4,0.2
	c-0.9,0.2-1.1-0.4-1.8-0.2c0.2-0.2-0.4-0.1-0.4,0c-0.3,0.1-0.1-0.2-0.4-0.1c0,0.3-0.2,0.1-0.2,0c-0.1,0.2,0.1,0.2-0.2,0.2
	c-0.2,0,0.2-0.2-0.1-0.2c-0.2,0-0.9,0.1-1-0.1c0,0.4,0.7,0.3,0.9,0.2c0.2,0.3,1.1,0,1.3,0.4c-0.9,0-2.2,0.1-2.8,0.1
	c0.1,0.2,0.1,0.1-0.1,0.2c0.4-0.3,1.1,0.2,1.2,0c0.1,0.2,0.7,0.3,0.9,0.1c0.9,0.2,2.1,0.3,2.9-0.1c-0.6,0-1.2,0.2-1.5-0.2
	c2.3-0.1,4.4-0.3,6.2-0.1C61.3,20.2,60.8,20.2,60.4,20.1z M42.4,19.9C42.4,19.9,42.4,19.9,42.4,19.9C42.3,19.9,42.3,19.8,42.4,19.9z
	 M42.4,19.9C42.4,19.9,42.5,19.9,42.4,19.9C42.5,19.9,42.4,19.9,42.4,19.9z M47.8,20.1c0.1-0.1,0.4,0.1,0.4-0.1
	C48.1,19.8,47.6,20,47.8,20.1z M40.2,20C40.1,19.9,40.1,19.9,40.2,20C40.1,19.9,40.1,20,40.2,20z M40.2,20C40.2,20,40.2,20,40.2,20
	C40.4,20.1,40.2,20,40.2,20z M46.7,20.1c-1-0.1-1.6-0.2-2.4,0.1c0.2-0.2-0.3-0.2,0-0.1c-0.1,0-0.1,0.1-0.2,0.1c-1.4,0,0.8,0.1,1.1,0
	c0.3,0.3,1.3,0.3,1.7,0.2C46.9,20.3,46.9,20.1,46.7,20.1z M142.2,20.1c0,0.2-0.4,0.3-0.2,0.5c0-0.1,0.1-0.1,0.1-0.1
	c-0.2,0,0-0.2,0.2-0.1C142.2,20.2,142.3,20.1,142.2,20.1z M47.3,20.2c0.3,0.3,0.6,0.2,0.8,0.4c0.3,0,0.4,0,0.5-0.1
	C48.1,20.5,47.4,20.1,47.3,20.2z M52.5,20.2c0.2,0.1,0.5,0.1,0.6,0C53,20.2,52.6,20.1,52.5,20.2z M144.5,20.2
	C144.5,20.2,144.5,20.2,144.5,20.2C144.5,20.2,144.5,20.2,144.5,20.2z M144.5,20.2C144.5,20.2,144.5,20.2,144.5,20.2
	C144.5,20.2,144.5,20.2,144.5,20.2L144.5,20.2z M144.6,20.3C144.6,20.3,144.6,20.3,144.6,20.3L144.6,20.3z M136.4,20.4
	c0.1,0,0.3,0.2,0.3,0C136.5,20.5,136.4,20.2,136.4,20.4z M58.4,20.6c0.4,0.2,0.8,0,1.4,0.1C59.3,20.5,58.7,20.5,58.4,20.6z M15,21.2
	c-0.7,0.1-1.4-0.2-2.2,0c0.1,0,0.2,0.1,0.2,0.1c-0.2,0.2-0.6-0.2-0.8,0c0.2,0.1,0.4,0.1,0.7,0.1c-0.2,0.1-0.1,0.2-0.2,0.4
	c0.3-0.1,0.5-0.3,0.8-0.1c0.1-0.2,0.1-0.1,0-0.3c0.5-0.1,0.9-0.2,1.3,0.1C14.9,21.4,15.1,21.3,15,21.2z M69,21.2
	c0.1,0-0.1,0.1,0.1,0.1c0-0.2,0.3-0.1,0.3-0.2C69.2,21.2,69,21.1,69,21.2z M103.3,2.6c0.6,0,0.6,0.1,1,0c0-0.1,0-0.2,0.1-0.2
	c0.1,0.1,0.4,0,0.5,0.1c0-0.3-0.4-0.2-0.5-0.3c0,0,0-0.1-0.1-0.1c-0.3,0.4-0.9,0.1-1.2,0.1C103.2,2.5,103.5,2.4,103.3,2.6z
	 M138.4,10.4c0.4-0.1,0.7-0.4,0.9,0c0-0.1,0-0.2,0.2-0.2c0.9,0.1,1.4,0.3,1.9,0.4c0.2-0.2,0.6,0,1-0.1c0,0.1,0.2,0.2,0.2,0.3
	c0.3-0.2,0.9,0.2,1.3,0.1c0-0.2,0-0.3,0.2-0.2c0.3,0.1,0.3,0.1,0.6,0.2c0-0.2,0.1,0,0.2-0.1c0-0.2-0.2-0.2-0.2-0.4
	c0.1,0,0.1-0.1,0.2-0.1c0.1,0.2,0.1,0.2,0,0.4c0.3,0,0.9,0.3,1.3,0.2c0-0.1,0.1-0.2,0.2-0.2c0.9,0.2,1.5,0,1.9,0.1
	c0.1-0.1,0.1-0.3,0.4-0.2c-0.1-0.4,0.4-0.2,0.5-0.5c-0.3-0.1-0.1-0.4-0.4-0.5c0,0.4-0.4,0.1-0.6,0.2c0.1,0.3,0.3,0.4-0.1,0.5
	c-0.3-0.1-0.3-0.2-0.3-0.5c-0.2-0.1-0.5-0.1-0.7-0.2c-0.1,0,0,0.2-0.2,0.2c-0.1-0.1-0.3-0.1-0.4-0.2c-0.1,0.1,0,0.5-0.2,0.5
	c-0.3-0.1-0.7-0.2-1,0c-0.2,0-0.2-0.3-0.4-0.4c-0.4,0.2-1,0.2-1.4-0.1c0.1,0.3-0.4,0.2-0.7,0.2c0.1-0.2-0.2-0.1-0.3-0.2
	c-0.1-0.2,0.1-0.3,0-0.4c-1.4,0-2.8-0.3-4.1-0.1c0.4,0.1,0.5,0.5,0.2,0.5c0.2,0,0.2,0.2,0.1,0.3C138.6,10.2,138.4,10.2,138.4,10.4z
	 M144.7,15.1c-0.1,0.3,0.2,0.3,0.2,0.5c0.4,0,0.6,0,0.9,0.1c0.1-0.1,0-0.4,0.2-0.4c0.2,0.1,1.4-0.1,1.7,0.4
	c-0.1-0.4,0.5-0.2,0.6-0.4c-0.2-0.1-0.6-0.2-0.9,0c-0.1,0-0.1-0.2-0.2-0.2c-0.4,0.4-1.6,0.1-2.1,0C144.9,15.1,144.8,15.1,144.7,15.1
	z M50.4,18.1c-0.3-0.1-0.5,0.1-0.8,0.1c-0.4-0.4-1.3-0.1-1.7,0.1c1.1-0.1,0.9,0.2,2,0.1C49.8,18,50.4,18.5,50.4,18.1z M67.8,19.9
	c-1.9-0.1-4.5-0.3-6.3-0.1c0.1,0,0.4-0.1,0.4,0.1c-0.1-0.1-0.3-0.1-0.4,0.1c0.3,0.2,0.9-0.1,1.1,0.2c-0.1,0-0.4-0.1-0.4,0.1
	c0.6,0,1.4,0.2,1.6-0.2c-0.2,0-0.2,0.1-0.2-0.1C65.3,20,66.7,20.1,67.8,19.9z M9.6,21.1c0.6,0.2,0.9,0.2,1.4,0.2
	c0.2-0.1-0.1-0.2,0.1-0.2c0.1,0,0.1,0,0.2-0.1C10.6,21,10.1,20.9,9.6,21.1z"/>
</svg>
