<?xml version="1.0" encoding="utf-8"?>
<!-- Generator: Adobe Illustrator 18.1.1, SVG Export Plug-In . SVG Version: 6.00 Build 0)  -->
<!DOCTYPE svg PUBLIC "-//W3C//DTD SVG 1.1//EN" "http://www.w3.org/Graphics/SVG/1.1/DTD/svg11.dtd">
<svg version="1.1" id="Layer_1" xmlns="http://www.w3.org/2000/svg" xmlns:xlink="http://www.w3.org/1999/xlink" x="0px" y="0px"
	 viewBox="0 0 417.5 109.2" enable-background="new 0 0 417.5 109.2" xml:space="preserve">
<path fill="#FFFFFF" d="M389,54.8c0.5-4.3,4.2-7.7,8.8-7.7c4.2,0,7.7,3.6,8,7.7H389z M380.6,58.6c0,10,6.9,18.2,17.4,18.2
	c5.8,0,10.3-2.2,12.8-4.3c1-0.9,0.8-1.6,0.2-2.3l-2.4-3.3c-0.7-0.9-1.3-0.5-2.3,0.1c-1.7,1.1-4.6,2.5-7.7,2.5c-5.6,0-9.7-4.6-10-9.3
	h23.6c0.8,0,1.5-0.6,1.6-1.5c0.1-0.6,0.2-1.7,0.2-2.3c0-9.3-6.9-16-16-16C387.5,40.4,380.6,48.8,380.6,58.6 M333.5,89.6
	c0-3.9,4.2-5.3,4.8-5.5c2.5-0.2,5.1-0.2,7.6-0.2c5.6,0,6.5,3.6,6.5,4.9c0,4.2-4.6,6.8-9.9,6.8C337.3,95.7,333.5,93.1,333.5,89.6
	 M342.7,63.7c-4.4,0-7.6-3.3-7.6-8c0-4.7,3.2-8,7.6-8c4.3,0,7.3,3.3,7.3,8C350,60.4,347,63.7,342.7,63.7 M324.2,73.9
	c0,5.8,4.6,8.1,6.4,8.7v0.3c-0.9,0.5-5.1,2.9-5.1,8.1c0,5.6,4.9,11.9,17.2,11.9c11.5,0,18.5-6.8,18.5-14.4c0-7.5-6.1-11.6-13.6-11.6
	h-11.8c-2.6,0-4.2-1.6-4.2-3.6c0-2.8,2.9-4.2,3.6-4.2c0.7,0,3.1,1.4,7.5,1.4c9,0,14.7-6.8,14.7-14.1c0-6.5-3.7-9.3-3.7-9.3l4.8-1.3
	c0.6-0.1,1-0.9,1-1.5v-2.2c0-1-0.7-1.6-1.6-1.6h-15.2c-8.8,0-14.9,7.1-14.9,15.2c0,5.2,2.7,8.4,2.7,8.4S324.2,67.2,324.2,73.9
	 M283.8,74.3c0,0.9,0.8,1.6,1.6,1.6h4.2c1.4,0,2.3-0.2,2.3-1.6v-22c0.3-0.6,2.8-4.2,7.8-4.2c1.1,0,2.4,0.3,2.9,0.6
	c0.8,0.3,1.6,0.2,2.1-0.8l2.1-4.2c1-2.3-3-3.2-6.3-3.2c-6.3,0-9.5,4.2-10.1,5l-1-2.9c-0.2-0.7-0.9-1.2-1.5-1.2h-2.5
	c-0.9,0-1.6,0.8-1.6,1.6V74.3z M236.5,65.1c0-3.6,2.9-5.7,7-5.7c3.1,0,5.5,1,6.1,1.4v5.5c-1,1.7-4.3,4.3-7.8,4.3
	C238.6,70.7,236.5,68.2,236.5,65.1 M229,65.2c0,7.2,4.7,11.6,11.2,11.6c5.4,0,8.8-2.6,10.7-4.4l0.9,2.3c0.3,0.9,0.7,1.2,1.5,1.2h2.4
	c0.9,0,1.6-0.8,1.6-1.6V55.8c0-8.7-1-15.4-12.1-15.4c-6.4,0-11.4,1.7-12,2c-0.8,0.3-1.4,0.9-1.1,2l0.7,3.2c0.3,1,0.9,1.6,1.9,1.4
	c1.8-0.5,5.7-1.6,9.7-1.6c4.4,0,5.5,2.2,5.4,7.6c0,0-3.2-1-6.8-1C234,54,229,58.9,229,65.2 M196.4,74.3c0,0.9,0.8,1.6,1.6,1.6h4.9
	c0.9,0,1.6-0.8,1.6-1.6V16.9c0-0.9-0.8-1.6-1.6-1.6H198c-0.9,0-1.6,0.8-1.6,1.6V74.3z"/>
<path d="M157.9,95c3.4-6.2,6-12.9,7.7-19.8c1.7-7,2.6-14.3,2.6-22.1c0-8.2-0.8-15.8-2.5-22.7c-1.7-6.9-4.3-13.4-7.7-19.4l-4.3,2.1
	c2.9,6,5.1,12.3,6.5,18.8c1.4,6.5,2.1,13.6,2.1,21.2c0,7.9-0.7,15-2.1,21.5c-1.4,6.5-3.6,12.5-6.5,18L157.9,95z M96.2,74.3
	c0,0.9,0.8,1.6,1.6,1.6h4.5c1.5,0,2-0.5,2-1.6V53.2c0.4-1.2,4.2-5.2,9.6-5.2c4.5,0,7.2,3,7.2,8.6v17.8c0,0.9,0.7,1.6,1.6,1.6h4.9
	c0.9,0,1.6-0.8,1.6-1.6V56.9c0-9-3.9-16.5-14.5-16.5c-6.9,0-11.5,4.2-12.1,4.9l-1-2.9c-0.2-0.6-0.7-1-1.4-1h-2.5
	c-0.9,0-1.6,0.8-1.6,1.7V74.3z M47.4,54.8c0.5-4.3,4.2-7.7,8.8-7.7c4.2,0,7.7,3.6,8,7.7H47.4z M39,58.6c0,10,6.9,18.2,17.4,18.2
	c5.8,0,10.3-2.2,12.8-4.3c1-0.9,0.8-1.6,0.2-2.3L67,67c-0.7-0.9-1.3-0.5-2.3,0.1c-1.7,1.1-4.6,2.5-7.7,2.5c-5.6,0-9.7-4.6-10-9.3
	h23.6c0.8,0,1.5-0.6,1.6-1.5c0.1-0.6,0.2-1.7,0.2-2.3c0-9.3-6.9-16.1-16-16.1C45.9,40.4,39,48.8,39,58.6 M13.8,74.5
	c-1.4-6.5-2.1-13.6-2.1-21.5c0-7.6,0.7-14.7,2.1-21.2c1.4-6.5,3.6-12.8,6.5-18.8L16,11c-3.4,6-6,12.4-7.7,19.4
	C6.6,37.3,5.7,44.8,5.7,53c0,7.7,0.9,15.1,2.6,22.1c1.7,7,4.3,13.6,7.6,19.8l4.4-2.4C17.4,87,15.2,81,13.8,74.5"/>
<path fill="#FFFFFF" d="M157.9,95c3.4-6.2,6-12.9,7.7-19.8c1.7-7,2.6-14.3,2.6-22.1c0-8.2-0.8-15.8-2.5-22.7
	c-1.7-6.9-4.3-13.4-7.7-19.4l-4.3,2.1c2.9,6,5.1,12.3,6.5,18.8c1.4,6.5,2.1,13.6,2.1,21.2c0,7.9-0.7,15-2.1,21.5
	c-1.4,6.5-3.6,12.5-6.5,18L157.9,95z M96.2,74.3c0,0.9,0.8,1.6,1.6,1.6h4.5c1.5,0,2-0.5,2-1.6V53.2c0.4-1.2,4.2-5.2,9.6-5.2
	c4.5,0,7.2,3,7.2,8.6v17.8c0,0.9,0.7,1.6,1.6,1.6h4.9c0.9,0,1.6-0.8,1.6-1.6V56.9c0-9-3.9-16.5-14.5-16.5c-6.9,0-11.5,4.2-12.1,4.9
	l-1-2.9c-0.2-0.6-0.7-1-1.4-1h-2.5c-0.9,0-1.6,0.8-1.6,1.7V74.3z M47.4,54.8c0.5-4.3,4.2-7.7,8.8-7.7c4.2,0,7.7,3.6,8,7.7H47.4z
	 M39,58.6c0,10,6.9,18.2,17.4,18.2c5.8,0,10.3-2.2,12.8-4.3c1-0.9,0.8-1.6,0.2-2.3L67,67c-0.7-0.9-1.3-0.5-2.3,0.1
	c-1.7,1.1-4.6,2.5-7.7,2.5c-5.6,0-9.7-4.6-10-9.3h23.6c0.8,0,1.5-0.6,1.6-1.5c0.1-0.6,0.2-1.7,0.2-2.3c0-9.3-6.9-16.1-16-16.1
	C45.9,40.4,39,48.8,39,58.6z M13.8,74.5c-1.4-6.5-2.1-13.6-2.1-21.5c0-7.6,0.7-14.7,2.1-21.2c1.4-6.5,3.6-12.8,6.5-18.8L16,11
	c-3.4,6-6,12.4-7.7,19.4C6.6,37.3,5.7,44.8,5.7,53c0,7.7,0.9,15.1,2.6,22.1c1.7,7,4.3,13.6,7.6,19.8l4.4-2.4
	C17.4,87,15.2,81,13.8,74.5z"/>
</svg>
