<?xml version="1.0" encoding="utf-8"?>
<!-- Generator: Adobe Illustrator 19.1.0, SVG Export Plug-In . SVG Version: 6.00 Build 0)  -->
<svg version="1.1" id="Layer_1" xmlns="http://www.w3.org/2000/svg" xmlns:xlink="http://www.w3.org/1999/xlink" x="0px" y="0px"
	 viewBox="0 0 568 300" style="enable-background:new 0 0 568 300;" xml:space="preserve">
<style type="text/css">
	.st0{fill-rule:evenodd;clip-rule:evenodd;}
</style>
<g>
	<path d="M445,260.3c-61.1,0-110.9-50.2-110.9-111.9S383.9,36.6,445,36.6s110.9,50.2,110.9,111.9S506.1,260.3,445,260.3z M445,42.3
		c-57.9,0-105.1,47.6-105.1,106.1S387.1,254.5,445,254.5s105.1-47.6,105.1-106.1S502.9,42.3,445,42.3z"/>
</g>
<g>
	<g>
		<path d="M386.1,148.5V87.1h12.8c4.5,0,7.8,0.2,10,0.7c2.1,0.5,4,1.3,5.5,2.4c2,1.5,3.5,3.3,4.6,5.6c1.1,2.3,1.6,4.8,1.6,7.5
			c0,3.3-0.8,6-2.3,8.1c-1.6,2.2-3.8,3.7-6.8,4.6c3.6,0.6,6.5,2.2,8.6,4.9c2.1,2.7,3.2,6.1,3.2,10.2c0,2.5-0.4,4.8-1.3,7.1
			c-0.9,2.2-2.1,4.2-3.7,5.8c-1.7,1.7-3.9,2.9-6.4,3.6c-2.5,0.7-6.8,1.1-12.8,1.1H386.1z M393.2,93.4V114h5.7c5.2,0,8.9-0.8,11-2.3
			c2.1-1.5,3.2-4.1,3.2-7.6c0-3.9-1-6.7-3-8.3c-2-1.6-5.7-2.4-11.2-2.4H393.2z M393.2,119.7v22.4h5.7c3.9,0,6.7-0.2,8.4-0.5
			c1.7-0.3,3.1-0.8,4.1-1.6c1.3-0.9,2.3-2.1,3-3.7c0.7-1.6,1.1-3.4,1.1-5.3c0-2.2-0.4-4.2-1.3-5.8c-0.9-1.7-2.1-2.9-3.8-3.9
			c-1-0.6-2.1-1-3.4-1.3c-1.3-0.3-3.3-0.4-6-0.4h-2.1H393.2z"/>
	</g>
</g>
<g>
	<g>
		<path d="M508.5,164.9c-2.7-3-5.6-5.1-8.7-6.6c-3.1-1.4-6.5-2.1-10.2-2.1c-3,0-6,0.6-8.8,1.8c-2.9,1.2-5.4,2.9-7.5,5.1
			c-2.2,2.3-3.8,4.8-4.9,7.6c-1.1,2.8-1.6,5.9-1.6,9.2c0,2.6,0.3,5.1,1,7.3c0.6,2.2,1.6,4.3,2.9,6.1c2.3,3.2,5.1,5.7,8.4,7.5
			c3.3,1.8,6.9,2.6,10.8,2.6c3.6,0,7-0.8,10.1-2.3c3.1-1.5,6-3.8,8.5-6.7v9c-2.8,2-5.9,3.6-9.1,4.7c-3.3,1.1-6.6,1.6-10.1,1.6
			c-3,0-5.9-0.4-8.8-1.3c-2.9-0.9-5.5-2.2-8-3.9c-4.2-2.9-7.3-6.4-9.5-10.6c-2.2-4.2-3.3-8.8-3.3-13.9c0-4.4,0.7-8.4,2.2-12
			c1.5-3.6,3.7-6.9,6.7-9.8c2.9-2.8,6.1-4.9,9.7-6.3c3.5-1.4,7.4-2.1,11.6-2.1c3.3,0,6.5,0.5,9.6,1.5c3.1,1,6.1,2.5,9.1,4.7V164.9z"
			/>
	</g>
</g>
<g>
	<rect x="363.5" y="145" transform="matrix(0.7071 -0.7071 0.7071 0.7071 26.1685 359.4757)" width="167.1" height="6.3"/>
</g>
<g>
	<g>
		<path d="M112.8,172.5c-6.2-7.9-16.2-14.8-26.7-14.4c-12.4,0.4-19.2,12.8-18.9,24.2c0.5,14.9,11.6,23.8,22.2,32.2
			c12,9.5,24,21.5,39.5,24.7c2.2,0.5,1.1-2.8-0.4-3.1c-13.2-2.7-23.6-12.1-33.7-20.3c-9.6-7.8-21.2-14.6-24.1-27.7
			c-2.3-10.6,2.7-24.9,14.8-26.6c9.8-1.4,19.5,5.2,25.4,12.5C112.4,175.8,114.2,174.3,112.8,172.5L112.8,172.5z"/>
	</g>
</g>
<g>
	<g>
		<path d="M111.3,175.7c6.1-7.2,12.4-15.5,20.7-20.3c4.2-2.4,8.4-3.2,11.9,0.9c3.8,4.5,5.6,11,6.7,16.6c4.8,24.8-9.5,44-23.8,62.5
			c-0.3,0.4,2.9,2.1,3.5,1.2c8.7-11.3,18.2-22.9,22.5-36.7c4-12.9,3.2-29-4-40.7c-12.5-20.2-32.4,4.6-41.2,15.1
			C107.5,174.8,110.6,176.5,111.3,175.7L111.3,175.7z"/>
	</g>
</g>
<g>
	<path class="st0" d="M187.7,263c1-0.1,2.8-0.3,4.4-0.7c1.6-0.3,3.1-0.8,2.9-0.9C192.3,262.3,188.3,262.7,187.7,263z M202.8,249.4
		c-0.3-6,0.6-2.4,0.1-0.4C203,248.9,202.9,249.7,202.8,249.4z M201.4,180.8c1.1,19.4,2,37,1.9,56.8c-0.1-0.2-0.2-0.7-0.1-0.8
		C203.3,216.5,201.8,196.3,201.4,180.8z M203.1,240.9c0.2,0.4,0.2,2.4,0,3.8C203,243.6,203.2,242.7,203.1,240.9z M173.4,263.1
		c-1.4,0.2,2.7,0.2-0.8,0.3c4.8,0.3,9.5-0.2,13.8-0.4c-7.5,0.7-14.8,0.7-22.1,1c-7.3,0.3-14.5,0.6-21.9,1.1
		c-14.6,1.1-29.4,2.7-44.2,4.7c-7.4,1-14.9,2-22.4,3c-7.6,0.9-15.1,1.9-23.2,1.8c-2,0-4.9-0.3-6.5-0.8l-0.7-0.2
		c-0.7-0.2-0.3-0.1-0.5-0.1l-0.1-0.1l-0.3-0.1l-0.5-0.2c-0.3-0.2-0.7-0.4-0.9-0.5c-0.4-0.3-0.9-0.8-1.2-1.1c-0.3-0.3-0.6-0.7-0.8-1
		c-0.8-1.3-1.3-2.4-1.7-3.4c-1.5-4.2-2.2-8-2.8-11.9c-1.3-7.7-2.1-15.3-2.8-22.9c-1.5-15.7-2.8-32-4.7-48.5c-0.8-8.3-2-16.6-2.9-25
		c-0.5-4.3-1-8.6-1.5-12.9c-0.3-2.2-0.3-4.3-0.5-6.4l-0.2-3.2l-0.1-1.6l0-0.8l0-0.4l0-0.1l0-0.4c0-0.3,0-0.5,0.1-0.8
		c0.2-1.1,0.6-1.8,1-2.5c0.4-0.6,0.9-1,1.3-1.3c0.4-0.3,0.8-0.6,1.1-0.8l1-0.5c1.3-0.6,2.5-1,3.6-1.3c2.3-0.7,4.5-1.1,6.7-1.5
		c4.4-0.7,8.6-1.2,12.9-1.6c8.5-0.8,17-1.2,25.4-1.6c16.8-0.6,33.2-0.8,49-0.7c-1.4,0.3-3.5-0.1-4.5,0.3c4.5,0.2,9.8,0.2,15.6,0.3
		c5.5,0.1,10.9,0.5,16.4,0.7c6,0.2,12,0.1,15.2,1.1c5.3,0,8.3,0.6,13.5,0.7c0.3,0.6,2.6,0.8,5,1.2c-1.3,0.1-1.3-0.1-2.1,0.1
		c1.8,0.3,4.8,0.3,5.8,0.8c-1.7,0-3.3-0.1-5-0.1c0.4,0.5,5.2,0.2,4.2,0.7c-2.4,0.1-2.5,0.2-3.7,0.6c-32.3-0.4-64.8-1-97.4-0.1
		c-8.1,0.2-16.3,0.6-24.4,1.1c-8.1,0.5-16.3,1.1-24.2,2.4c-2,0.3-3.9,0.7-5.8,1.2c-0.9,0.2-1.9,0.5-2.7,0.9
		c-0.8,0.3-1.6,0.8-1.9,1.1c0,0-0.1,0.1-0.1,0.1c0,0,0,0,0,0c-0.1,0-0.2-0.1-0.3-0.1c-0.1,0-0.1,0-0.2-0.1l0,0h0
		c-0.5,0.1,0.6-0.1,0.5-0.1l0,0.2l0.1,1.5l0.2,3.1l0.4,6.1c0.9,8.1,1.8,16.1,2.7,24.1c0.3,2.9,0.7,5.8,1,8.7
		c0.3,2.9,0.6,5.7,0.9,8.5c0.6,5.6,1.1,11.2,1.7,16.7c1,11,1.9,21.7,3,32.4c0.6,5.4,1.2,10.7,2,16.1c0.4,2.7,0.8,5.4,1.4,8
		c0.6,2.6,1.2,5.3,2.3,7.6c0.3,0.6,0.6,1.1,0.9,1.4c0.1,0.1,0.3,0.3,0.4,0.3c0,0,0,0,0.1,0c0,0,0.1,0.1-0.1,0l0.1,0l0.5,0.1
		c0.7,0.1,1.4,0.3,2.1,0.4l1.9,0.1c1.3,0.1,2.7,0,4.1,0.1c1.4-0.1,2.8-0.1,4.3-0.2c5.7-0.4,11.6-1.1,17.6-1.9
		c18-2.4,36.3-5,54.8-6.6c9.2-0.8,18.4-1.4,27.6-1.7c9.1-0.4,18.2-0.3,27-1c2.8-0.3,5.7-0.7,7.9-1.8c0.5-0.3,1-0.6,1.3-1
		c0.3-0.4,0.5-0.8,0.7-1.4c0.3-1.1,0.5-2.6,0.6-3.9c0.5-5.6,0.5-11.2,0.4-16.7c-0.1-11-0.5-21.9-1-32.6c-0.5-10.7-1.1-21.4-1.7-32.1
		c-0.7-10.7-1.3-21.5-2.7-32.4c0.1-0.6,0.1-1.4,0-2.3c0-0.4-0.1-0.9-0.1-1.3c0-0.2-0.1-0.4-0.1-0.6l-0.1-0.3c0-0.1-0.3-0.3-0.4-0.4
		c0-0.1,0.1-0.2,0.4-0.1c0.1,0,0.4,0.2,0.5,0.2c0.1,0.1,0.2,0.1,0.3,0.2c0.4,0.4,0.7,0.8,1,1.3c0.6,1.1,1,2.6,1.5,4.3
		c0.8,3.4,1.5,7.7,2,10.8c0.6,3.7,1.3,7.8,1.7,11.4c1.2,11.2,1.5,19.9,2.2,31.6c0.8,11.4,1.3,21.9,1.5,32.4c0.1,3.6,0.3,6.7,0.1,9.9
		c0.2,4.9,0.2,10.2-0.2,15.9c-0.1,1.4-0.3,2.8-0.5,4.4c-0.1,0.4-0.2,0.8-0.3,1.3l-0.3,0.9c-0.1,0.3-0.1,0.4-0.2,0.6
		c-0.6,1.3-1.3,2.3-2.2,3.1c-1.8,1.5-3.5,2-5,2.5c-1.6,0.4-3,0.7-4.5,0.9c-2.5,0.4-4.9,0.8-7.2,0.9c-2.6,0.2-6.6,0.1-8.3,0.2
		C173.7,263.1,173.6,263.1,173.4,263.1z"/>
</g>
<g>
	<path class="st0" d="M153.3,73.8c0.5,0.7,1.6,2.6,1.7,2.4C154.5,75.3,153.6,73.9,153.3,73.8z M157.7,80.2c2,1.7,0.2,1.1,0,0.2
		C157.7,80.4,157.6,80,157.7,80.2z M174.6,105.6c-4.8-7.2-9.2-13.9-14.1-21.2c0.1,0,0.4,0.1,0.3,0.3
		C165.8,92.2,171.2,99.6,174.6,105.6z M159.8,83.1c-0.3,0-0.8-0.8-1-1.3C159.2,82.1,159.3,82.6,159.8,83.1z M150.3,68.2
		c-0.5-0.4,0.5,1.1-0.4-0.1c0.8,2,2.3,3.5,3.2,5.2c-8.6-12.3-17.4-24.9-26.3-37.8l-0.3-0.4l-0.2-0.6c-0.3-0.8-0.9-2-1.5-2.8
		c-0.6-0.9-1.3-1.6-1.9-2.1c-0.6-0.5-1.1-0.6-1.5-0.6c-0.2-0.1-0.5,0.1-0.8,0.1c-0.3,0.1-0.5,0.2-0.8,0.3l-1.5,1l-1.4,1.3
		c-0.5,0.4-0.9,0.8-1.4,1.3l-1.5,1.5c-2,2-4,4-6,6.1C98,50.7,87.7,62,77.6,73.4c-5,5.7-10.1,11.4-15,17.1c-2.4,2.8-4.9,5.6-7.3,8.4
		c-2.4,2.8-4.8,5.5-7.2,8.2c0.2-0.7,1.1-1.1,1.1-1.7c-1.5,1.4-3.1,3.2-4.9,5.1c-1.7,1.8-3.6,3.4-5.3,5.2c-1.9,1.9-3.6,4-5.2,4.5
		c-1.6,1.8-2.9,2.4-4.5,4.2c-0.6-0.3-1.4,0.4-2.5,0.9c0.3-0.5,0.5-0.3,0.6-0.7c-0.8,0.4-1.7,1.4-2.4,1.4l1.6-1.6
		c-0.5-0.2-1.7,1.6-1.8,0.9c0.7-0.8,0.6-1,0.7-1.6c10-10.6,19.5-21.7,29.1-33C64.1,79.5,74,68.4,83.9,57.6
		c7.2-7.8,13.8-14.9,20.6-21.9c1.7-1.8,3.4-3.5,5.2-5.3c1.7-1.7,3.5-3.5,5.7-5.2c0.6-0.3,0.9-0.7,1.7-1c0.7-0.3,1.4-0.7,2.2-0.8
		c1.5-0.4,3.1-0.3,4.7,0.1c1.5,0.5,2.8,1.4,3.9,2.5c1.1,1.1,1.9,2.3,2.7,3.5c0.5,0.9,1,1.9,1.4,3l-0.2-0.4
		c8.8,12.7,17.9,25.7,26.3,38.3c5.9,8.8,11.4,16.9,16.8,25c5.3,8.1,10.5,16.1,15.3,24.8c0,0.6,0.3,1.6,0.2,2c-0.4,0.1-0.9,0-1.4-0.2
		c-0.2-0.1-0.4-0.2-0.6-0.3c-0.3-0.2-0.5-0.5-0.8-0.7c-1.1-1.1-2.2-2.6-3.1-3.7c-1.1-1.3-2.4-2.6-3.4-3.9c-3-4-4.9-7.5-7.9-11.8
		c-3-4.2-5.6-8-8.3-12c-0.9-1.3-1.8-2.4-2.4-3.7c-2.8-3.4-5.3-7.9-8-11.9c-0.6-0.9-1.4-1.6-2-2.4c-0.7-1-1.5-2.5-1.9-3.1L150.3,68.2
		z"/>
</g>
</svg>
