<?xml version="1.0" encoding="utf-8"?>
<!-- Generator: Adobe Illustrator 18.0.0, SVG Export Plug-In . SVG Version: 6.00 Build 0)  -->
<!DOCTYPE svg PUBLIC "-//W3C//DTD SVG 1.1//EN" "http://www.w3.org/Graphics/SVG/1.1/DTD/svg11.dtd">
<svg version="1.1" id="Layer_1" xmlns="http://www.w3.org/2000/svg" xmlns:xlink="http://www.w3.org/1999/xlink" x="0px" y="0px"
	 viewBox="0 0 191 189" enable-background="new 0 0 191 189" xml:space="preserve">
<path fill="#FFF200" d="M95.7,14.3L8,63.7L24.7,71v81.7l71.5,24.7L168,153V69.7l16.3-6L95.7,14.3z M85.3,123.1
	c-0.6,9.6-6.3,14.1-11.6,18.2c-4.5,3.5-12.8,9.1-12.8,9.1s-20-26.8-21.2-33.7s-0.3-17,7.6-17.8s15,12.4,15,12.4s6.2-5.4,12.8-3.1
	C81.7,110.6,85.6,117.2,85.3,123.1z M153.1,116.8c-1.2,7-21.2,33.7-21.2,33.7s-8.4-5.6-12.8-9.1c-5.3-4.2-11-8.7-11.6-18.2
	c-0.4-6,3.5-12.5,10.3-14.8c6.6-2.3,12.8,3.1,12.8,3.1s7.1-13.1,15-12.4S154.3,109.8,153.1,116.8z"/>
</svg>
