<?xml version="1.0" encoding="utf-8"?>
<!-- Generator: Adobe Illustrator 17.1.0, SVG Export Plug-In . SVG Version: 6.00 Build 0)  -->
<!DOCTYPE svg PUBLIC "-//W3C//DTD SVG 1.1//EN" "http://www.w3.org/Graphics/SVG/1.1/DTD/svg11.dtd">
<svg version="1.1" id="Layer_1" xmlns="http://www.w3.org/2000/svg" xmlns:xlink="http://www.w3.org/1999/xlink" x="0px" y="0px"
	 viewBox="0 0 170.1 340.2" enable-background="new 0 0 170.1 340.2" xml:space="preserve">
<g>
	<path d="M85.1,251.7c-44.8,0-81.2-36.4-81.2-81.2s36.4-81.2,81.2-81.2s81.2,36.4,81.2,81.2S129.9,251.7,85.1,251.7z M85.1,92.5
		c-43,0-78.1,35-78.1,78.1s35,78.1,78.1,78.1s78.1-35,78.1-78.1C163.1,127.5,128.1,92.5,85.1,92.5z"/>
</g>
<g>
	<g>
		<path d="M43.7,169.6v-42.4h8.8c3.1,0,5.4,0.2,6.9,0.5c1.5,0.3,2.7,0.9,3.8,1.6c1.4,1,2.4,2.3,3.1,3.9c0.7,1.6,1.1,3.3,1.1,5.2
			c0,2.2-0.6,4.1-1.6,5.6c-1.1,1.5-2.6,2.6-4.7,3.2c2.5,0.4,4.5,1.5,5.9,3.4c1.4,1.9,2.2,4.2,2.2,7.1c0,1.7-0.3,3.3-0.9,4.9
			c-0.6,1.6-1.5,2.9-2.6,4c-1.2,1.2-2.7,2-4.4,2.5c-1.7,0.5-4.7,0.7-8.9,0.7h-8.7V169.6z M48.7,131.6v14.2h3.9
			c3.6,0,6.1-0.5,7.6-1.6c1.4-1.1,2.2-2.8,2.2-5.2c0-2.7-0.7-4.6-2.1-5.7c-1.4-1.1-3.9-1.6-7.7-1.6
			C52.6,131.6,48.7,131.6,48.7,131.6z M48.7,149.7v15.5h3.9c2.7,0,4.6-0.1,5.8-0.3c1.2-0.2,2.1-0.6,2.9-1.1c0.9-0.6,1.6-1.5,2.1-2.6
			c0.5-1.1,0.7-2.3,0.7-3.6c0-1.6-0.3-2.9-0.9-4c-0.6-1.1-1.4-2-2.6-2.7c-0.7-0.4-1.4-0.7-2.4-0.9c-0.9-0.2-2.2-0.2-4.1-0.2h-1.5
			L48.7,149.7L48.7,149.7z"/>
	</g>
</g>
<g>
	<g>
		<path d="M131.3,182.1c-2-2.2-4.2-3.8-6.5-4.9s-4.8-1.6-7.6-1.6c-2.2,0-4.4,0.4-6.6,1.4c-2.1,0.9-4,2.2-5.6,3.8
			c-1.6,1.7-2.8,3.6-3.6,5.6s-1.2,4.4-1.2,6.9c0,2,0.2,3.8,0.7,5.4c0.5,1.7,1.2,3.2,2.2,4.6c1.7,2.4,3.8,4.2,6.2,5.6
			c2.5,1.3,5.2,1.9,8.1,1.9c2.7,0,5.2-0.6,7.6-1.7c2.3-1.1,4.4-2.8,6.4-5v6.7c-2.1,1.5-4.4,2.7-6.8,3.4c-2.4,0.8-4.9,1.2-7.5,1.2
			c-2.2,0-4.4-0.3-6.6-1c-2.1-0.7-4.1-1.6-6-2.9c-3.1-2.1-5.4-4.8-7.1-7.9s-2.4-6.6-2.4-10.3c0-3.2,0.6-6.2,1.6-8.9
			c1.1-2.7,2.7-5.1,5-7.3c2.2-2.1,4.6-3.6,7.2-4.7c2.6-1.1,5.5-1.6,8.6-1.6c2.4,0,4.8,0.4,7.1,1.1c2.3,0.7,4.6,1.9,6.8,3.4v6.7
			H131.3z"/>
	</g>
</g>
<g>
	<rect x="85.4" y="109.1" transform="matrix(-0.7071 -0.7071 0.7071 -0.7071 27.8068 354.2454)" width="3.7" height="124.5"/>
</g>
</svg>
