<?xml version="1.0" encoding="utf-8"?>
<!-- Generator: Adobe Illustrator 18.0.0, SVG Export Plug-In . SVG Version: 6.00 Build 0)  -->
<!DOCTYPE svg PUBLIC "-//W3C//DTD SVG 1.1//EN" "http://www.w3.org/Graphics/SVG/1.1/DTD/svg11.dtd">
<svg version="1.1" id="Layer_1" xmlns="http://www.w3.org/2000/svg" xmlns:xlink="http://www.w3.org/1999/xlink" x="0px" y="0px"
	 viewBox="0 0 303.6 300" enable-background="new 0 0 303.6 300" xml:space="preserve">
<g>
	<path fill="#FCEE22" d="M153.9,280.7c-71.7,0-130-58.3-130-130c0-71.7,58.3-130,130-130c71.7,0,130,58.3,130,130
		C283.9,222.4,225.6,280.7,153.9,280.7z M153.9,25.7c-68.9,0-125,56.1-125,125c0,68.9,56.1,125,125,125c68.9,0,125-56.1,125-125
		C278.9,81.8,222.8,25.7,153.9,25.7z"/>
</g>
<g>
	<g>
		<path fill="#FCEE22" d="M87.7,149.3V81.4h14.1c5,0,8.7,0.3,11,0.8c2.4,0.5,4.4,1.4,6.1,2.6c2.2,1.6,3.8,3.7,5,6.2
			c1.2,2.5,1.8,5.3,1.8,8.3c0,3.6-0.9,6.6-2.6,9c-1.7,2.4-4.2,4.1-7.5,5.1c4,0.6,7.2,2.4,9.5,5.4c2.3,3,3.5,6.7,3.5,11.3
			c0,2.7-0.5,5.3-1.5,7.8c-1,2.5-2.4,4.6-4.1,6.4c-1.9,1.9-4.3,3.2-7.1,4c-2.8,0.8-7.5,1.2-14.2,1.2H87.7z M95.5,88.4v22.7h6.3
			c5.8,0,9.8-0.8,12.2-2.5c2.3-1.7,3.5-4.5,3.5-8.4c0-4.4-1.1-7.4-3.3-9.2c-2.2-1.7-6.3-2.6-12.4-2.6H95.5z M95.5,117.5v24.8h6.3
			c4.3,0,7.4-0.2,9.3-0.5c1.9-0.3,3.4-0.9,4.6-1.8c1.4-1,2.5-2.4,3.3-4.1c0.8-1.8,1.2-3.7,1.2-5.8c0-2.5-0.5-4.6-1.4-6.4
			c-1-1.8-2.3-3.2-4.2-4.3c-1.1-0.6-2.3-1.1-3.8-1.4c-1.4-0.3-3.6-0.4-6.6-0.4h-2.4H95.5z"/>
	</g>
</g>
<g>
	<g>
		<path fill="#FCEE22" d="M227.9,169.2c-3.2-3.5-6.7-6.1-10.4-7.8c-3.7-1.7-7.7-2.5-12.2-2.5c-3.6,0-7.1,0.7-10.5,2.2
			c-3.4,1.5-6.4,3.5-8.9,6.1c-2.6,2.7-4.5,5.7-5.8,9c-1.3,3.3-1.9,7-1.9,11c0,3.2,0.4,6.1,1.2,8.7c0.8,2.7,1.9,5.1,3.5,7.3
			c2.7,3.9,6.1,6.8,10,8.9c4,2.1,8.3,3.1,12.9,3.1c4.3,0,8.3-0.9,12.1-2.7c3.7-1.8,7.1-4.5,10.2-8v10.7c-3.4,2.4-7,4.3-10.9,5.5
			c-3.9,1.3-7.9,1.9-12,1.9c-3.6,0-7.1-0.5-10.5-1.6c-3.4-1.1-6.6-2.6-9.6-4.7c-4.9-3.4-8.7-7.7-11.3-12.7c-2.6-5-3.9-10.5-3.9-16.5
			c0-5.2,0.9-10,2.6-14.3c1.7-4.3,4.4-8.2,8-11.7c3.5-3.3,7.3-5.8,11.5-7.5c4.2-1.7,8.8-2.5,13.8-2.5c3.9,0,7.7,0.6,11.4,1.8
			c3.7,1.2,7.3,3,10.9,5.5V169.2z"/>
	</g>
</g>
<g>
	
		<rect x="154.4" y="52.4" transform="matrix(0.7071 0.7071 -0.7071 0.7071 153.6286 -66.7296)" fill="#FCEE22" width="6" height="199.4"/>
</g>
</svg>
