<?xml version="1.0" encoding="utf-8"?>
<!-- Generator: Adobe Illustrator 18.0.0, SVG Export Plug-In . SVG Version: 6.00 Build 0)  -->
<!DOCTYPE svg PUBLIC "-//W3C//DTD SVG 1.1//EN" "http://www.w3.org/Graphics/SVG/1.1/DTD/svg11.dtd">
<svg version="1.1" id="Layer_1" xmlns="http://www.w3.org/2000/svg" xmlns:xlink="http://www.w3.org/1999/xlink" x="0px" y="0px"
	 viewBox="0 0 595.3 841.9" enable-background="new 0 0 595.3 841.9" xml:space="preserve">
<g>
	<path fill="#FFF200" d="M222.7,343.5c4.5-3.3,6.9-8.9,6.9-16.4c0-8.5-2.1-14.5-6.5-17.8c-4.3-3.3-12.4-5.1-24.1-5.1h-12.2v44.4H199
		C210.2,348.4,218.1,346.6,222.7,343.5z"/>
	<path fill="#FFF200" d="M303.3,174.1c-137.4,0-248.8,111.4-248.8,248.8s111.4,248.8,248.8,248.8s248.9-111.4,248.9-248.8
		S440.8,174.1,303.3,174.1z M171.4,290.3H199c9.8,0,16.8,0.6,21.6,1.6c4.8,1,8.7,2.7,12,5.1c4.3,3.1,7.5,7.3,9.8,12.2
		c2.3,4.9,3.5,10.4,3.5,16c0,7.1-1.8,12.9-5.1,17.6c-3.3,4.7-8.3,8.1-14.7,9.8c7.9,1.2,14.1,4.7,18.7,10.6c4.5,5.8,6.9,13.1,6.9,22
		c0,5.3-1,10.4-2.9,15.3s-4.7,9-8.1,12.4c-3.7,3.7-8.5,6.3-13.9,7.9c-5.4,1.6-14.7,2.3-27.6,2.3h-27.6V290.3H171.4z M444.9,461.7
		c-6.3-6.9-13.1-12-20.2-15.3c-7.3-3.3-15.1-4.9-23.7-4.9c-7.1,0-13.9,1.4-20.6,4.3c-6.7,2.7-12.4,6.9-17.2,11.8
		c-5.1,5.3-8.9,11.2-11.4,17.6c-2.5,6.5-3.7,13.7-3.7,21.6c0,6,0.8,11.8,2.3,17c1.6,5.1,3.7,10,6.9,14.3
		c5.3,7.5,11.8,13.3,19.6,17.4s16,6,25.1,6c8.5,0,16.2-1.8,23.5-5.3c7.3-3.5,13.9-8.7,19.8-15.7v21c-6.7,4.7-13.7,8.5-21.2,10.8
		c-7.7,2.3-15.5,3.7-23.5,3.7c-7.1,0-13.7-1-20.4-3.1c-6.7-2.1-12.9-5.1-18.7-9c-9.6-6.7-17-14.9-22.2-24.7
		c-5.1-9.8-7.7-20.6-7.7-32.2c0-10.2,1.8-19.5,5.1-27.8s8.7-15.9,15.7-22.8c6.7-6.5,14.3-11.4,22.4-14.7c8.3-3.1,17.2-4.9,26.8-4.9
		c7.7,0,15.1,1.2,22.4,3.5c7.3,2.3,14.3,5.8,21.2,10.8v20.4H444.9z M173.7,570l-10.8-10.8L438,283.9l10.8,10.8L173.7,570z"/>
	<path fill="#FFF200" d="M217.1,408c3.7-0.6,6.7-1.8,8.9-3.5c2.7-1.9,4.9-4.7,6.5-8.1c1.6-3.5,2.3-7.3,2.3-11.4c0-4.9-1-9-2.7-12.5
		c-1.9-3.5-4.5-6.3-8.3-8.3c-2.1-1.2-4.5-2.1-7.3-2.7c-2.7-0.6-7.1-0.8-12.9-0.8h-4.7h-12.2v48.4h12.2
		C207.3,409,213.3,408.8,217.1,408z"/>
</g>
</svg>
