<?xml version="1.0" encoding="utf-8"?>
<!-- Generator: Adobe Illustrator 17.1.0, SVG Export Plug-In . SVG Version: 6.00 Build 0)  -->
<!DOCTYPE svg PUBLIC "-//W3C//DTD SVG 1.1//EN" "http://www.w3.org/Graphics/SVG/1.1/DTD/svg11.dtd">
<svg version="1.1" id="Layer_1" xmlns="http://www.w3.org/2000/svg" xmlns:xlink="http://www.w3.org/1999/xlink" x="0px" y="0px"
	 viewBox="0 0 303.6 300" enable-background="new 0 0 303.6 300" xml:space="preserve">
<g>
	<path fill="#FFFFFF" d="M113.6,110.5c2.3-1.7,3.5-4.5,3.5-8.4c0-4.3-1.1-7.4-3.3-9.1c-2.2-1.7-6.3-2.6-12.3-2.6h-6.2V113h6.2
		C107.2,113,111.2,112.1,113.6,110.5z"/>
	<path fill="#FFFFFF" d="M154.7,24.1C84.6,24.1,27.8,80.9,27.8,151c0,70.1,56.8,126.9,126.9,126.9c70.1,0,126.9-56.8,126.9-126.9
		C281.6,80.9,224.8,24.1,154.7,24.1z M87.4,83.4h14.1c5,0,8.6,0.3,11,0.8c2.4,0.5,4.4,1.4,6.1,2.6c2.2,1.6,3.8,3.7,5,6.2
		c1.2,2.5,1.8,5.3,1.8,8.2c0,3.6-0.9,6.6-2.6,9c-1.7,2.4-4.2,4.1-7.5,5c4,0.6,7.2,2.4,9.5,5.4c2.3,3,3.5,6.7,3.5,11.2
		c0,2.7-0.5,5.3-1.5,7.8c-1,2.5-2.4,4.6-4.1,6.3c-1.9,1.9-4.3,3.2-7.1,4c-2.8,0.8-7.5,1.2-14.1,1.2H87.4V83.4z M226.9,170.8
		c-3.2-3.5-6.7-6.1-10.3-7.8c-3.7-1.7-7.7-2.5-12.1-2.5c-3.6,0-7.1,0.7-10.5,2.2c-3.4,1.4-6.3,3.5-8.8,6c-2.6,2.7-4.5,5.7-5.8,9
		c-1.3,3.3-1.9,7-1.9,11c0,3.1,0.4,6,1.2,8.7c0.8,2.6,1.9,5.1,3.5,7.3c2.7,3.8,6,6.8,10,8.9c4,2.1,8.2,3.1,12.8,3.1
		c4.3,0,8.3-0.9,12-2.7c3.7-1.8,7.1-4.4,10.1-8v10.7c-3.4,2.4-7,4.3-10.8,5.5c-3.9,1.2-7.9,1.9-12,1.9c-3.6,0-7-0.5-10.4-1.6
		c-3.4-1.1-6.6-2.6-9.5-4.6c-4.9-3.4-8.7-7.6-11.3-12.6c-2.6-5-3.9-10.5-3.9-16.4c0-5.2,0.9-9.9,2.6-14.2c1.7-4.3,4.4-8.1,8-11.6
		c3.4-3.3,7.3-5.8,11.4-7.5c4.2-1.6,8.8-2.5,13.7-2.5c3.9,0,7.7,0.6,11.4,1.8c3.7,1.2,7.3,3,10.8,5.5V170.8z M88.6,226l-5.5-5.5
		L223.4,80.1l5.5,5.5L88.6,226z"/>
	<path fill="#FFFFFF" d="M110.7,143.4c1.9-0.3,3.4-0.9,4.5-1.8c1.4-1,2.5-2.4,3.3-4.1c0.8-1.8,1.2-3.7,1.2-5.8
		c0-2.5-0.5-4.6-1.4-6.4c-1-1.8-2.3-3.2-4.2-4.2c-1.1-0.6-2.3-1.1-3.7-1.4c-1.4-0.3-3.6-0.4-6.6-0.4h-2.4h-6.2v24.7h6.2
		C105.7,143.9,108.8,143.8,110.7,143.4z"/>
</g>
</svg>
