<?xml version="1.0" encoding="utf-8"?>
<!-- Generator: Adobe Illustrator 17.1.0, SVG Export Plug-In . SVG Version: 6.00 Build 0)  -->
<!DOCTYPE svg PUBLIC "-//W3C//DTD SVG 1.1//EN" "http://www.w3.org/Graphics/SVG/1.1/DTD/svg11.dtd">
<svg version="1.1" id="Layer_1" xmlns="http://www.w3.org/2000/svg" xmlns:xlink="http://www.w3.org/1999/xlink" x="0px" y="0px"
	 viewBox="0 0 243 30" enable-background="new 0 0 243 30" xml:space="preserve">
<g>
	<g>
		<path d="M30.8,11.3c0-1.9,4-1.6,5.7-0.6l0.6-3.5c0,0-1.8-0.7-3.6-0.7c-2,0-6.8,0.9-6.8,5.4c0,4.2,5.6,4.3,5.6,6.5s-5,1.8-6.7,0.4
			l-0.6,3.7c0,0,1.8,0.9,4.6,0.9c2.8,0,6.9-1.5,6.9-5.6C36.5,13.6,30.8,13.2,30.8,11.3z M242.5,11.8V0.5h-11.3v17h-5.8v1.6h5.8v10.3
			h11.3V17.5h-7.3v5.7h-1.1c-0.7,0-0.8-0.3-0.8-1V7.2c0-0.5,0.4-0.6,0.8-0.6h1.1v5.2H242.5z M20.9,6.8l-2.5,16.4h4.1L25,6.8H20.9z
			 M15,6.8L11.1,18l-0.5-2.4l0,0L9.3,8.2c0,0-0.2-1.5-1.9-1.5H1L0.9,7c0,0,0,0,0.1,0c0,0,0,0,0,0c0.1,0,0.1,0,0.2,0.1c0,0,0,0,0,0
			c0.1,0,0.2,0.1,0.4,0.1c0,0,0,0,0,0c0.1,0,0.3,0.1,0.5,0.2c0,0,0,0,0.1,0C2.6,7.6,3,7.8,3.5,8c0,0,0.1,0,0.1,0
			C3.8,8.1,4,8.3,4.3,8.4c0,0,0,0,0,0c0.2,0.1,0.5,0.3,0.8,0.4c0,0,0,0,0.1,0l3.5,14.2h4.2l6.5-16.4H15z M223,23.2h-1.3
			c-0.5,0-0.7-0.2-0.7-0.7v-4.1c0-0.4,0.2-0.9,0.7-0.9h3.6V3.3c0-1.8,1.4-2.7,3-2.8h-11.5c-1.6,0-3.2,1.1-3.2,2.8v23.1
			c0,1.9,1.4,3,3.2,3h11.5c-1.8-0.2-3-1-3-3v-7.2H223V23.2z M221.1,7.3c0-0.4,0.3-0.7,0.7-0.7h1.3v5.2h-2V7.3z M79.3,16.1
			c-0.5,0.3-0.6,0.9-0.1,1.1c0.5,0.2,1.2-0.1,1.3-0.6l0.1-0.6C80.4,15.9,79.8,15.8,79.3,16.1z M44.1,6.8c-1.5,0-1.9,1.2-1.9,1.2
			l-6,15.2h4.2l0.8-2.4h5.2l0.5,2.4h3.7L47.4,6.8H44.1z M42.4,17.4l2.1-6.1l1.2,6.1H42.4z M92.2,14c-0.6,0-1,0.3-1.2,1h1.8
			C92.9,14.5,92.8,14,92.2,14z M151.2,15.9c0-1.2,0.5-1.9,1.5-1.9c0.2,0,0.5,0,0.7,0.1l0.1-1.7c-0.2,0-0.5-0.1-0.7-0.1
			c-0.9,0-1.4,0.5-1.7,1.2h0v-1.1h-1.9v6h2V15.9z M157,18.6c2,0,3.4-1.2,3.4-3.1c0-2-1.5-3.2-3.4-3.2c-2,0-3.4,1.2-3.4,3.2
			C153.5,17.4,155,18.6,157,18.6z M157,13.8c0.9,0,1.3,0.8,1.3,1.7c0,0.9-0.4,1.7-1.3,1.7c-0.9,0-1.3-0.8-1.3-1.7
			C155.6,14.5,156,13.8,157,13.8z M103.5,0.5c-3.5,0-6.7,1.2-9.3,3.2c1.9,1.8,3.4,4.1,4.2,6.7l-1.2,0c-0.8-2.3-2.1-4.3-3.9-6
			c-1.7,1.6-3.1,3.7-3.8,6h-1.2c0.8-2.6,2.2-4.9,4.2-6.7c-2.5-2-5.7-3.3-9.2-3.3C75.1,0.5,68.5,7,68.5,15c0,8,6.6,14.5,14.7,14.5
			c3.5,0,6.7-1.2,9.2-3.3c-1.9-1.8-3.4-4.1-4.2-6.7l1.2,0c0.8,2.3,2.1,4.3,3.8,6c1.7-1.6,3.1-3.7,3.9-6l1.2,0
			c-0.8,2.6-2.3,4.9-4.2,6.7c2.5,2,5.7,3.2,9.3,3.2c8.1,0,14.7-6.5,14.7-14.5C118.2,7,111.6,0.5,103.5,0.5z M75.2,18.3l0.9-4.5
			L74,18.3h-1.4l-0.4-4.7l-0.9,4.7h-1.5l1.3-6.5h2.4l0.3,3.9l1.8-3.9h2.4l-1.2,6.5H75.2z M80.4,18.3L80.2,18
			c-0.3,0.2-0.5,0.3-1.2,0.3c-0.8,0-1.7-0.5-1.6-1.6c0.4-2.2,3.1-1.8,3.5-1.9c0.2-0.8-0.4-0.7-0.9-0.7c-0.5,0-1.5,0.1-1.8,0.2
			l0.2-1.2c1-0.2,1.5-0.2,1.9-0.2c2.5,0,2.2,1.8,2.1,2.5l-0.6,2.9H80.4z M86.4,16.8c-0.2,1.6-2,1.5-2.4,1.5c-0.5,0-1.1,0-1.7-0.2
			l0.2-1.1c0.7,0.2,1.7,0.1,2,0.1c0.5,0,0.6-0.6,0.2-0.8c-0.3-0.1-0.6-0.4-1.2-0.6c-0.4-0.2-0.7-0.6-0.5-1.5c0.3-1.3,2-1.3,2.3-1.3
			c0.2,0,0.8-0.1,1.5,0.2l-0.3,1.1c-0.4-0.1-1.1-0.1-1.5-0.1c-0.6,0.1-0.3,0.7,0,0.8c0.3,0.1,0.8,0.4,1.1,0.6
			C86.2,15.7,86.5,16.1,86.4,16.8z M89,18.1c-0.3,0.2-0.8,0.3-1.1,0.3c-0.3,0-1.5-0.2-1.2-1.7l1-5.1h1.5L88.9,13h0.8l-0.3,1.2h-0.8
			l-0.4,2.2c-0.1,0.4,0,0.8,0.8,0.7L89,18.1z M92.3,17.1c0.6,0,1.4-0.1,1.7-0.1l-0.2,1.1c-0.4,0.2-1.3,0.3-1.9,0.2
			c-2.6,0-2.5-2.4-2.5-2.7c0.1-0.3,0.4-2.7,2.8-2.7c2.6,0,2.2,2.1,2,3h-3.2C90.7,17.2,91.7,17.1,92.3,17.1z M96.1,15.9l-0.5,2.4
			h-1.5l1-5.3h1.3l0.1,0.5c0.2-0.3,0.7-0.5,1.4-0.5l-0.4,1.4C97.2,14.4,96.5,14.3,96.1,15.9z M101.7,16.7l0.4,1.3
			c-0.5,0.2-1,0.3-1.8,0.3c-1.5,0-3.2-1.3-2.4-4.1c0.6-2,2.3-2.7,3.3-2.7c1.2,0,1.7,0.4,2,0.9l-1,1c-0.4-0.2-0.6-0.3-1.1-0.3
			c-0.5,0-1.6,0.5-1.8,1.8C99.1,16.4,100.2,17.2,101.7,16.7z M105.4,18.3l-0.2-0.3c-0.3,0.2-0.5,0.3-1.2,0.3c-0.8,0-1.7-0.5-1.6-1.6
			c0.4-2.2,3.1-1.8,3.5-1.9c0.2-0.8-0.4-0.7-0.9-0.7c-0.5,0-1.5,0.1-1.8,0.2l0.2-1.2c1-0.2,1.5-0.2,1.9-0.2c2.5,0,2.2,1.8,2.1,2.5
			l-0.6,2.9H105.4z M109.4,15.9l-0.5,2.4h-1.5l1-5.3h1.3l0.1,0.5c0.2-0.3,0.7-0.5,1.4-0.5l-0.4,1.4
			C110.5,14.4,109.8,14.3,109.4,15.9z M115.3,11.6h1.6l-1.3,6.8H114l-0.2-0.4c-0.3,0.2-0.8,0.4-1.3,0.4c-1.1,0-2-1.5-1.6-3.1
			c0.7-2.4,2-2.3,2.8-2.3c0.7,0,0.9,0.4,1.2,0.6L115.3,11.6z M140.4,18.4c0.8,0,1.5-0.3,2-1h0v0.3c0,1.2-0.6,1.7-1.8,1.7
			c-0.9,0-1.4-0.2-2-0.5l-0.1,1.6c0.5,0.2,1.3,0.4,2.3,0.4c2.4,0,3.6-0.8,3.6-3.3v-5.3h-1.8v1.1h0c-0.4-0.7-1.1-1.2-2-1.2
			c-1.8,0-2.7,1.3-2.7,3.1C137.7,17.2,138.8,18.4,140.4,18.4z M141,13.9c0.9,0,1.3,0.8,1.3,1.4c0,0.9-0.6,1.5-1.3,1.5
			c-0.6,0-1.2-0.5-1.2-1.5C139.9,14.6,140.3,13.9,141,13.9z M147.7,12.4h-2v6h2V12.4z M147.7,9.9h-2v1.5h2V9.9z M183.6,3.5h-46.2
			c-2.3,0-4.2,1.9-4.2,4.3v15.3c0,2.4,1.9,4.3,4.2,4.3h46.2c2.3,0,4.2-1.9,4.2-4.3V7.8C187.8,5.4,185.9,3.5,183.6,3.5z M161.7,25.7
			h-24.2c-1.5,0-2.6-1.2-2.6-2.7v-15c0-1.5,1.2-2.7,2.6-2.7h24.2V25.7z M167.4,18.6c-0.7,0-1.5-0.3-1.9-1h0v3.3h-2v-8.4h1.9v1.1h0
			c0.4-0.8,1.3-1.2,2.2-1.2c1.6,0,2.5,1.6,2.5,3C170.1,17.1,169.2,18.6,167.4,18.6z M175.1,18.4c0-0.3,0-0.6,0-0.9h0
			c-0.5,0.8-1,1.1-1.9,1.1c-1.2,0-2.2-0.6-2.2-1.9c0-1.8,2-2.1,3.1-2.1c0.3,0,0.7,0,1,0.1c0-0.8-0.6-1-1.4-1c-0.7,0-1.3,0.1-1.9,0.5
			l0-1.4c0.7-0.3,1.5-0.4,2.4-0.4c1.5,0,2.8,0.7,2.8,2.5V17c0,0.5,0,0.9,0.1,1.4H175.1z M182.1,18c-0.6,1.5-1,3-2.9,3
			c-0.4,0-0.9,0-1.3-0.1l0.1-1.6c0.3,0.1,0.5,0.1,0.8,0.1c0.5,0,0.9-0.3,1-0.8l-2.4-6.2h2.2l1.3,3.9h0l1.2-3.9h2L182.1,18z
			 M166.7,13.9c-0.7,0-1.2,0.7-1.2,1.6c0,0.9,0.6,1.5,1.2,1.5c0.8,0,1.2-0.7,1.2-1.6C168,14.6,167.5,13.9,166.7,13.9z M172.9,16.5
			c0,0.4,0.4,0.7,0.8,0.7c0.8,0,1.3-0.7,1.3-1.4c-0.3,0-0.6,0-0.9,0C173.4,15.7,172.9,16,172.9,16.5z M104.4,16.1
			c-0.5,0.3-0.6,0.9-0.1,1.1c0.5,0.2,1.2-0.1,1.3-0.6l0.1-0.6C105.4,15.9,104.9,15.8,104.4,16.1z M112.5,15.5
			c-0.2,0.8,0.2,1.3,0.8,1.3c0.6,0,0.9-0.4,1.2-1.1c0.2-0.5,0.1-1.1-0.1-1.3C113.9,13.9,112.8,14.4,112.5,15.5z"/>
	</g>
</g>
</svg>
