<?xml version="1.0" encoding="utf-8"?>
<!-- Generator: Adobe Illustrator 17.1.0, SVG Export Plug-In . SVG Version: 6.00 Build 0)  -->
<!DOCTYPE svg PUBLIC "-//W3C//DTD SVG 1.1//EN" "http://www.w3.org/Graphics/SVG/1.1/DTD/svg11.dtd">
<svg version="1.1" id="Layer_1" xmlns="http://www.w3.org/2000/svg" xmlns:xlink="http://www.w3.org/1999/xlink" x="0px" y="0px"
	 viewBox="0 0 400 400" enable-background="new 0 0 400 400" xml:space="preserve">
<g>
	<g>
		<path d="M50.7,193.9c0-3.1,6.6-2.6,9.4-1l1-5.8c0,0-3-1.2-5.9-1.2c-3.3,0-11.2,1.5-11.2,8.9c0,6.9,9.2,7.1,9.2,10.7
			c0,3.6-8.2,3-11,0.7l-1,6.1c0,0,3,1.5,7.6,1.5s11.4-2.5,11.4-9.2C60.1,197.7,50.7,197,50.7,193.9z M399.2,194.7v-18.6h-18.6v28
			H371v2.6h9.5v17h18.6v-19.6h-12v9.4h-1.8c-1.2,0-1.3-0.5-1.3-1.6v-24.7c0-0.8,0.7-1,1.3-1h1.8v8.6
			C387.2,194.7,399.2,194.7,399.2,194.7z M34.4,186.5l-4.1,27H37l4.1-27H34.4z M24.7,186.5l-6.4,18.4l-0.8-4l0,0l-2.1-12.2
			c0,0-0.3-2.5-3.1-2.5H1.6l-0.2,0.5c0,0,0,0,0.2,0l0,0c0.2,0,0.2,0,0.3,0.2l0,0c0.2,0,0.3,0.2,0.7,0.2l0,0c0.2,0,0.5,0.2,0.8,0.3
			c0,0,0,0,0.2,0c0.7,0.3,1.3,0.7,2.1,1h0.2c0.3,0.2,0.7,0.5,1.2,0.7l0,0c0.3,0.2,0.8,0.5,1.3,0.7c0,0,0,0,0.2,0l5.8,23.4h6.9
			l10.7-27h-7.2V186.5z M367.1,213.5h-2.1c-0.8,0-1.2-0.3-1.2-1.2v-6.7c0-0.7,0.3-1.5,1.2-1.5h5.9v-23.4c0-3,2.3-4.4,4.9-4.6h-18.9
			c-2.6,0-5.3,1.8-5.3,4.6v38c0,3.1,2.3,4.9,5.3,4.9h18.9c-3-0.3-4.9-1.6-4.9-4.9v-11.9h-3.8V213.5z M364,187.3
			c0-0.7,0.5-1.2,1.2-1.2h2.1v8.6H364V187.3z M130.5,201.8c-0.8,0.5-1,1.5-0.2,1.8s2-0.2,2.1-1l0.2-1
			C132.3,201.5,131.4,201.3,130.5,201.8z M72.6,186.5c-2.5,0-3.1,2-3.1,2l-9.9,25h6.9l1.3-4h8.6l0.8,4h6.1l-5.3-27H72.6z M69.8,204
			l3.5-10l2,10H69.8z M151.8,198.4c-1,0-1.6,0.5-2,1.6h3C152.9,199.2,152.8,198.4,151.8,198.4z M248.9,201.5c0-2,0.8-3.1,2.5-3.1
			c0.3,0,0.8,0,1.2,0.2l0.2-2.8c-0.3,0-0.8-0.2-1.2-0.2c-1.5,0-2.3,0.8-2.8,2l0,0v-1.8h-3.1v9.9h3.3L248.9,201.5L248.9,201.5z
			 M258.4,205.9c3.3,0,5.6-2,5.6-5.1c0-3.3-2.5-5.3-5.6-5.3c-3.3,0-5.6,2-5.6,5.3C252.7,204,255.1,205.9,258.4,205.9z M258.4,198
			c1.5,0,2.1,1.3,2.1,2.8s-0.7,2.8-2.1,2.8s-2.1-1.3-2.1-2.8C256.1,199.2,256.8,198,258.4,198z M170.4,176.1c-5.8,0-11,2-15.3,5.3
			c3.1,3,5.6,6.7,6.9,11h-2c-1.3-3.8-3.5-7.1-6.4-9.9c-2.8,2.6-5.1,6.1-6.3,9.9h-2c1.3-4.3,3.6-8.1,6.9-11
			c-4.1-3.3-9.4-5.4-15.1-5.4c-13.5,0.2-24.4,10.9-24.4,24c0,13.2,10.9,23.9,24.2,23.9c5.8,0,11-2,15.1-5.4c-3.1-3-5.6-6.7-6.9-11h2
			c1.3,3.8,3.5,7.1,6.3,9.9c2.8-2.6,5.1-6.1,6.4-9.9h2c-1.3,4.3-3.8,8.1-6.9,11c4.1,3.3,9.4,5.3,15.3,5.3
			c13.3,0,24.2-10.7,24.2-23.9C194.6,186.8,183.7,176.1,170.4,176.1z M123.8,205.4l1.5-7.4l-3.5,7.4h-2.3l-0.7-7.7l-1.5,7.7h-2.5
			l2.1-10.7h4l0.5,6.4l3-6.4h4l-2,10.7H123.8z M132.3,205.4l-0.3-0.5c-0.5,0.3-0.8,0.5-2,0.5c-1.3,0-2.8-0.8-2.6-2.6
			c0.7-3.6,5.1-3,5.8-3.1c0.3-1.3-0.7-1.2-1.5-1.2s-2.5,0.2-3,0.3l0.3-2c1.6-0.3,2.5-0.3,3.1-0.3c4.1,0,3.6,3,3.5,4.1l-1,4.8H132.3z
			 M142.2,203c-0.3,2.6-3.3,2.5-4,2.5c-0.8,0-1.8,0-2.8-0.3l0.3-1.8c1.2,0.3,2.8,0.2,3.3,0.2c0.8,0,1-1,0.3-1.3c-0.5-0.2-1-0.7-2-1
			c-0.7-0.3-1.2-1-0.8-2.5c0.5-2.1,3.3-2.1,3.8-2.1c0.3,0,1.3-0.2,2.5,0.3l-0.5,1.8c-0.7-0.2-1.8-0.2-2.5-0.2c-1,0.2-0.5,1.2,0,1.3
			s1.3,0.7,1.8,1C141.9,201.2,142.4,201.8,142.2,203z M146.5,205.1c-0.5,0.3-1.3,0.5-1.8,0.5c-0.5,0-2.5-0.3-2-2.8l1.6-8.4h2.5
			l-0.5,2.3h1.3l-0.5,2h-1.3l-0.7,3.6c-0.2,0.7,0,1.3,1.3,1.2V205.1z M151.9,203.5c1,0,2.3-0.2,2.8-0.2l-0.3,1.8
			c-0.7,0.3-2.1,0.5-3.1,0.3c-4.3,0-4.1-4-4.1-4.4c0.2-0.5,0.7-4.4,4.6-4.4c4.3,0,3.6,3.5,3.3,4.9h-5.3
			C149.3,203.6,150.9,203.5,151.9,203.5z M158.2,201.5l-0.8,4h-2.5l1.6-8.7h2.1l0.2,0.8c0.3-0.5,1.2-0.8,2.3-0.8l-0.7,2.3
			C160,199,158.8,198.8,158.2,201.5z M167.4,202.8l0.7,2.1c-0.8,0.3-1.6,0.5-3,0.5c-2.5,0-5.3-2.1-4-6.7c1-3.3,3.8-4.4,5.4-4.4
			c2,0,2.8,0.7,3.3,1.5l-1.6,1.6c-0.7-0.3-1-0.5-1.8-0.5c-0.8,0-2.6,0.8-3,3C163.1,202.3,164.9,203.6,167.4,202.8z M173.5,205.4
			l-0.3-0.5c-0.5,0.3-0.8,0.5-2,0.5c-1.3,0-2.8-0.8-2.6-2.6c0.7-3.6,5.1-3,5.8-3.1c0.3-1.3-0.7-1.2-1.5-1.2c-0.8,0-2.5,0.2-3,0.3
			l0.3-2c1.6-0.3,2.5-0.3,3.1-0.3c4.1,0,3.6,3,3.5,4.1l-1,4.8H173.5z M180.1,201.5l-0.8,4h-2.5l1.6-8.7h2.1l0.2,0.8
			c0.3-0.5,1.2-0.8,2.3-0.8l-0.7,2.3C181.9,199,180.7,198.8,180.1,201.5z M189.8,194.4h2.6l-2.1,11.2h-2.6l-0.3-0.7
			c-0.5,0.3-1.3,0.7-2.1,0.7c-1.8,0-3.3-2.5-2.6-5.1c1.2-4,3.3-3.8,4.6-3.8c1.2,0,1.5,0.7,2,1L189.8,194.4z M231.1,205.6
			c1.3,0,2.5-0.5,3.3-1.6l0,0v0.5c0,2-1,2.8-3,2.8c-1.5,0-2.3-0.3-3.3-0.8l-0.2,2.6c0.8,0.3,2.1,0.7,3.8,0.7c4,0,5.9-1.3,5.9-5.4
			v-8.7h-3v1.8l0,0c-0.7-1.2-1.8-2-3.3-2c-3,0-4.4,2.1-4.4,5.1C226.7,203.6,228.5,205.6,231.1,205.6z M232.1,198.2
			c1.5,0,2.1,1.3,2.1,2.3c0,1.5-1,2.5-2.1,2.5c-1,0-2-0.8-2-2.5C230.3,199.3,230.9,198.2,232.1,198.2z M243.1,195.7h-3.3v9.9h3.3
			V195.7z M243.1,191.6h-3.3v2.5h3.3V191.6z M302.2,181.1h-76c-3.8,0-6.9,3.1-6.9,7.1v25.2c0,4,3.1,7.1,6.9,7.1h76
			c3.8,0,6.9-3.1,6.9-7.1v-25.2C309.1,184.2,306,181.1,302.2,181.1z M266.2,217.6h-39.8c-2.5,0-4.3-2-4.3-4.4v-24.7
			c0-2.5,2-4.4,4.3-4.4h39.8V217.6z M275.6,205.9c-1.2,0-2.5-0.5-3.1-1.6l0,0v5.4h-3.3v-13.8h3.1v1.8l0,0c0.7-1.3,2.1-2,3.6-2
			c2.6,0,4.1,2.6,4.1,4.9C280,203.5,278.5,205.9,275.6,205.9z M288.2,205.6c0-0.5,0-1,0-1.5l0,0c-0.8,1.3-1.6,1.8-3.1,1.8
			c-2,0-3.6-1-3.6-3.1c0-3,3.3-3.5,5.1-3.5c0.5,0,1.2,0,1.6,0.2c0-1.3-1-1.6-2.3-1.6c-1.2,0-2.1,0.2-3.1,0.8v-2.3
			c1.2-0.5,2.5-0.7,4-0.7c2.5,0,4.6,1.2,4.6,4.1v3.5c0,0.8,0,1.5,0.2,2.3H288.2z M299.8,204.9c-1,2.5-1.6,4.9-4.8,4.9
			c-0.7,0-1.5,0-2.1-0.2l0.2-2.6c0.5,0.2,0.8,0.2,1.3,0.2c0.8,0,1.5-0.5,1.6-1.3l-4-10.2h3.6l2.1,6.4l0,0l2-6.4h3.3L299.8,204.9z
			 M274.4,198.2c-1.2,0-2,1.2-2,2.6c0,1.5,1,2.5,2,2.5c1.3,0,2-1.2,2-2.6C276.5,199.3,275.7,198.2,274.4,198.2z M284.6,202.5
			c0,0.7,0.7,1.2,1.3,1.2c1.3,0,2.1-1.2,2.1-2.3c-0.5,0-1,0-1.5,0C285.4,201.2,284.6,201.6,284.6,202.5z M171.9,201.8
			c-0.8,0.5-1,1.5-0.2,1.8s2-0.2,2.1-1l0.2-1C173.5,201.5,172.7,201.3,171.9,201.8z M185.2,200.8c-0.3,1.3,0.3,2.1,1.3,2.1
			c1,0,1.5-0.7,2-1.8c0.3-0.8,0.2-1.8-0.2-2.1C187.5,198.2,185.7,199,185.2,200.8z"/>
	</g>
</g>
</svg>
