<?xml version="1.0" encoding="utf-8"?>
<!-- Generator: Adobe Illustrator 18.0.0, SVG Export Plug-In . SVG Version: 6.00 Build 0)  -->
<!DOCTYPE svg PUBLIC "-//W3C//DTD SVG 1.1//EN" "http://www.w3.org/Graphics/SVG/1.1/DTD/svg11.dtd">
<svg version="1.1" id="Ebene_1" xmlns="http://www.w3.org/2000/svg" xmlns:xlink="http://www.w3.org/1999/xlink" x="0px" y="0px"
	 viewBox="0 0 323.9 323.9" enable-background="new 0 0 323.9 323.9" xml:space="preserve">
<g>
	<path d="M161.9,323.9L0,161.9L161.9,0l161.9,161.9L161.9,323.9z M4.2,161.9l157.7,157.7l157.7-157.7L161.9,4.2L4.2,161.9z"/>
</g>
<g>
	<g>
		<path d="M146.5,99.2h-8.2v21.5h-5V99.2h-8.3v-4.4h21.5V99.2z"/>
		<path d="M175.1,94.8v25.9h-5v-11h-11.7v11h-5V94.8h5v10.5h11.7V94.8H175.1z"/>
		<path d="M202.1,116.2v4.4h-18V94.8h17.6v4.4h-12.6v6.2h10.9v4.1h-10.9v6.7H202.1z"/>
	</g>
	<g>
		<path d="M82.4,141h2.9l6.1,14.8l6.1-14.8h2.9l-7.2,17.2l8.6,19.9l15.6-37.4h3.2l-17.5,40.9h-2.7l-9-21l-9,21h-2.7l-17.4-40.9h3.2
			l15.7,37.4l8.5-19.9L82.4,141z"/>
		<path d="M157.3,140.7v40.9h-2.9V162h-25.8v19.6h-2.9v-40.9h2.9v18.6h25.8v-18.6H157.3z"/>
		<path d="M173.9,181.6v-40.8h2.9v40.8H173.9z"/>
		<path d="M222.1,143.4h-15v38.2h-2.9v-38.2h-15v-2.6h32.9V143.4z"/>
		<path d="M261.6,178.9v2.6h-27.2v-40.9h26.7v2.6h-23.8v16.1h20.8v2.5h-20.8v17H261.6z"/>
	</g>
	<g>
		<path d="M122.2,207.6h-8.2v21.5h-5v-21.5h-8.3v-4.4h21.5V207.6z"/>
		<path d="M124,229.1l10.2-25.9h4.1l10.2,25.9h-5.3l-2.4-6.5h-9.1l-2.4,6.5H124z M136.3,208.6l-3.7,10.5h7.3L136.3,208.6z"/>
		<path d="M175.7,222.4c0,1.1-0.2,2.1-0.7,2.9c-0.4,0.8-1,1.5-1.8,2.1c-0.8,0.6-1.7,1-2.7,1.3c-1,0.3-2.1,0.4-3.2,0.4h-12.5v-25.9
			h13.8c0.9,0,1.7,0.2,2.4,0.6c0.7,0.4,1.3,0.9,1.9,1.5c0.5,0.6,0.9,1.3,1.2,2.1c0.3,0.8,0.4,1.6,0.4,2.4c0,1.3-0.3,2.4-0.9,3.6
			s-1.6,1.9-2.8,2.5c1.5,0.4,2.7,1.2,3.5,2.4C175.3,219.3,175.7,220.7,175.7,222.4z M159.9,207.5v6.5h6.7c0.9,0,1.6-0.3,2.2-0.9
			c0.6-0.6,0.9-1.4,0.9-2.4c0-1-0.3-1.8-0.8-2.4s-1.2-0.9-2-0.9H159.9z M170.7,221.5c0-0.5-0.1-0.9-0.2-1.3
			c-0.2-0.4-0.4-0.8-0.6-1.1c-0.3-0.3-0.6-0.6-0.9-0.7c-0.4-0.2-0.8-0.3-1.2-0.3h-7.7v6.8h7.5c0.5,0,0.9-0.1,1.3-0.3
			c0.4-0.2,0.7-0.4,1-0.7c0.3-0.3,0.5-0.7,0.7-1.1S170.7,221.9,170.7,221.5z"/>
		<path d="M183.3,229.1v-25.9h5v21.5h13.2v4.4H183.3z"/>
		<path d="M226.4,224.7v4.4h-18v-25.9h17.6v4.4h-12.6v6.2h10.9v4.1h-10.9v6.7H226.4z"/>
	</g>
</g>
<g>
	<path d="M161.9,297.4c-74.7,0-135.5-60.8-135.5-135.5S87.2,26.4,161.9,26.4s135.5,60.8,135.5,135.5S236.6,297.4,161.9,297.4z
		 M161.9,29.4c-73.1,0-132.5,59.4-132.5,132.5s59.4,132.5,132.5,132.5S294.4,235,294.4,161.9S235,29.4,161.9,29.4z"/>
</g>
</svg>
